<svg xmlns="http://www.w3.org/2000/svg" xmlns:rdkit="http://www.rdkit.org/xml" xmlns:xlink="http://www.w3.org/1999/xlink" version="1.1" baseProfile="full" xml:space="preserve" width="800px" height="800px" viewBox="0 0 800 800">
<!-- END OF HEADER -->
<rect style="opacity:1.0;fill:#FFFFFF;stroke:none" width="800" height="800" x="0" y="0"> </rect>
<rect style="opacity:1.0;fill:#FFFFFF;stroke:none" width="800" height="800" x="0" y="0"> </rect>
<rect style="opacity:1.0;fill:#FFFFFF;stroke:none" width="800" height="800" x="0" y="0"> </rect>
<rect style="opacity:1.0;fill:#FFFFFF;stroke:none" width="800" height="800" x="0" y="0"> </rect>
<rect style="opacity:1.0;fill:#FFFFFF;stroke:none" width="800" height="800" x="0" y="0"> </rect>
<path class="bond-0 atom-0 atom-6" d="M 231.539,129.464 L 235.964,148.113" style="fill:none;fill-rule:evenodd;stroke:#000000;stroke-width:2.0px;stroke-linecap:butt;stroke-linejoin:miter;stroke-opacity:1"/>
<path class="bond-1 atom-1 atom-2" d="M 258.752,172.255 L 244.813,185.411" style="fill:none;fill-rule:evenodd;stroke:#000000;stroke-width:2.0px;stroke-linecap:butt;stroke-linejoin:miter;stroke-opacity:1"/>
<path class="bond-1 atom-1 atom-2" d="M 254.03,171.44 L 244.273,180.65" style="fill:none;fill-rule:evenodd;stroke:#000000;stroke-width:2.0px;stroke-linecap:butt;stroke-linejoin:miter;stroke-opacity:1"/>
<path class="bond-2 atom-1 atom-3" d="M 258.752,172.255 L 254.327,153.606" style="fill:none;fill-rule:evenodd;stroke:#000000;stroke-width:2.0px;stroke-linecap:butt;stroke-linejoin:miter;stroke-opacity:1"/>
<path class="bond-3 atom-2 atom-4" d="M 244.813,185.411 L 226.451,179.919" style="fill:none;fill-rule:evenodd;stroke:#000000;stroke-width:2.0px;stroke-linecap:butt;stroke-linejoin:miter;stroke-opacity:1"/>
<path class="bond-4 atom-3 atom-6" d="M 254.327,153.606 L 235.964,148.113" style="fill:none;fill-rule:evenodd;stroke:#000000;stroke-width:2.0px;stroke-linecap:butt;stroke-linejoin:miter;stroke-opacity:1"/>
<path class="bond-4 atom-3 atom-6" d="M 250.474,156.454 L 237.62,152.61" style="fill:none;fill-rule:evenodd;stroke:#000000;stroke-width:2.0px;stroke-linecap:butt;stroke-linejoin:miter;stroke-opacity:1"/>
<path class="bond-5 atom-4 atom-7" d="M 226.451,179.919 L 222.026,161.27" style="fill:none;fill-rule:evenodd;stroke:#000000;stroke-width:2.0px;stroke-linecap:butt;stroke-linejoin:miter;stroke-opacity:1"/>
<path class="bond-5 atom-4 atom-7" d="M 229.517,176.236 L 226.419,163.182" style="fill:none;fill-rule:evenodd;stroke:#000000;stroke-width:2.0px;stroke-linecap:butt;stroke-linejoin:miter;stroke-opacity:1"/>
<path class="bond-6 atom-5 atom-8" d="M 189.725,168.934 L 171.362,163.441" style="fill:none;fill-rule:evenodd;stroke:#000000;stroke-width:2.0px;stroke-linecap:butt;stroke-linejoin:miter;stroke-opacity:1"/>
<path class="bond-7 atom-5 atom-11" d="M 189.725,168.934 L 195.208,163.758" style="fill:none;fill-rule:evenodd;stroke:#000000;stroke-width:2.0px;stroke-linecap:butt;stroke-linejoin:miter;stroke-opacity:1"/>
<path class="bond-7 atom-5 atom-11" d="M 195.208,163.758 L 200.692,158.581" style="fill:none;fill-rule:evenodd;stroke:#FF0000;stroke-width:2.0px;stroke-linecap:butt;stroke-linejoin:miter;stroke-opacity:1"/>
<path class="bond-8 atom-6 atom-7" d="M 235.964,148.113 L 222.026,161.27" style="fill:none;fill-rule:evenodd;stroke:#000000;stroke-width:2.0px;stroke-linecap:butt;stroke-linejoin:miter;stroke-opacity:1"/>
<path class="bond-9 atom-7 atom-11" d="M 222.026,161.27 L 214.33,158.968" style="fill:none;fill-rule:evenodd;stroke:#000000;stroke-width:2.0px;stroke-linecap:butt;stroke-linejoin:miter;stroke-opacity:1"/>
<path class="bond-9 atom-7 atom-11" d="M 214.33,158.968 L 206.634,156.666" style="fill:none;fill-rule:evenodd;stroke:#FF0000;stroke-width:2.0px;stroke-linecap:butt;stroke-linejoin:miter;stroke-opacity:1"/>
<path class="bond-10 atom-8 atom-9" d="M 170.046,162.048 L 164.563,167.224" style="fill:none;fill-rule:evenodd;stroke:#000000;stroke-width:2.0px;stroke-linecap:butt;stroke-linejoin:miter;stroke-opacity:1"/>
<path class="bond-10 atom-8 atom-9" d="M 164.563,167.224 L 159.079,172.4" style="fill:none;fill-rule:evenodd;stroke:#FF0000;stroke-width:2.0px;stroke-linecap:butt;stroke-linejoin:miter;stroke-opacity:1"/>
<path class="bond-10 atom-8 atom-9" d="M 172.677,164.835 L 167.194,170.011" style="fill:none;fill-rule:evenodd;stroke:#000000;stroke-width:2.0px;stroke-linecap:butt;stroke-linejoin:miter;stroke-opacity:1"/>
<path class="bond-10 atom-8 atom-9" d="M 167.194,170.011 L 161.71,175.187" style="fill:none;fill-rule:evenodd;stroke:#FF0000;stroke-width:2.0px;stroke-linecap:butt;stroke-linejoin:miter;stroke-opacity:1"/>
<path class="bond-11 atom-8 atom-10" d="M 171.362,163.441 L 169.542,155.771" style="fill:none;fill-rule:evenodd;stroke:#000000;stroke-width:2.0px;stroke-linecap:butt;stroke-linejoin:miter;stroke-opacity:1"/>
<path class="bond-11 atom-8 atom-10" d="M 169.542,155.771 L 167.722,148.101" style="fill:none;fill-rule:evenodd;stroke:#FF0000;stroke-width:2.0px;stroke-linecap:butt;stroke-linejoin:miter;stroke-opacity:1"/>
<path class="atom-9" d="M 154.932 176.613 Q 154.932 175.31, 155.576 174.582 Q 156.22 173.853, 157.424 173.853 Q 158.627 173.853, 159.271 174.582 Q 159.915 175.31, 159.915 176.613 Q 159.915 177.932, 159.264 178.683 Q 158.612 179.427, 157.424 179.427 Q 156.228 179.427, 155.576 178.683 Q 154.932 177.94, 154.932 176.613 M 157.424 178.814 Q 158.252 178.814, 158.696 178.262 Q 159.149 177.702, 159.149 176.613 Q 159.149 175.548, 158.696 175.011 Q 158.252 174.467, 157.424 174.467 Q 156.596 174.467, 156.143 175.003 Q 155.699 175.54, 155.699 176.613 Q 155.699 177.71, 156.143 178.262 Q 156.596 178.814, 157.424 178.814 " fill="#FF0000"/>
<path class="atom-10" d="M 164.445 144.808 Q 164.445 143.504, 165.089 142.776 Q 165.733 142.048, 166.937 142.048 Q 168.141 142.048, 168.785 142.776 Q 169.429 143.504, 169.429 144.808 Q 169.429 146.126, 168.777 146.878 Q 168.125 147.621, 166.937 147.621 Q 165.741 147.621, 165.089 146.878 Q 164.445 146.134, 164.445 144.808 M 166.937 147.008 Q 167.765 147.008, 168.21 146.456 Q 168.662 145.896, 168.662 144.808 Q 168.662 143.742, 168.21 143.205 Q 167.765 142.661, 166.937 142.661 Q 166.109 142.661, 165.657 143.198 Q 165.212 143.734, 165.212 144.808 Q 165.212 145.904, 165.657 146.456 Q 166.109 147.008, 166.937 147.008 " fill="#FF0000"/>
<path class="atom-10" d="M 170.08 142.109 L 170.816 142.109 L 170.816 144.417 L 173.592 144.417 L 173.592 142.109 L 174.328 142.109 L 174.328 147.537 L 173.592 147.537 L 173.592 145.03 L 170.816 145.03 L 170.816 147.537 L 170.08 147.537 L 170.08 142.109 " fill="#FF0000"/>
<path class="atom-11" d="M 201.171 155.793 Q 201.171 154.489, 201.815 153.761 Q 202.459 153.033, 203.663 153.033 Q 204.866 153.033, 205.51 153.761 Q 206.154 154.489, 206.154 155.793 Q 206.154 157.111, 205.503 157.863 Q 204.851 158.606, 203.663 158.606 Q 202.467 158.606, 201.815 157.863 Q 201.171 157.119, 201.171 155.793 M 203.663 157.993 Q 204.491 157.993, 204.935 157.441 Q 205.388 156.881, 205.388 155.793 Q 205.388 154.727, 204.935 154.19 Q 204.491 153.646, 203.663 153.646 Q 202.835 153.646, 202.382 154.183 Q 201.938 154.719, 201.938 155.793 Q 201.938 156.889, 202.382 157.441 Q 202.835 157.993, 203.663 157.993 " fill="#FF0000"/>
<path d="M 174.29 388.056 Q 174.29 385.24, 175.602 383.768 Q 176.93 382.28, 179.442 382.28 Q 181.778 382.28, 183.026 383.928 L 181.97 384.792 Q 181.058 383.592, 179.442 383.592 Q 177.73 383.592, 176.818 384.744 Q 175.922 385.88, 175.922 388.056 Q 175.922 390.296, 176.85 391.448 Q 177.794 392.6, 179.618 392.6 Q 180.866 392.6, 182.322 391.848 L 182.77 393.048 Q 182.178 393.432, 181.282 393.656 Q 180.386 393.88, 179.394 393.88 Q 176.93 393.88, 175.602 392.376 Q 174.29 390.872, 174.29 388.056 " fill="#000000"/>
<path d="M 184.402 381.592 L 185.874 381.592 L 185.874 393.736 L 184.402 393.736 L 184.402 381.592 " fill="#000000"/>
<path d="M 186.578 391.512 Q 186.578 390.2, 187.634 389.48 Q 188.69 388.76, 190.626 388.76 L 191.842 388.76 L 191.842 388.44 Q 191.842 387.416, 191.41 386.984 Q 190.994 386.552, 189.97 386.552 Q 189.314 386.552, 188.802 386.68 Q 188.29 386.792, 187.49 387.144 L 187.042 386.104 Q 188.546 385.368, 190.002 385.368 Q 191.746 385.368, 192.546 386.12 Q 193.346 386.856, 193.346 388.472 L 193.346 393.736 L 192.178 393.736 Q 192.162 393.672, 192.114 393.432 Q 192.066 393.176, 191.97 392.776 Q 190.818 393.928, 189.282 393.928 Q 188.05 393.928, 187.314 393.272 Q 186.578 392.616, 186.578 391.512 M 188.082 391.48 Q 188.082 392.088, 188.466 392.424 Q 188.85 392.744, 189.57 392.744 Q 190.21 392.744, 190.818 392.456 Q 191.426 392.152, 191.842 391.64 L 191.842 389.88 L 190.722 389.88 Q 189.41 389.88, 188.738 390.28 Q 188.082 390.68, 188.082 391.48 " fill="#000000"/>
<path d="M 194.61 392.04 Q 195.33 392.344, 195.842 392.488 Q 196.37 392.632, 196.93 392.632 Q 197.65 392.632, 198.05 392.328 Q 198.466 392.024, 198.466 391.432 Q 198.466 391.064, 198.242 390.84 Q 198.034 390.6, 197.762 390.488 Q 197.506 390.376, 196.786 390.136 Q 196.674 390.104, 195.938 389.848 Q 195.202 389.592, 194.802 389.048 Q 194.418 388.504, 194.418 387.704 Q 194.418 386.712, 195.186 386.04 Q 195.954 385.368, 197.442 385.368 Q 198.066 385.368, 198.61 385.512 Q 199.17 385.656, 199.778 385.896 L 199.378 387.08 Q 198.85 386.872, 198.386 386.744 Q 197.938 386.616, 197.442 386.616 Q 196.69 386.616, 196.306 386.92 Q 195.922 387.208, 195.922 387.688 Q 195.922 388.136, 196.226 388.36 Q 196.53 388.568, 197.202 388.808 Q 197.378 388.856, 197.522 388.92 L 197.906 389.064 Q 198.578 389.288, 198.978 389.512 Q 199.394 389.736, 199.682 390.2 Q 199.97 390.648, 199.97 391.4 Q 199.97 392.584, 199.122 393.24 Q 198.29 393.88, 196.946 393.88 Q 196.162 393.88, 195.49 393.72 Q 194.818 393.544, 194.146 393.256 L 194.61 392.04 " fill="#000000"/>
<path d="M 201.234 392.04 Q 201.954 392.344, 202.466 392.488 Q 202.994 392.632, 203.554 392.632 Q 204.274 392.632, 204.674 392.328 Q 205.09 392.024, 205.09 391.432 Q 205.09 391.064, 204.866 390.84 Q 204.658 390.6, 204.386 390.488 Q 204.13 390.376, 203.41 390.136 Q 203.298 390.104, 202.562 389.848 Q 201.826 389.592, 201.426 389.048 Q 201.042 388.504, 201.042 387.704 Q 201.042 386.712, 201.81 386.04 Q 202.578 385.368, 204.066 385.368 Q 204.69 385.368, 205.234 385.512 Q 205.794 385.656, 206.402 385.896 L 206.002 387.08 Q 205.474 386.872, 205.01 386.744 Q 204.562 386.616, 204.066 386.616 Q 203.314 386.616, 202.93 386.92 Q 202.546 387.208, 202.546 387.688 Q 202.546 388.136, 202.85 388.36 Q 203.154 388.568, 203.826 388.808 Q 204.002 388.856, 204.146 388.92 L 204.53 389.064 Q 205.202 389.288, 205.602 389.512 Q 206.018 389.736, 206.306 390.2 Q 206.594 390.648, 206.594 391.4 Q 206.594 392.584, 205.746 393.24 Q 204.914 393.88, 203.57 393.88 Q 202.786 393.88, 202.114 393.72 Q 201.442 393.544, 200.77 393.256 L 201.234 392.04 " fill="#000000"/>
<path d="" fill="#000000"/>
<path d="M 215.714 393.864 Q 213.634 393.864, 212.594 392.328 Q 211.57 390.792, 211.57 388.056 Q 211.57 385.32, 212.594 383.8 Q 213.618 382.28, 215.714 382.28 Q 217.81 382.28, 218.834 383.8 Q 219.858 385.32, 219.858 388.056 Q 219.858 390.792, 218.818 392.328 Q 217.794 393.864, 215.714 393.864 M 215.714 392.584 Q 216.946 392.584, 217.602 391.448 Q 218.258 390.296, 218.258 388.056 Q 218.258 385.832, 217.602 384.696 Q 216.946 383.56, 215.714 383.56 Q 214.498 383.56, 213.826 384.696 Q 213.17 385.832, 213.17 388.056 Q 213.17 390.296, 213.826 391.448 Q 214.498 392.584, 215.714 392.584 " fill="#000000"/>
<path class="bond-0 atom-0 atom-1" d="M 576.783,315.402 L 583.142,297.321" style="fill:none;fill-rule:evenodd;stroke:#000000;stroke-width:2.0px;stroke-linecap:butt;stroke-linejoin:miter;stroke-opacity:1"/>
<path class="bond-1 atom-1 atom-2" d="M 583.142,297.321 L 601.981,293.788" style="fill:none;fill-rule:evenodd;stroke:#000000;stroke-width:2.0px;stroke-linecap:butt;stroke-linejoin:miter;stroke-opacity:1"/>
<path class="bond-2 atom-2 atom-3" d="M 601.981,293.788 L 608.34,275.707" style="fill:none;fill-rule:evenodd;stroke:#000000;stroke-width:2.0px;stroke-linecap:butt;stroke-linejoin:miter;stroke-opacity:1"/>
<path class="bond-3 atom-3 atom-4" d="M 608.34,275.707 L 627.178,272.173" style="fill:none;fill-rule:evenodd;stroke:#000000;stroke-width:2.0px;stroke-linecap:butt;stroke-linejoin:miter;stroke-opacity:1"/>
<path class="bond-4 atom-4 atom-5" d="M 627.178,272.173 L 633.537,254.092" style="fill:none;fill-rule:evenodd;stroke:#000000;stroke-width:2.0px;stroke-linecap:butt;stroke-linejoin:miter;stroke-opacity:1"/>
<path class="bond-5 atom-5 atom-6" d="M 633.537,254.092 L 652.375,250.558" style="fill:none;fill-rule:evenodd;stroke:#000000;stroke-width:2.0px;stroke-linecap:butt;stroke-linejoin:miter;stroke-opacity:1"/>
<path class="bond-6 atom-6 atom-7" d="M 652.375,250.558 L 658.734,232.477" style="fill:none;fill-rule:evenodd;stroke:#000000;stroke-width:2.0px;stroke-linecap:butt;stroke-linejoin:miter;stroke-opacity:1"/>
<path class="bond-7 atom-7 atom-8" d="M 658.734,232.477 L 677.572,228.944" style="fill:none;fill-rule:evenodd;stroke:#000000;stroke-width:2.0px;stroke-linecap:butt;stroke-linejoin:miter;stroke-opacity:1"/>
<path class="bond-8 atom-8 atom-9" d="M 677.572,228.944 L 683.931,210.863" style="fill:none;fill-rule:evenodd;stroke:#000000;stroke-width:2.0px;stroke-linecap:butt;stroke-linejoin:miter;stroke-opacity:1"/>
<path class="bond-9 atom-9 atom-10" d="M 683.931,210.863 L 702.769,207.329" style="fill:none;fill-rule:evenodd;stroke:#000000;stroke-width:2.0px;stroke-linecap:butt;stroke-linejoin:miter;stroke-opacity:1"/>
<path class="bond-10 atom-10 atom-21" d="M 702.769,207.329 L 709.128,189.248" style="fill:none;fill-rule:evenodd;stroke:#000000;stroke-width:2.0px;stroke-linecap:butt;stroke-linejoin:miter;stroke-opacity:1"/>
<path class="bond-11 atom-11 atom-13" d="M 552.541,134.178 L 571.379,130.644" style="fill:none;fill-rule:evenodd;stroke:#000000;stroke-width:2.0px;stroke-linecap:butt;stroke-linejoin:miter;stroke-opacity:1"/>
<path class="bond-11 atom-11 atom-13" d="M 556.073,137.415 L 569.26,134.942" style="fill:none;fill-rule:evenodd;stroke:#000000;stroke-width:2.0px;stroke-linecap:butt;stroke-linejoin:miter;stroke-opacity:1"/>
<path class="bond-12 atom-11 atom-25" d="M 552.541,134.178 L 546.182,152.259" style="fill:none;fill-rule:evenodd;stroke:#000000;stroke-width:2.0px;stroke-linecap:butt;stroke-linejoin:miter;stroke-opacity:1"/>
<path class="bond-13 atom-12 atom-14" d="M 558.661,166.806 L 577.499,163.273" style="fill:none;fill-rule:evenodd;stroke:#000000;stroke-width:2.0px;stroke-linecap:butt;stroke-linejoin:miter;stroke-opacity:1"/>
<path class="bond-14 atom-12 atom-25" d="M 558.661,166.806 L 546.182,152.259" style="fill:none;fill-rule:evenodd;stroke:#000000;stroke-width:2.0px;stroke-linecap:butt;stroke-linejoin:miter;stroke-opacity:1"/>
<path class="bond-14 atom-12 atom-25" d="M 559.699,162.128 L 550.963,151.945" style="fill:none;fill-rule:evenodd;stroke:#000000;stroke-width:2.0px;stroke-linecap:butt;stroke-linejoin:miter;stroke-opacity:1"/>
<path class="bond-15 atom-13 atom-26" d="M 571.379,130.644 L 583.858,145.192" style="fill:none;fill-rule:evenodd;stroke:#000000;stroke-width:2.0px;stroke-linecap:butt;stroke-linejoin:miter;stroke-opacity:1"/>
<path class="bond-16 atom-14 atom-26" d="M 577.499,163.273 L 583.858,145.192" style="fill:none;fill-rule:evenodd;stroke:#000000;stroke-width:2.0px;stroke-linecap:butt;stroke-linejoin:miter;stroke-opacity:1"/>
<path class="bond-16 atom-14 atom-26" d="M 574.837,159.289 L 579.288,146.632" style="fill:none;fill-rule:evenodd;stroke:#000000;stroke-width:2.0px;stroke-linecap:butt;stroke-linejoin:miter;stroke-opacity:1"/>
<path class="bond-17 atom-15 atom-18" d="M 489.667,162.86 L 470.829,166.393" style="fill:none;fill-rule:evenodd;stroke:#000000;stroke-width:2.0px;stroke-linecap:butt;stroke-linejoin:miter;stroke-opacity:1"/>
<path class="bond-17 atom-15 atom-18" d="M 486.135,159.622 L 472.948,162.095" style="fill:none;fill-rule:evenodd;stroke:#000000;stroke-width:2.0px;stroke-linecap:butt;stroke-linejoin:miter;stroke-opacity:1"/>
<path class="bond-18 atom-15 atom-27" d="M 489.667,162.86 L 496.026,144.778" style="fill:none;fill-rule:evenodd;stroke:#000000;stroke-width:2.0px;stroke-linecap:butt;stroke-linejoin:miter;stroke-opacity:1"/>
<path class="bond-19 atom-16 atom-19" d="M 483.547,130.231 L 464.709,133.764" style="fill:none;fill-rule:evenodd;stroke:#000000;stroke-width:2.0px;stroke-linecap:butt;stroke-linejoin:miter;stroke-opacity:1"/>
<path class="bond-20 atom-16 atom-27" d="M 483.547,130.231 L 496.026,144.778" style="fill:none;fill-rule:evenodd;stroke:#000000;stroke-width:2.0px;stroke-linecap:butt;stroke-linejoin:miter;stroke-opacity:1"/>
<path class="bond-20 atom-16 atom-27" d="M 482.509,134.909 L 491.245,145.092" style="fill:none;fill-rule:evenodd;stroke:#000000;stroke-width:2.0px;stroke-linecap:butt;stroke-linejoin:miter;stroke-opacity:1"/>
<path class="bond-21 atom-17 atom-20" d="M 690.528,142.072 L 671.69,145.605" style="fill:none;fill-rule:evenodd;stroke:#000000;stroke-width:2.0px;stroke-linecap:butt;stroke-linejoin:miter;stroke-opacity:1"/>
<path class="bond-21 atom-17 atom-20" d="M 686.996,138.834 L 673.809,141.307" style="fill:none;fill-rule:evenodd;stroke:#000000;stroke-width:2.0px;stroke-linecap:butt;stroke-linejoin:miter;stroke-opacity:1"/>
<path class="bond-22 atom-17 atom-28" d="M 690.528,142.072 L 696.887,123.99" style="fill:none;fill-rule:evenodd;stroke:#000000;stroke-width:2.0px;stroke-linecap:butt;stroke-linejoin:miter;stroke-opacity:1"/>
<path class="bond-23 atom-18 atom-29" d="M 470.829,166.393 L 458.35,151.846" style="fill:none;fill-rule:evenodd;stroke:#000000;stroke-width:2.0px;stroke-linecap:butt;stroke-linejoin:miter;stroke-opacity:1"/>
<path class="bond-24 atom-19 atom-29" d="M 464.709,133.764 L 458.35,151.846" style="fill:none;fill-rule:evenodd;stroke:#000000;stroke-width:2.0px;stroke-linecap:butt;stroke-linejoin:miter;stroke-opacity:1"/>
<path class="bond-24 atom-19 atom-29" d="M 467.371,137.748 L 462.92,150.405" style="fill:none;fill-rule:evenodd;stroke:#000000;stroke-width:2.0px;stroke-linecap:butt;stroke-linejoin:miter;stroke-opacity:1"/>
<path class="bond-25 atom-20 atom-30" d="M 671.69,145.605 L 659.211,131.058" style="fill:none;fill-rule:evenodd;stroke:#000000;stroke-width:2.0px;stroke-linecap:butt;stroke-linejoin:miter;stroke-opacity:1"/>
<path class="bond-26 atom-21 atom-38" d="M 709.128,189.248 L 717.278,187.719" style="fill:none;fill-rule:evenodd;stroke:#000000;stroke-width:2.0px;stroke-linecap:butt;stroke-linejoin:miter;stroke-opacity:1"/>
<path class="bond-26 atom-21 atom-38" d="M 717.278,187.719 L 725.429,186.19" style="fill:none;fill-rule:evenodd;stroke:#0000FF;stroke-width:2.0px;stroke-linecap:butt;stroke-linejoin:miter;stroke-opacity:1"/>
<path class="bond-27 atom-22 atom-24" d="M 684.408,109.443 L 665.57,112.976" style="fill:none;fill-rule:evenodd;stroke:#000000;stroke-width:2.0px;stroke-linecap:butt;stroke-linejoin:miter;stroke-opacity:1"/>
<path class="bond-28 atom-22 atom-28" d="M 684.408,109.443 L 696.887,123.99" style="fill:none;fill-rule:evenodd;stroke:#000000;stroke-width:2.0px;stroke-linecap:butt;stroke-linejoin:miter;stroke-opacity:1"/>
<path class="bond-28 atom-22 atom-28" d="M 683.371,114.121 L 692.106,124.304" style="fill:none;fill-rule:evenodd;stroke:#000000;stroke-width:2.0px;stroke-linecap:butt;stroke-linejoin:miter;stroke-opacity:1"/>
<path class="bond-29 atom-23 atom-24" d="M 653.091,98.4288 L 665.57,112.976" style="fill:none;fill-rule:evenodd;stroke:#000000;stroke-width:2.0px;stroke-linecap:butt;stroke-linejoin:miter;stroke-opacity:1"/>
<path class="bond-30 atom-23 atom-31" d="M 653.091,98.4288 L 634.253,101.962" style="fill:none;fill-rule:evenodd;stroke:#000000;stroke-width:2.0px;stroke-linecap:butt;stroke-linejoin:miter;stroke-opacity:1"/>
<path class="bond-30 atom-23 atom-31" d="M 650.972,102.726 L 637.785,105.2" style="fill:none;fill-rule:evenodd;stroke:#000000;stroke-width:2.0px;stroke-linecap:butt;stroke-linejoin:miter;stroke-opacity:1"/>
<path class="bond-31 atom-24 atom-30" d="M 665.57,112.976 L 659.211,131.058" style="fill:none;fill-rule:evenodd;stroke:#000000;stroke-width:2.0px;stroke-linecap:butt;stroke-linejoin:miter;stroke-opacity:1"/>
<path class="bond-31 atom-24 atom-30" d="M 668.232,116.96 L 663.781,129.617" style="fill:none;fill-rule:evenodd;stroke:#000000;stroke-width:2.0px;stroke-linecap:butt;stroke-linejoin:miter;stroke-opacity:1"/>
<path class="bond-32 atom-25 atom-43" d="M 546.182,152.259 L 538.032,153.788" style="fill:none;fill-rule:evenodd;stroke:#000000;stroke-width:2.0px;stroke-linecap:butt;stroke-linejoin:miter;stroke-opacity:1"/>
<path class="bond-32 atom-25 atom-43" d="M 538.032,153.788 L 529.881,155.316" style="fill:none;fill-rule:evenodd;stroke:#0000FF;stroke-width:2.0px;stroke-linecap:butt;stroke-linejoin:miter;stroke-opacity:1"/>
<path class="bond-33 atom-26 atom-45" d="M 583.858,145.192 L 592.009,143.663" style="fill:none;fill-rule:evenodd;stroke:#000000;stroke-width:2.0px;stroke-linecap:butt;stroke-linejoin:miter;stroke-opacity:1"/>
<path class="bond-33 atom-26 atom-45" d="M 592.009,143.663 L 600.159,142.134" style="fill:none;fill-rule:evenodd;stroke:#0000FF;stroke-width:2.0px;stroke-linecap:butt;stroke-linejoin:miter;stroke-opacity:1"/>
<path class="bond-34 atom-27 atom-44" d="M 496.026,144.778 L 504.177,143.25" style="fill:none;fill-rule:evenodd;stroke:#000000;stroke-width:2.0px;stroke-linecap:butt;stroke-linejoin:miter;stroke-opacity:1"/>
<path class="bond-34 atom-27 atom-44" d="M 504.177,143.25 L 512.327,141.721" style="fill:none;fill-rule:evenodd;stroke:#0000FF;stroke-width:2.0px;stroke-linecap:butt;stroke-linejoin:miter;stroke-opacity:1"/>
<path class="bond-35 atom-28 atom-39" d="M 696.887,123.99 L 705.038,122.462" style="fill:none;fill-rule:evenodd;stroke:#000000;stroke-width:2.0px;stroke-linecap:butt;stroke-linejoin:miter;stroke-opacity:1"/>
<path class="bond-35 atom-28 atom-39" d="M 705.038,122.462 L 713.188,120.933" style="fill:none;fill-rule:evenodd;stroke:#0000FF;stroke-width:2.0px;stroke-linecap:butt;stroke-linejoin:miter;stroke-opacity:1"/>
<path class="bond-36 atom-29 atom-54" d="M 458.35,151.846 L 450.041,153.404" style="fill:none;fill-rule:evenodd;stroke:#000000;stroke-width:2.0px;stroke-linecap:butt;stroke-linejoin:miter;stroke-opacity:1"/>
<path class="bond-36 atom-29 atom-54" d="M 450.041,153.404 L 441.731,154.963" style="fill:none;fill-rule:evenodd;stroke:#CCCC00;stroke-width:2.0px;stroke-linecap:butt;stroke-linejoin:miter;stroke-opacity:1"/>
<path class="bond-37 atom-30 atom-33" d="M 659.211,131.058 L 640.373,134.591" style="fill:none;fill-rule:evenodd;stroke:#000000;stroke-width:2.0px;stroke-linecap:butt;stroke-linejoin:miter;stroke-opacity:1"/>
<path class="bond-38 atom-31 atom-32" d="M 634.253,101.962 L 627.894,120.044" style="fill:none;fill-rule:evenodd;stroke:#000000;stroke-width:2.0px;stroke-linecap:butt;stroke-linejoin:miter;stroke-opacity:1"/>
<path class="bond-39 atom-31 atom-55" d="M 634.253,101.962 L 629.123,95.9823" style="fill:none;fill-rule:evenodd;stroke:#000000;stroke-width:2.0px;stroke-linecap:butt;stroke-linejoin:miter;stroke-opacity:1"/>
<path class="bond-39 atom-31 atom-55" d="M 629.123,95.9823 L 623.993,90.0022" style="fill:none;fill-rule:evenodd;stroke:#CCCC00;stroke-width:2.0px;stroke-linecap:butt;stroke-linejoin:miter;stroke-opacity:1"/>
<path class="bond-40 atom-32 atom-33" d="M 627.894,120.044 L 640.373,134.591" style="fill:none;fill-rule:evenodd;stroke:#000000;stroke-width:2.0px;stroke-linecap:butt;stroke-linejoin:miter;stroke-opacity:1"/>
<path class="bond-40 atom-32 atom-33" d="M 632.675,119.73 L 641.41,129.913" style="fill:none;fill-rule:evenodd;stroke:#000000;stroke-width:2.0px;stroke-linecap:butt;stroke-linejoin:miter;stroke-opacity:1"/>
<path class="bond-41 atom-32 atom-46" d="M 627.894,120.044 L 619.743,121.572" style="fill:none;fill-rule:evenodd;stroke:#000000;stroke-width:2.0px;stroke-linecap:butt;stroke-linejoin:miter;stroke-opacity:1"/>
<path class="bond-41 atom-32 atom-46" d="M 619.743,121.572 L 611.593,123.101" style="fill:none;fill-rule:evenodd;stroke:#0000FF;stroke-width:2.0px;stroke-linecap:butt;stroke-linejoin:miter;stroke-opacity:1"/>
<path class="bond-42 atom-33 atom-47" d="M 640.373,134.591 L 637.76,142.02" style="fill:none;fill-rule:evenodd;stroke:#000000;stroke-width:2.0px;stroke-linecap:butt;stroke-linejoin:miter;stroke-opacity:1"/>
<path class="bond-42 atom-33 atom-47" d="M 637.76,142.02 L 635.148,149.448" style="fill:none;fill-rule:evenodd;stroke:#FF0000;stroke-width:2.0px;stroke-linecap:butt;stroke-linejoin:miter;stroke-opacity:1"/>
<path class="bond-43 atom-34 atom-37" d="M 759.522,146.018 L 767.655,144.493" style="fill:none;fill-rule:evenodd;stroke:#000000;stroke-width:2.0px;stroke-linecap:butt;stroke-linejoin:miter;stroke-opacity:1"/>
<path class="bond-43 atom-34 atom-37" d="M 767.655,144.493 L 775.788,142.967" style="fill:none;fill-rule:evenodd;stroke:#00CC00;stroke-width:2.0px;stroke-linecap:butt;stroke-linejoin:miter;stroke-opacity:1"/>
<path class="bond-44 atom-34 atom-40" d="M 759.522,146.018 L 756.904,153.462" style="fill:none;fill-rule:evenodd;stroke:#000000;stroke-width:2.0px;stroke-linecap:butt;stroke-linejoin:miter;stroke-opacity:1"/>
<path class="bond-44 atom-34 atom-40" d="M 756.904,153.462 L 754.286,160.906" style="fill:none;fill-rule:evenodd;stroke:#0000FF;stroke-width:2.0px;stroke-linecap:butt;stroke-linejoin:miter;stroke-opacity:1"/>
<path class="bond-44 atom-34 atom-40" d="M 755.121,146.98 L 753.288,152.191" style="fill:none;fill-rule:evenodd;stroke:#000000;stroke-width:2.0px;stroke-linecap:butt;stroke-linejoin:miter;stroke-opacity:1"/>
<path class="bond-44 atom-34 atom-40" d="M 753.288,152.191 L 751.456,157.401" style="fill:none;fill-rule:evenodd;stroke:#0000FF;stroke-width:2.0px;stroke-linecap:butt;stroke-linejoin:miter;stroke-opacity:1"/>
<path class="bond-45 atom-34 atom-41" d="M 759.522,146.018 L 754.552,140.224" style="fill:none;fill-rule:evenodd;stroke:#000000;stroke-width:2.0px;stroke-linecap:butt;stroke-linejoin:miter;stroke-opacity:1"/>
<path class="bond-45 atom-34 atom-41" d="M 754.552,140.224 L 749.581,134.429" style="fill:none;fill-rule:evenodd;stroke:#0000FF;stroke-width:2.0px;stroke-linecap:butt;stroke-linejoin:miter;stroke-opacity:1"/>
<path class="bond-46 atom-35 atom-38" d="M 734.325,167.633 L 731.707,175.077" style="fill:none;fill-rule:evenodd;stroke:#000000;stroke-width:2.0px;stroke-linecap:butt;stroke-linejoin:miter;stroke-opacity:1"/>
<path class="bond-46 atom-35 atom-38" d="M 731.707,175.077 L 729.089,182.521" style="fill:none;fill-rule:evenodd;stroke:#0000FF;stroke-width:2.0px;stroke-linecap:butt;stroke-linejoin:miter;stroke-opacity:1"/>
<path class="bond-46 atom-35 atom-38" d="M 737.156,171.138 L 735.323,176.349" style="fill:none;fill-rule:evenodd;stroke:#000000;stroke-width:2.0px;stroke-linecap:butt;stroke-linejoin:miter;stroke-opacity:1"/>
<path class="bond-46 atom-35 atom-38" d="M 735.323,176.349 L 733.491,181.56" style="fill:none;fill-rule:evenodd;stroke:#0000FF;stroke-width:2.0px;stroke-linecap:butt;stroke-linejoin:miter;stroke-opacity:1"/>
<path class="bond-47 atom-35 atom-40" d="M 734.325,167.633 L 742.475,166.104" style="fill:none;fill-rule:evenodd;stroke:#000000;stroke-width:2.0px;stroke-linecap:butt;stroke-linejoin:miter;stroke-opacity:1"/>
<path class="bond-47 atom-35 atom-40" d="M 742.475,166.104 L 750.626,164.576" style="fill:none;fill-rule:evenodd;stroke:#0000FF;stroke-width:2.0px;stroke-linecap:butt;stroke-linejoin:miter;stroke-opacity:1"/>
<path class="bond-48 atom-35 atom-42" d="M 734.325,167.633 L 729.354,161.838" style="fill:none;fill-rule:evenodd;stroke:#000000;stroke-width:2.0px;stroke-linecap:butt;stroke-linejoin:miter;stroke-opacity:1"/>
<path class="bond-48 atom-35 atom-42" d="M 729.354,161.838 L 724.384,156.044" style="fill:none;fill-rule:evenodd;stroke:#0000FF;stroke-width:2.0px;stroke-linecap:butt;stroke-linejoin:miter;stroke-opacity:1"/>
<path class="bond-49 atom-36 atom-39" d="M 728.205,135.004 L 723.234,129.21" style="fill:none;fill-rule:evenodd;stroke:#000000;stroke-width:2.0px;stroke-linecap:butt;stroke-linejoin:miter;stroke-opacity:1"/>
<path class="bond-49 atom-36 atom-39" d="M 723.234,129.21 L 718.263,123.415" style="fill:none;fill-rule:evenodd;stroke:#0000FF;stroke-width:2.0px;stroke-linecap:butt;stroke-linejoin:miter;stroke-opacity:1"/>
<path class="bond-50 atom-36 atom-41" d="M 728.205,135.004 L 736.355,133.476" style="fill:none;fill-rule:evenodd;stroke:#000000;stroke-width:2.0px;stroke-linecap:butt;stroke-linejoin:miter;stroke-opacity:1"/>
<path class="bond-50 atom-36 atom-41" d="M 736.355,133.476 L 744.505,131.947" style="fill:none;fill-rule:evenodd;stroke:#0000FF;stroke-width:2.0px;stroke-linecap:butt;stroke-linejoin:miter;stroke-opacity:1"/>
<path class="bond-50 atom-36 atom-41" d="M 731.357,138.313 L 737.062,137.243" style="fill:none;fill-rule:evenodd;stroke:#000000;stroke-width:2.0px;stroke-linecap:butt;stroke-linejoin:miter;stroke-opacity:1"/>
<path class="bond-50 atom-36 atom-41" d="M 737.062,137.243 L 742.767,136.173" style="fill:none;fill-rule:evenodd;stroke:#0000FF;stroke-width:2.0px;stroke-linecap:butt;stroke-linejoin:miter;stroke-opacity:1"/>
<path class="bond-51 atom-36 atom-42" d="M 728.205,135.004 L 725.587,142.448" style="fill:none;fill-rule:evenodd;stroke:#000000;stroke-width:2.0px;stroke-linecap:butt;stroke-linejoin:miter;stroke-opacity:1"/>
<path class="bond-51 atom-36 atom-42" d="M 725.587,142.448 L 722.969,149.892" style="fill:none;fill-rule:evenodd;stroke:#0000FF;stroke-width:2.0px;stroke-linecap:butt;stroke-linejoin:miter;stroke-opacity:1"/>
<path class="bond-52 atom-43 atom-44" d="M 524.806,152.834 L 517.305,144.09" style="fill:none;fill-rule:evenodd;stroke:#0000FF;stroke-width:2.0px;stroke-linecap:butt;stroke-linejoin:miter;stroke-opacity:1"/>
<path class="bond-52 atom-43 atom-44" d="M 526.59,149.027 L 521.339,142.905" style="fill:none;fill-rule:evenodd;stroke:#0000FF;stroke-width:2.0px;stroke-linecap:butt;stroke-linejoin:miter;stroke-opacity:1"/>
<path class="bond-53 atom-45 atom-46" d="M 603.819,138.465 L 607.962,126.686" style="fill:none;fill-rule:evenodd;stroke:#0000FF;stroke-width:2.0px;stroke-linecap:butt;stroke-linejoin:miter;stroke-opacity:1"/>
<path class="bond-53 atom-45 atom-46" d="M 600.825,135.426 L 603.725,127.181" style="fill:none;fill-rule:evenodd;stroke:#0000FF;stroke-width:2.0px;stroke-linecap:butt;stroke-linejoin:miter;stroke-opacity:1"/>
<path class="bond-54 atom-48 atom-54" d="M 423.998,160.239 L 430.859,158.952" style="fill:none;fill-rule:evenodd;stroke:#FF0000;stroke-width:2.0px;stroke-linecap:butt;stroke-linejoin:miter;stroke-opacity:1"/>
<path class="bond-54 atom-48 atom-54" d="M 430.859,158.952 L 437.721,157.665" style="fill:none;fill-rule:evenodd;stroke:#CCCC00;stroke-width:2.0px;stroke-linecap:butt;stroke-linejoin:miter;stroke-opacity:1"/>
<path class="bond-54 atom-48 atom-54" d="M 423.291,156.472 L 430.153,155.185" style="fill:none;fill-rule:evenodd;stroke:#FF0000;stroke-width:2.0px;stroke-linecap:butt;stroke-linejoin:miter;stroke-opacity:1"/>
<path class="bond-54 atom-48 atom-54" d="M 430.153,155.185 L 437.014,153.897" style="fill:none;fill-rule:evenodd;stroke:#CCCC00;stroke-width:2.0px;stroke-linecap:butt;stroke-linejoin:miter;stroke-opacity:1"/>
<path class="bond-55 atom-49 atom-54" d="M 436.599,139.849 L 437.764,146.063" style="fill:none;fill-rule:evenodd;stroke:#FF0000;stroke-width:2.0px;stroke-linecap:butt;stroke-linejoin:miter;stroke-opacity:1"/>
<path class="bond-55 atom-49 atom-54" d="M 437.764,146.063 L 438.93,152.278" style="fill:none;fill-rule:evenodd;stroke:#CCCC00;stroke-width:2.0px;stroke-linecap:butt;stroke-linejoin:miter;stroke-opacity:1"/>
<path class="bond-56 atom-50 atom-54" d="M 444.324,170.64 L 443.165,164.458" style="fill:none;fill-rule:evenodd;stroke:#FF0000;stroke-width:2.0px;stroke-linecap:butt;stroke-linejoin:miter;stroke-opacity:1"/>
<path class="bond-56 atom-50 atom-54" d="M 443.165,164.458 L 442.005,158.275" style="fill:none;fill-rule:evenodd;stroke:#CCCC00;stroke-width:2.0px;stroke-linecap:butt;stroke-linejoin:miter;stroke-opacity:1"/>
<path class="bond-56 atom-50 atom-54" d="M 440.557,171.347 L 439.397,165.164" style="fill:none;fill-rule:evenodd;stroke:#FF0000;stroke-width:2.0px;stroke-linecap:butt;stroke-linejoin:miter;stroke-opacity:1"/>
<path class="bond-56 atom-50 atom-54" d="M 439.397,165.164 L 438.237,158.982" style="fill:none;fill-rule:evenodd;stroke:#CCCC00;stroke-width:2.0px;stroke-linecap:butt;stroke-linejoin:miter;stroke-opacity:1"/>
<path class="bond-57 atom-51 atom-55" d="M 612.132,76.1754 L 615.897,80.5649" style="fill:none;fill-rule:evenodd;stroke:#FF0000;stroke-width:2.0px;stroke-linecap:butt;stroke-linejoin:miter;stroke-opacity:1"/>
<path class="bond-57 atom-51 atom-55" d="M 615.897,80.5649 L 619.663,84.9545" style="fill:none;fill-rule:evenodd;stroke:#CCCC00;stroke-width:2.0px;stroke-linecap:butt;stroke-linejoin:miter;stroke-opacity:1"/>
<path class="bond-58 atom-52 atom-55" d="M 632.102,76.0293 L 627.375,80.0846" style="fill:none;fill-rule:evenodd;stroke:#FF0000;stroke-width:2.0px;stroke-linecap:butt;stroke-linejoin:miter;stroke-opacity:1"/>
<path class="bond-58 atom-52 atom-55" d="M 627.375,80.0846 L 622.647,84.14" style="fill:none;fill-rule:evenodd;stroke:#CCCC00;stroke-width:2.0px;stroke-linecap:butt;stroke-linejoin:miter;stroke-opacity:1"/>
<path class="bond-58 atom-52 atom-55" d="M 634.598,78.9388 L 629.87,82.9942" style="fill:none;fill-rule:evenodd;stroke:#FF0000;stroke-width:2.0px;stroke-linecap:butt;stroke-linejoin:miter;stroke-opacity:1"/>
<path class="bond-58 atom-52 atom-55" d="M 629.87,82.9942 L 625.143,87.0496" style="fill:none;fill-rule:evenodd;stroke:#CCCC00;stroke-width:2.0px;stroke-linecap:butt;stroke-linejoin:miter;stroke-opacity:1"/>
<path class="bond-59 atom-53 atom-55" d="M 611.444,98.8004 L 616.172,94.745" style="fill:none;fill-rule:evenodd;stroke:#FF0000;stroke-width:2.0px;stroke-linecap:butt;stroke-linejoin:miter;stroke-opacity:1"/>
<path class="bond-59 atom-53 atom-55" d="M 616.172,94.745 L 620.9,90.6896" style="fill:none;fill-rule:evenodd;stroke:#CCCC00;stroke-width:2.0px;stroke-linecap:butt;stroke-linejoin:miter;stroke-opacity:1"/>
<path class="bond-59 atom-53 atom-55" d="M 608.949,95.8908 L 613.676,91.8354" style="fill:none;fill-rule:evenodd;stroke:#FF0000;stroke-width:2.0px;stroke-linecap:butt;stroke-linejoin:miter;stroke-opacity:1"/>
<path class="bond-59 atom-53 atom-55" d="M 613.676,91.8354 L 618.404,87.7801" style="fill:none;fill-rule:evenodd;stroke:#CCCC00;stroke-width:2.0px;stroke-linecap:butt;stroke-linejoin:miter;stroke-opacity:1"/>
<path class="atom-37" d="M 776.267 142.673 Q 776.267 141.323, 776.896 140.618 Q 777.533 139.905, 778.736 139.905 Q 779.856 139.905, 780.454 140.695 L 779.948 141.109 Q 779.511 140.534, 778.736 140.534 Q 777.916 140.534, 777.479 141.086 Q 777.049 141.63, 777.049 142.673 Q 777.049 143.746, 777.494 144.298 Q 777.947 144.85, 778.821 144.85 Q 779.419 144.85, 780.116 144.49 L 780.331 145.065 Q 780.047 145.249, 779.618 145.356 Q 779.189 145.463, 778.713 145.463 Q 777.533 145.463, 776.896 144.743 Q 776.267 144.022, 776.267 142.673 " fill="#00CC00"/>
<path class="atom-37" d="M 781.113 139.575 L 781.818 139.575 L 781.818 145.394 L 781.113 145.394 L 781.113 139.575 " fill="#00CC00"/>
<path class="atom-38" d="M 726.766 183 L 728.545 185.875 Q 728.721 186.159, 729.005 186.673 Q 729.289 187.186, 729.304 187.217 L 729.304 183 L 730.025 183 L 730.025 188.428 L 729.281 188.428 L 727.372 185.285 Q 727.15 184.917, 726.912 184.495 Q 726.682 184.074, 726.613 183.943 L 726.613 188.428 L 725.908 188.428 L 725.908 183 L 726.766 183 " fill="#0000FF"/>
<path class="atom-39" d="M 714.526 117.743 L 716.304 120.618 Q 716.481 120.902, 716.764 121.415 Q 717.048 121.929, 717.063 121.96 L 717.063 117.743 L 717.784 117.743 L 717.784 123.171 L 717.04 123.171 L 715.131 120.028 Q 714.909 119.659, 714.671 119.238 Q 714.441 118.816, 714.372 118.686 L 714.372 123.171 L 713.667 123.171 L 713.667 117.743 L 714.526 117.743 " fill="#0000FF"/>
<path class="atom-39" d="M 713.602 111.772 L 714.338 111.772 L 714.338 114.08 L 717.113 114.08 L 717.113 111.772 L 717.849 111.772 L 717.849 117.2 L 717.113 117.2 L 717.113 114.693 L 714.338 114.693 L 714.338 117.2 L 713.602 117.2 L 713.602 111.772 " fill="#0000FF"/>
<path class="atom-40" d="M 751.964 161.386 L 753.742 164.261 Q 753.919 164.544, 754.202 165.058 Q 754.486 165.572, 754.501 165.602 L 754.501 161.386 L 755.222 161.386 L 755.222 166.814 L 754.478 166.814 L 752.569 163.67 Q 752.347 163.302, 752.109 162.881 Q 751.879 162.459, 751.81 162.329 L 751.81 166.814 L 751.105 166.814 L 751.105 161.386 L 751.964 161.386 " fill="#0000FF"/>
<path class="atom-41" d="M 745.843 128.757 L 747.622 131.632 Q 747.798 131.916, 748.082 132.429 Q 748.366 132.943, 748.381 132.974 L 748.381 128.757 L 749.102 128.757 L 749.102 134.185 L 748.358 134.185 L 746.449 131.042 Q 746.227 130.674, 745.989 130.252 Q 745.759 129.83, 745.69 129.7 L 745.69 134.185 L 744.985 134.185 L 744.985 128.757 L 745.843 128.757 " fill="#0000FF"/>
<path class="atom-42" d="M 714.904 150.372 L 715.64 150.372 L 715.64 152.679 L 718.415 152.679 L 718.415 150.372 L 719.151 150.372 L 719.151 155.8 L 718.415 155.8 L 718.415 153.293 L 715.64 153.293 L 715.64 155.8 L 714.904 155.8 L 714.904 150.372 " fill="#0000FF"/>
<path class="atom-42" d="M 720.646 150.372 L 722.425 153.247 Q 722.601 153.53, 722.885 154.044 Q 723.168 154.558, 723.184 154.588 L 723.184 150.372 L 723.904 150.372 L 723.904 155.8 L 723.161 155.8 L 721.252 152.656 Q 721.029 152.288, 720.792 151.867 Q 720.562 151.445, 720.493 151.315 L 720.493 155.8 L 719.787 155.8 L 719.787 150.372 L 720.646 150.372 " fill="#0000FF"/>
<path class="atom-43" d="M 526.144 153.078 L 527.923 155.953 Q 528.099 156.237, 528.383 156.751 Q 528.666 157.264, 528.682 157.295 L 528.682 153.078 L 529.402 153.078 L 529.402 158.506 L 528.659 158.506 L 526.75 155.363 Q 526.527 154.995, 526.29 154.573 Q 526.06 154.152, 525.991 154.021 L 525.991 158.506 L 525.285 158.506 L 525.285 153.078 L 526.144 153.078 " fill="#0000FF"/>
<path class="atom-44" d="M 513.665 138.531 L 515.443 141.406 Q 515.62 141.69, 515.903 142.203 Q 516.187 142.717, 516.202 142.748 L 516.202 138.531 L 516.923 138.531 L 516.923 143.959 L 516.179 143.959 L 514.27 140.816 Q 514.048 140.448, 513.81 140.026 Q 513.58 139.604, 513.511 139.474 L 513.511 143.959 L 512.806 143.959 L 512.806 138.531 L 513.665 138.531 " fill="#0000FF"/>
<path class="atom-45" d="M 601.497 138.944 L 603.275 141.819 Q 603.452 142.103, 603.735 142.617 Q 604.019 143.13, 604.034 143.161 L 604.034 138.944 L 604.755 138.944 L 604.755 144.372 L 604.011 144.372 L 602.102 141.229 Q 601.88 140.861, 601.642 140.439 Q 601.412 140.018, 601.343 139.887 L 601.343 144.372 L 600.638 144.372 L 600.638 138.944 L 601.497 138.944 " fill="#0000FF"/>
<path class="atom-46" d="M 607.856 120.863 L 609.634 123.738 Q 609.811 124.022, 610.094 124.535 Q 610.378 125.049, 610.393 125.08 L 610.393 120.863 L 611.114 120.863 L 611.114 126.291 L 610.37 126.291 L 608.461 123.148 Q 608.239 122.78, 608.001 122.358 Q 607.771 121.936, 607.702 121.806 L 607.702 126.291 L 606.997 126.291 L 606.997 120.863 L 607.856 120.863 " fill="#0000FF"/>
<path class="atom-47" d="M 631.522 152.688 Q 631.522 151.384, 632.166 150.656 Q 632.81 149.928, 634.014 149.928 Q 635.218 149.928, 635.862 150.656 Q 636.506 151.384, 636.506 152.688 Q 636.506 154.006, 635.854 154.758 Q 635.202 155.501, 634.014 155.501 Q 632.818 155.501, 632.166 154.758 Q 631.522 154.014, 631.522 152.688 M 634.014 154.888 Q 634.842 154.888, 635.287 154.336 Q 635.739 153.776, 635.739 152.688 Q 635.739 151.622, 635.287 151.085 Q 634.842 150.541, 634.014 150.541 Q 633.186 150.541, 632.734 151.078 Q 632.289 151.614, 632.289 152.688 Q 632.289 153.784, 632.734 154.336 Q 633.186 154.888, 634.014 154.888 " fill="#FF0000"/>
<path class="atom-47" d="M 636.759 150.814 L 638.616 150.814 L 638.616 151.218 L 636.759 151.218 L 636.759 150.814 " fill="#FF0000"/>
<path class="atom-48" d="M 418.182 158.928 Q 418.182 157.625, 418.826 156.896 Q 419.47 156.168, 420.673 156.168 Q 421.877 156.168, 422.521 156.896 Q 423.165 157.625, 423.165 158.928 Q 423.165 160.247, 422.513 160.998 Q 421.862 161.742, 420.673 161.742 Q 419.477 161.742, 418.826 160.998 Q 418.182 160.254, 418.182 158.928 M 420.673 161.128 Q 421.501 161.128, 421.946 160.576 Q 422.398 160.017, 422.398 158.928 Q 422.398 157.862, 421.946 157.326 Q 421.501 156.781, 420.673 156.781 Q 419.845 156.781, 419.393 157.318 Q 418.948 157.855, 418.948 158.928 Q 418.948 160.024, 419.393 160.576 Q 419.845 161.128, 420.673 161.128 " fill="#FF0000"/>
<path class="atom-49" d="M 433.486 136.556 Q 433.486 135.253, 434.13 134.525 Q 434.774 133.796, 435.978 133.796 Q 437.182 133.796, 437.826 134.525 Q 438.47 135.253, 438.47 136.556 Q 438.47 137.875, 437.818 138.626 Q 437.166 139.37, 435.978 139.37 Q 434.782 139.37, 434.13 138.626 Q 433.486 137.883, 433.486 136.556 M 435.978 138.757 Q 436.806 138.757, 437.251 138.205 Q 437.703 137.645, 437.703 136.556 Q 437.703 135.491, 437.251 134.954 Q 436.806 134.41, 435.978 134.41 Q 435.15 134.41, 434.698 134.946 Q 434.253 135.483, 434.253 136.556 Q 434.253 137.653, 434.698 138.205 Q 435.15 138.757, 435.978 138.757 " fill="#FF0000"/>
<path class="atom-49" d="M 438.723 134.682 L 440.58 134.682 L 440.58 135.087 L 438.723 135.087 L 438.723 134.682 " fill="#FF0000"/>
<path class="atom-50" d="M 440.554 174.233 Q 440.554 172.929, 441.198 172.201 Q 441.842 171.473, 443.045 171.473 Q 444.249 171.473, 444.893 172.201 Q 445.537 172.929, 445.537 174.233 Q 445.537 175.551, 444.885 176.303 Q 444.234 177.046, 443.045 177.046 Q 441.849 177.046, 441.198 176.303 Q 440.554 175.559, 440.554 174.233 M 443.045 176.433 Q 443.873 176.433, 444.318 175.881 Q 444.77 175.321, 444.77 174.233 Q 444.77 173.167, 444.318 172.63 Q 443.873 172.086, 443.045 172.086 Q 442.217 172.086, 441.765 172.623 Q 441.32 173.159, 441.32 174.233 Q 441.32 175.329, 441.765 175.881 Q 442.217 176.433, 443.045 176.433 " fill="#FF0000"/>
<path class="atom-51" d="M 602.172 70.1839 L 602.908 70.1839 L 602.908 72.4916 L 605.683 72.4916 L 605.683 70.1839 L 606.419 70.1839 L 606.419 75.6119 L 605.683 75.6119 L 605.683 73.1049 L 602.908 73.1049 L 602.908 75.6119 L 602.172 75.6119 L 602.172 70.1839 " fill="#FF0000"/>
<path class="atom-51" d="M 606.802 72.8826 Q 606.802 71.5792, 607.446 70.8509 Q 608.09 70.1226, 609.294 70.1226 Q 610.498 70.1226, 611.142 70.8509 Q 611.786 71.5792, 611.786 72.8826 Q 611.786 74.2012, 611.134 74.9526 Q 610.482 75.6962, 609.294 75.6962 Q 608.098 75.6962, 607.446 74.9526 Q 606.802 74.2089, 606.802 72.8826 M 609.294 75.0829 Q 610.122 75.0829, 610.567 74.5309 Q 611.019 73.9712, 611.019 72.8826 Q 611.019 71.8169, 610.567 71.2802 Q 610.122 70.7359, 609.294 70.7359 Q 608.466 70.7359, 608.014 71.2726 Q 607.569 71.8092, 607.569 72.8826 Q 607.569 73.9789, 608.014 74.5309 Q 608.466 75.0829, 609.294 75.0829 " fill="#FF0000"/>
<path class="atom-52" d="M 633.829 74.9509 Q 633.829 73.6476, 634.473 72.9192 Q 635.117 72.1909, 636.321 72.1909 Q 637.525 72.1909, 638.169 72.9192 Q 638.813 73.6476, 638.813 74.9509 Q 638.813 76.2696, 638.161 77.0209 Q 637.509 77.7646, 636.321 77.7646 Q 635.125 77.7646, 634.473 77.0209 Q 633.829 76.2772, 633.829 74.9509 M 636.321 77.1512 Q 637.149 77.1512, 637.594 76.5992 Q 638.046 76.0396, 638.046 74.9509 Q 638.046 73.8852, 637.594 73.3485 Q 637.149 72.8042, 636.321 72.8042 Q 635.493 72.8042, 635.041 73.3409 Q 634.596 73.8776, 634.596 74.9509 Q 634.596 76.0472, 635.041 76.5992 Q 635.493 77.1512, 636.321 77.1512 " fill="#FF0000"/>
<path class="atom-53" d="M 604.734 99.9094 Q 604.734 98.6061, 605.378 97.8777 Q 606.022 97.1494, 607.226 97.1494 Q 608.429 97.1494, 609.073 97.8777 Q 609.717 98.6061, 609.717 99.9094 Q 609.717 101.228, 609.066 101.979 Q 608.414 102.723, 607.226 102.723 Q 606.03 102.723, 605.378 101.979 Q 604.734 101.236, 604.734 99.9094 M 607.226 102.11 Q 608.054 102.11, 608.498 101.558 Q 608.951 100.998, 608.951 99.9094 Q 608.951 98.8437, 608.498 98.307 Q 608.054 97.7627, 607.226 97.7627 Q 606.398 97.7627, 605.945 98.2994 Q 605.501 98.8361, 605.501 99.9094 Q 605.501 101.006, 605.945 101.558 Q 606.398 102.11, 607.226 102.11 " fill="#FF0000"/>
<path class="atom-54" d="M 437.978 157.242 Q 438.04 157.265, 438.293 157.372 Q 438.546 157.48, 438.822 157.549 Q 439.105 157.61, 439.381 157.61 Q 439.895 157.61, 440.194 157.365 Q 440.493 157.112, 440.493 156.675 Q 440.493 156.376, 440.34 156.192 Q 440.194 156.008, 439.964 155.908 Q 439.734 155.808, 439.351 155.693 Q 438.868 155.548, 438.576 155.41 Q 438.293 155.272, 438.086 154.98 Q 437.886 154.689, 437.886 154.198 Q 437.886 153.516, 438.346 153.094 Q 438.814 152.673, 439.734 152.673 Q 440.363 152.673, 441.076 152.972 L 440.899 153.562 Q 440.248 153.294, 439.757 153.294 Q 439.228 153.294, 438.937 153.516 Q 438.645 153.731, 438.653 154.106 Q 438.653 154.398, 438.799 154.574 Q 438.952 154.75, 439.167 154.85 Q 439.389 154.95, 439.757 155.065 Q 440.248 155.218, 440.539 155.371 Q 440.83 155.525, 441.037 155.839 Q 441.252 156.146, 441.252 156.675 Q 441.252 157.426, 440.746 157.832 Q 440.248 158.231, 439.412 158.231 Q 438.929 158.231, 438.561 158.124 Q 438.201 158.024, 437.771 157.848 L 437.978 157.242 " fill="#CCCC00"/>
<path class="atom-55" d="M 620.24 89.2778 Q 620.301 89.3008, 620.554 89.4081 Q 620.807 89.5155, 621.083 89.5845 Q 621.367 89.6458, 621.643 89.6458 Q 622.157 89.6458, 622.456 89.4005 Q 622.755 89.1475, 622.755 88.7105 Q 622.755 88.4115, 622.601 88.2275 Q 622.456 88.0435, 622.226 87.9438 Q 621.996 87.8441, 621.612 87.7291 Q 621.129 87.5835, 620.838 87.4455 Q 620.554 87.3075, 620.347 87.0161 Q 620.148 86.7248, 620.148 86.2341 Q 620.148 85.5518, 620.608 85.1301 Q 621.076 84.7085, 621.996 84.7085 Q 622.624 84.7085, 623.337 85.0075 L 623.161 85.5978 Q 622.509 85.3295, 622.019 85.3295 Q 621.49 85.3295, 621.198 85.5518 Q 620.907 85.7665, 620.915 86.1421 Q 620.915 86.4335, 621.06 86.6098 Q 621.214 86.7861, 621.428 86.8858 Q 621.651 86.9855, 622.019 87.1005 Q 622.509 87.2538, 622.801 87.4071 Q 623.092 87.5605, 623.299 87.8748 Q 623.514 88.1815, 623.514 88.7105 Q 623.514 89.4618, 623.008 89.8681 Q 622.509 90.2668, 621.674 90.2668 Q 621.191 90.2668, 620.823 90.1595 Q 620.462 90.0598, 620.033 89.8835 L 620.24 89.2778 " fill="#CCCC00"/>
<path class="atom-56" d="M 612.382 57.3754 L 614.161 60.2504 Q 614.337 60.5341, 614.621 61.0477 Q 614.904 61.5614, 614.92 61.5921 L 614.92 57.3754 L 615.64 57.3754 L 615.64 62.8034 L 614.897 62.8034 L 612.988 59.6601 Q 612.765 59.2921, 612.528 58.8704 Q 612.298 58.4487, 612.229 58.3184 L 612.229 62.8034 L 611.523 62.8034 L 611.523 57.3754 L 612.382 57.3754 " fill="#000000"/>
<path class="atom-56" d="M 615.978 61.7378 Q 615.978 61.1091, 616.484 60.7641 Q 616.99 60.4191, 617.917 60.4191 L 618.5 60.4191 L 618.5 60.2657 Q 618.5 59.7751, 618.293 59.5681 Q 618.094 59.3611, 617.603 59.3611 Q 617.289 59.3611, 617.043 59.4224 Q 616.798 59.4761, 616.415 59.6447 L 616.2 59.1464 Q 616.921 58.7937, 617.618 58.7937 Q 618.454 58.7937, 618.837 59.1541 Q 619.221 59.5067, 619.221 60.2811 L 619.221 62.8034 L 618.661 62.8034 Q 618.653 62.7728, 618.63 62.6578 Q 618.607 62.5351, 618.561 62.3434 Q 618.009 62.8954, 617.273 62.8954 Q 616.683 62.8954, 616.33 62.5811 Q 615.978 62.2668, 615.978 61.7378 M 616.698 61.7224 Q 616.698 62.0138, 616.882 62.1748 Q 617.066 62.3281, 617.411 62.3281 Q 617.718 62.3281, 618.009 62.1901 Q 618.301 62.0444, 618.5 61.7991 L 618.5 60.9557 L 617.963 60.9557 Q 617.335 60.9557, 617.013 61.1474 Q 616.698 61.3391, 616.698 61.7224 " fill="#000000"/>
<path class="atom-56" d="M 619.676 59.017 L 620.632 59.017 L 620.632 58.0101 L 621.057 58.0101 L 621.057 59.017 L 622.039 59.017 L 622.039 59.3813 L 621.057 59.3813 L 621.057 60.3933 L 620.632 60.3933 L 620.632 59.3813 L 619.676 59.3813 L 619.676 59.017 " fill="#000000"/>
<path class="atom-57" d="M 612.382 44.5976 L 614.161 47.4726 Q 614.337 47.7563, 614.621 48.2699 Q 614.904 48.7836, 614.92 48.8143 L 614.92 44.5976 L 615.64 44.5976 L 615.64 50.0256 L 614.897 50.0256 L 612.988 46.8823 Q 612.765 46.5143, 612.528 46.0926 Q 612.298 45.6709, 612.229 45.5406 L 612.229 50.0256 L 611.523 50.0256 L 611.523 44.5976 L 612.382 44.5976 " fill="#000000"/>
<path class="atom-57" d="M 615.978 48.9599 Q 615.978 48.3313, 616.484 47.9863 Q 616.99 47.6413, 617.917 47.6413 L 618.5 47.6413 L 618.5 47.4879 Q 618.5 46.9973, 618.293 46.7903 Q 618.094 46.5833, 617.603 46.5833 Q 617.289 46.5833, 617.043 46.6446 Q 616.798 46.6983, 616.415 46.8669 L 616.2 46.3686 Q 616.921 46.0159, 617.618 46.0159 Q 618.454 46.0159, 618.837 46.3763 Q 619.221 46.7289, 619.221 47.5033 L 619.221 50.0256 L 618.661 50.0256 Q 618.653 49.9949, 618.63 49.8799 Q 618.607 49.7573, 618.561 49.5656 Q 618.009 50.1176, 617.273 50.1176 Q 616.683 50.1176, 616.33 49.8033 Q 615.978 49.4889, 615.978 48.9599 M 616.698 48.9446 Q 616.698 49.2359, 616.882 49.3969 Q 617.066 49.5503, 617.411 49.5503 Q 617.718 49.5503, 618.009 49.4123 Q 618.301 49.2666, 618.5 49.0213 L 618.5 48.1779 L 617.963 48.1779 Q 617.335 48.1779, 617.013 48.3696 Q 616.698 48.5613, 616.698 48.9446 " fill="#000000"/>
<path class="atom-57" d="M 619.676 46.2392 L 620.632 46.2392 L 620.632 45.2322 L 621.057 45.2322 L 621.057 46.2392 L 622.039 46.2392 L 622.039 46.6035 L 621.057 46.6035 L 621.057 47.6155 L 620.632 47.6155 L 620.632 46.6035 L 619.676 46.6035 L 619.676 46.2392 " fill="#000000"/>
<path d="M 574.774 388.056 Q 574.774 385.24, 576.086 383.768 Q 577.414 382.28, 579.926 382.28 Q 582.262 382.28, 583.51 383.928 L 582.454 384.792 Q 581.542 383.592, 579.926 383.592 Q 578.214 383.592, 577.302 384.744 Q 576.406 385.88, 576.406 388.056 Q 576.406 390.296, 577.334 391.448 Q 578.278 392.6, 580.102 392.6 Q 581.35 392.6, 582.806 391.848 L 583.254 393.048 Q 582.662 393.432, 581.766 393.656 Q 580.87 393.88, 579.878 393.88 Q 577.414 393.88, 576.086 392.376 Q 574.774 390.872, 574.774 388.056 " fill="#000000"/>
<path d="M 584.886 381.592 L 586.358 381.592 L 586.358 393.736 L 584.886 393.736 L 584.886 381.592 " fill="#000000"/>
<path d="M 587.062 391.512 Q 587.062 390.2, 588.118 389.48 Q 589.174 388.76, 591.11 388.76 L 592.326 388.76 L 592.326 388.44 Q 592.326 387.416, 591.894 386.984 Q 591.478 386.552, 590.454 386.552 Q 589.798 386.552, 589.286 386.68 Q 588.774 386.792, 587.974 387.144 L 587.526 386.104 Q 589.03 385.368, 590.486 385.368 Q 592.23 385.368, 593.03 386.12 Q 593.83 386.856, 593.83 388.472 L 593.83 393.736 L 592.662 393.736 Q 592.646 393.672, 592.598 393.432 Q 592.55 393.176, 592.454 392.776 Q 591.302 393.928, 589.766 393.928 Q 588.534 393.928, 587.798 393.272 Q 587.062 392.616, 587.062 391.512 M 588.566 391.48 Q 588.566 392.088, 588.95 392.424 Q 589.334 392.744, 590.054 392.744 Q 590.694 392.744, 591.302 392.456 Q 591.91 392.152, 592.326 391.64 L 592.326 389.88 L 591.206 389.88 Q 589.894 389.88, 589.222 390.28 Q 588.566 390.68, 588.566 391.48 " fill="#000000"/>
<path d="M 595.094 392.04 Q 595.814 392.344, 596.326 392.488 Q 596.854 392.632, 597.414 392.632 Q 598.134 392.632, 598.534 392.328 Q 598.95 392.024, 598.95 391.432 Q 598.95 391.064, 598.726 390.84 Q 598.518 390.6, 598.246 390.488 Q 597.99 390.376, 597.27 390.136 Q 597.158 390.104, 596.422 389.848 Q 595.686 389.592, 595.286 389.048 Q 594.902 388.504, 594.902 387.704 Q 594.902 386.712, 595.67 386.04 Q 596.438 385.368, 597.926 385.368 Q 598.55 385.368, 599.094 385.512 Q 599.654 385.656, 600.262 385.896 L 599.862 387.08 Q 599.334 386.872, 598.87 386.744 Q 598.422 386.616, 597.926 386.616 Q 597.174 386.616, 596.79 386.92 Q 596.406 387.208, 596.406 387.688 Q 596.406 388.136, 596.71 388.36 Q 597.014 388.568, 597.686 388.808 Q 597.862 388.856, 598.006 388.92 L 598.39 389.064 Q 599.062 389.288, 599.462 389.512 Q 599.878 389.736, 600.166 390.2 Q 600.454 390.648, 600.454 391.4 Q 600.454 392.584, 599.606 393.24 Q 598.774 393.88, 597.43 393.88 Q 596.646 393.88, 595.974 393.72 Q 595.302 393.544, 594.63 393.256 L 595.094 392.04 " fill="#000000"/>
<path d="M 601.718 392.04 Q 602.438 392.344, 602.95 392.488 Q 603.478 392.632, 604.038 392.632 Q 604.758 392.632, 605.158 392.328 Q 605.574 392.024, 605.574 391.432 Q 605.574 391.064, 605.35 390.84 Q 605.142 390.6, 604.87 390.488 Q 604.614 390.376, 603.894 390.136 Q 603.782 390.104, 603.046 389.848 Q 602.31 389.592, 601.91 389.048 Q 601.526 388.504, 601.526 387.704 Q 601.526 386.712, 602.294 386.04 Q 603.062 385.368, 604.55 385.368 Q 605.174 385.368, 605.718 385.512 Q 606.278 385.656, 606.886 385.896 L 606.486 387.08 Q 605.958 386.872, 605.494 386.744 Q 605.046 386.616, 604.55 386.616 Q 603.798 386.616, 603.414 386.92 Q 603.03 387.208, 603.03 387.688 Q 603.03 388.136, 603.334 388.36 Q 603.638 388.568, 604.31 388.808 Q 604.486 388.856, 604.63 388.92 L 605.014 389.064 Q 605.686 389.288, 606.086 389.512 Q 606.502 389.736, 606.79 390.2 Q 607.078 390.648, 607.078 391.4 Q 607.078 392.584, 606.23 393.24 Q 605.398 393.88, 604.054 393.88 Q 603.27 393.88, 602.598 393.72 Q 601.926 393.544, 601.254 393.256 L 601.718 392.04 " fill="#000000"/>
<path d="" fill="#000000"/>
<path d="M 612.566 392.456 L 615.046 392.456 L 615.046 383.992 L 612.31 384.84 L 611.942 383.896 L 615.414 382.344 L 616.55 382.536 L 616.55 392.456 L 618.774 392.456 L 618.774 393.736 L 612.566 393.736 L 612.566 392.456 " fill="#000000"/>
<path class="bond-0 atom-0 atom-5" d="M 297.543,547.251 L 278.711,550.816" style="fill:none;fill-rule:evenodd;stroke:#000000;stroke-width:2.0px;stroke-linecap:butt;stroke-linejoin:miter;stroke-opacity:1"/>
<path class="bond-1 atom-1 atom-6" d="M 305.001,562.733 L 290.474,575.237" style="fill:none;fill-rule:evenodd;stroke:#000000;stroke-width:2.0px;stroke-linecap:butt;stroke-linejoin:miter;stroke-opacity:1"/>
<path class="bond-2 atom-2 atom-17" d="M 266.054,587 L 272.382,568.908" style="fill:none;fill-rule:evenodd;stroke:#000000;stroke-width:2.0px;stroke-linecap:butt;stroke-linejoin:miter;stroke-opacity:1"/>
<path class="bond-3 atom-3 atom-21" d="M 181.425,522.466 L 173.732,524.777" style="fill:none;fill-rule:evenodd;stroke:#000000;stroke-width:2.0px;stroke-linecap:butt;stroke-linejoin:miter;stroke-opacity:1"/>
<path class="bond-3 atom-3 atom-21" d="M 173.732,524.777 L 166.04,527.088" style="fill:none;fill-rule:evenodd;stroke:#FF0000;stroke-width:2.0px;stroke-linecap:butt;stroke-linejoin:miter;stroke-opacity:1"/>
<path class="bond-4 atom-4 atom-22" d="M 177.767,610.223 L 179.578,602.55" style="fill:none;fill-rule:evenodd;stroke:#000000;stroke-width:2.0px;stroke-linecap:butt;stroke-linejoin:miter;stroke-opacity:1"/>
<path class="bond-4 atom-4 atom-22" d="M 179.578,602.55 L 181.389,594.877" style="fill:none;fill-rule:evenodd;stroke:#FF0000;stroke-width:2.0px;stroke-linecap:butt;stroke-linejoin:miter;stroke-opacity:1"/>
<path class="bond-5 atom-5 atom-17" d="M 278.711,550.816 L 272.382,568.908" style="fill:none;fill-rule:evenodd;stroke:#000000;stroke-width:2.0px;stroke-linecap:butt;stroke-linejoin:miter;stroke-opacity:1"/>
<path class="bond-6 atom-6 atom-17" d="M 290.474,575.237 L 272.382,568.908" style="fill:none;fill-rule:evenodd;stroke:#000000;stroke-width:2.0px;stroke-linecap:butt;stroke-linejoin:miter;stroke-opacity:1"/>
<path class="bond-7 atom-7 atom-8" d="M 135.907,570.802 L 140.309,552.148" style="fill:none;fill-rule:evenodd;stroke:#000000;stroke-width:2.0px;stroke-linecap:butt;stroke-linejoin:miter;stroke-opacity:1"/>
<path class="bond-7 atom-7 atom-8" d="M 140.298,568.885 L 143.38,555.827" style="fill:none;fill-rule:evenodd;stroke:#000000;stroke-width:2.0px;stroke-linecap:butt;stroke-linejoin:miter;stroke-opacity:1"/>
<path class="bond-8 atom-7 atom-9" d="M 135.907,570.802 L 149.86,583.943" style="fill:none;fill-rule:evenodd;stroke:#000000;stroke-width:2.0px;stroke-linecap:butt;stroke-linejoin:miter;stroke-opacity:1"/>
<path class="bond-9 atom-8 atom-11" d="M 140.309,552.148 L 158.666,546.634" style="fill:none;fill-rule:evenodd;stroke:#000000;stroke-width:2.0px;stroke-linecap:butt;stroke-linejoin:miter;stroke-opacity:1"/>
<path class="bond-10 atom-9 atom-12" d="M 149.86,583.943 L 168.217,578.429" style="fill:none;fill-rule:evenodd;stroke:#000000;stroke-width:2.0px;stroke-linecap:butt;stroke-linejoin:miter;stroke-opacity:1"/>
<path class="bond-10 atom-9 atom-12" d="M 151.511,579.444 L 164.36,575.584" style="fill:none;fill-rule:evenodd;stroke:#000000;stroke-width:2.0px;stroke-linecap:butt;stroke-linejoin:miter;stroke-opacity:1"/>
<path class="bond-11 atom-10 atom-13" d="M 238.536,573.496 L 254.29,562.579" style="fill:none;fill-rule:evenodd;stroke:#000000;stroke-width:2.0px;stroke-linecap:butt;stroke-linejoin:miter;stroke-opacity:1"/>
<path class="bond-12 atom-10 atom-14" d="M 238.536,573.496 L 223.286,561.886" style="fill:none;fill-rule:evenodd;stroke:#000000;stroke-width:2.0px;stroke-linecap:butt;stroke-linejoin:miter;stroke-opacity:1"/>
<path class="bond-12 atom-10 atom-14" d="M 238.571,568.704 L 227.895,560.578" style="fill:none;fill-rule:evenodd;stroke:#000000;stroke-width:2.0px;stroke-linecap:butt;stroke-linejoin:miter;stroke-opacity:1"/>
<path class="bond-13 atom-11 atom-15" d="M 158.666,546.634 L 172.619,559.774" style="fill:none;fill-rule:evenodd;stroke:#000000;stroke-width:2.0px;stroke-linecap:butt;stroke-linejoin:miter;stroke-opacity:1"/>
<path class="bond-13 atom-11 atom-15" d="M 158.131,551.396 L 167.898,560.594" style="fill:none;fill-rule:evenodd;stroke:#000000;stroke-width:2.0px;stroke-linecap:butt;stroke-linejoin:miter;stroke-opacity:1"/>
<path class="bond-14 atom-11 atom-21" d="M 158.666,546.634 L 160.477,538.961" style="fill:none;fill-rule:evenodd;stroke:#000000;stroke-width:2.0px;stroke-linecap:butt;stroke-linejoin:miter;stroke-opacity:1"/>
<path class="bond-14 atom-11 atom-21" d="M 160.477,538.961 L 162.288,531.288" style="fill:none;fill-rule:evenodd;stroke:#FF0000;stroke-width:2.0px;stroke-linecap:butt;stroke-linejoin:miter;stroke-opacity:1"/>
<path class="bond-15 atom-12 atom-15" d="M 168.217,578.429 L 172.619,559.774" style="fill:none;fill-rule:evenodd;stroke:#000000;stroke-width:2.0px;stroke-linecap:butt;stroke-linejoin:miter;stroke-opacity:1"/>
<path class="bond-16 atom-12 atom-22" d="M 168.217,578.429 L 173.708,583.6" style="fill:none;fill-rule:evenodd;stroke:#000000;stroke-width:2.0px;stroke-linecap:butt;stroke-linejoin:miter;stroke-opacity:1"/>
<path class="bond-16 atom-12 atom-22" d="M 173.708,583.6 L 179.199,588.771" style="fill:none;fill-rule:evenodd;stroke:#FF0000;stroke-width:2.0px;stroke-linecap:butt;stroke-linejoin:miter;stroke-opacity:1"/>
<path class="bond-17 atom-13 atom-17" d="M 254.29,562.579 L 272.382,568.908" style="fill:none;fill-rule:evenodd;stroke:#000000;stroke-width:2.0px;stroke-linecap:butt;stroke-linejoin:miter;stroke-opacity:1"/>
<path class="bond-18 atom-13 atom-19" d="M 254.29,562.579 L 252.013,554.998" style="fill:none;fill-rule:evenodd;stroke:#000000;stroke-width:2.0px;stroke-linecap:butt;stroke-linejoin:miter;stroke-opacity:1"/>
<path class="bond-18 atom-13 atom-19" d="M 252.013,554.998 L 249.736,547.416" style="fill:none;fill-rule:evenodd;stroke:#0000FF;stroke-width:2.0px;stroke-linecap:butt;stroke-linejoin:miter;stroke-opacity:1"/>
<path class="bond-18 atom-13 atom-19" d="M 249.936,561.408 L 248.342,556.1" style="fill:none;fill-rule:evenodd;stroke:#000000;stroke-width:2.0px;stroke-linecap:butt;stroke-linejoin:miter;stroke-opacity:1"/>
<path class="bond-18 atom-13 atom-19" d="M 248.342,556.1 L 246.748,550.793" style="fill:none;fill-rule:evenodd;stroke:#0000FF;stroke-width:2.0px;stroke-linecap:butt;stroke-linejoin:miter;stroke-opacity:1"/>
<path class="bond-19 atom-14 atom-18" d="M 223.286,561.886 L 215.376,564.262" style="fill:none;fill-rule:evenodd;stroke:#000000;stroke-width:2.0px;stroke-linecap:butt;stroke-linejoin:miter;stroke-opacity:1"/>
<path class="bond-19 atom-14 atom-18" d="M 215.376,564.262 L 207.467,566.638" style="fill:none;fill-rule:evenodd;stroke:#0000FF;stroke-width:2.0px;stroke-linecap:butt;stroke-linejoin:miter;stroke-opacity:1"/>
<path class="bond-20 atom-14 atom-23" d="M 223.286,561.886 L 225.872,554.495" style="fill:none;fill-rule:evenodd;stroke:#000000;stroke-width:2.0px;stroke-linecap:butt;stroke-linejoin:miter;stroke-opacity:1"/>
<path class="bond-20 atom-14 atom-23" d="M 225.872,554.495 L 228.457,547.103" style="fill:none;fill-rule:evenodd;stroke:#FF0000;stroke-width:2.0px;stroke-linecap:butt;stroke-linejoin:miter;stroke-opacity:1"/>
<path class="bond-21 atom-15 atom-16" d="M 172.619,559.774 L 190.976,554.26" style="fill:none;fill-rule:evenodd;stroke:#000000;stroke-width:2.0px;stroke-linecap:butt;stroke-linejoin:miter;stroke-opacity:1"/>
<path class="bond-22 atom-16 atom-18" d="M 190.976,554.26 L 196.684,559.635" style="fill:none;fill-rule:evenodd;stroke:#000000;stroke-width:2.0px;stroke-linecap:butt;stroke-linejoin:miter;stroke-opacity:1"/>
<path class="bond-22 atom-16 atom-18" d="M 196.684,559.635 L 202.392,565.011" style="fill:none;fill-rule:evenodd;stroke:#0000FF;stroke-width:2.0px;stroke-linecap:butt;stroke-linejoin:miter;stroke-opacity:1"/>
<path class="bond-23 atom-16 atom-20" d="M 192.841,554.701 L 194.652,547.028" style="fill:none;fill-rule:evenodd;stroke:#000000;stroke-width:2.0px;stroke-linecap:butt;stroke-linejoin:miter;stroke-opacity:1"/>
<path class="bond-23 atom-16 atom-20" d="M 194.652,547.028 L 196.463,539.355" style="fill:none;fill-rule:evenodd;stroke:#FF0000;stroke-width:2.0px;stroke-linecap:butt;stroke-linejoin:miter;stroke-opacity:1"/>
<path class="bond-23 atom-16 atom-20" d="M 189.11,553.82 L 190.921,546.147" style="fill:none;fill-rule:evenodd;stroke:#000000;stroke-width:2.0px;stroke-linecap:butt;stroke-linejoin:miter;stroke-opacity:1"/>
<path class="bond-23 atom-16 atom-20" d="M 190.921,546.147 L 192.733,538.474" style="fill:none;fill-rule:evenodd;stroke:#FF0000;stroke-width:2.0px;stroke-linecap:butt;stroke-linejoin:miter;stroke-opacity:1"/>
<path class="bond-24 atom-19 atom-23" d="M 246.239,544.166 L 239.38,544.013" style="fill:none;fill-rule:evenodd;stroke:#0000FF;stroke-width:2.0px;stroke-linecap:butt;stroke-linejoin:miter;stroke-opacity:1"/>
<path class="bond-24 atom-19 atom-23" d="M 239.38,544.013 L 232.522,543.86" style="fill:none;fill-rule:evenodd;stroke:#FF0000;stroke-width:2.0px;stroke-linecap:butt;stroke-linejoin:miter;stroke-opacity:1"/>
<path class="atom-18" d="M 203.73 564.686 L 205.508 567.561 Q 205.685 567.845, 205.968 568.359 Q 206.252 568.872, 206.267 568.903 L 206.267 564.686 L 206.988 564.686 L 206.988 570.114 L 206.244 570.114 L 204.335 566.971 Q 204.113 566.603, 203.875 566.181 Q 203.645 565.76, 203.576 565.629 L 203.576 570.114 L 202.871 570.114 L 202.871 564.686 L 203.73 564.686 " fill="#0000FF"/>
<path class="atom-18" d="M 202.806 570.657 L 203.542 570.657 L 203.542 572.965 L 206.317 572.965 L 206.317 570.657 L 207.053 570.657 L 207.053 576.085 L 206.317 576.085 L 206.317 573.578 L 203.542 573.578 L 203.542 576.085 L 202.806 576.085 L 202.806 570.657 " fill="#0000FF"/>
<path class="atom-19" d="M 247.577 541.509 L 249.355 544.384 Q 249.532 544.668, 249.815 545.181 Q 250.099 545.695, 250.114 545.726 L 250.114 541.509 L 250.835 541.509 L 250.835 546.937 L 250.091 546.937 L 248.182 543.794 Q 247.96 543.426, 247.722 543.004 Q 247.492 542.582, 247.423 542.452 L 247.423 546.937 L 246.718 546.937 L 246.718 541.509 L 247.577 541.509 " fill="#0000FF"/>
<path class="atom-20" d="M 192.887 535.621 Q 192.887 534.318, 193.531 533.59 Q 194.175 532.861, 195.379 532.861 Q 196.582 532.861, 197.226 533.59 Q 197.87 534.318, 197.87 535.621 Q 197.87 536.94, 197.219 537.691 Q 196.567 538.435, 195.379 538.435 Q 194.183 538.435, 193.531 537.691 Q 192.887 536.948, 192.887 535.621 M 195.379 537.822 Q 196.207 537.822, 196.651 537.27 Q 197.104 536.71, 197.104 535.621 Q 197.104 534.556, 196.651 534.019 Q 196.207 533.475, 195.379 533.475 Q 194.551 533.475, 194.098 534.011 Q 193.654 534.548, 193.654 535.621 Q 193.654 536.718, 194.098 537.27 Q 194.551 537.822, 195.379 537.822 " fill="#FF0000"/>
<path class="atom-21" d="M 160.577 527.995 Q 160.577 526.692, 161.221 525.964 Q 161.865 525.235, 163.069 525.235 Q 164.272 525.235, 164.916 525.964 Q 165.56 526.692, 165.56 527.995 Q 165.56 529.314, 164.909 530.065 Q 164.257 530.809, 163.069 530.809 Q 161.873 530.809, 161.221 530.065 Q 160.577 529.322, 160.577 527.995 M 163.069 530.196 Q 163.897 530.196, 164.341 529.644 Q 164.794 529.084, 164.794 527.995 Q 164.794 526.93, 164.341 526.393 Q 163.897 525.849, 163.069 525.849 Q 162.241 525.849, 161.788 526.385 Q 161.344 526.922, 161.344 527.995 Q 161.344 529.092, 161.788 529.644 Q 162.241 530.196, 163.069 530.196 " fill="#FF0000"/>
<path class="atom-22" d="M 179.678 591.584 Q 179.678 590.281, 180.322 589.552 Q 180.966 588.824, 182.17 588.824 Q 183.374 588.824, 184.018 589.552 Q 184.662 590.281, 184.662 591.584 Q 184.662 592.903, 184.01 593.654 Q 183.358 594.398, 182.17 594.398 Q 180.974 594.398, 180.322 593.654 Q 179.678 592.91, 179.678 591.584 M 182.17 593.784 Q 182.998 593.784, 183.443 593.232 Q 183.895 592.673, 183.895 591.584 Q 183.895 590.518, 183.443 589.982 Q 182.998 589.437, 182.17 589.437 Q 181.342 589.437, 180.89 589.974 Q 180.445 590.511, 180.445 591.584 Q 180.445 592.68, 180.89 593.232 Q 181.342 593.784, 182.17 593.784 " fill="#FF0000"/>
<path class="atom-23" d="M 227.123 543.81 Q 227.123 542.507, 227.767 541.778 Q 228.411 541.05, 229.614 541.05 Q 230.818 541.05, 231.462 541.778 Q 232.106 542.507, 232.106 543.81 Q 232.106 545.129, 231.454 545.88 Q 230.803 546.624, 229.614 546.624 Q 228.418 546.624, 227.767 545.88 Q 227.123 545.136, 227.123 543.81 M 229.614 546.01 Q 230.442 546.01, 230.887 545.458 Q 231.339 544.899, 231.339 543.81 Q 231.339 542.744, 230.887 542.208 Q 230.442 541.663, 229.614 541.663 Q 228.786 541.663, 228.334 542.2 Q 227.889 542.737, 227.889 543.81 Q 227.889 544.906, 228.334 545.458 Q 228.786 546.01, 229.614 546.01 " fill="#FF0000"/>
<path d="M 174.526 788.056 Q 174.526 785.24, 175.838 783.768 Q 177.166 782.28, 179.678 782.28 Q 182.014 782.28, 183.262 783.928 L 182.206 784.792 Q 181.294 783.592, 179.678 783.592 Q 177.966 783.592, 177.054 784.744 Q 176.158 785.88, 176.158 788.056 Q 176.158 790.296, 177.086 791.448 Q 178.03 792.6, 179.854 792.6 Q 181.102 792.6, 182.558 791.848 L 183.006 793.048 Q 182.414 793.432, 181.518 793.656 Q 180.622 793.88, 179.63 793.88 Q 177.166 793.88, 175.838 792.376 Q 174.526 790.872, 174.526 788.056 " fill="#000000"/>
<path d="M 184.638 781.592 L 186.11 781.592 L 186.11 793.736 L 184.638 793.736 L 184.638 781.592 " fill="#000000"/>
<path d="M 186.814 791.512 Q 186.814 790.2, 187.87 789.48 Q 188.926 788.76, 190.862 788.76 L 192.078 788.76 L 192.078 788.44 Q 192.078 787.416, 191.646 786.984 Q 191.23 786.552, 190.206 786.552 Q 189.55 786.552, 189.038 786.68 Q 188.526 786.792, 187.726 787.144 L 187.278 786.104 Q 188.782 785.368, 190.238 785.368 Q 191.982 785.368, 192.782 786.12 Q 193.582 786.856, 193.582 788.472 L 193.582 793.736 L 192.414 793.736 Q 192.398 793.672, 192.35 793.432 Q 192.302 793.176, 192.206 792.776 Q 191.054 793.928, 189.518 793.928 Q 188.286 793.928, 187.55 793.272 Q 186.814 792.616, 186.814 791.512 M 188.318 791.48 Q 188.318 792.088, 188.702 792.424 Q 189.086 792.744, 189.806 792.744 Q 190.446 792.744, 191.054 792.456 Q 191.662 792.152, 192.078 791.64 L 192.078 789.88 L 190.958 789.88 Q 189.646 789.88, 188.974 790.28 Q 188.318 790.68, 188.318 791.48 " fill="#000000"/>
<path d="M 194.846 792.04 Q 195.566 792.344, 196.078 792.488 Q 196.606 792.632, 197.166 792.632 Q 197.886 792.632, 198.286 792.328 Q 198.702 792.024, 198.702 791.432 Q 198.702 791.064, 198.478 790.84 Q 198.27 790.6, 197.998 790.488 Q 197.742 790.376, 197.022 790.136 Q 196.91 790.104, 196.174 789.848 Q 195.438 789.592, 195.038 789.048 Q 194.654 788.504, 194.654 787.704 Q 194.654 786.712, 195.422 786.04 Q 196.19 785.368, 197.678 785.368 Q 198.302 785.368, 198.846 785.512 Q 199.406 785.656, 200.014 785.896 L 199.614 787.08 Q 199.086 786.872, 198.622 786.744 Q 198.174 786.616, 197.678 786.616 Q 196.926 786.616, 196.542 786.92 Q 196.158 787.208, 196.158 787.688 Q 196.158 788.136, 196.462 788.36 Q 196.766 788.568, 197.438 788.808 Q 197.614 788.856, 197.758 788.92 L 198.142 789.064 Q 198.814 789.288, 199.214 789.512 Q 199.63 789.736, 199.918 790.2 Q 200.206 790.648, 200.206 791.4 Q 200.206 792.584, 199.358 793.24 Q 198.526 793.88, 197.182 793.88 Q 196.398 793.88, 195.726 793.72 Q 195.054 793.544, 194.382 793.256 L 194.846 792.04 " fill="#000000"/>
<path d="M 201.47 792.04 Q 202.19 792.344, 202.702 792.488 Q 203.23 792.632, 203.79 792.632 Q 204.51 792.632, 204.91 792.328 Q 205.326 792.024, 205.326 791.432 Q 205.326 791.064, 205.102 790.84 Q 204.894 790.6, 204.622 790.488 Q 204.366 790.376, 203.646 790.136 Q 203.534 790.104, 202.798 789.848 Q 202.062 789.592, 201.662 789.048 Q 201.278 788.504, 201.278 787.704 Q 201.278 786.712, 202.046 786.04 Q 202.814 785.368, 204.302 785.368 Q 204.926 785.368, 205.47 785.512 Q 206.03 785.656, 206.638 785.896 L 206.238 787.08 Q 205.71 786.872, 205.246 786.744 Q 204.798 786.616, 204.302 786.616 Q 203.55 786.616, 203.166 786.92 Q 202.782 787.208, 202.782 787.688 Q 202.782 788.136, 203.086 788.36 Q 203.39 788.568, 204.062 788.808 Q 204.238 788.856, 204.382 788.92 L 204.766 789.064 Q 205.438 789.288, 205.838 789.512 Q 206.254 789.736, 206.542 790.2 Q 206.83 790.648, 206.83 791.4 Q 206.83 792.584, 205.982 793.24 Q 205.15 793.88, 203.806 793.88 Q 203.022 793.88, 202.35 793.72 Q 201.678 793.544, 201.006 793.256 L 201.47 792.04 " fill="#000000"/>
<path d="" fill="#000000"/>
<path d="M 211.662 784.552 Q 212.078 783.48, 213.07 782.888 Q 214.062 782.28, 215.438 782.28 Q 217.15 782.28, 218.11 783.208 Q 219.07 784.136, 219.07 785.784 Q 219.07 787.464, 217.822 789.032 Q 216.59 790.6, 214.03 792.456 L 219.262 792.456 L 219.262 793.736 L 211.63 793.736 L 211.63 792.664 Q 213.742 791.16, 214.99 790.04 Q 216.254 788.92, 216.862 787.912 Q 217.47 786.904, 217.47 785.864 Q 217.47 784.776, 216.926 784.168 Q 216.382 783.56, 215.438 783.56 Q 214.526 783.56, 213.918 783.928 Q 213.31 784.296, 212.878 785.112 L 211.662 784.552 " fill="#000000"/>
<path class="bond-0 atom-19 atom-0" d="M 645.111,564.374 L 635.117,580.841 L 638.575,582.494 Z" style="fill:#000000;fill-rule:evenodd;fill-opacity:1;stroke:#000000;stroke-width:2.0px;stroke-linecap:butt;stroke-linejoin:miter;stroke-opacity:1;"/>
<path class="bond-1 atom-20 atom-1" d="M 587.668,561.82 L 574.225,575.616 L 577.223,578.005 Z" style="fill:#000000;fill-rule:evenodd;fill-opacity:1;stroke:#000000;stroke-width:2.0px;stroke-linecap:butt;stroke-linejoin:miter;stroke-opacity:1;"/>
<path class="bond-2 atom-2 atom-3" d="M 646.586,531.209 L 627.438,530.358" style="fill:none;fill-rule:evenodd;stroke:#000000;stroke-width:2.0px;stroke-linecap:butt;stroke-linejoin:miter;stroke-opacity:1"/>
<path class="bond-3 atom-2 atom-11" d="M 646.586,531.209 L 655.422,548.217" style="fill:none;fill-rule:evenodd;stroke:#000000;stroke-width:2.0px;stroke-linecap:butt;stroke-linejoin:miter;stroke-opacity:1"/>
<path class="bond-4 atom-3 atom-13" d="M 627.438,530.358 L 617.127,546.515" style="fill:none;fill-rule:evenodd;stroke:#000000;stroke-width:2.0px;stroke-linecap:butt;stroke-linejoin:miter;stroke-opacity:1"/>
<path class="bond-5 atom-4 atom-5" d="M 585.799,530.864 L 567.96,537.875" style="fill:none;fill-rule:evenodd;stroke:#000000;stroke-width:2.0px;stroke-linecap:butt;stroke-linejoin:miter;stroke-opacity:1"/>
<path class="bond-6 atom-4 atom-14" d="M 585.799,530.864 L 597.979,545.663" style="fill:none;fill-rule:evenodd;stroke:#000000;stroke-width:2.0px;stroke-linecap:butt;stroke-linejoin:miter;stroke-opacity:1"/>
<path class="bond-7 atom-5 atom-15" d="M 567.96,537.875 L 569.115,557.006" style="fill:none;fill-rule:evenodd;stroke:#000000;stroke-width:2.0px;stroke-linecap:butt;stroke-linejoin:miter;stroke-opacity:1"/>
<path class="bond-8 atom-6 atom-7" d="M 673.095,582.234 L 653.948,581.382" style="fill:none;fill-rule:evenodd;stroke:#000000;stroke-width:2.0px;stroke-linecap:butt;stroke-linejoin:miter;stroke-opacity:1"/>
<path class="bond-9 atom-6 atom-12" d="M 673.095,582.234 L 683.407,566.077" style="fill:none;fill-rule:evenodd;stroke:#000000;stroke-width:2.0px;stroke-linecap:butt;stroke-linejoin:miter;stroke-opacity:1"/>
<path class="bond-10 atom-7 atom-19" d="M 653.948,581.382 L 645.111,564.374" style="fill:none;fill-rule:evenodd;stroke:#000000;stroke-width:2.0px;stroke-linecap:butt;stroke-linejoin:miter;stroke-opacity:1"/>
<path class="bond-11 atom-8 atom-11" d="M 674.57,549.069 L 655.422,548.217" style="fill:none;fill-rule:evenodd;stroke:#000000;stroke-width:2.0px;stroke-linecap:butt;stroke-linejoin:miter;stroke-opacity:1"/>
<path class="bond-11 atom-8 atom-11" d="M 671.528,552.771 L 658.124,552.175" style="fill:none;fill-rule:evenodd;stroke:#000000;stroke-width:2.0px;stroke-linecap:butt;stroke-linejoin:miter;stroke-opacity:1"/>
<path class="bond-12 atom-8 atom-12" d="M 674.57,549.069 L 683.407,566.077" style="fill:none;fill-rule:evenodd;stroke:#000000;stroke-width:2.0px;stroke-linecap:butt;stroke-linejoin:miter;stroke-opacity:1"/>
<path class="bond-13 atom-9 atom-16" d="M 596.504,578.828 L 615.652,579.68" style="fill:none;fill-rule:evenodd;stroke:#000000;stroke-width:2.0px;stroke-linecap:butt;stroke-linejoin:miter;stroke-opacity:1"/>
<path class="bond-14 atom-9 atom-20" d="M 596.504,578.828 L 587.668,561.82" style="fill:none;fill-rule:evenodd;stroke:#000000;stroke-width:2.0px;stroke-linecap:butt;stroke-linejoin:miter;stroke-opacity:1"/>
<path class="bond-15 atom-10 atom-17" d="M 536.368,562.46 L 554.316,569.186" style="fill:none;fill-rule:evenodd;stroke:#000000;stroke-width:2.0px;stroke-linecap:butt;stroke-linejoin:miter;stroke-opacity:1"/>
<path class="bond-16 atom-10 atom-21" d="M 536.368,562.46 L 530.454,567.327" style="fill:none;fill-rule:evenodd;stroke:#000000;stroke-width:2.0px;stroke-linecap:butt;stroke-linejoin:miter;stroke-opacity:1"/>
<path class="bond-16 atom-10 atom-21" d="M 530.454,567.327 L 524.54,572.194" style="fill:none;fill-rule:evenodd;stroke:#FF0000;stroke-width:2.0px;stroke-linecap:butt;stroke-linejoin:miter;stroke-opacity:1"/>
<path class="bond-17 atom-11 atom-19" d="M 655.422,548.217 L 645.111,564.374" style="fill:none;fill-rule:evenodd;stroke:#000000;stroke-width:2.0px;stroke-linecap:butt;stroke-linejoin:miter;stroke-opacity:1"/>
<path class="bond-18 atom-12 atom-22" d="M 683.322,567.992 L 691.41,568.351" style="fill:none;fill-rule:evenodd;stroke:#000000;stroke-width:2.0px;stroke-linecap:butt;stroke-linejoin:miter;stroke-opacity:1"/>
<path class="bond-18 atom-12 atom-22" d="M 691.41,568.351 L 699.498,568.711" style="fill:none;fill-rule:evenodd;stroke:#FF0000;stroke-width:2.0px;stroke-linecap:butt;stroke-linejoin:miter;stroke-opacity:1"/>
<path class="bond-18 atom-12 atom-22" d="M 683.492,564.162 L 691.58,564.522" style="fill:none;fill-rule:evenodd;stroke:#000000;stroke-width:2.0px;stroke-linecap:butt;stroke-linejoin:miter;stroke-opacity:1"/>
<path class="bond-18 atom-12 atom-22" d="M 691.58,564.522 L 699.669,564.881" style="fill:none;fill-rule:evenodd;stroke:#FF0000;stroke-width:2.0px;stroke-linecap:butt;stroke-linejoin:miter;stroke-opacity:1"/>
<path class="bond-19 atom-13 atom-14" d="M 617.127,546.515 L 597.979,545.663" style="fill:none;fill-rule:evenodd;stroke:#000000;stroke-width:2.0px;stroke-linecap:butt;stroke-linejoin:miter;stroke-opacity:1"/>
<path class="bond-20 atom-13 atom-18" d="M 617.127,546.515 L 625.963,563.523" style="fill:none;fill-rule:evenodd;stroke:#000000;stroke-width:2.0px;stroke-linecap:butt;stroke-linejoin:miter;stroke-opacity:1"/>
<path class="bond-28 atom-13 atom-25" d="M 617.127,546.515 L 616.47,539.27 L 612.879,540.609 Z" style="fill:#000000;fill-rule:evenodd;fill-opacity:1;stroke:#000000;stroke-width:2.0px;stroke-linecap:butt;stroke-linejoin:miter;stroke-opacity:1;"/>
<path class="bond-21 atom-14 atom-20" d="M 597.979,545.663 L 587.668,561.82" style="fill:none;fill-rule:evenodd;stroke:#000000;stroke-width:2.0px;stroke-linecap:butt;stroke-linejoin:miter;stroke-opacity:1"/>
<path class="bond-29 atom-14 atom-26" d="M 599.365,543.667 L 598.161,543.24" style="fill:none;fill-rule:evenodd;stroke:#000000;stroke-width:1.0px;stroke-linecap:butt;stroke-linejoin:miter;stroke-opacity:1"/>
<path class="bond-29 atom-14 atom-26" d="M 600.752,541.671 L 598.344,540.816" style="fill:none;fill-rule:evenodd;stroke:#000000;stroke-width:1.0px;stroke-linecap:butt;stroke-linejoin:miter;stroke-opacity:1"/>
<path class="bond-29 atom-14 atom-26" d="M 602.139,539.674 L 598.526,538.392" style="fill:none;fill-rule:evenodd;stroke:#000000;stroke-width:1.0px;stroke-linecap:butt;stroke-linejoin:miter;stroke-opacity:1"/>
<path class="bond-22 atom-15 atom-17" d="M 569.115,557.006 L 553.098,567.706 L 555.534,570.666 Z" style="fill:#000000;fill-rule:evenodd;fill-opacity:1;stroke:#000000;stroke-width:2.0px;stroke-linecap:butt;stroke-linejoin:miter;stroke-opacity:1;"/>
<path class="bond-23 atom-15 atom-20" d="M 569.115,557.006 L 587.668,561.82" style="fill:none;fill-rule:evenodd;stroke:#000000;stroke-width:2.0px;stroke-linecap:butt;stroke-linejoin:miter;stroke-opacity:1"/>
<path class="bond-24 atom-16 atom-18" d="M 615.652,579.68 L 625.963,563.523" style="fill:none;fill-rule:evenodd;stroke:#000000;stroke-width:2.0px;stroke-linecap:butt;stroke-linejoin:miter;stroke-opacity:1"/>
<path class="bond-25 atom-16 atom-23" d="M 615.652,579.68 L 618.382,587.014 L 620.083,586.13 Z" style="fill:#000000;fill-rule:evenodd;fill-opacity:1;stroke:#000000;stroke-width:2.0px;stroke-linecap:butt;stroke-linejoin:miter;stroke-opacity:1;"/>
<path class="bond-25 atom-16 atom-23" d="M 618.382,587.014 L 624.515,592.58 L 621.113,594.348 Z" style="fill:#FF0000;fill-rule:evenodd;fill-opacity:1;stroke:#FF0000;stroke-width:2.0px;stroke-linecap:butt;stroke-linejoin:miter;stroke-opacity:1;"/>
<path class="bond-25 atom-16 atom-23" d="M 618.382,587.014 L 620.083,586.13 L 624.515,592.58 Z" style="fill:#FF0000;fill-rule:evenodd;fill-opacity:1;stroke:#FF0000;stroke-width:2.0px;stroke-linecap:butt;stroke-linejoin:miter;stroke-opacity:1;"/>
<path class="bond-26 atom-17 atom-24" d="M 552.425,569.501 L 553.731,577.342" style="fill:none;fill-rule:evenodd;stroke:#000000;stroke-width:2.0px;stroke-linecap:butt;stroke-linejoin:miter;stroke-opacity:1"/>
<path class="bond-26 atom-17 atom-24" d="M 553.731,577.342 L 555.037,585.184" style="fill:none;fill-rule:evenodd;stroke:#FF0000;stroke-width:2.0px;stroke-linecap:butt;stroke-linejoin:miter;stroke-opacity:1"/>
<path class="bond-26 atom-17 atom-24" d="M 556.207,568.871 L 557.512,576.713" style="fill:none;fill-rule:evenodd;stroke:#000000;stroke-width:2.0px;stroke-linecap:butt;stroke-linejoin:miter;stroke-opacity:1"/>
<path class="bond-26 atom-17 atom-24" d="M 557.512,576.713 L 558.818,584.554" style="fill:none;fill-rule:evenodd;stroke:#FF0000;stroke-width:2.0px;stroke-linecap:butt;stroke-linejoin:miter;stroke-opacity:1"/>
<path class="bond-27 atom-18 atom-19" d="M 625.963,563.523 L 645.111,564.374" style="fill:none;fill-rule:evenodd;stroke:#000000;stroke-width:2.0px;stroke-linecap:butt;stroke-linejoin:miter;stroke-opacity:1"/>
<path class="bond-30 atom-18 atom-27" d="M 627.2,568.668 L 628.397,568.221" style="fill:none;fill-rule:evenodd;stroke:#000000;stroke-width:1.0px;stroke-linecap:butt;stroke-linejoin:miter;stroke-opacity:1"/>
<path class="bond-30 atom-18 atom-27" d="M 628.437,573.813 L 630.832,572.92" style="fill:none;fill-rule:evenodd;stroke:#000000;stroke-width:1.0px;stroke-linecap:butt;stroke-linejoin:miter;stroke-opacity:1"/>
<path class="bond-30 atom-18 atom-27" d="M 629.674,578.958 L 633.266,577.618" style="fill:none;fill-rule:evenodd;stroke:#000000;stroke-width:1.0px;stroke-linecap:butt;stroke-linejoin:miter;stroke-opacity:1"/>
<path class="atom-21" d="M 514.447 571.956 L 515.183 571.956 L 515.183 574.264 L 517.958 574.264 L 517.958 571.956 L 518.694 571.956 L 518.694 577.384 L 517.958 577.384 L 517.958 574.877 L 515.183 574.877 L 515.183 577.384 L 514.447 577.384 L 514.447 571.956 " fill="#FF0000"/>
<path class="atom-21" d="M 519.077 574.655 Q 519.077 573.351, 519.721 572.623 Q 520.365 571.895, 521.569 571.895 Q 522.773 571.895, 523.417 572.623 Q 524.061 573.351, 524.061 574.655 Q 524.061 575.973, 523.409 576.725 Q 522.757 577.468, 521.569 577.468 Q 520.373 577.468, 519.721 576.725 Q 519.077 575.981, 519.077 574.655 M 521.569 576.855 Q 522.397 576.855, 522.842 576.303 Q 523.294 575.743, 523.294 574.655 Q 523.294 573.589, 522.842 573.052 Q 522.397 572.508, 521.569 572.508 Q 520.741 572.508, 520.289 573.045 Q 519.844 573.581, 519.844 574.655 Q 519.844 575.751, 520.289 576.303 Q 520.741 576.855, 521.569 576.855 " fill="#FF0000"/>
<path class="atom-22" d="M 700.063 566.944 Q 700.063 565.64, 700.707 564.912 Q 701.351 564.184, 702.554 564.184 Q 703.758 564.184, 704.402 564.912 Q 705.046 565.64, 705.046 566.944 Q 705.046 568.262, 704.394 569.014 Q 703.743 569.757, 702.554 569.757 Q 701.358 569.757, 700.707 569.014 Q 700.063 568.27, 700.063 566.944 M 702.554 569.144 Q 703.382 569.144, 703.827 568.592 Q 704.279 568.032, 704.279 566.944 Q 704.279 565.878, 703.827 565.341 Q 703.382 564.797, 702.554 564.797 Q 701.726 564.797, 701.274 565.334 Q 700.829 565.87, 700.829 566.944 Q 700.829 568.04, 701.274 568.592 Q 701.726 569.144, 702.554 569.144 " fill="#FF0000"/>
<path class="atom-23" d="M 621.997 596.703 Q 621.997 595.4, 622.641 594.672 Q 623.285 593.943, 624.489 593.943 Q 625.692 593.943, 626.336 594.672 Q 626.98 595.4, 626.98 596.703 Q 626.98 598.022, 626.329 598.773 Q 625.677 599.517, 624.489 599.517 Q 623.293 599.517, 622.641 598.773 Q 621.997 598.03, 621.997 596.703 M 624.489 598.904 Q 625.317 598.904, 625.761 598.352 Q 626.214 597.792, 626.214 596.703 Q 626.214 595.638, 625.761 595.101 Q 625.317 594.557, 624.489 594.557 Q 623.661 594.557, 623.208 595.093 Q 622.764 595.63, 622.764 596.703 Q 622.764 597.8, 623.208 598.352 Q 623.661 598.904, 624.489 598.904 " fill="#FF0000"/>
<path class="atom-23" d="M 627.632 594.005 L 628.368 594.005 L 628.368 596.312 L 631.143 596.312 L 631.143 594.005 L 631.879 594.005 L 631.879 599.433 L 631.143 599.433 L 631.143 596.926 L 628.368 596.926 L 628.368 599.433 L 627.632 599.433 L 627.632 594.005 " fill="#FF0000"/>
<path class="atom-24" d="M 554.973 588.108 Q 554.973 586.805, 555.617 586.076 Q 556.261 585.348, 557.464 585.348 Q 558.668 585.348, 559.312 586.076 Q 559.956 586.805, 559.956 588.108 Q 559.956 589.427, 559.304 590.178 Q 558.653 590.922, 557.464 590.922 Q 556.268 590.922, 555.617 590.178 Q 554.973 589.434, 554.973 588.108 M 557.464 590.308 Q 558.292 590.308, 558.737 589.756 Q 559.189 589.197, 559.189 588.108 Q 559.189 587.042, 558.737 586.506 Q 558.292 585.961, 557.464 585.961 Q 556.636 585.961, 556.184 586.498 Q 555.739 587.035, 555.739 588.108 Q 555.739 589.204, 556.184 589.756 Q 556.636 590.308, 557.464 590.308 " fill="#FF0000"/>
<path class="atom-25" d="M 611.444 534.257 L 612.18 534.257 L 612.18 536.565 L 614.955 536.565 L 614.955 534.257 L 615.691 534.257 L 615.691 539.685 L 614.955 539.685 L 614.955 537.178 L 612.18 537.178 L 612.18 539.685 L 611.444 539.685 L 611.444 534.257 " fill="#000000"/>
<path class="atom-26" d="M 599.263 533.35 L 599.999 533.35 L 599.999 535.658 L 602.774 535.658 L 602.774 533.35 L 603.51 533.35 L 603.51 538.778 L 602.774 538.778 L 602.774 536.271 L 599.999 536.271 L 599.999 538.778 L 599.263 538.778 L 599.263 533.35 " fill="#000000"/>
<path class="atom-27" d="M 630.537 578.767 L 631.273 578.767 L 631.273 581.075 L 634.048 581.075 L 634.048 578.767 L 634.784 578.767 L 634.784 584.195 L 634.048 584.195 L 634.048 581.688 L 631.273 581.688 L 631.273 584.195 L 630.537 584.195 L 630.537 578.767 " fill="#000000"/>
<path d="M 574.55 788.056 Q 574.55 785.24, 575.862 783.768 Q 577.19 782.28, 579.702 782.28 Q 582.038 782.28, 583.286 783.928 L 582.23 784.792 Q 581.318 783.592, 579.702 783.592 Q 577.99 783.592, 577.078 784.744 Q 576.182 785.88, 576.182 788.056 Q 576.182 790.296, 577.11 791.448 Q 578.054 792.6, 579.878 792.6 Q 581.126 792.6, 582.582 791.848 L 583.03 793.048 Q 582.438 793.432, 581.542 793.656 Q 580.646 793.88, 579.654 793.88 Q 577.19 793.88, 575.862 792.376 Q 574.55 790.872, 574.55 788.056 " fill="#000000"/>
<path d="M 584.662 781.592 L 586.134 781.592 L 586.134 793.736 L 584.662 793.736 L 584.662 781.592 " fill="#000000"/>
<path d="M 586.838 791.512 Q 586.838 790.2, 587.894 789.48 Q 588.95 788.76, 590.886 788.76 L 592.102 788.76 L 592.102 788.44 Q 592.102 787.416, 591.67 786.984 Q 591.254 786.552, 590.23 786.552 Q 589.574 786.552, 589.062 786.68 Q 588.55 786.792, 587.75 787.144 L 587.302 786.104 Q 588.806 785.368, 590.262 785.368 Q 592.006 785.368, 592.806 786.12 Q 593.606 786.856, 593.606 788.472 L 593.606 793.736 L 592.438 793.736 Q 592.422 793.672, 592.374 793.432 Q 592.326 793.176, 592.23 792.776 Q 591.078 793.928, 589.542 793.928 Q 588.31 793.928, 587.574 793.272 Q 586.838 792.616, 586.838 791.512 M 588.342 791.48 Q 588.342 792.088, 588.726 792.424 Q 589.11 792.744, 589.83 792.744 Q 590.47 792.744, 591.078 792.456 Q 591.686 792.152, 592.102 791.64 L 592.102 789.88 L 590.982 789.88 Q 589.67 789.88, 588.998 790.28 Q 588.342 790.68, 588.342 791.48 " fill="#000000"/>
<path d="M 594.87 792.04 Q 595.59 792.344, 596.102 792.488 Q 596.63 792.632, 597.19 792.632 Q 597.91 792.632, 598.31 792.328 Q 598.726 792.024, 598.726 791.432 Q 598.726 791.064, 598.502 790.84 Q 598.294 790.6, 598.022 790.488 Q 597.766 790.376, 597.046 790.136 Q 596.934 790.104, 596.198 789.848 Q 595.462 789.592, 595.062 789.048 Q 594.678 788.504, 594.678 787.704 Q 594.678 786.712, 595.446 786.04 Q 596.214 785.368, 597.702 785.368 Q 598.326 785.368, 598.87 785.512 Q 599.43 785.656, 600.038 785.896 L 599.638 787.08 Q 599.11 786.872, 598.646 786.744 Q 598.198 786.616, 597.702 786.616 Q 596.95 786.616, 596.566 786.92 Q 596.182 787.208, 596.182 787.688 Q 596.182 788.136, 596.486 788.36 Q 596.79 788.568, 597.462 788.808 Q 597.638 788.856, 597.782 788.92 L 598.166 789.064 Q 598.838 789.288, 599.238 789.512 Q 599.654 789.736, 599.942 790.2 Q 600.23 790.648, 600.23 791.4 Q 600.23 792.584, 599.382 793.24 Q 598.55 793.88, 597.206 793.88 Q 596.422 793.88, 595.75 793.72 Q 595.078 793.544, 594.406 793.256 L 594.87 792.04 " fill="#000000"/>
<path d="M 601.494 792.04 Q 602.214 792.344, 602.726 792.488 Q 603.254 792.632, 603.814 792.632 Q 604.534 792.632, 604.934 792.328 Q 605.35 792.024, 605.35 791.432 Q 605.35 791.064, 605.126 790.84 Q 604.918 790.6, 604.646 790.488 Q 604.39 790.376, 603.67 790.136 Q 603.558 790.104, 602.822 789.848 Q 602.086 789.592, 601.686 789.048 Q 601.302 788.504, 601.302 787.704 Q 601.302 786.712, 602.07 786.04 Q 602.838 785.368, 604.326 785.368 Q 604.95 785.368, 605.494 785.512 Q 606.054 785.656, 606.662 785.896 L 606.262 787.08 Q 605.734 786.872, 605.27 786.744 Q 604.822 786.616, 604.326 786.616 Q 603.574 786.616, 603.19 786.92 Q 602.806 787.208, 602.806 787.688 Q 602.806 788.136, 603.11 788.36 Q 603.414 788.568, 604.086 788.808 Q 604.262 788.856, 604.406 788.92 L 604.79 789.064 Q 605.462 789.288, 605.862 789.512 Q 606.278 789.736, 606.566 790.2 Q 606.854 790.648, 606.854 791.4 Q 606.854 792.584, 606.006 793.24 Q 605.174 793.88, 603.83 793.88 Q 603.046 793.88, 602.374 793.72 Q 601.702 793.544, 601.03 793.256 L 601.494 792.04 " fill="#000000"/>
<path d="" fill="#000000"/>
<path d="M 616.966 787.768 Q 618.07 788.088, 618.598 788.808 Q 619.142 789.512, 619.142 790.632 Q 619.142 791.592, 618.662 792.344 Q 618.182 793.08, 617.302 793.496 Q 616.422 793.896, 615.27 793.896 Q 614.054 793.896, 613.142 793.48 Q 612.246 793.048, 611.526 792.184 L 612.438 791.256 Q 613.142 792.024, 613.734 792.328 Q 614.326 792.616, 615.27 792.616 Q 616.294 792.616, 616.918 792.072 Q 617.542 791.512, 617.542 790.616 Q 617.542 789.464, 616.886 788.952 Q 616.246 788.424, 614.854 788.424 L 614.038 788.424 L 614.038 787.272 L 614.758 787.272 Q 615.99 787.256, 616.646 786.728 Q 617.302 786.184, 617.302 785.176 Q 617.302 784.44, 616.758 784.008 Q 616.214 783.56, 615.286 783.56 Q 614.342 783.56, 613.75 783.896 Q 613.174 784.232, 612.726 785.08 L 611.622 784.488 Q 612.022 783.544, 612.982 782.92 Q 613.942 782.28, 615.286 782.28 Q 616.95 782.28, 617.926 783.064 Q 618.902 783.848, 618.902 785.176 Q 618.902 786.088, 618.406 786.744 Q 617.91 787.4, 616.966 787.768 " fill="#000000"/>
</svg>