<svg xmlns="http://www.w3.org/2000/svg" xmlns:rdkit="http://www.rdkit.org/xml" xmlns:xlink="http://www.w3.org/1999/xlink" version="1.1" baseProfile="full" xml:space="preserve" width="750px" height="750px" viewBox="0 0 750 750">
<!-- END OF HEADER -->
<rect style="opacity:1.0;fill:#FFFFFF;stroke:none" width="750" height="750" x="0" y="0"> </rect>
<rect style="opacity:1.0;fill:#FFFFFF;stroke:none" width="750" height="750" x="0" y="0"> </rect>
<rect style="opacity:1.0;fill:#FFFFFF;stroke:none" width="750" height="750" x="0" y="0"> </rect>
<rect style="opacity:1.0;fill:#FFFFFF;stroke:none" width="750" height="750" x="0" y="0"> </rect>
<rect style="opacity:1.0;fill:#FFFFFF;stroke:none" width="750" height="750" x="0" y="0"> </rect>
<rect style="opacity:1.0;fill:#FFFFFF;stroke:none" width="750" height="750" x="0" y="0"> </rect>
<rect style="opacity:1.0;fill:#FFFFFF;stroke:none" width="750" height="750" x="0" y="0"> </rect>
<rect style="opacity:1.0;fill:#FFFFFF;stroke:none" width="750" height="750" x="0" y="0"> </rect>
<rect style="opacity:1.0;fill:#FFFFFF;stroke:none" width="750" height="750" x="0" y="0"> </rect>
<rect style="opacity:1.0;fill:#FFFFFF;stroke:none" width="750" height="750" x="0" y="0"> </rect>
<path class="bond-0 atom-0 atom-1" d="M 144.965,125.06 L 137.329,120.651" style="fill:none;fill-rule:evenodd;stroke:#FF0000;stroke-width:2.0px;stroke-linecap:butt;stroke-linejoin:miter;stroke-opacity:1"/>
<path class="bond-0 atom-0 atom-1" d="M 137.329,120.651 L 129.694,116.243" style="fill:none;fill-rule:evenodd;stroke:#000000;stroke-width:2.0px;stroke-linecap:butt;stroke-linejoin:miter;stroke-opacity:1"/>
<path class="bond-0 atom-0 atom-1" d="M 142.817,128.78 L 135.181,124.371" style="fill:none;fill-rule:evenodd;stroke:#FF0000;stroke-width:2.0px;stroke-linecap:butt;stroke-linejoin:miter;stroke-opacity:1"/>
<path class="bond-0 atom-0 atom-1" d="M 135.181,124.371 L 127.546,119.963" style="fill:none;fill-rule:evenodd;stroke:#000000;stroke-width:2.0px;stroke-linecap:butt;stroke-linejoin:miter;stroke-opacity:1"/>
<path class="bond-1 atom-1 atom-2" d="M 128.62,118.103 L 110.02,128.842" style="fill:none;fill-rule:evenodd;stroke:#000000;stroke-width:2.0px;stroke-linecap:butt;stroke-linejoin:miter;stroke-opacity:1"/>
<path class="atom-0" d="M 144.428 128.859 Q 144.428 127.398, 145.149 126.582 Q 145.871 125.766, 147.22 125.766 Q 148.568 125.766, 149.29 126.582 Q 150.012 127.398, 150.012 128.859 Q 150.012 130.337, 149.282 131.178 Q 148.551 132.012, 147.22 132.012 Q 145.88 132.012, 145.149 131.178 Q 144.428 130.345, 144.428 128.859 M 147.22 131.325 Q 148.148 131.325, 148.646 130.706 Q 149.153 130.079, 149.153 128.859 Q 149.153 127.665, 148.646 127.063 Q 148.148 126.453, 147.22 126.453 Q 146.292 126.453, 145.785 127.055 Q 145.287 127.656, 145.287 128.859 Q 145.287 130.087, 145.785 130.706 Q 146.292 131.325, 147.22 131.325 " fill="#FF0000"/>
<path class="bond-0 atom-0 atom-1" d="M 393.891,123.605 L 386.255,128.013" style="fill:none;fill-rule:evenodd;stroke:#FF0000;stroke-width:2.0px;stroke-linecap:butt;stroke-linejoin:miter;stroke-opacity:1"/>
<path class="bond-0 atom-0 atom-1" d="M 386.255,128.013 L 378.62,132.421" style="fill:none;fill-rule:evenodd;stroke:#000000;stroke-width:2.0px;stroke-linecap:butt;stroke-linejoin:miter;stroke-opacity:1"/>
<path class="bond-1 atom-1 atom-2" d="M 378.62,132.421 L 370.492,127.729" style="fill:none;fill-rule:evenodd;stroke:#000000;stroke-width:2.0px;stroke-linecap:butt;stroke-linejoin:miter;stroke-opacity:1"/>
<path class="bond-1 atom-1 atom-2" d="M 370.492,127.729 L 362.365,123.037" style="fill:none;fill-rule:evenodd;stroke:#33CCCC;stroke-width:2.0px;stroke-linecap:butt;stroke-linejoin:miter;stroke-opacity:1"/>
<path class="atom-0" d="M 394.428 121.7 Q 394.428 120.239, 395.149 119.423 Q 395.871 118.607, 397.22 118.607 Q 398.568 118.607, 399.29 119.423 Q 400.012 120.239, 400.012 121.7 Q 400.012 123.177, 399.282 124.019 Q 398.551 124.853, 397.22 124.853 Q 395.88 124.853, 395.149 124.019 Q 394.428 123.186, 394.428 121.7 M 397.22 124.165 Q 398.148 124.165, 398.646 123.547 Q 399.153 122.92, 399.153 121.7 Q 399.153 120.506, 398.646 119.904 Q 398.148 119.294, 397.22 119.294 Q 396.292 119.294, 395.785 119.896 Q 395.287 120.497, 395.287 121.7 Q 395.287 122.928, 395.785 123.547 Q 396.292 124.165, 397.22 124.165 " fill="#FF0000"/>
<path class="atom-0" d="M 400.742 118.676 L 401.567 118.676 L 401.567 121.262 L 404.677 121.262 L 404.677 118.676 L 405.501 118.676 L 405.501 124.758 L 404.677 124.758 L 404.677 121.949 L 401.567 121.949 L 401.567 124.758 L 400.742 124.758 L 400.742 118.676 " fill="#FF0000"/>
<path class="atom-2" d="M 358.211 118.641 L 361.828 118.641 L 361.828 119.337 L 359.027 119.337 L 359.027 121.184 L 361.519 121.184 L 361.519 121.889 L 359.027 121.889 L 359.027 124.724 L 358.211 124.724 L 358.211 118.641 " fill="#33CCCC"/>
<path class="bond-0 atom-0 atom-1" d="M 668.856,179.233 L 675.546,158.824" style="fill:none;fill-rule:evenodd;stroke:#000000;stroke-width:2.0px;stroke-linecap:butt;stroke-linejoin:miter;stroke-opacity:1"/>
<path class="bond-34 atom-21 atom-0" d="M 649.866,179.183 L 659.361,179.208" style="fill:none;fill-rule:evenodd;stroke:#CCCC00;stroke-width:2.0px;stroke-linecap:butt;stroke-linejoin:miter;stroke-opacity:1"/>
<path class="bond-34 atom-21 atom-0" d="M 659.361,179.208 L 668.856,179.233" style="fill:none;fill-rule:evenodd;stroke:#000000;stroke-width:2.0px;stroke-linecap:butt;stroke-linejoin:miter;stroke-opacity:1"/>
<path class="bond-1 atom-1 atom-2" d="M 675.546,158.824 L 692.955,146.245" style="fill:none;fill-rule:evenodd;stroke:#000000;stroke-width:2.0px;stroke-linecap:butt;stroke-linejoin:miter;stroke-opacity:1"/>
<path class="bond-1 atom-1 atom-2" d="M 675.642,153.455 L 687.828,144.65" style="fill:none;fill-rule:evenodd;stroke:#000000;stroke-width:2.0px;stroke-linecap:butt;stroke-linejoin:miter;stroke-opacity:1"/>
<path class="bond-33 atom-5 atom-1" d="M 658.204,146.155 L 675.546,158.824" style="fill:none;fill-rule:evenodd;stroke:#000000;stroke-width:2.0px;stroke-linecap:butt;stroke-linejoin:miter;stroke-opacity:1"/>
<path class="bond-2 atom-2 atom-3" d="M 692.955,146.245 L 686.371,125.802" style="fill:none;fill-rule:evenodd;stroke:#000000;stroke-width:2.0px;stroke-linecap:butt;stroke-linejoin:miter;stroke-opacity:1"/>
<path class="bond-3 atom-3 atom-4" d="M 686.371,125.802 L 664.894,125.746" style="fill:none;fill-rule:evenodd;stroke:#000000;stroke-width:2.0px;stroke-linecap:butt;stroke-linejoin:miter;stroke-opacity:1"/>
<path class="bond-3 atom-3 atom-4" d="M 683.138,130.089 L 668.104,130.05" style="fill:none;fill-rule:evenodd;stroke:#000000;stroke-width:2.0px;stroke-linecap:butt;stroke-linejoin:miter;stroke-opacity:1"/>
<path class="bond-35 atom-29 atom-3" d="M 679.225,101.541 L 686.371,125.802" style="fill:none;fill-rule:evenodd;stroke:#000000;stroke-width:2.0px;stroke-linecap:butt;stroke-linejoin:miter;stroke-opacity:1"/>
<path class="bond-4 atom-4 atom-5" d="M 664.894,125.746 L 658.204,146.155" style="fill:none;fill-rule:evenodd;stroke:#000000;stroke-width:2.0px;stroke-linecap:butt;stroke-linejoin:miter;stroke-opacity:1"/>
<path class="bond-5 atom-5 atom-6" d="M 658.204,146.155 L 640.861,133.485" style="fill:none;fill-rule:evenodd;stroke:#000000;stroke-width:2.0px;stroke-linecap:butt;stroke-linejoin:miter;stroke-opacity:1"/>
<path class="bond-19 atom-5 atom-20" d="M 658.204,146.155 L 652.03,150.615" style="fill:none;fill-rule:evenodd;stroke:#000000;stroke-width:2.0px;stroke-linecap:butt;stroke-linejoin:miter;stroke-opacity:1"/>
<path class="bond-19 atom-5 atom-20" d="M 652.03,150.615 L 645.857,155.076" style="fill:none;fill-rule:evenodd;stroke:#FF0000;stroke-width:2.0px;stroke-linecap:butt;stroke-linejoin:miter;stroke-opacity:1"/>
<path class="bond-6 atom-6 atom-7" d="M 642.996,133.715 L 643.947,124.892" style="fill:none;fill-rule:evenodd;stroke:#000000;stroke-width:2.0px;stroke-linecap:butt;stroke-linejoin:miter;stroke-opacity:1"/>
<path class="bond-6 atom-6 atom-7" d="M 643.947,124.892 L 644.898,116.068" style="fill:none;fill-rule:evenodd;stroke:#FF0000;stroke-width:2.0px;stroke-linecap:butt;stroke-linejoin:miter;stroke-opacity:1"/>
<path class="bond-6 atom-6 atom-7" d="M 638.726,133.255 L 639.676,124.432" style="fill:none;fill-rule:evenodd;stroke:#000000;stroke-width:2.0px;stroke-linecap:butt;stroke-linejoin:miter;stroke-opacity:1"/>
<path class="bond-6 atom-6 atom-7" d="M 639.676,124.432 L 640.627,115.608" style="fill:none;fill-rule:evenodd;stroke:#FF0000;stroke-width:2.0px;stroke-linecap:butt;stroke-linejoin:miter;stroke-opacity:1"/>
<path class="bond-7 atom-6 atom-8" d="M 640.861,133.485 L 632.461,137.199" style="fill:none;fill-rule:evenodd;stroke:#000000;stroke-width:2.0px;stroke-linecap:butt;stroke-linejoin:miter;stroke-opacity:1"/>
<path class="bond-7 atom-6 atom-8" d="M 632.461,137.199 L 624.061,140.913" style="fill:none;fill-rule:evenodd;stroke:#0000FF;stroke-width:2.0px;stroke-linecap:butt;stroke-linejoin:miter;stroke-opacity:1"/>
<path class="bond-8 atom-8 atom-9" d="M 618.374,140.092 L 611.124,134.796" style="fill:none;fill-rule:evenodd;stroke:#0000FF;stroke-width:2.0px;stroke-linecap:butt;stroke-linejoin:miter;stroke-opacity:1"/>
<path class="bond-8 atom-8 atom-9" d="M 611.124,134.796 L 603.875,129.5" style="fill:none;fill-rule:evenodd;stroke:#000000;stroke-width:2.0px;stroke-linecap:butt;stroke-linejoin:miter;stroke-opacity:1"/>
<path class="bond-9 atom-9 atom-10" d="M 603.875,129.5 L 606.176,108.146" style="fill:none;fill-rule:evenodd;stroke:#000000;stroke-width:2.0px;stroke-linecap:butt;stroke-linejoin:miter;stroke-opacity:1"/>
<path class="bond-9 atom-9 atom-10" d="M 599.949,125.837 L 601.56,110.889" style="fill:none;fill-rule:evenodd;stroke:#000000;stroke-width:2.0px;stroke-linecap:butt;stroke-linejoin:miter;stroke-opacity:1"/>
<path class="bond-32 atom-17 atom-9" d="M 584.232,138.185 L 603.875,129.5" style="fill:none;fill-rule:evenodd;stroke:#000000;stroke-width:2.0px;stroke-linecap:butt;stroke-linejoin:miter;stroke-opacity:1"/>
<path class="bond-10 atom-10 atom-11" d="M 606.176,108.146 L 588.833,95.477" style="fill:none;fill-rule:evenodd;stroke:#000000;stroke-width:2.0px;stroke-linecap:butt;stroke-linejoin:miter;stroke-opacity:1"/>
<path class="bond-11 atom-11 atom-12" d="M 588.833,95.477 L 569.19,104.161" style="fill:none;fill-rule:evenodd;stroke:#000000;stroke-width:2.0px;stroke-linecap:butt;stroke-linejoin:miter;stroke-opacity:1"/>
<path class="bond-11 atom-11 atom-12" d="M 587.623,100.708 L 573.873,106.787" style="fill:none;fill-rule:evenodd;stroke:#000000;stroke-width:2.0px;stroke-linecap:butt;stroke-linejoin:miter;stroke-opacity:1"/>
<path class="bond-12 atom-12 atom-13" d="M 569.19,104.161 L 561.762,98.7352" style="fill:none;fill-rule:evenodd;stroke:#000000;stroke-width:2.0px;stroke-linecap:butt;stroke-linejoin:miter;stroke-opacity:1"/>
<path class="bond-12 atom-12 atom-13" d="M 561.762,98.7352 L 554.334,93.309" style="fill:none;fill-rule:evenodd;stroke:#CCCC00;stroke-width:2.0px;stroke-linecap:butt;stroke-linejoin:miter;stroke-opacity:1"/>
<path class="bond-15 atom-12 atom-16" d="M 569.19,104.161 L 566.889,125.515" style="fill:none;fill-rule:evenodd;stroke:#000000;stroke-width:2.0px;stroke-linecap:butt;stroke-linejoin:miter;stroke-opacity:1"/>
<path class="bond-13 atom-13 atom-14" d="M 552.232,87.9225 L 554.257,79.1454 L 552.122,78.9153 Z" style="fill:#CCCC00;fill-rule:evenodd;fill-opacity:1;stroke:#CCCC00;stroke-width:2.0px;stroke-linecap:butt;stroke-linejoin:miter;stroke-opacity:1;"/>
<path class="bond-13 atom-13 atom-14" d="M 554.257,79.1454 L 552.012,69.9081 L 556.283,70.3683 Z" style="fill:#000000;fill-rule:evenodd;fill-opacity:1;stroke:#000000;stroke-width:2.0px;stroke-linecap:butt;stroke-linejoin:miter;stroke-opacity:1;"/>
<path class="bond-13 atom-13 atom-14" d="M 554.257,79.1454 L 552.122,78.9153 L 552.012,69.9081 Z" style="fill:#000000;fill-rule:evenodd;fill-opacity:1;stroke:#000000;stroke-width:2.0px;stroke-linecap:butt;stroke-linejoin:miter;stroke-opacity:1;"/>
<path class="bond-14 atom-13 atom-15" d="M 548.491,90.6273 L 541.544,93.6989" style="fill:none;fill-rule:evenodd;stroke:#CCCC00;stroke-width:2.0px;stroke-linecap:butt;stroke-linejoin:miter;stroke-opacity:1"/>
<path class="bond-14 atom-13 atom-15" d="M 541.544,93.6989 L 534.596,96.7705" style="fill:none;fill-rule:evenodd;stroke:#FF0000;stroke-width:2.0px;stroke-linecap:butt;stroke-linejoin:miter;stroke-opacity:1"/>
<path class="bond-14 atom-13 atom-15" d="M 550.228,94.556 L 543.281,97.6276" style="fill:none;fill-rule:evenodd;stroke:#CCCC00;stroke-width:2.0px;stroke-linecap:butt;stroke-linejoin:miter;stroke-opacity:1"/>
<path class="bond-14 atom-13 atom-15" d="M 543.281,97.6276 L 536.333,100.699" style="fill:none;fill-rule:evenodd;stroke:#FF0000;stroke-width:2.0px;stroke-linecap:butt;stroke-linejoin:miter;stroke-opacity:1"/>
<path class="bond-16 atom-16 atom-17" d="M 566.889,125.515 L 584.232,138.185" style="fill:none;fill-rule:evenodd;stroke:#000000;stroke-width:2.0px;stroke-linecap:butt;stroke-linejoin:miter;stroke-opacity:1"/>
<path class="bond-16 atom-16 atom-17" d="M 572.024,123.947 L 584.164,132.816" style="fill:none;fill-rule:evenodd;stroke:#000000;stroke-width:2.0px;stroke-linecap:butt;stroke-linejoin:miter;stroke-opacity:1"/>
<path class="bond-17 atom-17 atom-18" d="M 584.232,138.185 L 581.931,159.539" style="fill:none;fill-rule:evenodd;stroke:#000000;stroke-width:2.0px;stroke-linecap:butt;stroke-linejoin:miter;stroke-opacity:1"/>
<path class="bond-18 atom-18 atom-19" d="M 581.931,159.539 L 579.63,180.893" style="fill:none;fill-rule:evenodd;stroke:#000000;stroke-width:2.0px;stroke-linecap:butt;stroke-linejoin:miter;stroke-opacity:1"/>
<path class="bond-18 atom-18 atom-19" d="M 577.315,162.282 L 575.359,180.432" style="fill:none;fill-rule:evenodd;stroke:#000000;stroke-width:2.0px;stroke-linecap:butt;stroke-linejoin:miter;stroke-opacity:1"/>
<path class="bond-18 atom-18 atom-19" d="M 585.857,163.202 L 583.901,181.353" style="fill:none;fill-rule:evenodd;stroke:#000000;stroke-width:2.0px;stroke-linecap:butt;stroke-linejoin:miter;stroke-opacity:1"/>
<path class="bond-20 atom-20 atom-21" d="M 641.989,162.44 L 644.125,169.073" style="fill:none;fill-rule:evenodd;stroke:#FF0000;stroke-width:2.0px;stroke-linecap:butt;stroke-linejoin:miter;stroke-opacity:1"/>
<path class="bond-20 atom-20 atom-21" d="M 644.125,169.073 L 646.261,175.705" style="fill:none;fill-rule:evenodd;stroke:#CCCC00;stroke-width:2.0px;stroke-linecap:butt;stroke-linejoin:miter;stroke-opacity:1"/>
<path class="bond-21 atom-21 atom-22" d="M 644.892,178.493 L 635.781,175.987" style="fill:none;fill-rule:evenodd;stroke:#CCCC00;stroke-width:2.0px;stroke-linecap:butt;stroke-linejoin:miter;stroke-opacity:1"/>
<path class="bond-21 atom-21 atom-22" d="M 635.781,175.987 L 626.67,173.481" style="fill:none;fill-rule:evenodd;stroke:#000000;stroke-width:2.0px;stroke-linecap:butt;stroke-linejoin:miter;stroke-opacity:1"/>
<path class="bond-21 atom-21 atom-22" d="M 643.298,173.599 L 636.92,171.845" style="fill:none;fill-rule:evenodd;stroke:#CCCC00;stroke-width:2.0px;stroke-linecap:butt;stroke-linejoin:miter;stroke-opacity:1"/>
<path class="bond-21 atom-21 atom-22" d="M 636.92,171.845 L 630.543,170.091" style="fill:none;fill-rule:evenodd;stroke:#000000;stroke-width:2.0px;stroke-linecap:butt;stroke-linejoin:miter;stroke-opacity:1"/>
<path class="bond-21 atom-21 atom-22" d="M 641.019,181.883 L 634.642,180.128" style="fill:none;fill-rule:evenodd;stroke:#CCCC00;stroke-width:2.0px;stroke-linecap:butt;stroke-linejoin:miter;stroke-opacity:1"/>
<path class="bond-21 atom-21 atom-22" d="M 634.642,180.128 L 628.264,178.374" style="fill:none;fill-rule:evenodd;stroke:#000000;stroke-width:2.0px;stroke-linecap:butt;stroke-linejoin:miter;stroke-opacity:1"/>
<path class="bond-22 atom-22 atom-23" d="M 626.67,173.481 L 610.981,158.813" style="fill:none;fill-rule:evenodd;stroke:#000000;stroke-width:2.0px;stroke-linecap:butt;stroke-linejoin:miter;stroke-opacity:1"/>
<path class="bond-23 atom-23 atom-24" d="M 610.981,158.813 L 603.906,138.535" style="fill:none;fill-rule:evenodd;stroke:#000000;stroke-width:2.0px;stroke-linecap:butt;stroke-linejoin:miter;stroke-opacity:1"/>
<path class="bond-23 atom-23 atom-24" d="M 613.976,154.356 L 609.023,140.161" style="fill:none;fill-rule:evenodd;stroke:#000000;stroke-width:2.0px;stroke-linecap:butt;stroke-linejoin:miter;stroke-opacity:1"/>
<path class="bond-24 atom-24 atom-25" d="M 603.906,138.535 L 607.064,117.291" style="fill:none;fill-rule:evenodd;stroke:#000000;stroke-width:2.0px;stroke-linecap:butt;stroke-linejoin:miter;stroke-opacity:1"/>
<path class="bond-25 atom-25 atom-26" d="M 607.064,117.291 L 619.734,99.9481" style="fill:none;fill-rule:evenodd;stroke:#000000;stroke-width:2.0px;stroke-linecap:butt;stroke-linejoin:miter;stroke-opacity:1"/>
<path class="bond-25 atom-25 atom-26" d="M 612.433,117.223 L 621.302,105.083" style="fill:none;fill-rule:evenodd;stroke:#000000;stroke-width:2.0px;stroke-linecap:butt;stroke-linejoin:miter;stroke-opacity:1"/>
<path class="bond-26 atom-26 atom-27" d="M 619.734,99.9481 L 639.011,90.4797" style="fill:none;fill-rule:evenodd;stroke:#000000;stroke-width:2.0px;stroke-linecap:butt;stroke-linejoin:miter;stroke-opacity:1"/>
<path class="bond-27 atom-27 atom-28" d="M 639.011,90.4797 L 660.481,91.0547" style="fill:none;fill-rule:evenodd;stroke:#000000;stroke-width:2.0px;stroke-linecap:butt;stroke-linejoin:miter;stroke-opacity:1"/>
<path class="bond-27 atom-27 atom-28" d="M 642.117,94.8599 L 657.146,95.2624" style="fill:none;fill-rule:evenodd;stroke:#000000;stroke-width:2.0px;stroke-linecap:butt;stroke-linejoin:miter;stroke-opacity:1"/>
<path class="bond-28 atom-28 atom-29" d="M 660.481,91.0547 L 679.225,101.541" style="fill:none;fill-rule:evenodd;stroke:#000000;stroke-width:2.0px;stroke-linecap:butt;stroke-linejoin:miter;stroke-opacity:1"/>
<path class="bond-28 atom-28 atom-29" d="M 661.195,96.3763 L 674.316,103.717" style="fill:none;fill-rule:evenodd;stroke:#000000;stroke-width:2.0px;stroke-linecap:butt;stroke-linejoin:miter;stroke-opacity:1"/>
<path class="bond-29 atom-29 atom-30" d="M 679.225,101.541 L 691.01,88.9352" style="fill:none;fill-rule:evenodd;stroke:#000000;stroke-width:2.0px;stroke-linecap:butt;stroke-linejoin:miter;stroke-opacity:1"/>
<path class="bond-30 atom-30 atom-31" d="M 696.774,86.5215 L 714.813,90.71" style="fill:none;fill-rule:evenodd;stroke:#000000;stroke-width:2.0px;stroke-linecap:butt;stroke-linejoin:miter;stroke-opacity:1"/>
<path class="bond-31 atom-31 atom-32" d="M 716.382,92.1768 L 722.051,86.1127" style="fill:none;fill-rule:evenodd;stroke:#000000;stroke-width:2.0px;stroke-linecap:butt;stroke-linejoin:miter;stroke-opacity:1"/>
<path class="bond-31 atom-31 atom-32" d="M 722.051,86.1127 L 727.72,80.0486" style="fill:none;fill-rule:evenodd;stroke:#FF0000;stroke-width:2.0px;stroke-linecap:butt;stroke-linejoin:miter;stroke-opacity:1"/>
<path class="bond-31 atom-31 atom-32" d="M 713.244,89.2433 L 718.913,83.1792" style="fill:none;fill-rule:evenodd;stroke:#000000;stroke-width:2.0px;stroke-linecap:butt;stroke-linejoin:miter;stroke-opacity:1"/>
<path class="bond-31 atom-31 atom-32" d="M 718.913,83.1792 L 724.582,77.1151" style="fill:none;fill-rule:evenodd;stroke:#FF0000;stroke-width:2.0px;stroke-linecap:butt;stroke-linejoin:miter;stroke-opacity:1"/>
<path class="atom-7" d="M 640.37 112.149 Q 640.37 110.688, 641.091 109.872 Q 641.813 109.056, 643.162 109.056 Q 644.51 109.056, 645.232 109.872 Q 645.954 110.688, 645.954 112.149 Q 645.954 113.626, 645.223 114.468 Q 644.493 115.301, 643.162 115.301 Q 641.821 115.301, 641.091 114.468 Q 640.37 113.635, 640.37 112.149 M 643.162 114.614 Q 644.089 114.614, 644.588 113.996 Q 645.095 113.368, 645.095 112.149 Q 645.095 110.954, 644.588 110.353 Q 644.089 109.743, 643.162 109.743 Q 642.234 109.743, 641.727 110.344 Q 641.229 110.946, 641.229 112.149 Q 641.229 113.377, 641.727 113.996 Q 642.234 114.614, 643.162 114.614 " fill="#FF0000"/>
<path class="atom-8" d="M 619.873 139.128 L 621.866 142.35 Q 622.064 142.668, 622.382 143.244 Q 622.7 143.819, 622.717 143.854 L 622.717 139.128 L 623.524 139.128 L 623.524 145.211 L 622.691 145.211 L 620.552 141.689 Q 620.303 141.276, 620.036 140.804 Q 619.779 140.331, 619.701 140.185 L 619.701 145.211 L 618.911 145.211 L 618.911 139.128 L 619.873 139.128 " fill="#0000FF"/>
<path class="atom-8" d="M 618.838 145.819 L 619.663 145.819 L 619.663 148.405 L 622.773 148.405 L 622.773 145.819 L 623.597 145.819 L 623.597 151.902 L 622.773 151.902 L 622.773 149.092 L 619.663 149.092 L 619.663 151.902 L 618.838 151.902 L 618.838 145.819 " fill="#0000FF"/>
<path class="atom-13" d="M 550.129 93.5797 Q 550.197 93.6055, 550.481 93.7258 Q 550.764 93.846, 551.074 93.9233 Q 551.392 93.9921, 551.701 93.9921 Q 552.276 93.9921, 552.612 93.7172 Q 552.947 93.4337, 552.947 92.944 Q 552.947 92.6089, 552.775 92.4027 Q 552.612 92.1966, 552.354 92.0849 Q 552.096 91.9732, 551.667 91.8443 Q 551.125 91.6811, 550.799 91.5265 Q 550.481 91.3718, 550.249 91.0454 Q 550.026 90.7189, 550.026 90.1691 Q 550.026 89.4045, 550.541 88.932 Q 551.065 88.4595, 552.096 88.4595 Q 552.801 88.4595, 553.599 88.7945 L 553.402 89.456 Q 552.672 89.1553, 552.122 89.1553 Q 551.529 89.1553, 551.203 89.4045 Q 550.876 89.645, 550.885 90.066 Q 550.885 90.3924, 551.048 90.59 Q 551.22 90.7876, 551.46 90.8993 Q 551.709 91.011, 552.122 91.1399 Q 552.672 91.3117, 552.998 91.4835 Q 553.325 91.6553, 553.557 92.0076 Q 553.797 92.3512, 553.797 92.944 Q 553.797 93.7859, 553.23 94.2412 Q 552.672 94.6879, 551.735 94.6879 Q 551.194 94.6879, 550.782 94.5677 Q 550.378 94.456, 549.897 94.2584 L 550.129 93.5797 " fill="#CCCC00"/>
<path class="atom-15" d="M 529.411 100.194 Q 529.411 98.7333, 530.133 97.9171 Q 530.855 97.101, 532.204 97.101 Q 533.552 97.101, 534.274 97.9171 Q 534.996 98.7333, 534.996 100.194 Q 534.996 101.671, 534.265 102.513 Q 533.535 103.347, 532.204 103.347 Q 530.863 103.347, 530.133 102.513 Q 529.411 101.68, 529.411 100.194 M 532.204 102.659 Q 533.131 102.659, 533.63 102.041 Q 534.137 101.414, 534.137 100.194 Q 534.137 98.9996, 533.63 98.3982 Q 533.131 97.7883, 532.204 97.7883 Q 531.276 97.7883, 530.769 98.3897 Q 530.271 98.991, 530.271 100.194 Q 530.271 101.422, 530.769 102.041 Q 531.276 102.659, 532.204 102.659 " fill="#FF0000"/>
<path class="atom-20" d="M 638.003 158.751 Q 638.003 157.29, 638.725 156.474 Q 639.446 155.658, 640.795 155.658 Q 642.144 155.658, 642.866 156.474 Q 643.587 157.29, 643.587 158.751 Q 643.587 160.228, 642.857 161.07 Q 642.127 161.903, 640.795 161.903 Q 639.455 161.903, 638.725 161.07 Q 638.003 160.237, 638.003 158.751 M 640.795 161.216 Q 641.723 161.216, 642.221 160.598 Q 642.728 159.971, 642.728 158.751 Q 642.728 157.556, 642.221 156.955 Q 641.723 156.345, 640.795 156.345 Q 639.867 156.345, 639.36 156.946 Q 638.862 157.548, 638.862 158.751 Q 638.862 159.979, 639.36 160.598 Q 639.867 161.216, 640.795 161.216 " fill="#FF0000"/>
<path class="atom-20" d="M 644.097 156.741 L 645.169 156.741 L 645.169 155.613 L 645.645 155.613 L 645.645 156.741 L 646.745 156.741 L 646.745 157.15 L 645.645 157.15 L 645.645 158.284 L 645.169 158.284 L 645.169 157.15 L 644.097 157.15 L 644.097 156.741 " fill="#FF0000"/>
<path class="atom-21" d="M 645.66 181.265 Q 645.729 181.29, 646.013 181.411 Q 646.296 181.531, 646.606 181.608 Q 646.923 181.677, 647.233 181.677 Q 647.808 181.677, 648.143 181.402 Q 648.478 181.118, 648.478 180.629 Q 648.478 180.294, 648.307 180.088 Q 648.143 179.881, 647.886 179.77 Q 647.628 179.658, 647.198 179.529 Q 646.657 179.366, 646.331 179.211 Q 646.013 179.057, 645.781 178.73 Q 645.557 178.404, 645.557 177.854 Q 645.557 177.089, 646.073 176.617 Q 646.597 176.144, 647.628 176.144 Q 648.332 176.144, 649.131 176.479 L 648.934 177.141 Q 648.203 176.84, 647.654 176.84 Q 647.061 176.84, 646.734 177.089 Q 646.408 177.33, 646.417 177.751 Q 646.417 178.077, 646.58 178.275 Q 646.752 178.472, 646.992 178.584 Q 647.241 178.696, 647.654 178.825 Q 648.203 178.997, 648.53 179.168 Q 648.856 179.34, 649.088 179.692 Q 649.329 180.036, 649.329 180.629 Q 649.329 181.471, 648.762 181.926 Q 648.203 182.373, 647.267 182.373 Q 646.726 182.373, 646.313 182.252 Q 645.91 182.141, 645.429 181.943 L 645.66 181.265 " fill="#CCCC00"/>
<path class="atom-21" d="M 644.999 182.987 L 645.824 182.987 L 645.824 185.573 L 648.934 185.573 L 648.934 182.987 L 649.758 182.987 L 649.758 189.069 L 648.934 189.069 L 648.934 186.26 L 645.824 186.26 L 645.824 189.069 L 644.999 189.069 L 644.999 182.987 " fill="#CCCC00"/>
<path class="atom-30" d="M 691.547 85.878 Q 691.547 84.3659, 692.251 83.5756 Q 692.964 82.7766, 694.313 82.7766 Q 695.567 82.7766, 696.237 83.6615 L 695.67 84.1254 Q 695.181 83.4811, 694.313 83.4811 Q 693.394 83.4811, 692.904 84.0996 Q 692.423 84.7096, 692.423 85.878 Q 692.423 87.0807, 692.921 87.6993 Q 693.428 88.3178, 694.407 88.3178 Q 695.078 88.3178, 695.859 87.914 L 696.1 88.5583 Q 695.782 88.7645, 695.301 88.8848 Q 694.82 89.0051, 694.287 89.0051 Q 692.964 89.0051, 692.251 88.1975 Q 691.547 87.39, 691.547 85.878 " fill="#000000"/>
<path class="atom-30" d="M 696.521 83.778 L 698.602 83.778 L 698.602 84.2316 L 696.521 84.2316 L 696.521 83.778 " fill="#000000"/>
<path class="atom-32" d="M 726.688 75.0381 Q 726.688 73.5777, 727.41 72.7615 Q 728.132 71.9454, 729.48 71.9454 Q 730.829 71.9454, 731.551 72.7615 Q 732.272 73.5777, 732.272 75.0381 Q 732.272 76.5158, 731.542 77.3577 Q 730.812 78.191, 729.48 78.191 Q 728.14 78.191, 727.41 77.3577 Q 726.688 76.5244, 726.688 75.0381 M 729.48 77.5037 Q 730.408 77.5037, 730.906 76.8852 Q 731.413 76.258, 731.413 75.0381 Q 731.413 73.844, 730.906 73.2426 Q 730.408 72.6327, 729.48 72.6327 Q 728.552 72.6327, 728.046 73.234 Q 727.547 73.8354, 727.547 75.0381 Q 727.547 76.2666, 728.046 76.8852 Q 728.552 77.5037, 729.48 77.5037 " fill="#FF0000"/>
<path d="M 637.144,158.733 L 637.142,158.696 L 637.138,158.66 L 637.13,158.624 L 637.119,158.588 L 637.105,158.554 L 637.088,158.521 L 637.068,158.49 L 637.046,158.46 L 637.021,158.433 L 636.994,158.408 L 636.965,158.385 L 636.934,158.365 L 636.902,158.347 L 636.868,158.332 L 636.833,158.321 L 636.797,158.312 L 636.76,158.306 L 636.724,158.304 L 636.687,158.305 L 636.65,158.309 L 636.614,158.316 L 636.578,158.326 L 636.544,158.339 L 636.51,158.355 L 636.479,158.374 L 636.449,158.396 L 636.421,158.42 L 636.395,158.446 L 636.371,158.475 L 636.35,158.505 L 636.332,158.538 L 636.317,158.571 L 636.304,158.606 L 636.295,158.642 L 636.288,158.678 L 636.285,158.715 L 636.285,158.752 L 636.288,158.789 L 636.295,158.825 L 636.304,158.861 L 636.317,158.896 L 636.332,158.929 L 636.35,158.961 L 636.371,158.992 L 636.395,159.02 L 636.421,159.047 L 636.449,159.071 L 636.479,159.092 L 636.51,159.111 L 636.544,159.128 L 636.578,159.141 L 636.614,159.151 L 636.65,159.158 L 636.687,159.162 L 636.724,159.163 L 636.76,159.16 L 636.797,159.155 L 636.833,159.146 L 636.868,159.135 L 636.902,159.12 L 636.934,159.102 L 636.965,159.082 L 636.994,159.059 L 637.021,159.034 L 637.046,159.006 L 637.068,158.977 L 637.088,158.946 L 637.105,158.913 L 637.119,158.878 L 637.13,158.843 L 637.138,158.807 L 637.142,158.77 L 637.144,158.733 L 636.714,158.733 Z" style="fill:#000000;fill-rule:evenodd;fill-opacity:1;stroke:#000000;stroke-width:0.0px;stroke-linecap:butt;stroke-linejoin:miter;stroke-opacity:1;"/>
<path class="bond-0 atom-0 atom-1" d="M 181.941,378.433 L 173.881,373.78" style="fill:none;fill-rule:evenodd;stroke:#FF7F00;stroke-width:2.0px;stroke-linecap:butt;stroke-linejoin:miter;stroke-opacity:1"/>
<path class="bond-0 atom-0 atom-1" d="M 173.881,373.78 L 165.82,369.126" style="fill:none;fill-rule:evenodd;stroke:#000000;stroke-width:2.0px;stroke-linecap:butt;stroke-linejoin:miter;stroke-opacity:1"/>
<path class="bond-1 atom-1 atom-2" d="M 165.82,369.126 L 158.184,373.534" style="fill:none;fill-rule:evenodd;stroke:#000000;stroke-width:2.0px;stroke-linecap:butt;stroke-linejoin:miter;stroke-opacity:1"/>
<path class="bond-1 atom-1 atom-2" d="M 158.184,373.534 L 150.549,377.942" style="fill:none;fill-rule:evenodd;stroke:#FF0000;stroke-width:2.0px;stroke-linecap:butt;stroke-linejoin:miter;stroke-opacity:1"/>
<path class="bond-2 atom-2 atom-3" d="M 143.891,377.942 L 136.255,373.534" style="fill:none;fill-rule:evenodd;stroke:#FF0000;stroke-width:2.0px;stroke-linecap:butt;stroke-linejoin:miter;stroke-opacity:1"/>
<path class="bond-2 atom-2 atom-3" d="M 136.255,373.534 L 128.62,369.126" style="fill:none;fill-rule:evenodd;stroke:#000000;stroke-width:2.0px;stroke-linecap:butt;stroke-linejoin:miter;stroke-opacity:1"/>
<path class="bond-3 atom-3 atom-4" d="M 128.62,369.126 L 110.02,379.864" style="fill:none;fill-rule:evenodd;stroke:#000000;stroke-width:2.0px;stroke-linecap:butt;stroke-linejoin:miter;stroke-opacity:1"/>
<path class="bond-3 atom-3 atom-4" d="M 127.977,374.457 L 114.957,381.974" style="fill:none;fill-rule:evenodd;stroke:#000000;stroke-width:2.0px;stroke-linecap:butt;stroke-linejoin:miter;stroke-opacity:1"/>
<path class="bond-4 atom-4 atom-5" d="M 110.02,379.864 L 91.4196,369.126" style="fill:none;fill-rule:evenodd;stroke:#000000;stroke-width:2.0px;stroke-linecap:butt;stroke-linejoin:miter;stroke-opacity:1"/>
<path class="bond-5 atom-5 atom-6" d="M 90.3457,367.266 L 71.7457,378.004" style="fill:none;fill-rule:evenodd;stroke:#000000;stroke-width:2.0px;stroke-linecap:butt;stroke-linejoin:miter;stroke-opacity:1"/>
<path class="bond-5 atom-5 atom-6" d="M 92.4935,370.986 L 73.8935,381.724" style="fill:none;fill-rule:evenodd;stroke:#000000;stroke-width:2.0px;stroke-linecap:butt;stroke-linejoin:miter;stroke-opacity:1"/>
<path class="atom-0" d="M 184.274 376.823 Q 185.313 376.823, 185.837 377.296 Q 186.361 377.76, 186.361 378.61 Q 186.361 379.452, 185.82 379.933 Q 185.287 380.406, 184.274 380.406 L 183.303 380.406 L 183.303 382.906 L 182.478 382.906 L 182.478 376.823 L 184.274 376.823 M 184.274 379.718 Q 184.867 379.718, 185.184 379.435 Q 185.502 379.151, 185.502 378.61 Q 185.502 378.069, 185.184 377.794 Q 184.875 377.511, 184.274 377.511 L 183.303 377.511 L 183.303 379.718 L 184.274 379.718 " fill="#FF7F00"/>
<path class="atom-0" d="M 187.092 376.823 L 187.916 376.823 L 187.916 379.409 L 191.026 379.409 L 191.026 376.823 L 191.851 376.823 L 191.851 382.906 L 191.026 382.906 L 191.026 380.096 L 187.916 380.096 L 187.916 382.906 L 187.092 382.906 L 187.092 376.823 " fill="#FF7F00"/>
<path class="atom-0" d="M 192.146 382.692 Q 192.293 382.312, 192.645 382.103 Q 192.996 381.887, 193.484 381.887 Q 194.091 381.887, 194.431 382.216 Q 194.771 382.545, 194.771 383.129 Q 194.771 383.724, 194.329 384.28 Q 193.892 384.836, 192.985 385.493 L 194.839 385.493 L 194.839 385.947 L 192.134 385.947 L 192.134 385.567 Q 192.883 385.034, 193.325 384.637 Q 193.773 384.24, 193.989 383.883 Q 194.204 383.526, 194.204 383.157 Q 194.204 382.772, 194.011 382.556 Q 193.818 382.341, 193.484 382.341 Q 193.161 382.341, 192.945 382.471 Q 192.73 382.602, 192.577 382.891 L 192.146 382.692 " fill="#FF7F00"/>
<path class="atom-2" d="M 144.428 379.882 Q 144.428 378.421, 145.149 377.605 Q 145.871 376.789, 147.22 376.789 Q 148.568 376.789, 149.29 377.605 Q 150.012 378.421, 150.012 379.882 Q 150.012 381.359, 149.282 382.201 Q 148.551 383.035, 147.22 383.035 Q 145.88 383.035, 145.149 382.201 Q 144.428 381.368, 144.428 379.882 M 147.22 382.347 Q 148.148 382.347, 148.646 381.729 Q 149.153 381.102, 149.153 379.882 Q 149.153 378.687, 148.646 378.086 Q 148.148 377.476, 147.22 377.476 Q 146.292 377.476, 145.785 378.078 Q 145.287 378.679, 145.287 379.882 Q 145.287 381.11, 145.785 381.729 Q 146.292 382.347, 147.22 382.347 " fill="#FF0000"/>
<path class="bond-0 atom-0 atom-1" d="M 341.252,400.373 L 342.962,399.702" style="fill:none;fill-rule:evenodd;stroke:#000000;stroke-width:2.0px;stroke-linecap:butt;stroke-linejoin:miter;stroke-opacity:1"/>
<path class="bond-0 atom-0 atom-1" d="M 342.962,399.702 L 344.672,399.032" style="fill:none;fill-rule:evenodd;stroke:#0000FF;stroke-width:2.0px;stroke-linecap:butt;stroke-linejoin:miter;stroke-opacity:1"/>
<path class="bond-48 atom-17 atom-0" d="M 351.427,381.459 L 341.252,400.373" style="fill:none;fill-rule:evenodd;stroke:#000000;stroke-width:2.0px;stroke-linecap:butt;stroke-linejoin:miter;stroke-opacity:1"/>
<path class="bond-49 atom-22 atom-0" d="M 320.121,404.211 L 341.252,400.373" style="fill:none;fill-rule:evenodd;stroke:#000000;stroke-width:2.0px;stroke-linecap:butt;stroke-linejoin:miter;stroke-opacity:1"/>
<path class="bond-50 atom-25 atom-0" d="M 351.433,419.285 L 341.252,400.373" style="fill:none;fill-rule:evenodd;stroke:#000000;stroke-width:2.0px;stroke-linecap:butt;stroke-linejoin:miter;stroke-opacity:1"/>
<path class="bond-1 atom-1 atom-2" d="M 355.657,394.534 L 364.927,390.292" style="fill:none;fill-rule:evenodd;stroke:#0000FF;stroke-width:2.0px;stroke-linecap:butt;stroke-linejoin:miter;stroke-opacity:1"/>
<path class="bond-1 atom-1 atom-2" d="M 364.927,390.292 L 374.197,386.05" style="fill:none;fill-rule:evenodd;stroke:#000000;stroke-width:2.0px;stroke-linecap:butt;stroke-linejoin:miter;stroke-opacity:1"/>
<path class="bond-2 atom-2 atom-3" d="M 376.298,385.606 L 372.831,369.199" style="fill:none;fill-rule:evenodd;stroke:#000000;stroke-width:2.0px;stroke-linecap:butt;stroke-linejoin:miter;stroke-opacity:1"/>
<path class="bond-2 atom-2 atom-3" d="M 372.831,369.199 L 369.364,352.792" style="fill:none;fill-rule:evenodd;stroke:#FF0000;stroke-width:2.0px;stroke-linecap:butt;stroke-linejoin:miter;stroke-opacity:1"/>
<path class="bond-2 atom-2 atom-3" d="M 372.095,386.494 L 368.629,370.087" style="fill:none;fill-rule:evenodd;stroke:#000000;stroke-width:2.0px;stroke-linecap:butt;stroke-linejoin:miter;stroke-opacity:1"/>
<path class="bond-2 atom-2 atom-3" d="M 368.629,370.087 L 365.162,353.68" style="fill:none;fill-rule:evenodd;stroke:#FF0000;stroke-width:2.0px;stroke-linecap:butt;stroke-linejoin:miter;stroke-opacity:1"/>
<path class="bond-3 atom-2 atom-4" d="M 374.197,386.05 L 385.136,380.292" style="fill:none;fill-rule:evenodd;stroke:#000000;stroke-width:2.0px;stroke-linecap:butt;stroke-linejoin:miter;stroke-opacity:1"/>
<path class="bond-4 atom-4 atom-5" d="M 385.136,380.292 L 396.801,362.853" style="fill:none;fill-rule:evenodd;stroke:#000000;stroke-width:2.0px;stroke-linecap:butt;stroke-linejoin:miter;stroke-opacity:1"/>
<path class="bond-4 atom-4 atom-5" d="M 390.456,380.065 L 398.621,367.857" style="fill:none;fill-rule:evenodd;stroke:#000000;stroke-width:2.0px;stroke-linecap:butt;stroke-linejoin:miter;stroke-opacity:1"/>
<path class="bond-47 atom-15 atom-4" d="M 388.308,401.298 L 385.136,380.292" style="fill:none;fill-rule:evenodd;stroke:#000000;stroke-width:2.0px;stroke-linecap:butt;stroke-linejoin:miter;stroke-opacity:1"/>
<path class="bond-5 atom-5 atom-6" d="M 396.801,362.853 L 418.152,365.179" style="fill:none;fill-rule:evenodd;stroke:#000000;stroke-width:2.0px;stroke-linecap:butt;stroke-linejoin:miter;stroke-opacity:1"/>
<path class="bond-6 atom-6 atom-7" d="M 418.152,365.179 L 426.813,384.833" style="fill:none;fill-rule:evenodd;stroke:#000000;stroke-width:2.0px;stroke-linecap:butt;stroke-linejoin:miter;stroke-opacity:1"/>
<path class="bond-6 atom-6 atom-7" d="M 415.52,369.859 L 421.583,383.617" style="fill:none;fill-rule:evenodd;stroke:#000000;stroke-width:2.0px;stroke-linecap:butt;stroke-linejoin:miter;stroke-opacity:1"/>
<path class="bond-7 atom-7 atom-8" d="M 426.813,384.833 L 430.938,377.165" style="fill:none;fill-rule:evenodd;stroke:#000000;stroke-width:2.0px;stroke-linecap:butt;stroke-linejoin:miter;stroke-opacity:1"/>
<path class="bond-7 atom-7 atom-8" d="M 430.938,377.165 L 435.063,369.497" style="fill:none;fill-rule:evenodd;stroke:#0000FF;stroke-width:2.0px;stroke-linecap:butt;stroke-linejoin:miter;stroke-opacity:1"/>
<path class="bond-13 atom-7 atom-14" d="M 426.813,384.833 L 409.439,397.46" style="fill:none;fill-rule:evenodd;stroke:#000000;stroke-width:2.0px;stroke-linecap:butt;stroke-linejoin:miter;stroke-opacity:1"/>
<path class="bond-8 atom-8 atom-9" d="M 439.831,367.734 L 447.46,372.606" style="fill:none;fill-rule:evenodd;stroke:#0000FF;stroke-width:2.0px;stroke-linecap:butt;stroke-linejoin:miter;stroke-opacity:1"/>
<path class="bond-8 atom-8 atom-9" d="M 447.46,372.606 L 455.089,377.478" style="fill:none;fill-rule:evenodd;stroke:#000000;stroke-width:2.0px;stroke-linecap:butt;stroke-linejoin:miter;stroke-opacity:1"/>
<path class="bond-46 atom-13 atom-8" d="M 437.948,344.462 L 437.548,353.401" style="fill:none;fill-rule:evenodd;stroke:#000000;stroke-width:2.0px;stroke-linecap:butt;stroke-linejoin:miter;stroke-opacity:1"/>
<path class="bond-46 atom-13 atom-8" d="M 437.548,353.401 L 437.148,362.34" style="fill:none;fill-rule:evenodd;stroke:#0000FF;stroke-width:2.0px;stroke-linecap:butt;stroke-linejoin:miter;stroke-opacity:1"/>
<path class="bond-9 atom-9 atom-10" d="M 455.089,377.478 L 474.151,367.582" style="fill:none;fill-rule:evenodd;stroke:#000000;stroke-width:2.0px;stroke-linecap:butt;stroke-linejoin:miter;stroke-opacity:1"/>
<path class="bond-10 atom-10 atom-11" d="M 474.151,367.582 L 474.548,358.707" style="fill:none;fill-rule:evenodd;stroke:#000000;stroke-width:2.0px;stroke-linecap:butt;stroke-linejoin:miter;stroke-opacity:1"/>
<path class="bond-10 atom-10 atom-11" d="M 474.548,358.707 L 474.945,349.833" style="fill:none;fill-rule:evenodd;stroke:#FF0000;stroke-width:2.0px;stroke-linecap:butt;stroke-linejoin:miter;stroke-opacity:1"/>
<path class="bond-11 atom-11 atom-12" d="M 471.782,344 L 464.396,339.283" style="fill:none;fill-rule:evenodd;stroke:#FF0000;stroke-width:2.0px;stroke-linecap:butt;stroke-linejoin:miter;stroke-opacity:1"/>
<path class="bond-11 atom-11 atom-12" d="M 464.396,339.283 L 457.01,334.566" style="fill:none;fill-rule:evenodd;stroke:#000000;stroke-width:2.0px;stroke-linecap:butt;stroke-linejoin:miter;stroke-opacity:1"/>
<path class="bond-12 atom-12 atom-13" d="M 457.01,334.566 L 437.948,344.462" style="fill:none;fill-rule:evenodd;stroke:#000000;stroke-width:2.0px;stroke-linecap:butt;stroke-linejoin:miter;stroke-opacity:1"/>
<path class="bond-52 atom-37 atom-13" d="M 431.034,328.293 L 434.491,336.378" style="fill:none;fill-rule:evenodd;stroke:#FF7F00;stroke-width:2.0px;stroke-linecap:butt;stroke-linejoin:miter;stroke-opacity:1"/>
<path class="bond-52 atom-37 atom-13" d="M 434.491,336.378 L 437.948,344.462" style="fill:none;fill-rule:evenodd;stroke:#000000;stroke-width:2.0px;stroke-linecap:butt;stroke-linejoin:miter;stroke-opacity:1"/>
<path class="bond-14 atom-14 atom-15" d="M 409.439,397.46 L 388.308,401.298" style="fill:none;fill-rule:evenodd;stroke:#000000;stroke-width:2.0px;stroke-linecap:butt;stroke-linejoin:miter;stroke-opacity:1"/>
<path class="bond-14 atom-14 atom-15" d="M 405.502,393.809 L 390.71,396.496" style="fill:none;fill-rule:evenodd;stroke:#000000;stroke-width:2.0px;stroke-linecap:butt;stroke-linejoin:miter;stroke-opacity:1"/>
<path class="bond-15 atom-15 atom-16" d="M 388.308,401.298 L 367.603,395.587" style="fill:none;fill-rule:evenodd;stroke:#000000;stroke-width:2.0px;stroke-linecap:butt;stroke-linejoin:miter;stroke-opacity:1"/>
<path class="bond-16 atom-16 atom-17" d="M 367.603,395.587 L 351.427,381.459" style="fill:none;fill-rule:evenodd;stroke:#000000;stroke-width:2.0px;stroke-linecap:butt;stroke-linejoin:miter;stroke-opacity:1"/>
<path class="bond-16 atom-16 atom-17" d="M 368.002,390.233 L 356.679,380.343" style="fill:none;fill-rule:evenodd;stroke:#000000;stroke-width:2.0px;stroke-linecap:butt;stroke-linejoin:miter;stroke-opacity:1"/>
<path class="bond-17 atom-17 atom-18" d="M 351.427,381.459 L 348.005,373.455" style="fill:none;fill-rule:evenodd;stroke:#000000;stroke-width:2.0px;stroke-linecap:butt;stroke-linejoin:miter;stroke-opacity:1"/>
<path class="bond-17 atom-17 atom-18" d="M 348.005,373.455 L 344.583,365.452" style="fill:none;fill-rule:evenodd;stroke:#CCCC00;stroke-width:2.0px;stroke-linecap:butt;stroke-linejoin:miter;stroke-opacity:1"/>
<path class="bond-18 atom-18 atom-19" d="M 340.496,361.025 L 331.387,358.512" style="fill:none;fill-rule:evenodd;stroke:#CCCC00;stroke-width:2.0px;stroke-linecap:butt;stroke-linejoin:miter;stroke-opacity:1"/>
<path class="bond-18 atom-18 atom-19" d="M 331.387,358.512 L 322.279,356" style="fill:none;fill-rule:evenodd;stroke:#000000;stroke-width:2.0px;stroke-linecap:butt;stroke-linejoin:miter;stroke-opacity:1"/>
<path class="bond-53 atom-42 atom-18" d="M 343.943,340.255 L 343.543,349.202" style="fill:none;fill-rule:evenodd;stroke:#000000;stroke-width:2.0px;stroke-linecap:butt;stroke-linejoin:miter;stroke-opacity:1"/>
<path class="bond-53 atom-42 atom-18" d="M 343.543,349.202 L 343.142,358.15" style="fill:none;fill-rule:evenodd;stroke:#CCCC00;stroke-width:2.0px;stroke-linecap:butt;stroke-linejoin:miter;stroke-opacity:1"/>
<path class="bond-19 atom-19 atom-20" d="M 322.279,356 L 315.013,361.28" style="fill:none;fill-rule:evenodd;stroke:#000000;stroke-width:2.0px;stroke-linecap:butt;stroke-linejoin:miter;stroke-opacity:1"/>
<path class="bond-19 atom-19 atom-20" d="M 315.013,361.28 L 307.748,366.56" style="fill:none;fill-rule:evenodd;stroke:#0000FF;stroke-width:2.0px;stroke-linecap:butt;stroke-linejoin:miter;stroke-opacity:1"/>
<path class="bond-19 atom-19 atom-20" d="M 322.624,361.059 L 317.539,364.755" style="fill:none;fill-rule:evenodd;stroke:#000000;stroke-width:2.0px;stroke-linecap:butt;stroke-linejoin:miter;stroke-opacity:1"/>
<path class="bond-19 atom-19 atom-20" d="M 317.539,364.755 L 312.453,368.451" style="fill:none;fill-rule:evenodd;stroke:#0000FF;stroke-width:2.0px;stroke-linecap:butt;stroke-linejoin:miter;stroke-opacity:1"/>
<path class="bond-20 atom-20 atom-21" d="M 304.745,372.205 L 304.345,381.144" style="fill:none;fill-rule:evenodd;stroke:#0000FF;stroke-width:2.0px;stroke-linecap:butt;stroke-linejoin:miter;stroke-opacity:1"/>
<path class="bond-20 atom-20 atom-21" d="M 304.345,381.144 L 303.944,390.083" style="fill:none;fill-rule:evenodd;stroke:#000000;stroke-width:2.0px;stroke-linecap:butt;stroke-linejoin:miter;stroke-opacity:1"/>
<path class="bond-21 atom-21 atom-22" d="M 303.944,390.083 L 320.121,404.211" style="fill:none;fill-rule:evenodd;stroke:#000000;stroke-width:2.0px;stroke-linecap:butt;stroke-linejoin:miter;stroke-opacity:1"/>
<path class="bond-21 atom-21 atom-22" d="M 309.197,388.967 L 320.52,398.857" style="fill:none;fill-rule:evenodd;stroke:#000000;stroke-width:2.0px;stroke-linecap:butt;stroke-linejoin:miter;stroke-opacity:1"/>
<path class="bond-22 atom-22 atom-23" d="M 320.121,404.211 L 318.923,413.064" style="fill:none;fill-rule:evenodd;stroke:#000000;stroke-width:2.0px;stroke-linecap:butt;stroke-linejoin:miter;stroke-opacity:1"/>
<path class="bond-22 atom-22 atom-23" d="M 318.923,413.064 L 317.725,421.917" style="fill:none;fill-rule:evenodd;stroke:#0000FF;stroke-width:2.0px;stroke-linecap:butt;stroke-linejoin:miter;stroke-opacity:1"/>
<path class="bond-23 atom-23 atom-24" d="M 320.084,426.864 L 326.714,430.055" style="fill:none;fill-rule:evenodd;stroke:#0000FF;stroke-width:2.0px;stroke-linecap:butt;stroke-linejoin:miter;stroke-opacity:1"/>
<path class="bond-23 atom-23 atom-24" d="M 326.714,430.055 L 333.343,433.246" style="fill:none;fill-rule:evenodd;stroke:#FF0000;stroke-width:2.0px;stroke-linecap:butt;stroke-linejoin:miter;stroke-opacity:1"/>
<path class="bond-24 atom-24 atom-25" d="M 339.922,431.328 L 345.677,425.306" style="fill:none;fill-rule:evenodd;stroke:#FF0000;stroke-width:2.0px;stroke-linecap:butt;stroke-linejoin:miter;stroke-opacity:1"/>
<path class="bond-24 atom-24 atom-25" d="M 345.677,425.306 L 351.433,419.285" style="fill:none;fill-rule:evenodd;stroke:#000000;stroke-width:2.0px;stroke-linecap:butt;stroke-linejoin:miter;stroke-opacity:1"/>
<path class="bond-25 atom-25 atom-26" d="M 351.433,419.285 L 371.105,427.903" style="fill:none;fill-rule:evenodd;stroke:#000000;stroke-width:2.0px;stroke-linecap:butt;stroke-linejoin:miter;stroke-opacity:1"/>
<path class="bond-26 atom-26 atom-27" d="M 371.105,427.903 L 359.571,446.021" style="fill:none;fill-rule:evenodd;stroke:#000000;stroke-width:2.0px;stroke-linecap:butt;stroke-linejoin:miter;stroke-opacity:1"/>
<path class="bond-26 atom-26 atom-27" d="M 372.998,432.928 L 364.924,445.61" style="fill:none;fill-rule:evenodd;stroke:#000000;stroke-width:2.0px;stroke-linecap:butt;stroke-linejoin:miter;stroke-opacity:1"/>
<path class="bond-51 atom-31 atom-26" d="M 392.562,428.833 L 371.105,427.903" style="fill:none;fill-rule:evenodd;stroke:#000000;stroke-width:2.0px;stroke-linecap:butt;stroke-linejoin:miter;stroke-opacity:1"/>
<path class="bond-27 atom-27 atom-28" d="M 359.571,446.021 L 369.494,465.068" style="fill:none;fill-rule:evenodd;stroke:#000000;stroke-width:2.0px;stroke-linecap:butt;stroke-linejoin:miter;stroke-opacity:1"/>
<path class="bond-28 atom-28 atom-29" d="M 369.494,465.068 L 390.951,465.998" style="fill:none;fill-rule:evenodd;stroke:#000000;stroke-width:2.0px;stroke-linecap:butt;stroke-linejoin:miter;stroke-opacity:1"/>
<path class="bond-28 atom-28 atom-29" d="M 372.899,460.916 L 387.919,461.568" style="fill:none;fill-rule:evenodd;stroke:#000000;stroke-width:2.0px;stroke-linecap:butt;stroke-linejoin:miter;stroke-opacity:1"/>
<path class="bond-29 atom-29 atom-30" d="M 390.951,465.998 L 402.485,447.881" style="fill:none;fill-rule:evenodd;stroke:#000000;stroke-width:2.0px;stroke-linecap:butt;stroke-linejoin:miter;stroke-opacity:1"/>
<path class="bond-30 atom-30 atom-31" d="M 402.485,447.881 L 392.562,428.833" style="fill:none;fill-rule:evenodd;stroke:#000000;stroke-width:2.0px;stroke-linecap:butt;stroke-linejoin:miter;stroke-opacity:1"/>
<path class="bond-30 atom-30 atom-31" d="M 397.187,447.008 L 390.241,433.675" style="fill:none;fill-rule:evenodd;stroke:#000000;stroke-width:2.0px;stroke-linecap:butt;stroke-linejoin:miter;stroke-opacity:1"/>
<path class="bond-31 atom-31 atom-32" d="M 392.562,428.833 L 395.328,422.19" style="fill:none;fill-rule:evenodd;stroke:#000000;stroke-width:2.0px;stroke-linecap:butt;stroke-linejoin:miter;stroke-opacity:1"/>
<path class="bond-31 atom-31 atom-32" d="M 395.328,422.19 L 398.094,415.546" style="fill:none;fill-rule:evenodd;stroke:#0000FF;stroke-width:2.0px;stroke-linecap:butt;stroke-linejoin:miter;stroke-opacity:1"/>
<path class="bond-32 atom-32 atom-33" d="M 402.09,409.152 L 403.911,407.076" style="fill:none;fill-rule:evenodd;stroke:#0000FF;stroke-width:2.0px;stroke-linecap:butt;stroke-linejoin:miter;stroke-opacity:1"/>
<path class="bond-32 atom-32 atom-33" d="M 403.911,407.076 L 405.732,404.999" style="fill:none;fill-rule:evenodd;stroke:#000000;stroke-width:2.0px;stroke-linecap:butt;stroke-linejoin:miter;stroke-opacity:1"/>
<path class="bond-33 atom-33 atom-34" d="M 405.732,404.999 L 412.663,373.765" style="fill:none;fill-rule:evenodd;stroke:#000000;stroke-width:2.0px;stroke-linecap:butt;stroke-linejoin:miter;stroke-opacity:1"/>
<path class="bond-34 atom-34 atom-35" d="M 412.663,373.765 L 417.852,370.97" style="fill:none;fill-rule:evenodd;stroke:#000000;stroke-width:2.0px;stroke-linecap:butt;stroke-linejoin:miter;stroke-opacity:1"/>
<path class="bond-35 atom-35 atom-36" d="M 417.852,370.97 L 423.283,346.883" style="fill:none;fill-rule:evenodd;stroke:#000000;stroke-width:2.0px;stroke-linecap:butt;stroke-linejoin:miter;stroke-opacity:1"/>
<path class="bond-36 atom-36 atom-37" d="M 425.194,339.461 L 426.848,333.801" style="fill:none;fill-rule:evenodd;stroke:#000000;stroke-width:2.0px;stroke-linecap:butt;stroke-linejoin:miter;stroke-opacity:1"/>
<path class="bond-36 atom-36 atom-37" d="M 426.848,333.801 L 428.503,328.14" style="fill:none;fill-rule:evenodd;stroke:#FF7F00;stroke-width:2.0px;stroke-linecap:butt;stroke-linejoin:miter;stroke-opacity:1"/>
<path class="bond-37 atom-37 atom-38" d="M 427.025,322.55 L 421.8,317.986" style="fill:none;fill-rule:evenodd;stroke:#FF7F00;stroke-width:2.0px;stroke-linecap:butt;stroke-linejoin:miter;stroke-opacity:1"/>
<path class="bond-37 atom-37 atom-38" d="M 421.8,317.986 L 416.574,313.422" style="fill:none;fill-rule:evenodd;stroke:#FF0000;stroke-width:2.0px;stroke-linecap:butt;stroke-linejoin:miter;stroke-opacity:1"/>
<path class="bond-37 atom-37 atom-38" d="M 422.632,324.416 L 418.974,321.221" style="fill:none;fill-rule:evenodd;stroke:#FF7F00;stroke-width:2.0px;stroke-linecap:butt;stroke-linejoin:miter;stroke-opacity:1"/>
<path class="bond-37 atom-37 atom-38" d="M 418.974,321.221 L 415.316,318.026" style="fill:none;fill-rule:evenodd;stroke:#FF0000;stroke-width:2.0px;stroke-linecap:butt;stroke-linejoin:miter;stroke-opacity:1"/>
<path class="bond-38 atom-38 atom-39" d="M 409.999,309.668 L 401.311,307.272" style="fill:none;fill-rule:evenodd;stroke:#FF0000;stroke-width:2.0px;stroke-linecap:butt;stroke-linejoin:miter;stroke-opacity:1"/>
<path class="bond-38 atom-38 atom-39" d="M 401.311,307.272 L 392.623,304.875" style="fill:none;fill-rule:evenodd;stroke:#000000;stroke-width:2.0px;stroke-linecap:butt;stroke-linejoin:miter;stroke-opacity:1"/>
<path class="bond-39 atom-39 atom-40" d="M 392.623,304.875 L 371.492,308.714" style="fill:none;fill-rule:evenodd;stroke:#000000;stroke-width:2.0px;stroke-linecap:butt;stroke-linejoin:miter;stroke-opacity:1"/>
<path class="bond-40 atom-40 atom-41" d="M 371.492,308.714 L 354.118,321.34" style="fill:none;fill-rule:evenodd;stroke:#000000;stroke-width:2.0px;stroke-linecap:butt;stroke-linejoin:miter;stroke-opacity:1"/>
<path class="bond-41 atom-41 atom-42" d="M 354.118,321.34 L 343.943,340.255" style="fill:none;fill-rule:evenodd;stroke:#000000;stroke-width:2.0px;stroke-linecap:butt;stroke-linejoin:miter;stroke-opacity:1"/>
<path class="bond-41 atom-41 atom-42" d="M 356.375,326.212 L 349.252,339.453" style="fill:none;fill-rule:evenodd;stroke:#000000;stroke-width:2.0px;stroke-linecap:butt;stroke-linejoin:miter;stroke-opacity:1"/>
<path class="bond-42 atom-42 atom-43" d="M 343.943,340.255 L 335.256,337.859" style="fill:none;fill-rule:evenodd;stroke:#000000;stroke-width:2.0px;stroke-linecap:butt;stroke-linejoin:miter;stroke-opacity:1"/>
<path class="bond-42 atom-42 atom-43" d="M 335.256,337.859 L 326.568,335.462" style="fill:none;fill-rule:evenodd;stroke:#FF0000;stroke-width:2.0px;stroke-linecap:butt;stroke-linejoin:miter;stroke-opacity:1"/>
<path class="bond-43 atom-43 atom-44" d="M 322.299,330.932 L 320.066,322.345" style="fill:none;fill-rule:evenodd;stroke:#FF0000;stroke-width:2.0px;stroke-linecap:butt;stroke-linejoin:miter;stroke-opacity:1"/>
<path class="bond-43 atom-43 atom-44" d="M 320.066,322.345 L 317.832,313.758" style="fill:none;fill-rule:evenodd;stroke:#000000;stroke-width:2.0px;stroke-linecap:butt;stroke-linejoin:miter;stroke-opacity:1"/>
<path class="bond-44 atom-44 atom-45" d="M 317.832,313.758 L 308.902,311.295" style="fill:none;fill-rule:evenodd;stroke:#000000;stroke-width:2.0px;stroke-linecap:butt;stroke-linejoin:miter;stroke-opacity:1"/>
<path class="bond-44 atom-44 atom-45" d="M 308.902,311.295 L 299.972,308.832" style="fill:none;fill-rule:evenodd;stroke:#0000FF;stroke-width:2.0px;stroke-linecap:butt;stroke-linejoin:miter;stroke-opacity:1"/>
<path class="bond-44 atom-44 atom-45" d="M 314.011,317.16 L 307.76,315.436" style="fill:none;fill-rule:evenodd;stroke:#000000;stroke-width:2.0px;stroke-linecap:butt;stroke-linejoin:miter;stroke-opacity:1"/>
<path class="bond-44 atom-44 atom-45" d="M 307.76,315.436 L 301.509,313.712" style="fill:none;fill-rule:evenodd;stroke:#0000FF;stroke-width:2.0px;stroke-linecap:butt;stroke-linejoin:miter;stroke-opacity:1"/>
<path class="bond-45 atom-45 atom-46" d="M 296.197,304.469 L 294.451,297.757" style="fill:none;fill-rule:evenodd;stroke:#0000FF;stroke-width:2.0px;stroke-linecap:butt;stroke-linejoin:miter;stroke-opacity:1"/>
<path class="bond-45 atom-45 atom-46" d="M 294.451,297.757 L 292.705,291.044" style="fill:none;fill-rule:evenodd;stroke:#00CC00;stroke-width:2.0px;stroke-linecap:butt;stroke-linejoin:miter;stroke-opacity:1"/>
<path class="atom-1" d="M 344.981 392.818 L 345.806 392.818 L 345.806 395.404 L 348.916 395.404 L 348.916 392.818 L 349.741 392.818 L 349.741 398.901 L 348.916 398.901 L 348.916 396.091 L 345.806 396.091 L 345.806 398.901 L 344.981 398.901 L 344.981 392.818 " fill="#0000FF"/>
<path class="atom-1" d="M 351.416 392.818 L 353.409 396.04 Q 353.607 396.358, 353.925 396.933 Q 354.243 397.509, 354.26 397.543 L 354.26 392.818 L 355.067 392.818 L 355.067 398.901 L 354.234 398.901 L 352.095 395.378 Q 351.846 394.966, 351.579 394.493 Q 351.322 394.021, 351.244 393.875 L 351.244 398.901 L 350.454 398.901 L 350.454 392.818 L 351.416 392.818 " fill="#0000FF"/>
<path class="atom-3" d="M 363.602 349.139 Q 363.602 347.679, 364.323 346.863 Q 365.045 346.046, 366.394 346.046 Q 367.743 346.046, 368.464 346.863 Q 369.186 347.679, 369.186 349.139 Q 369.186 350.617, 368.456 351.459 Q 367.725 352.292, 366.394 352.292 Q 365.054 352.292, 364.323 351.459 Q 363.602 350.625, 363.602 349.139 M 366.394 351.605 Q 367.322 351.605, 367.82 350.986 Q 368.327 350.359, 368.327 349.139 Q 368.327 347.945, 367.82 347.344 Q 367.322 346.734, 366.394 346.734 Q 365.466 346.734, 364.959 347.335 Q 364.461 347.936, 364.461 349.139 Q 364.461 350.368, 364.959 350.986 Q 365.466 351.605, 366.394 351.605 " fill="#FF0000"/>
<path class="atom-8" d="M 435.643 362.877 L 437.636 366.099 Q 437.834 366.417, 438.152 366.992 Q 438.47 367.568, 438.487 367.602 L 438.487 362.877 L 439.294 362.877 L 439.294 368.96 L 438.461 368.96 L 436.322 365.437 Q 436.073 365.025, 435.806 364.552 Q 435.549 364.08, 435.471 363.934 L 435.471 368.96 L 434.681 368.96 L 434.681 362.877 L 435.643 362.877 " fill="#0000FF"/>
<path class="atom-11" d="M 472.319 346.143 Q 472.319 344.682, 473.04 343.866 Q 473.762 343.05, 475.111 343.05 Q 476.46 343.05, 477.181 343.866 Q 477.903 344.682, 477.903 346.143 Q 477.903 347.621, 477.173 348.463 Q 476.442 349.296, 475.111 349.296 Q 473.771 349.296, 473.04 348.463 Q 472.319 347.629, 472.319 346.143 M 475.111 348.609 Q 476.039 348.609, 476.537 347.99 Q 477.044 347.363, 477.044 346.143 Q 477.044 344.949, 476.537 344.347 Q 476.039 343.737, 475.111 343.737 Q 474.183 343.737, 473.676 344.339 Q 473.178 344.94, 473.178 346.143 Q 473.178 347.371, 473.676 347.99 Q 474.183 348.609, 475.111 348.609 " fill="#FF0000"/>
<path class="atom-18" d="M 341.265 363.807 Q 341.333 363.833, 341.617 363.953 Q 341.9 364.073, 342.21 364.151 Q 342.528 364.219, 342.837 364.219 Q 343.412 364.219, 343.747 363.944 Q 344.083 363.661, 344.083 363.171 Q 344.083 362.836, 343.911 362.63 Q 343.747 362.424, 343.49 362.312 Q 343.232 362.2, 342.802 362.072 Q 342.261 361.908, 341.935 361.754 Q 341.617 361.599, 341.385 361.273 Q 341.162 360.946, 341.162 360.396 Q 341.162 359.632, 341.677 359.159 Q 342.201 358.687, 343.232 358.687 Q 343.936 358.687, 344.735 359.022 L 344.538 359.683 Q 343.808 359.383, 343.258 359.383 Q 342.665 359.383, 342.339 359.632 Q 342.012 359.872, 342.021 360.293 Q 342.021 360.62, 342.184 360.817 Q 342.356 361.015, 342.596 361.127 Q 342.845 361.238, 343.258 361.367 Q 343.808 361.539, 344.134 361.711 Q 344.461 361.883, 344.692 362.235 Q 344.933 362.578, 344.933 363.171 Q 344.933 364.013, 344.366 364.468 Q 343.808 364.915, 342.871 364.915 Q 342.33 364.915, 341.918 364.795 Q 341.514 364.683, 341.033 364.486 L 341.265 363.807 " fill="#CCCC00"/>
<path class="atom-18" d="M 345.663 358.67 L 346.488 358.67 L 346.488 361.255 L 349.598 361.255 L 349.598 358.67 L 350.423 358.67 L 350.423 364.752 L 349.598 364.752 L 349.598 361.943 L 346.488 361.943 L 346.488 364.752 L 345.663 364.752 L 345.663 358.67 " fill="#CCCC00"/>
<path class="atom-20" d="M 303.56 365.586 L 305.553 368.807 Q 305.751 369.125, 306.069 369.701 Q 306.387 370.276, 306.404 370.311 L 306.404 365.586 L 307.211 365.586 L 307.211 371.668 L 306.378 371.668 L 304.239 368.146 Q 303.99 367.733, 303.724 367.261 Q 303.466 366.788, 303.388 366.642 L 303.388 371.668 L 302.598 371.668 L 302.598 365.586 L 303.56 365.586 " fill="#0000FF"/>
<path class="atom-23" d="M 315.896 422.454 L 317.889 425.675 Q 318.087 425.993, 318.405 426.569 Q 318.723 427.144, 318.74 427.179 L 318.74 422.454 L 319.548 422.454 L 319.548 428.536 L 318.714 428.536 L 316.575 425.014 Q 316.326 424.601, 316.06 424.129 Q 315.802 423.656, 315.725 423.51 L 315.725 428.536 L 314.934 428.536 L 314.934 422.454 L 315.896 422.454 " fill="#0000FF"/>
<path class="atom-23" d="M 319.831 423.459 L 321.912 423.459 L 321.912 423.913 L 319.831 423.913 L 319.831 423.459 " fill="#0000FF"/>
<path class="atom-24" d="M 333.801 434.828 Q 333.801 433.367, 334.522 432.551 Q 335.244 431.735, 336.593 431.735 Q 337.942 431.735, 338.663 432.551 Q 339.385 433.367, 339.385 434.828 Q 339.385 436.305, 338.655 437.147 Q 337.924 437.981, 336.593 437.981 Q 335.253 437.981, 334.522 437.147 Q 333.801 436.314, 333.801 434.828 M 336.593 437.293 Q 337.521 437.293, 338.019 436.675 Q 338.526 436.048, 338.526 434.828 Q 338.526 433.634, 338.019 433.032 Q 337.521 432.422, 336.593 432.422 Q 335.665 432.422, 335.158 433.024 Q 334.66 433.625, 334.66 434.828 Q 334.66 436.056, 335.158 436.675 Q 335.665 437.293, 336.593 437.293 " fill="#FF0000"/>
<path class="atom-32" d="M 398.205 409.009 L 400.198 412.231 Q 400.395 412.548, 400.713 413.124 Q 401.031 413.7, 401.048 413.734 L 401.048 409.009 L 401.856 409.009 L 401.856 415.091 L 401.022 415.091 L 398.883 411.569 Q 398.634 411.157, 398.368 410.684 Q 398.11 410.212, 398.033 410.066 L 398.033 415.091 L 397.242 415.091 L 397.242 409.009 L 398.205 409.009 " fill="#0000FF"/>
<path class="atom-32" d="M 397.169 402.318 L 397.994 402.318 L 397.994 404.904 L 401.104 404.904 L 401.104 402.318 L 401.929 402.318 L 401.929 408.401 L 401.104 408.401 L 401.104 405.591 L 397.994 405.591 L 397.994 408.401 L 397.169 408.401 L 397.169 402.318 " fill="#0000FF"/>
<path class="atom-36" d="M 421.81 343.039 Q 421.81 341.527, 422.515 340.737 Q 423.228 339.938, 424.577 339.938 Q 425.831 339.938, 426.501 340.823 L 425.934 341.287 Q 425.444 340.642, 424.577 340.642 Q 423.658 340.642, 423.168 341.261 Q 422.687 341.871, 422.687 343.039 Q 422.687 344.242, 423.185 344.861 Q 423.692 345.479, 424.671 345.479 Q 425.341 345.479, 426.123 345.075 L 426.364 345.72 Q 426.046 345.926, 425.565 346.046 Q 425.084 346.166, 424.551 346.166 Q 423.228 346.166, 422.515 345.359 Q 421.81 344.551, 421.81 343.039 " fill="#000000"/>
<path class="atom-37" d="M 429.358 321.673 Q 430.397 321.673, 430.921 322.146 Q 431.445 322.61, 431.445 323.46 Q 431.445 324.302, 430.904 324.783 Q 430.372 325.256, 429.358 325.256 L 428.387 325.256 L 428.387 327.756 L 427.562 327.756 L 427.562 321.673 L 429.358 321.673 M 429.358 324.568 Q 429.951 324.568, 430.268 324.285 Q 430.586 324.001, 430.586 323.46 Q 430.586 322.919, 430.268 322.644 Q 429.959 322.361, 429.358 322.361 L 428.387 322.361 L 428.387 324.568 L 429.358 324.568 " fill="#FF7F00"/>
<path class="atom-37" d="M 432.176 321.673 L 433 321.673 L 433 324.259 L 436.11 324.259 L 436.11 321.673 L 436.935 321.673 L 436.935 327.756 L 436.11 327.756 L 436.11 324.946 L 433 324.946 L 433 327.756 L 432.176 327.756 L 432.176 321.673 " fill="#FF7F00"/>
<path class="atom-38" d="M 410.536 310.603 Q 410.536 309.143, 411.257 308.327 Q 411.979 307.511, 413.328 307.511 Q 414.676 307.511, 415.398 308.327 Q 416.12 309.143, 416.12 310.603 Q 416.12 312.081, 415.39 312.923 Q 414.659 313.756, 413.328 313.756 Q 411.987 313.756, 411.257 312.923 Q 410.536 312.09, 410.536 310.603 M 413.328 313.069 Q 414.256 313.069, 414.754 312.45 Q 415.261 311.823, 415.261 310.603 Q 415.261 309.409, 414.754 308.808 Q 414.256 308.198, 413.328 308.198 Q 412.4 308.198, 411.893 308.799 Q 411.395 309.401, 411.395 310.603 Q 411.395 311.832, 411.893 312.45 Q 412.4 313.069, 413.328 313.069 " fill="#FF0000"/>
<path class="atom-38" d="M 416.63 308.594 L 417.702 308.594 L 417.702 307.466 L 418.178 307.466 L 418.178 308.594 L 419.278 308.594 L 419.278 309.002 L 418.178 309.002 L 418.178 310.136 L 417.702 310.136 L 417.702 309.002 L 416.63 309.002 L 416.63 308.594 " fill="#FF0000"/>
<path class="atom-43" d="M 320.447 334.561 Q 320.447 333.101, 321.168 332.285 Q 321.89 331.469, 323.239 331.469 Q 324.588 331.469, 325.309 332.285 Q 326.031 333.101, 326.031 334.561 Q 326.031 336.039, 325.301 336.881 Q 324.57 337.714, 323.239 337.714 Q 321.899 337.714, 321.168 336.881 Q 320.447 336.048, 320.447 334.561 M 323.239 337.027 Q 324.167 337.027, 324.665 336.408 Q 325.172 335.781, 325.172 334.561 Q 325.172 333.367, 324.665 332.766 Q 324.167 332.156, 323.239 332.156 Q 322.311 332.156, 321.804 332.757 Q 321.306 333.359, 321.306 334.561 Q 321.306 335.79, 321.804 336.408 Q 322.311 337.027, 323.239 337.027 " fill="#FF0000"/>
<path class="atom-45" d="M 295.783 305.006 L 297.777 308.228 Q 297.974 308.546, 298.292 309.121 Q 298.61 309.697, 298.627 309.731 L 298.627 305.006 L 299.435 305.006 L 299.435 311.089 L 298.601 311.089 L 296.462 307.567 Q 296.213 307.154, 295.947 306.682 Q 295.689 306.209, 295.612 306.063 L 295.612 311.089 L 294.821 311.089 L 294.821 305.006 L 295.783 305.006 " fill="#0000FF"/>
<path class="atom-45" d="M 299.945 306.103 L 301.017 306.103 L 301.017 304.974 L 301.493 304.974 L 301.493 306.103 L 302.593 306.103 L 302.593 306.511 L 301.493 306.511 L 301.493 307.645 L 301.017 307.645 L 301.017 306.511 L 299.945 306.511 L 299.945 306.103 " fill="#0000FF"/>
<path class="atom-46" d="M 289.376 287.472 Q 289.376 285.96, 290.081 285.17 Q 290.794 284.371, 292.142 284.371 Q 293.397 284.371, 294.067 285.256 L 293.5 285.72 Q 293.01 285.075, 292.142 285.075 Q 291.223 285.075, 290.733 285.694 Q 290.252 286.304, 290.252 287.472 Q 290.252 288.675, 290.751 289.294 Q 291.257 289.912, 292.237 289.912 Q 292.907 289.912, 293.689 289.508 L 293.929 290.153 Q 293.611 290.359, 293.13 290.479 Q 292.649 290.599, 292.117 290.599 Q 290.794 290.599, 290.081 289.792 Q 289.376 288.984, 289.376 287.472 " fill="#00CC00"/>
<path class="atom-46" d="M 294.806 284.002 L 295.596 284.002 L 295.596 290.522 L 294.806 290.522 L 294.806 284.002 " fill="#00CC00"/>
<path d="M 293.962,308.048 L 293.961,308.011 L 293.956,307.974 L 293.948,307.938 L 293.937,307.903 L 293.923,307.868 L 293.906,307.836 L 293.887,307.804 L 293.864,307.775 L 293.84,307.747 L 293.813,307.722 L 293.784,307.699 L 293.753,307.679 L 293.72,307.661 L 293.686,307.646 L 293.651,307.635 L 293.615,307.626 L 293.579,307.621 L 293.542,307.618 L 293.505,307.619 L 293.468,307.623 L 293.432,307.63 L 293.396,307.64 L 293.362,307.653 L 293.329,307.67 L 293.297,307.689 L 293.267,307.71 L 293.239,307.734 L 293.213,307.761 L 293.19,307.789 L 293.169,307.82 L 293.15,307.852 L 293.135,307.885 L 293.122,307.92 L 293.113,307.956 L 293.107,307.992 L 293.103,308.029 L 293.103,308.066 L 293.107,308.103 L 293.113,308.139 L 293.122,308.175 L 293.135,308.21 L 293.15,308.243 L 293.169,308.276 L 293.19,308.306 L 293.213,308.335 L 293.239,308.361 L 293.267,308.385 L 293.297,308.407 L 293.329,308.426 L 293.362,308.442 L 293.396,308.455 L 293.432,308.465 L 293.468,308.472 L 293.505,308.476 L 293.542,308.477 L 293.579,308.475 L 293.615,308.469 L 293.651,308.46 L 293.686,308.449 L 293.72,308.434 L 293.753,308.416 L 293.784,308.396 L 293.813,308.373 L 293.84,308.348 L 293.864,308.321 L 293.887,308.291 L 293.906,308.26 L 293.923,308.227 L 293.937,308.193 L 293.948,308.157 L 293.956,308.121 L 293.961,308.085 L 293.962,308.048 L 293.533,308.048 Z" style="fill:#000000;fill-rule:evenodd;fill-opacity:1;stroke:#000000;stroke-width:0.0px;stroke-linecap:butt;stroke-linejoin:miter;stroke-opacity:1;"/>
<path class="bond-0 atom-0 atom-1" d="M 597.084,361.758 L 588.278,358.94" style="fill:none;fill-rule:evenodd;stroke:#0000FF;stroke-width:2.0px;stroke-linecap:butt;stroke-linejoin:miter;stroke-opacity:1"/>
<path class="bond-0 atom-0 atom-1" d="M 588.278,358.94 L 579.472,356.122" style="fill:none;fill-rule:evenodd;stroke:#000000;stroke-width:2.0px;stroke-linecap:butt;stroke-linejoin:miter;stroke-opacity:1"/>
<path class="bond-13 atom-4 atom-0" d="M 600.024,384.145 L 599.984,375.195" style="fill:none;fill-rule:evenodd;stroke:#000000;stroke-width:2.0px;stroke-linecap:butt;stroke-linejoin:miter;stroke-opacity:1"/>
<path class="bond-13 atom-4 atom-0" d="M 599.984,375.195 L 599.944,366.246" style="fill:none;fill-rule:evenodd;stroke:#0000FF;stroke-width:2.0px;stroke-linecap:butt;stroke-linejoin:miter;stroke-opacity:1"/>
<path class="bond-1 atom-1 atom-2" d="M 579.472,356.122 L 566.925,373.554" style="fill:none;fill-rule:evenodd;stroke:#000000;stroke-width:2.0px;stroke-linecap:butt;stroke-linejoin:miter;stroke-opacity:1"/>
<path class="bond-2 atom-2 atom-3" d="M 566.925,373.554 L 579.627,390.873" style="fill:none;fill-rule:evenodd;stroke:#000000;stroke-width:2.0px;stroke-linecap:butt;stroke-linejoin:miter;stroke-opacity:1"/>
<path class="bond-3 atom-3 atom-4" d="M 579.627,390.873 L 600.024,384.145" style="fill:none;fill-rule:evenodd;stroke:#000000;stroke-width:2.0px;stroke-linecap:butt;stroke-linejoin:miter;stroke-opacity:1"/>
<path class="bond-4 atom-4 atom-5" d="M 603.259,387.003 L 603.761,386.305" style="fill:none;fill-rule:evenodd;stroke:#000000;stroke-width:1.0px;stroke-linecap:butt;stroke-linejoin:miter;stroke-opacity:1"/>
<path class="bond-4 atom-4 atom-5" d="M 606.494,389.861 L 607.498,388.466" style="fill:none;fill-rule:evenodd;stroke:#000000;stroke-width:1.0px;stroke-linecap:butt;stroke-linejoin:miter;stroke-opacity:1"/>
<path class="bond-4 atom-4 atom-5" d="M 609.73,392.719 L 611.235,390.627" style="fill:none;fill-rule:evenodd;stroke:#000000;stroke-width:1.0px;stroke-linecap:butt;stroke-linejoin:miter;stroke-opacity:1"/>
<path class="bond-4 atom-4 atom-5" d="M 612.965,395.576 L 614.973,392.787" style="fill:none;fill-rule:evenodd;stroke:#000000;stroke-width:1.0px;stroke-linecap:butt;stroke-linejoin:miter;stroke-opacity:1"/>
<path class="bond-4 atom-4 atom-5" d="M 616.201,398.434 L 618.71,394.948" style="fill:none;fill-rule:evenodd;stroke:#000000;stroke-width:1.0px;stroke-linecap:butt;stroke-linejoin:miter;stroke-opacity:1"/>
<path class="bond-5 atom-5 atom-6" d="M 617.455,396.691 L 637.037,387.868" style="fill:none;fill-rule:evenodd;stroke:#000000;stroke-width:2.0px;stroke-linecap:butt;stroke-linejoin:miter;stroke-opacity:1"/>
<path class="bond-6 atom-6 atom-7" d="M 637.037,387.868 L 654.469,400.414" style="fill:none;fill-rule:evenodd;stroke:#000000;stroke-width:2.0px;stroke-linecap:butt;stroke-linejoin:miter;stroke-opacity:1"/>
<path class="bond-6 atom-6 atom-7" d="M 642.161,386.263 L 654.363,395.046" style="fill:none;fill-rule:evenodd;stroke:#000000;stroke-width:2.0px;stroke-linecap:butt;stroke-linejoin:miter;stroke-opacity:1"/>
<path class="bond-14 atom-12 atom-6" d="M 639.186,366.498 L 637.037,387.868" style="fill:none;fill-rule:evenodd;stroke:#000000;stroke-width:2.0px;stroke-linecap:butt;stroke-linejoin:miter;stroke-opacity:1"/>
<path class="bond-7 atom-7 atom-8" d="M 654.469,400.414 L 674.05,391.591" style="fill:none;fill-rule:evenodd;stroke:#000000;stroke-width:2.0px;stroke-linecap:butt;stroke-linejoin:miter;stroke-opacity:1"/>
<path class="bond-8 atom-8 atom-9" d="M 674.05,391.591 L 676.2,370.221" style="fill:none;fill-rule:evenodd;stroke:#000000;stroke-width:2.0px;stroke-linecap:butt;stroke-linejoin:miter;stroke-opacity:1"/>
<path class="bond-8 atom-8 atom-9" d="M 670.099,387.956 L 671.603,372.997" style="fill:none;fill-rule:evenodd;stroke:#000000;stroke-width:2.0px;stroke-linecap:butt;stroke-linejoin:miter;stroke-opacity:1"/>
<path class="bond-9 atom-9 atom-10" d="M 676.2,370.221 L 684.818,366.338" style="fill:none;fill-rule:evenodd;stroke:#000000;stroke-width:2.0px;stroke-linecap:butt;stroke-linejoin:miter;stroke-opacity:1"/>
<path class="bond-9 atom-9 atom-10" d="M 684.818,366.338 L 693.436,362.455" style="fill:none;fill-rule:evenodd;stroke:#33CCCC;stroke-width:2.0px;stroke-linecap:butt;stroke-linejoin:miter;stroke-opacity:1"/>
<path class="bond-10 atom-9 atom-11" d="M 676.2,370.221 L 658.768,357.675" style="fill:none;fill-rule:evenodd;stroke:#000000;stroke-width:2.0px;stroke-linecap:butt;stroke-linejoin:miter;stroke-opacity:1"/>
<path class="bond-11 atom-11 atom-12" d="M 658.768,357.675 L 639.186,366.498" style="fill:none;fill-rule:evenodd;stroke:#000000;stroke-width:2.0px;stroke-linecap:butt;stroke-linejoin:miter;stroke-opacity:1"/>
<path class="bond-11 atom-11 atom-12" d="M 657.595,362.915 L 643.888,369.091" style="fill:none;fill-rule:evenodd;stroke:#000000;stroke-width:2.0px;stroke-linecap:butt;stroke-linejoin:miter;stroke-opacity:1"/>
<path class="bond-12 atom-12 atom-13" d="M 639.186,366.498 L 631.643,361.069" style="fill:none;fill-rule:evenodd;stroke:#000000;stroke-width:2.0px;stroke-linecap:butt;stroke-linejoin:miter;stroke-opacity:1"/>
<path class="bond-12 atom-12 atom-13" d="M 631.643,361.069 L 624.1,355.64" style="fill:none;fill-rule:evenodd;stroke:#33CCCC;stroke-width:2.0px;stroke-linecap:butt;stroke-linejoin:miter;stroke-opacity:1"/>
<path class="atom-0" d="M 598.583 359.626 L 600.576 362.848 Q 600.774 363.166, 601.092 363.741 Q 601.409 364.317, 601.427 364.351 L 601.427 359.626 L 602.234 359.626 L 602.234 365.709 L 601.401 365.709 L 599.262 362.186 Q 599.013 361.774, 598.746 361.302 Q 598.489 360.829, 598.411 360.683 L 598.411 365.709 L 597.621 365.709 L 597.621 359.626 L 598.583 359.626 " fill="#0000FF"/>
<path class="atom-0" d="M 602.964 359.626 L 603.789 359.626 L 603.789 362.212 L 606.899 362.212 L 606.899 359.626 L 607.724 359.626 L 607.724 365.709 L 606.899 365.709 L 606.899 362.899 L 603.789 362.899 L 603.789 365.709 L 602.964 365.709 L 602.964 359.626 " fill="#0000FF"/>
<path class="atom-0" d="M 608.019 365.495 Q 608.166 365.115, 608.518 364.906 Q 608.869 364.69, 609.357 364.69 Q 609.964 364.69, 610.304 365.019 Q 610.644 365.348, 610.644 365.932 Q 610.644 366.527, 610.202 367.083 Q 609.765 367.639, 608.858 368.296 L 610.712 368.296 L 610.712 368.75 L 608.007 368.75 L 608.007 368.37 Q 608.756 367.837, 609.198 367.44 Q 609.646 367.043, 609.861 366.686 Q 610.077 366.329, 610.077 365.96 Q 610.077 365.575, 609.884 365.359 Q 609.691 365.144, 609.357 365.144 Q 609.034 365.144, 608.818 365.274 Q 608.603 365.405, 608.45 365.694 L 608.019 365.495 " fill="#0000FF"/>
<path class="atom-0" d="M 608.234 360.723 L 609.306 360.723 L 609.306 359.594 L 609.782 359.594 L 609.782 360.723 L 610.882 360.723 L 610.882 361.131 L 609.782 361.131 L 609.782 362.265 L 609.306 362.265 L 609.306 361.131 L 608.234 361.131 L 608.234 360.723 " fill="#0000FF"/>
<path class="atom-10" d="M 693.973 358.357 L 697.589 358.357 L 697.589 359.053 L 694.789 359.053 L 694.789 360.9 L 697.28 360.9 L 697.28 361.604 L 694.789 361.604 L 694.789 364.439 L 693.973 364.439 L 693.973 358.357 " fill="#33CCCC"/>
<path class="atom-13" d="M 619.946 350.911 L 623.563 350.911 L 623.563 351.607 L 620.762 351.607 L 620.762 353.454 L 623.254 353.454 L 623.254 354.158 L 620.762 354.158 L 620.762 356.993 L 619.946 356.993 L 619.946 350.911 " fill="#33CCCC"/>
<path class="bond-0 atom-0 atom-1" d="M 163.852,637.748 L 155.06,635.691" style="fill:none;fill-rule:evenodd;stroke:#FF0000;stroke-width:2.0px;stroke-linecap:butt;stroke-linejoin:miter;stroke-opacity:1"/>
<path class="bond-0 atom-0 atom-1" d="M 155.06,635.691 L 146.268,633.635" style="fill:none;fill-rule:evenodd;stroke:#000000;stroke-width:2.0px;stroke-linecap:butt;stroke-linejoin:miter;stroke-opacity:1"/>
<path class="bond-1 atom-1 atom-2" d="M 146.268,633.635 L 131.575,649.3" style="fill:none;fill-rule:evenodd;stroke:#000000;stroke-width:2.0px;stroke-linecap:butt;stroke-linejoin:miter;stroke-opacity:1"/>
<path class="bond-1 atom-1 atom-2" d="M 140.931,633.046 L 130.646,644.012" style="fill:none;fill-rule:evenodd;stroke:#000000;stroke-width:2.0px;stroke-linecap:butt;stroke-linejoin:miter;stroke-opacity:1"/>
<path class="bond-8 atom-7 atom-1" d="M 140.047,613.078 L 146.268,633.635" style="fill:none;fill-rule:evenodd;stroke:#000000;stroke-width:2.0px;stroke-linecap:butt;stroke-linejoin:miter;stroke-opacity:1"/>
<path class="bond-2 atom-2 atom-3" d="M 131.575,649.3 L 110.662,644.409" style="fill:none;fill-rule:evenodd;stroke:#000000;stroke-width:2.0px;stroke-linecap:butt;stroke-linejoin:miter;stroke-opacity:1"/>
<path class="bond-3 atom-3 atom-4" d="M 110.662,644.409 L 104.442,623.852" style="fill:none;fill-rule:evenodd;stroke:#000000;stroke-width:2.0px;stroke-linecap:butt;stroke-linejoin:miter;stroke-opacity:1"/>
<path class="bond-3 atom-3 atom-4" d="M 113.84,640.081 L 109.486,625.691" style="fill:none;fill-rule:evenodd;stroke:#000000;stroke-width:2.0px;stroke-linecap:butt;stroke-linejoin:miter;stroke-opacity:1"/>
<path class="bond-4 atom-4 atom-5" d="M 104.442,623.852 L 95.1578,621.68" style="fill:none;fill-rule:evenodd;stroke:#000000;stroke-width:2.0px;stroke-linecap:butt;stroke-linejoin:miter;stroke-opacity:1"/>
<path class="bond-4 atom-4 atom-5" d="M 95.1578,621.68 L 85.8739,619.509" style="fill:none;fill-rule:evenodd;stroke:#33CCCC;stroke-width:2.0px;stroke-linecap:butt;stroke-linejoin:miter;stroke-opacity:1"/>
<path class="bond-5 atom-4 atom-6" d="M 104.442,623.852 L 119.134,608.186" style="fill:none;fill-rule:evenodd;stroke:#000000;stroke-width:2.0px;stroke-linecap:butt;stroke-linejoin:miter;stroke-opacity:1"/>
<path class="bond-6 atom-6 atom-7" d="M 119.134,608.186 L 140.047,613.078" style="fill:none;fill-rule:evenodd;stroke:#000000;stroke-width:2.0px;stroke-linecap:butt;stroke-linejoin:miter;stroke-opacity:1"/>
<path class="bond-6 atom-6 atom-7" d="M 121.293,613.103 L 135.932,616.527" style="fill:none;fill-rule:evenodd;stroke:#000000;stroke-width:2.0px;stroke-linecap:butt;stroke-linejoin:miter;stroke-opacity:1"/>
<path class="bond-7 atom-7 atom-8" d="M 140.047,613.078 L 146.221,606.495" style="fill:none;fill-rule:evenodd;stroke:#000000;stroke-width:2.0px;stroke-linecap:butt;stroke-linejoin:miter;stroke-opacity:1"/>
<path class="bond-7 atom-7 atom-8" d="M 146.221,606.495 L 152.395,599.913" style="fill:none;fill-rule:evenodd;stroke:#33CCCC;stroke-width:2.0px;stroke-linecap:butt;stroke-linejoin:miter;stroke-opacity:1"/>
<path class="atom-0" d="M 164.389 638.544 Q 164.389 637.083, 165.11 636.267 Q 165.832 635.451, 167.181 635.451 Q 168.529 635.451, 169.251 636.267 Q 169.973 637.083, 169.973 638.544 Q 169.973 640.021, 169.243 640.863 Q 168.512 641.696, 167.181 641.696 Q 165.84 641.696, 165.11 640.863 Q 164.389 640.03, 164.389 638.544 M 167.181 641.009 Q 168.109 641.009, 168.607 640.391 Q 169.114 639.764, 169.114 638.544 Q 169.114 637.349, 168.607 636.748 Q 168.109 636.138, 167.181 636.138 Q 166.253 636.138, 165.746 636.739 Q 165.248 637.341, 165.248 638.544 Q 165.248 639.772, 165.746 640.391 Q 166.253 641.009, 167.181 641.009 " fill="#FF0000"/>
<path class="atom-0" d="M 170.703 635.52 L 171.528 635.52 L 171.528 638.105 L 174.638 638.105 L 174.638 635.52 L 175.462 635.52 L 175.462 641.602 L 174.638 641.602 L 174.638 638.793 L 171.528 638.793 L 171.528 641.602 L 170.703 641.602 L 170.703 635.52 " fill="#FF0000"/>
<path class="atom-5" d="M 81.7202 615.919 L 85.337 615.919 L 85.337 616.615 L 82.5363 616.615 L 82.5363 618.462 L 85.0277 618.462 L 85.0277 619.166 L 82.5363 619.166 L 82.5363 622.001 L 81.7202 622.001 L 81.7202 615.919 " fill="#33CCCC"/>
<path class="atom-8" d="M 152.932 594.371 L 156.548 594.371 L 156.548 595.067 L 153.748 595.067 L 153.748 596.914 L 156.239 596.914 L 156.239 597.619 L 153.748 597.619 L 153.748 600.454 L 152.932 600.454 L 152.932 594.371 " fill="#33CCCC"/>
<path class="bond-0 atom-1 atom-0" d="M 413.652,626.851 L 414.083,627.835" style="fill:none;fill-rule:evenodd;stroke:#000000;stroke-width:1.0px;stroke-linecap:butt;stroke-linejoin:miter;stroke-opacity:1"/>
<path class="bond-0 atom-1 atom-0" d="M 409.35,628.147 L 410.211,630.115" style="fill:none;fill-rule:evenodd;stroke:#000000;stroke-width:1.0px;stroke-linecap:butt;stroke-linejoin:miter;stroke-opacity:1"/>
<path class="bond-0 atom-1 atom-0" d="M 405.048,629.443 L 406.339,632.395" style="fill:none;fill-rule:evenodd;stroke:#FF0000;stroke-width:1.0px;stroke-linecap:butt;stroke-linejoin:miter;stroke-opacity:1"/>
<path class="bond-0 atom-1 atom-0" d="M 400.746,630.739 L 402.467,634.675" style="fill:none;fill-rule:evenodd;stroke:#FF0000;stroke-width:1.0px;stroke-linecap:butt;stroke-linejoin:miter;stroke-opacity:1"/>
<path class="bond-1 atom-1 atom-2" d="M 417.954,625.555 L 435.248,638.291" style="fill:none;fill-rule:evenodd;stroke:#000000;stroke-width:2.0px;stroke-linecap:butt;stroke-linejoin:miter;stroke-opacity:1"/>
<path class="bond-8 atom-1 atom-9" d="M 417.954,625.555 L 420.337,604.21" style="fill:none;fill-rule:evenodd;stroke:#000000;stroke-width:2.0px;stroke-linecap:butt;stroke-linejoin:miter;stroke-opacity:1"/>
<path class="bond-2 atom-2 atom-3" d="M 435.248,638.291 L 432.865,659.636" style="fill:none;fill-rule:evenodd;stroke:#000000;stroke-width:2.0px;stroke-linecap:butt;stroke-linejoin:miter;stroke-opacity:1"/>
<path class="bond-2 atom-2 atom-3" d="M 439.16,641.969 L 437.491,656.911" style="fill:none;fill-rule:evenodd;stroke:#000000;stroke-width:2.0px;stroke-linecap:butt;stroke-linejoin:miter;stroke-opacity:1"/>
<path class="bond-28 atom-8 atom-2" d="M 454.925,629.682 L 435.248,638.291" style="fill:none;fill-rule:evenodd;stroke:#000000;stroke-width:2.0px;stroke-linecap:butt;stroke-linejoin:miter;stroke-opacity:1"/>
<path class="bond-3 atom-3 atom-4" d="M 432.865,659.636 L 450.159,672.372" style="fill:none;fill-rule:evenodd;stroke:#000000;stroke-width:2.0px;stroke-linecap:butt;stroke-linejoin:miter;stroke-opacity:1"/>
<path class="bond-4 atom-4 atom-5" d="M 450.159,672.372 L 469.835,663.763" style="fill:none;fill-rule:evenodd;stroke:#000000;stroke-width:2.0px;stroke-linecap:butt;stroke-linejoin:miter;stroke-opacity:1"/>
<path class="bond-4 atom-4 atom-5" d="M 451.389,667.145 L 465.162,661.119" style="fill:none;fill-rule:evenodd;stroke:#000000;stroke-width:2.0px;stroke-linecap:butt;stroke-linejoin:miter;stroke-opacity:1"/>
<path class="bond-5 atom-5 atom-6" d="M 469.835,663.763 L 477.31,669.268" style="fill:none;fill-rule:evenodd;stroke:#000000;stroke-width:2.0px;stroke-linecap:butt;stroke-linejoin:miter;stroke-opacity:1"/>
<path class="bond-5 atom-5 atom-6" d="M 477.31,669.268 L 484.784,674.772" style="fill:none;fill-rule:evenodd;stroke:#33CCCC;stroke-width:2.0px;stroke-linecap:butt;stroke-linejoin:miter;stroke-opacity:1"/>
<path class="bond-6 atom-5 atom-7" d="M 469.835,663.763 L 472.218,642.418" style="fill:none;fill-rule:evenodd;stroke:#000000;stroke-width:2.0px;stroke-linecap:butt;stroke-linejoin:miter;stroke-opacity:1"/>
<path class="bond-7 atom-7 atom-8" d="M 472.218,642.418 L 454.925,629.682" style="fill:none;fill-rule:evenodd;stroke:#000000;stroke-width:2.0px;stroke-linecap:butt;stroke-linejoin:miter;stroke-opacity:1"/>
<path class="bond-7 atom-7 atom-8" d="M 467.077,643.967 L 454.971,635.051" style="fill:none;fill-rule:evenodd;stroke:#000000;stroke-width:2.0px;stroke-linecap:butt;stroke-linejoin:miter;stroke-opacity:1"/>
<path class="bond-9 atom-9 atom-10" d="M 420.337,604.21 L 440.014,595.601" style="fill:none;fill-rule:evenodd;stroke:#000000;stroke-width:2.0px;stroke-linecap:butt;stroke-linejoin:miter;stroke-opacity:1"/>
<path class="bond-9 atom-9 atom-10" d="M 421.567,598.983 L 435.341,592.957" style="fill:none;fill-rule:evenodd;stroke:#000000;stroke-width:2.0px;stroke-linecap:butt;stroke-linejoin:miter;stroke-opacity:1"/>
<path class="bond-29 atom-14 atom-9" d="M 403.043,591.474 L 420.337,604.21" style="fill:none;fill-rule:evenodd;stroke:#000000;stroke-width:2.0px;stroke-linecap:butt;stroke-linejoin:miter;stroke-opacity:1"/>
<path class="bond-10 atom-10 atom-11" d="M 440.014,595.601 L 442.397,574.256" style="fill:none;fill-rule:evenodd;stroke:#000000;stroke-width:2.0px;stroke-linecap:butt;stroke-linejoin:miter;stroke-opacity:1"/>
<path class="bond-11 atom-11 atom-12" d="M 442.397,574.256 L 425.103,561.52" style="fill:none;fill-rule:evenodd;stroke:#000000;stroke-width:2.0px;stroke-linecap:butt;stroke-linejoin:miter;stroke-opacity:1"/>
<path class="bond-11 atom-11 atom-12" d="M 437.255,575.805 L 425.15,566.889" style="fill:none;fill-rule:evenodd;stroke:#000000;stroke-width:2.0px;stroke-linecap:butt;stroke-linejoin:miter;stroke-opacity:1"/>
<path class="bond-12 atom-12 atom-13" d="M 425.103,561.52 L 405.426,570.129" style="fill:none;fill-rule:evenodd;stroke:#000000;stroke-width:2.0px;stroke-linecap:butt;stroke-linejoin:miter;stroke-opacity:1"/>
<path class="bond-13 atom-13 atom-14" d="M 405.426,570.129 L 403.043,591.474" style="fill:none;fill-rule:evenodd;stroke:#000000;stroke-width:2.0px;stroke-linecap:butt;stroke-linejoin:miter;stroke-opacity:1"/>
<path class="bond-13 atom-13 atom-14" d="M 409.338,573.807 L 407.67,588.749" style="fill:none;fill-rule:evenodd;stroke:#000000;stroke-width:2.0px;stroke-linecap:butt;stroke-linejoin:miter;stroke-opacity:1"/>
<path class="bond-14 atom-14 atom-15" d="M 403.043,591.474 L 394.627,595.156" style="fill:none;fill-rule:evenodd;stroke:#000000;stroke-width:2.0px;stroke-linecap:butt;stroke-linejoin:miter;stroke-opacity:1"/>
<path class="bond-14 atom-14 atom-15" d="M 394.627,595.156 L 386.21,598.838" style="fill:none;fill-rule:evenodd;stroke:#0000FF;stroke-width:2.0px;stroke-linecap:butt;stroke-linejoin:miter;stroke-opacity:1"/>
<path class="bond-15 atom-15 atom-16" d="M 380.523,597.988 L 373.298,592.667" style="fill:none;fill-rule:evenodd;stroke:#0000FF;stroke-width:2.0px;stroke-linecap:butt;stroke-linejoin:miter;stroke-opacity:1"/>
<path class="bond-15 atom-15 atom-16" d="M 373.298,592.667 L 366.073,587.346" style="fill:none;fill-rule:evenodd;stroke:#000000;stroke-width:2.0px;stroke-linecap:butt;stroke-linejoin:miter;stroke-opacity:1"/>
<path class="bond-16 atom-16 atom-17" d="M 366.073,587.346 L 346.396,595.955" style="fill:none;fill-rule:evenodd;stroke:#000000;stroke-width:2.0px;stroke-linecap:butt;stroke-linejoin:miter;stroke-opacity:1"/>
<path class="bond-17 atom-17 atom-18" d="M 346.396,595.955 L 326.72,604.564" style="fill:none;fill-rule:evenodd;stroke:#000000;stroke-width:2.0px;stroke-linecap:butt;stroke-linejoin:miter;stroke-opacity:1"/>
<path class="bond-17 atom-17 atom-18" d="M 341.723,593.311 L 327.949,599.337" style="fill:none;fill-rule:evenodd;stroke:#000000;stroke-width:2.0px;stroke-linecap:butt;stroke-linejoin:miter;stroke-opacity:1"/>
<path class="bond-17 atom-17 atom-18" d="M 345.167,601.182 L 331.393,607.208" style="fill:none;fill-rule:evenodd;stroke:#000000;stroke-width:2.0px;stroke-linecap:butt;stroke-linejoin:miter;stroke-opacity:1"/>
<path class="bond-18 atom-18 atom-19" d="M 326.72,604.564 L 307.043,613.173" style="fill:none;fill-rule:evenodd;stroke:#000000;stroke-width:2.0px;stroke-linecap:butt;stroke-linejoin:miter;stroke-opacity:1"/>
<path class="bond-19 atom-19 atom-20" d="M 307.043,613.173 L 289.749,600.437" style="fill:none;fill-rule:evenodd;stroke:#000000;stroke-width:2.0px;stroke-linecap:butt;stroke-linejoin:miter;stroke-opacity:1"/>
<path class="bond-19 atom-19 atom-20" d="M 301.902,614.721 L 289.796,605.806" style="fill:none;fill-rule:evenodd;stroke:#000000;stroke-width:2.0px;stroke-linecap:butt;stroke-linejoin:miter;stroke-opacity:1"/>
<path class="bond-30 atom-24 atom-19" d="M 304.66,634.518 L 307.043,613.173" style="fill:none;fill-rule:evenodd;stroke:#000000;stroke-width:2.0px;stroke-linecap:butt;stroke-linejoin:miter;stroke-opacity:1"/>
<path class="bond-20 atom-20 atom-21" d="M 289.749,600.437 L 270.073,609.045" style="fill:none;fill-rule:evenodd;stroke:#000000;stroke-width:2.0px;stroke-linecap:butt;stroke-linejoin:miter;stroke-opacity:1"/>
<path class="bond-21 atom-21 atom-22" d="M 270.073,609.045 L 267.69,630.39" style="fill:none;fill-rule:evenodd;stroke:#000000;stroke-width:2.0px;stroke-linecap:butt;stroke-linejoin:miter;stroke-opacity:1"/>
<path class="bond-21 atom-21 atom-22" d="M 273.984,612.724 L 272.316,627.665" style="fill:none;fill-rule:evenodd;stroke:#000000;stroke-width:2.0px;stroke-linecap:butt;stroke-linejoin:miter;stroke-opacity:1"/>
<path class="bond-22 atom-22 atom-23" d="M 267.69,630.39 L 284.984,643.126" style="fill:none;fill-rule:evenodd;stroke:#000000;stroke-width:2.0px;stroke-linecap:butt;stroke-linejoin:miter;stroke-opacity:1"/>
<path class="bond-23 atom-23 atom-24" d="M 284.984,643.126 L 304.66,634.518" style="fill:none;fill-rule:evenodd;stroke:#000000;stroke-width:2.0px;stroke-linecap:butt;stroke-linejoin:miter;stroke-opacity:1"/>
<path class="bond-23 atom-23 atom-24" d="M 286.213,637.9 L 299.987,631.874" style="fill:none;fill-rule:evenodd;stroke:#000000;stroke-width:2.0px;stroke-linecap:butt;stroke-linejoin:miter;stroke-opacity:1"/>
<path class="bond-24 atom-24 atom-25" d="M 304.66,634.518 L 321.954,647.254" style="fill:none;fill-rule:evenodd;stroke:#000000;stroke-width:2.0px;stroke-linecap:butt;stroke-linejoin:miter;stroke-opacity:1"/>
<path class="bond-25 atom-25 atom-26" d="M 321.954,647.254 L 320.962,656.137" style="fill:none;fill-rule:evenodd;stroke:#000000;stroke-width:2.0px;stroke-linecap:butt;stroke-linejoin:miter;stroke-opacity:1"/>
<path class="bond-25 atom-25 atom-26" d="M 320.962,656.137 L 319.97,665.02" style="fill:none;fill-rule:evenodd;stroke:#FF7F00;stroke-width:2.0px;stroke-linecap:butt;stroke-linejoin:miter;stroke-opacity:1"/>
<path class="bond-25 atom-25 atom-26" d="M 317.387,649.442 L 316.693,655.661" style="fill:none;fill-rule:evenodd;stroke:#000000;stroke-width:2.0px;stroke-linecap:butt;stroke-linejoin:miter;stroke-opacity:1"/>
<path class="bond-25 atom-25 atom-26" d="M 316.693,655.661 L 315.999,661.879" style="fill:none;fill-rule:evenodd;stroke:#FF7F00;stroke-width:2.0px;stroke-linecap:butt;stroke-linejoin:miter;stroke-opacity:1"/>
<path class="bond-26 atom-26 atom-27" d="M 322.049,670.424 L 329.457,675.879" style="fill:none;fill-rule:evenodd;stroke:#FF7F00;stroke-width:2.0px;stroke-linecap:butt;stroke-linejoin:miter;stroke-opacity:1"/>
<path class="bond-26 atom-26 atom-27" d="M 329.457,675.879 L 336.865,681.335" style="fill:none;fill-rule:evenodd;stroke:#000000;stroke-width:2.0px;stroke-linecap:butt;stroke-linejoin:miter;stroke-opacity:1"/>
<path class="bond-27 atom-26 atom-28" d="M 317.092,669.683 L 311.306,672.215" style="fill:none;fill-rule:evenodd;stroke:#FF7F00;stroke-width:2.0px;stroke-linecap:butt;stroke-linejoin:miter;stroke-opacity:1"/>
<path class="bond-27 atom-26 atom-28" d="M 311.306,672.215 L 305.52,674.746" style="fill:none;fill-rule:evenodd;stroke:#FF0000;stroke-width:2.0px;stroke-linecap:butt;stroke-linejoin:miter;stroke-opacity:1"/>
<path class="atom-0" d="M 390.297 631.157 L 391.121 631.157 L 391.121 633.743 L 394.231 633.743 L 394.231 631.157 L 395.056 631.157 L 395.056 637.239 L 394.231 637.239 L 394.231 634.43 L 391.121 634.43 L 391.121 637.239 L 390.297 637.239 L 390.297 631.157 " fill="#FF0000"/>
<path class="atom-0" d="M 395.486 634.181 Q 395.486 632.72, 396.207 631.904 Q 396.929 631.088, 398.278 631.088 Q 399.626 631.088, 400.348 631.904 Q 401.07 632.72, 401.07 634.181 Q 401.07 635.658, 400.339 636.5 Q 399.609 637.334, 398.278 637.334 Q 396.937 637.334, 396.207 636.5 Q 395.486 635.667, 395.486 634.181 M 398.278 636.646 Q 399.205 636.646, 399.704 636.028 Q 400.211 635.401, 400.211 634.181 Q 400.211 632.987, 399.704 632.385 Q 399.205 631.775, 398.278 631.775 Q 397.35 631.775, 396.843 632.377 Q 396.345 632.978, 396.345 634.181 Q 396.345 635.409, 396.843 636.028 Q 397.35 636.646, 398.278 636.646 " fill="#FF0000"/>
<path class="atom-6" d="M 485.321 673.458 L 488.938 673.458 L 488.938 674.154 L 486.137 674.154 L 486.137 676.001 L 488.628 676.001 L 488.628 676.705 L 486.137 676.705 L 486.137 679.54 L 485.321 679.54 L 485.321 673.458 " fill="#33CCCC"/>
<path class="atom-15" d="M 382.022 597.041 L 384.015 600.263 Q 384.213 600.581, 384.531 601.156 Q 384.849 601.732, 384.866 601.766 L 384.866 597.041 L 385.673 597.041 L 385.673 603.124 L 384.84 603.124 L 382.701 599.601 Q 382.452 599.189, 382.186 598.717 Q 381.928 598.244, 381.85 598.098 L 381.85 603.124 L 381.06 603.124 L 381.06 597.041 L 382.022 597.041 " fill="#0000FF"/>
<path class="atom-15" d="M 380.987 603.732 L 381.812 603.732 L 381.812 606.318 L 384.922 606.318 L 384.922 603.732 L 385.746 603.732 L 385.746 609.814 L 384.922 609.814 L 384.922 607.005 L 381.812 607.005 L 381.812 609.814 L 380.987 609.814 L 380.987 603.732 " fill="#0000FF"/>
<path class="atom-26" d="M 319.425 665.557 Q 320.464 665.557, 320.988 666.03 Q 321.513 666.494, 321.513 667.344 Q 321.513 668.186, 320.971 668.667 Q 320.439 669.14, 319.425 669.14 L 318.454 669.14 L 318.454 671.64 L 317.629 671.64 L 317.629 665.557 L 319.425 665.557 M 319.425 668.453 Q 320.018 668.453, 320.336 668.169 Q 320.653 667.886, 320.653 667.344 Q 320.653 666.803, 320.336 666.528 Q 320.026 666.245, 319.425 666.245 L 318.454 666.245 L 318.454 668.453 L 319.425 668.453 " fill="#FF7F00"/>
<path class="atom-26" d="M 322.023 666.654 L 323.094 666.654 L 323.094 665.525 L 323.571 665.525 L 323.571 666.654 L 324.671 666.654 L 324.671 667.062 L 323.571 667.062 L 323.571 668.196 L 323.094 668.196 L 323.094 667.062 L 322.023 667.062 L 322.023 666.654 " fill="#FF7F00"/>
<path class="atom-28" d="M 297.102 677.225 Q 297.102 675.764, 297.824 674.948 Q 298.546 674.132, 299.894 674.132 Q 301.243 674.132, 301.965 674.948 Q 302.686 675.764, 302.686 677.225 Q 302.686 678.702, 301.956 679.544 Q 301.226 680.377, 299.894 680.377 Q 298.554 680.377, 297.824 679.544 Q 297.102 678.711, 297.102 677.225 M 299.894 679.69 Q 300.822 679.69, 301.32 679.072 Q 301.827 678.444, 301.827 677.225 Q 301.827 676.03, 301.32 675.429 Q 300.822 674.819, 299.894 674.819 Q 298.967 674.819, 298.46 675.42 Q 297.961 676.022, 297.961 677.225 Q 297.961 678.453, 298.46 679.072 Q 298.967 679.69, 299.894 679.69 " fill="#FF0000"/>
<path class="atom-28" d="M 302.97 675.125 L 305.051 675.125 L 305.051 675.578 L 302.97 675.578 L 302.97 675.125 " fill="#FF0000"/>
<path d="M 366.503,585.414 L 366.501,585.377 L 366.496,585.34 L 366.488,585.304 L 366.477,585.269 L 366.463,585.234 L 366.447,585.201 L 366.427,585.17 L 366.405,585.141 L 366.38,585.113 L 366.353,585.088 L 366.324,585.065 L 366.293,585.045 L 366.261,585.027 L 366.227,585.012 L 366.192,585.001 L 366.156,584.992 L 366.119,584.986 L 366.082,584.984 L 366.045,584.985 L 366.009,584.989 L 365.972,584.996 L 365.937,585.006 L 365.902,585.019 L 365.869,585.036 L 365.837,585.054 L 365.807,585.076 L 365.779,585.1 L 365.753,585.127 L 365.73,585.155 L 365.709,585.186 L 365.691,585.218 L 365.675,585.251 L 365.663,585.286 L 365.653,585.322 L 365.647,585.358 L 365.644,585.395 L 365.644,585.432 L 365.647,585.469 L 365.653,585.505 L 365.663,585.541 L 365.675,585.576 L 365.691,585.609 L 365.709,585.641 L 365.73,585.672 L 365.753,585.7 L 365.779,585.727 L 365.807,585.751 L 365.837,585.773 L 365.869,585.792 L 365.902,585.808 L 365.937,585.821 L 365.972,585.831 L 366.009,585.838 L 366.045,585.842 L 366.082,585.843 L 366.119,585.841 L 366.156,585.835 L 366.192,585.826 L 366.227,585.815 L 366.261,585.8 L 366.293,585.782 L 366.324,585.762 L 366.353,585.739 L 366.38,585.714 L 366.405,585.686 L 366.427,585.657 L 366.447,585.626 L 366.463,585.593 L 366.477,585.558 L 366.488,585.523 L 366.496,585.487 L 366.501,585.45 L 366.503,585.414 L 366.073,585.414 Z" style="fill:#000000;fill-rule:evenodd;fill-opacity:1;stroke:#000000;stroke-width:0.0px;stroke-linecap:butt;stroke-linejoin:miter;stroke-opacity:1;"/>
<path class="bond-0 atom-0 atom-1" d="M 663.852,637.748 L 655.06,635.691" style="fill:none;fill-rule:evenodd;stroke:#FF0000;stroke-width:2.0px;stroke-linecap:butt;stroke-linejoin:miter;stroke-opacity:1"/>
<path class="bond-0 atom-0 atom-1" d="M 655.06,635.691 L 646.268,633.635" style="fill:none;fill-rule:evenodd;stroke:#000000;stroke-width:2.0px;stroke-linecap:butt;stroke-linejoin:miter;stroke-opacity:1"/>
<path class="bond-1 atom-1 atom-2" d="M 646.268,633.635 L 631.575,649.3" style="fill:none;fill-rule:evenodd;stroke:#000000;stroke-width:2.0px;stroke-linecap:butt;stroke-linejoin:miter;stroke-opacity:1"/>
<path class="bond-1 atom-1 atom-2" d="M 640.931,633.046 L 630.646,644.012" style="fill:none;fill-rule:evenodd;stroke:#000000;stroke-width:2.0px;stroke-linecap:butt;stroke-linejoin:miter;stroke-opacity:1"/>
<path class="bond-8 atom-7 atom-1" d="M 640.047,613.078 L 646.268,633.635" style="fill:none;fill-rule:evenodd;stroke:#000000;stroke-width:2.0px;stroke-linecap:butt;stroke-linejoin:miter;stroke-opacity:1"/>
<path class="bond-2 atom-2 atom-3" d="M 631.575,649.3 L 610.662,644.409" style="fill:none;fill-rule:evenodd;stroke:#000000;stroke-width:2.0px;stroke-linecap:butt;stroke-linejoin:miter;stroke-opacity:1"/>
<path class="bond-3 atom-3 atom-4" d="M 610.662,644.409 L 604.442,623.852" style="fill:none;fill-rule:evenodd;stroke:#000000;stroke-width:2.0px;stroke-linecap:butt;stroke-linejoin:miter;stroke-opacity:1"/>
<path class="bond-3 atom-3 atom-4" d="M 613.84,640.081 L 609.486,625.691" style="fill:none;fill-rule:evenodd;stroke:#000000;stroke-width:2.0px;stroke-linecap:butt;stroke-linejoin:miter;stroke-opacity:1"/>
<path class="bond-4 atom-4 atom-5" d="M 604.442,623.852 L 595.158,621.68" style="fill:none;fill-rule:evenodd;stroke:#000000;stroke-width:2.0px;stroke-linecap:butt;stroke-linejoin:miter;stroke-opacity:1"/>
<path class="bond-4 atom-4 atom-5" d="M 595.158,621.68 L 585.874,619.509" style="fill:none;fill-rule:evenodd;stroke:#33CCCC;stroke-width:2.0px;stroke-linecap:butt;stroke-linejoin:miter;stroke-opacity:1"/>
<path class="bond-5 atom-4 atom-6" d="M 604.442,623.852 L 619.134,608.186" style="fill:none;fill-rule:evenodd;stroke:#000000;stroke-width:2.0px;stroke-linecap:butt;stroke-linejoin:miter;stroke-opacity:1"/>
<path class="bond-6 atom-6 atom-7" d="M 619.134,608.186 L 640.047,613.078" style="fill:none;fill-rule:evenodd;stroke:#000000;stroke-width:2.0px;stroke-linecap:butt;stroke-linejoin:miter;stroke-opacity:1"/>
<path class="bond-6 atom-6 atom-7" d="M 621.293,613.103 L 635.932,616.527" style="fill:none;fill-rule:evenodd;stroke:#000000;stroke-width:2.0px;stroke-linecap:butt;stroke-linejoin:miter;stroke-opacity:1"/>
<path class="bond-7 atom-7 atom-8" d="M 640.047,613.078 L 646.221,606.495" style="fill:none;fill-rule:evenodd;stroke:#000000;stroke-width:2.0px;stroke-linecap:butt;stroke-linejoin:miter;stroke-opacity:1"/>
<path class="bond-7 atom-7 atom-8" d="M 646.221,606.495 L 652.395,599.913" style="fill:none;fill-rule:evenodd;stroke:#33CCCC;stroke-width:2.0px;stroke-linecap:butt;stroke-linejoin:miter;stroke-opacity:1"/>
<path class="atom-0" d="M 664.389 638.544 Q 664.389 637.083, 665.11 636.267 Q 665.832 635.451, 667.181 635.451 Q 668.529 635.451, 669.251 636.267 Q 669.973 637.083, 669.973 638.544 Q 669.973 640.021, 669.243 640.863 Q 668.512 641.696, 667.181 641.696 Q 665.84 641.696, 665.11 640.863 Q 664.389 640.03, 664.389 638.544 M 667.181 641.009 Q 668.109 641.009, 668.607 640.391 Q 669.114 639.764, 669.114 638.544 Q 669.114 637.349, 668.607 636.748 Q 668.109 636.138, 667.181 636.138 Q 666.253 636.138, 665.746 636.739 Q 665.248 637.341, 665.248 638.544 Q 665.248 639.772, 665.746 640.391 Q 666.253 641.009, 667.181 641.009 " fill="#FF0000"/>
<path class="atom-0" d="M 670.703 635.52 L 671.528 635.52 L 671.528 638.105 L 674.638 638.105 L 674.638 635.52 L 675.462 635.52 L 675.462 641.602 L 674.638 641.602 L 674.638 638.793 L 671.528 638.793 L 671.528 641.602 L 670.703 641.602 L 670.703 635.52 " fill="#FF0000"/>
<path class="atom-5" d="M 581.72 615.919 L 585.337 615.919 L 585.337 616.615 L 582.536 616.615 L 582.536 618.462 L 585.028 618.462 L 585.028 619.166 L 582.536 619.166 L 582.536 622.001 L 581.72 622.001 L 581.72 615.919 " fill="#33CCCC"/>
<path class="atom-8" d="M 652.932 594.371 L 656.548 594.371 L 656.548 595.067 L 653.748 595.067 L 653.748 596.914 L 656.239 596.914 L 656.239 597.619 L 653.748 597.619 L 653.748 600.454 L 652.932 600.454 L 652.932 594.371 " fill="#33CCCC"/>
</svg>