<svg xmlns="http://www.w3.org/2000/svg" xmlns:rdkit="http://www.rdkit.org/xml" xmlns:xlink="http://www.w3.org/1999/xlink" version="1.1" baseProfile="full" xml:space="preserve" width="750px" height="750px" viewBox="0 0 750 750">
<!-- END OF HEADER -->
<rect style="opacity:1.0;fill:#FFFFFF;stroke:none" width="750" height="750" x="0" y="0"> </rect>
<rect style="opacity:1.0;fill:#FFFFFF;stroke:none" width="750" height="750" x="0" y="0"> </rect>
<rect style="opacity:1.0;fill:#FFFFFF;stroke:none" width="750" height="750" x="0" y="0"> </rect>
<rect style="opacity:1.0;fill:#FFFFFF;stroke:none" width="750" height="750" x="0" y="0"> </rect>
<rect style="opacity:1.0;fill:#FFFFFF;stroke:none" width="750" height="750" x="0" y="0"> </rect>
<rect style="opacity:1.0;fill:#FFFFFF;stroke:none" width="750" height="750" x="0" y="0"> </rect>
<rect style="opacity:1.0;fill:#FFFFFF;stroke:none" width="750" height="750" x="0" y="0"> </rect>
<rect style="opacity:1.0;fill:#FFFFFF;stroke:none" width="750" height="750" x="0" y="0"> </rect>
<rect style="opacity:1.0;fill:#FFFFFF;stroke:none" width="750" height="750" x="0" y="0"> </rect>
<rect style="opacity:1.0;fill:#FFFFFF;stroke:none" width="750" height="750" x="0" y="0"> </rect>
<path class="bond-0 atom-0 atom-1" d="M 182.778,105.058 L 188.862,97.1308" style="fill:none;fill-rule:evenodd;stroke:#000000;stroke-width:2.0px;stroke-linecap:butt;stroke-linejoin:miter;stroke-opacity:1"/>
<path class="bond-0 atom-0 atom-1" d="M 188.862,97.1308 L 194.946,89.204" style="fill:none;fill-rule:evenodd;stroke:#FF0000;stroke-width:2.0px;stroke-linecap:butt;stroke-linejoin:miter;stroke-opacity:1"/>
<path class="bond-0 atom-0 atom-1" d="M 178.726,101.947 L 184.81,94.0205" style="fill:none;fill-rule:evenodd;stroke:#000000;stroke-width:2.0px;stroke-linecap:butt;stroke-linejoin:miter;stroke-opacity:1"/>
<path class="bond-0 atom-0 atom-1" d="M 184.81,94.0205 L 190.894,86.0937" style="fill:none;fill-rule:evenodd;stroke:#FF0000;stroke-width:2.0px;stroke-linecap:butt;stroke-linejoin:miter;stroke-opacity:1"/>
<path class="bond-1 atom-0 atom-2" d="M 180.752,103.503 L 169.781,102.057" style="fill:none;fill-rule:evenodd;stroke:#000000;stroke-width:2.0px;stroke-linecap:butt;stroke-linejoin:miter;stroke-opacity:1"/>
<path class="bond-1 atom-0 atom-2" d="M 169.781,102.057 L 158.81,100.611" style="fill:none;fill-rule:evenodd;stroke:#0000FF;stroke-width:2.0px;stroke-linecap:butt;stroke-linejoin:miter;stroke-opacity:1"/>
<path class="bond-2 atom-2 atom-3" d="M 152.163,104.421 L 146.02,112.425" style="fill:none;fill-rule:evenodd;stroke:#0000FF;stroke-width:2.0px;stroke-linecap:butt;stroke-linejoin:miter;stroke-opacity:1"/>
<path class="bond-2 atom-2 atom-3" d="M 146.02,112.425 L 139.877,120.428" style="fill:none;fill-rule:evenodd;stroke:#000000;stroke-width:2.0px;stroke-linecap:butt;stroke-linejoin:miter;stroke-opacity:1"/>
<path class="bond-3 atom-3 atom-4" d="M 139.877,120.428 L 147.289,145.004 L 152.009,143.05 Z" style="fill:#000000;fill-rule:evenodd;fill-opacity:1;stroke:#000000;stroke-width:2.0px;stroke-linecap:butt;stroke-linejoin:miter;stroke-opacity:1;"/>
<path class="bond-5 atom-3 atom-6" d="M 139.877,120.428 L 114.554,117.091" style="fill:none;fill-rule:evenodd;stroke:#000000;stroke-width:2.0px;stroke-linecap:butt;stroke-linejoin:miter;stroke-opacity:1"/>
<path class="bond-4 atom-4 atom-5" d="M 149.649,144.027 L 174.973,147.364" style="fill:none;fill-rule:evenodd;stroke:#000000;stroke-width:2.0px;stroke-linecap:butt;stroke-linejoin:miter;stroke-opacity:1"/>
<path class="bond-6 atom-6 atom-7" d="M 114.554,117.091 L 99.0023,137.354" style="fill:none;fill-rule:evenodd;stroke:#000000;stroke-width:2.0px;stroke-linecap:butt;stroke-linejoin:miter;stroke-opacity:1"/>
<path class="bond-6 atom-6 atom-7" d="M 108.169,117.02 L 97.2825,131.204" style="fill:none;fill-rule:evenodd;stroke:#000000;stroke-width:2.0px;stroke-linecap:butt;stroke-linejoin:miter;stroke-opacity:1"/>
<path class="bond-13 atom-12 atom-6" d="M 104.782,93.4922 L 114.554,117.091" style="fill:none;fill-rule:evenodd;stroke:#000000;stroke-width:2.0px;stroke-linecap:butt;stroke-linejoin:miter;stroke-opacity:1"/>
<path class="bond-7 atom-7 atom-8" d="M 99.0023,137.354 L 73.6789,134.017" style="fill:none;fill-rule:evenodd;stroke:#000000;stroke-width:2.0px;stroke-linecap:butt;stroke-linejoin:miter;stroke-opacity:1"/>
<path class="bond-8 atom-8 atom-9" d="M 73.6789,134.017 L 63.9069,110.418" style="fill:none;fill-rule:evenodd;stroke:#000000;stroke-width:2.0px;stroke-linecap:butt;stroke-linejoin:miter;stroke-opacity:1"/>
<path class="bond-8 atom-8 atom-9" d="M 76.9329,128.523 L 70.0925,112.003" style="fill:none;fill-rule:evenodd;stroke:#000000;stroke-width:2.0px;stroke-linecap:butt;stroke-linejoin:miter;stroke-opacity:1"/>
<path class="bond-9 atom-9 atom-10" d="M 63.9069,110.418 L 52.6398,108.933" style="fill:none;fill-rule:evenodd;stroke:#000000;stroke-width:2.0px;stroke-linecap:butt;stroke-linejoin:miter;stroke-opacity:1"/>
<path class="bond-9 atom-9 atom-10" d="M 52.6398,108.933 L 41.3727,107.449" style="fill:none;fill-rule:evenodd;stroke:#33CCCC;stroke-width:2.0px;stroke-linecap:butt;stroke-linejoin:miter;stroke-opacity:1"/>
<path class="bond-10 atom-9 atom-11" d="M 63.9069,110.418 L 79.4583,90.1555" style="fill:none;fill-rule:evenodd;stroke:#000000;stroke-width:2.0px;stroke-linecap:butt;stroke-linejoin:miter;stroke-opacity:1"/>
<path class="bond-11 atom-11 atom-12" d="M 79.4583,90.1555 L 104.782,93.4922" style="fill:none;fill-rule:evenodd;stroke:#000000;stroke-width:2.0px;stroke-linecap:butt;stroke-linejoin:miter;stroke-opacity:1"/>
<path class="bond-11 atom-11 atom-12" d="M 82.5895,95.7207 L 100.316,98.0564" style="fill:none;fill-rule:evenodd;stroke:#000000;stroke-width:2.0px;stroke-linecap:butt;stroke-linejoin:miter;stroke-opacity:1"/>
<path class="bond-12 atom-12 atom-13" d="M 104.782,93.4922 L 111.996,84.0932" style="fill:none;fill-rule:evenodd;stroke:#000000;stroke-width:2.0px;stroke-linecap:butt;stroke-linejoin:miter;stroke-opacity:1"/>
<path class="bond-12 atom-12 atom-13" d="M 111.996,84.0932 L 119.209,74.6942" style="fill:none;fill-rule:evenodd;stroke:#A01EEF;stroke-width:2.0px;stroke-linecap:butt;stroke-linejoin:miter;stroke-opacity:1"/>
<path class="atom-1" d="M 192.983 83.2606 Q 192.983 81.5238, 193.841 80.5532 Q 194.699 79.5825, 196.303 79.5825 Q 197.908 79.5825, 198.766 80.5532 Q 199.624 81.5238, 199.624 83.2606 Q 199.624 85.018, 198.756 86.0192 Q 197.887 87.0103, 196.303 87.0103 Q 194.71 87.0103, 193.841 86.0192 Q 192.983 85.0282, 192.983 83.2606 M 196.303 86.1929 Q 197.407 86.1929, 197.999 85.4573 Q 198.602 84.7114, 198.602 83.2606 Q 198.602 81.8405, 197.999 81.1253 Q 197.407 80.3999, 196.303 80.3999 Q 195.2 80.3999, 194.597 81.1151 Q 194.005 81.8303, 194.005 83.2606 Q 194.005 84.7217, 194.597 85.4573 Q 195.2 86.1929, 196.303 86.1929 " fill="#FF0000"/>
<path class="atom-2" d="M 146.177 96.549 L 147.158 96.549 L 147.158 99.6243 L 150.857 99.6243 L 150.857 96.549 L 151.837 96.549 L 151.837 103.783 L 150.857 103.783 L 150.857 100.442 L 147.158 100.442 L 147.158 103.783 L 146.177 103.783 L 146.177 96.549 " fill="#0000FF"/>
<path class="atom-2" d="M 153.83 96.549 L 156.2 100.38 Q 156.435 100.758, 156.813 101.443 Q 157.191 102.127, 157.211 102.168 L 157.211 96.549 L 158.172 96.549 L 158.172 103.783 L 157.181 103.783 L 154.637 99.5936 Q 154.341 99.1032, 154.024 98.5413 Q 153.717 97.9794, 153.625 97.8057 L 153.625 103.783 L 152.685 103.783 L 152.685 96.549 L 153.83 96.549 " fill="#0000FF"/>
<path class="atom-10" d="M 36.4328 103.464 L 40.7341 103.464 L 40.7341 104.292 L 37.4034 104.292 L 37.4034 106.488 L 40.3663 106.488 L 40.3663 107.326 L 37.4034 107.326 L 37.4034 110.698 L 36.4328 110.698 L 36.4328 103.464 " fill="#33CCCC"/>
<path class="atom-13" d="M 119.848 69.5978 L 120.818 69.5978 L 120.818 76.862 L 119.848 76.862 L 119.848 69.5978 " fill="#A01EEF"/>
<path class="bond-0 atom-0 atom-1" d="M 321.715,100.124 L 312.872,102.697" style="fill:none;fill-rule:evenodd;stroke:#CCCC00;stroke-width:2.0px;stroke-linecap:butt;stroke-linejoin:miter;stroke-opacity:1"/>
<path class="bond-0 atom-0 atom-1" d="M 312.872,102.697 L 304.029,105.269" style="fill:none;fill-rule:evenodd;stroke:#FF0000;stroke-width:2.0px;stroke-linecap:butt;stroke-linejoin:miter;stroke-opacity:1"/>
<path class="bond-0 atom-0 atom-1" d="M 323.142,105.029 L 314.299,107.602" style="fill:none;fill-rule:evenodd;stroke:#CCCC00;stroke-width:2.0px;stroke-linecap:butt;stroke-linejoin:miter;stroke-opacity:1"/>
<path class="bond-0 atom-0 atom-1" d="M 314.299,107.602 L 305.456,110.174" style="fill:none;fill-rule:evenodd;stroke:#FF0000;stroke-width:2.0px;stroke-linecap:butt;stroke-linejoin:miter;stroke-opacity:1"/>
<path class="bond-1 atom-0 atom-2" d="M 328.344,104.551 L 334.446,110.398" style="fill:none;fill-rule:evenodd;stroke:#CCCC00;stroke-width:2.0px;stroke-linecap:butt;stroke-linejoin:miter;stroke-opacity:1"/>
<path class="bond-1 atom-0 atom-2" d="M 334.446,110.398 L 340.548,116.246" style="fill:none;fill-rule:evenodd;stroke:#0000FF;stroke-width:2.0px;stroke-linecap:butt;stroke-linejoin:miter;stroke-opacity:1"/>
<path class="bond-2 atom-2 atom-3" d="M 347.209,118.405 L 357.781,115.329" style="fill:none;fill-rule:evenodd;stroke:#0000FF;stroke-width:2.0px;stroke-linecap:butt;stroke-linejoin:miter;stroke-opacity:1"/>
<path class="bond-2 atom-2 atom-3" d="M 357.781,115.329 L 368.353,112.254" style="fill:none;fill-rule:evenodd;stroke:#000000;stroke-width:2.0px;stroke-linecap:butt;stroke-linejoin:miter;stroke-opacity:1"/>
<path class="bond-3 atom-3 atom-4" d="M 368.353,112.254 L 374.437,87.4468" style="fill:none;fill-rule:evenodd;stroke:#000000;stroke-width:2.0px;stroke-linecap:butt;stroke-linejoin:miter;stroke-opacity:1"/>
<path class="bond-3 atom-3 atom-4" d="M 374.227,109.75 L 378.486,92.3846" style="fill:none;fill-rule:evenodd;stroke:#000000;stroke-width:2.0px;stroke-linecap:butt;stroke-linejoin:miter;stroke-opacity:1"/>
<path class="bond-9 atom-8 atom-3" d="M 386.795,129.926 L 368.353,112.254" style="fill:none;fill-rule:evenodd;stroke:#000000;stroke-width:2.0px;stroke-linecap:butt;stroke-linejoin:miter;stroke-opacity:1"/>
<path class="bond-4 atom-4 atom-5" d="M 374.437,87.4468 L 398.963,80.312" style="fill:none;fill-rule:evenodd;stroke:#000000;stroke-width:2.0px;stroke-linecap:butt;stroke-linejoin:miter;stroke-opacity:1"/>
<path class="bond-5 atom-5 atom-6" d="M 398.963,80.312 L 417.404,97.9844" style="fill:none;fill-rule:evenodd;stroke:#000000;stroke-width:2.0px;stroke-linecap:butt;stroke-linejoin:miter;stroke-opacity:1"/>
<path class="bond-5 atom-5 atom-6" d="M 398.195,86.6512 L 411.104,99.0219" style="fill:none;fill-rule:evenodd;stroke:#000000;stroke-width:2.0px;stroke-linecap:butt;stroke-linejoin:miter;stroke-opacity:1"/>
<path class="bond-6 atom-6 atom-7" d="M 417.404,97.9844 L 411.321,122.792" style="fill:none;fill-rule:evenodd;stroke:#000000;stroke-width:2.0px;stroke-linecap:butt;stroke-linejoin:miter;stroke-opacity:1"/>
<path class="bond-7 atom-7 atom-8" d="M 411.321,122.792 L 386.795,129.926" style="fill:none;fill-rule:evenodd;stroke:#000000;stroke-width:2.0px;stroke-linecap:butt;stroke-linejoin:miter;stroke-opacity:1"/>
<path class="bond-7 atom-7 atom-8" d="M 406.215,118.957 L 389.047,123.951" style="fill:none;fill-rule:evenodd;stroke:#000000;stroke-width:2.0px;stroke-linecap:butt;stroke-linejoin:miter;stroke-opacity:1"/>
<path class="bond-8 atom-8 atom-9" d="M 386.795,129.926 L 384.275,140.202" style="fill:none;fill-rule:evenodd;stroke:#000000;stroke-width:2.0px;stroke-linecap:butt;stroke-linejoin:miter;stroke-opacity:1"/>
<path class="bond-8 atom-8 atom-9" d="M 384.275,140.202 L 381.755,150.478" style="fill:none;fill-rule:evenodd;stroke:#33CCCC;stroke-width:2.0px;stroke-linecap:butt;stroke-linejoin:miter;stroke-opacity:1"/>
<path class="atom-0" d="M 323.343 104.199 Q 323.424 104.23, 323.761 104.373 Q 324.099 104.516, 324.466 104.608 Q 324.844 104.689, 325.212 104.689 Q 325.897 104.689, 326.295 104.363 Q 326.694 104.025, 326.694 103.443 Q 326.694 103.045, 326.489 102.799 Q 326.295 102.554, 325.989 102.421 Q 325.682 102.288, 325.171 102.135 Q 324.528 101.941, 324.139 101.757 Q 323.761 101.573, 323.486 101.185 Q 323.22 100.797, 323.22 100.143 Q 323.22 99.2336, 323.833 98.6717 Q 324.456 98.1097, 325.682 98.1097 Q 326.52 98.1097, 327.47 98.5082 L 327.235 99.2949 Q 326.367 98.9373, 325.713 98.9373 Q 325.008 98.9373, 324.62 99.2336 Q 324.231 99.5197, 324.242 100.02 Q 324.242 100.409, 324.436 100.644 Q 324.64 100.879, 324.926 101.011 Q 325.222 101.144, 325.713 101.297 Q 326.367 101.502, 326.755 101.706 Q 327.143 101.91, 327.419 102.329 Q 327.705 102.738, 327.705 103.443 Q 327.705 104.444, 327.031 104.986 Q 326.367 105.517, 325.253 105.517 Q 324.609 105.517, 324.119 105.374 Q 323.639 105.241, 323.067 105.006 L 323.343 104.199 " fill="#CCCC00"/>
<path class="atom-1" d="M 297.54 108.872 Q 297.54 107.135, 298.398 106.164 Q 299.256 105.193, 300.86 105.193 Q 302.464 105.193, 303.323 106.164 Q 304.181 107.135, 304.181 108.872 Q 304.181 110.629, 303.312 111.63 Q 302.444 112.621, 300.86 112.621 Q 299.267 112.621, 298.398 111.63 Q 297.54 110.639, 297.54 108.872 M 300.86 111.804 Q 301.964 111.804, 302.556 111.068 Q 303.159 110.322, 303.159 108.872 Q 303.159 107.451, 302.556 106.736 Q 301.964 106.011, 300.86 106.011 Q 299.757 106.011, 299.154 106.726 Q 298.562 107.441, 298.562 108.872 Q 298.562 110.333, 299.154 111.068 Q 299.757 111.804, 300.86 111.804 " fill="#FF0000"/>
<path class="atom-2" d="M 342.229 115.772 L 344.599 119.603 Q 344.834 119.981, 345.212 120.666 Q 345.59 121.35, 345.611 121.391 L 345.611 115.772 L 346.571 115.772 L 346.571 123.006 L 345.58 123.006 L 343.036 118.817 Q 342.74 118.326, 342.423 117.764 Q 342.116 117.202, 342.024 117.029 L 342.024 123.006 L 341.084 123.006 L 341.084 115.772 L 342.229 115.772 " fill="#0000FF"/>
<path class="atom-2" d="M 340.998 123.729 L 341.978 123.729 L 341.978 126.804 L 345.677 126.804 L 345.677 123.729 L 346.658 123.729 L 346.658 130.962 L 345.677 130.962 L 345.677 127.622 L 341.978 127.622 L 341.978 130.962 L 340.998 130.962 L 340.998 123.729 " fill="#0000FF"/>
<path class="atom-9" d="M 378.56 151.117 L 382.862 151.117 L 382.862 151.944 L 379.531 151.944 L 379.531 154.141 L 382.494 154.141 L 382.494 154.979 L 379.531 154.979 L 379.531 158.35 L 378.56 158.35 L 378.56 151.117 " fill="#33CCCC"/>
<path d="M 325.897,97.3435 L 325.895,97.2996 L 325.889,97.256 L 325.88,97.213 L 325.867,97.1711 L 325.85,97.1304 L 325.83,97.0912 L 325.807,97.054 L 325.78,97.0189 L 325.751,96.9862 L 325.719,96.9561 L 325.684,96.9289 L 325.648,96.9048 L 325.609,96.8839 L 325.569,96.8664 L 325.527,96.8525 L 325.484,96.8422 L 325.441,96.8356 L 325.397,96.8327 L 325.353,96.8337 L 325.309,96.8384 L 325.266,96.8469 L 325.224,96.859 L 325.183,96.8747 L 325.143,96.8939 L 325.106,96.9164 L 325.07,96.9421 L 325.037,96.9708 L 325.006,97.0022 L 324.978,97.0361 L 324.953,97.0724 L 324.931,97.1106 L 324.913,97.1505 L 324.898,97.1919 L 324.887,97.2344 L 324.879,97.2777 L 324.876,97.3215 L 324.876,97.3655 L 324.879,97.4092 L 324.887,97.4526 L 324.898,97.4951 L 324.913,97.5364 L 324.931,97.5764 L 324.953,97.6146 L 324.978,97.6508 L 325.006,97.6848 L 325.037,97.7162 L 325.07,97.7448 L 325.106,97.7705 L 325.143,97.793 L 325.183,97.8122 L 325.224,97.8279 L 325.266,97.8401 L 325.309,97.8485 L 325.353,97.8533 L 325.397,97.8542 L 325.441,97.8514 L 325.484,97.8448 L 325.527,97.8345 L 325.569,97.8205 L 325.609,97.803 L 325.648,97.7822 L 325.684,97.758 L 325.719,97.7309 L 325.751,97.7008 L 325.78,97.6681 L 325.807,97.633 L 325.83,97.5957 L 325.85,97.5566 L 325.867,97.5159 L 325.88,97.4739 L 325.889,97.431 L 325.895,97.3874 L 325.897,97.3435 L 325.386,97.3435 Z" style="fill:#000000;fill-rule:evenodd;fill-opacity:1;stroke:#000000;stroke-width:0.0px;stroke-linecap:butt;stroke-linejoin:miter;stroke-opacity:1;"/>
<path class="bond-0 atom-0 atom-1" d="M 605.946,132.082 L 595.745,127.736" style="fill:none;fill-rule:evenodd;stroke:#7F4C19;stroke-width:2.0px;stroke-linecap:butt;stroke-linejoin:miter;stroke-opacity:1"/>
<path class="bond-0 atom-0 atom-1" d="M 595.745,127.736 L 585.543,123.389" style="fill:none;fill-rule:evenodd;stroke:#000000;stroke-width:2.0px;stroke-linecap:butt;stroke-linejoin:miter;stroke-opacity:1"/>
<path class="bond-1 atom-1 atom-2" d="M 585.543,123.389 L 565.123,138.733" style="fill:none;fill-rule:evenodd;stroke:#000000;stroke-width:2.0px;stroke-linecap:butt;stroke-linejoin:miter;stroke-opacity:1"/>
<path class="bond-1 atom-1 atom-2" d="M 579.412,121.606 L 565.118,132.347" style="fill:none;fill-rule:evenodd;stroke:#000000;stroke-width:2.0px;stroke-linecap:butt;stroke-linejoin:miter;stroke-opacity:1"/>
<path class="bond-16 atom-6 atom-1" d="M 582.465,98.0327 L 585.543,123.389" style="fill:none;fill-rule:evenodd;stroke:#000000;stroke-width:2.0px;stroke-linecap:butt;stroke-linejoin:miter;stroke-opacity:1"/>
<path class="bond-2 atom-2 atom-3" d="M 565.123,138.733 L 541.625,128.721" style="fill:none;fill-rule:evenodd;stroke:#000000;stroke-width:2.0px;stroke-linecap:butt;stroke-linejoin:miter;stroke-opacity:1"/>
<path class="bond-3 atom-3 atom-4" d="M 541.625,128.721 L 538.547,103.364" style="fill:none;fill-rule:evenodd;stroke:#000000;stroke-width:2.0px;stroke-linecap:butt;stroke-linejoin:miter;stroke-opacity:1"/>
<path class="bond-3 atom-3 atom-4" d="M 546.235,124.301 L 544.08,106.552" style="fill:none;fill-rule:evenodd;stroke:#000000;stroke-width:2.0px;stroke-linecap:butt;stroke-linejoin:miter;stroke-opacity:1"/>
<path class="bond-4 atom-4 atom-5" d="M 538.547,103.364 L 558.967,88.0205" style="fill:none;fill-rule:evenodd;stroke:#000000;stroke-width:2.0px;stroke-linecap:butt;stroke-linejoin:miter;stroke-opacity:1"/>
<path class="bond-5 atom-5 atom-6" d="M 558.967,88.0205 L 582.465,98.0327" style="fill:none;fill-rule:evenodd;stroke:#000000;stroke-width:2.0px;stroke-linecap:butt;stroke-linejoin:miter;stroke-opacity:1"/>
<path class="bond-5 atom-5 atom-6" d="M 560.489,94.222 L 576.938,101.231" style="fill:none;fill-rule:evenodd;stroke:#000000;stroke-width:2.0px;stroke-linecap:butt;stroke-linejoin:miter;stroke-opacity:1"/>
<path class="bond-6 atom-6 atom-7" d="M 582.465,98.0327 L 602.885,82.6889" style="fill:none;fill-rule:evenodd;stroke:#000000;stroke-width:2.0px;stroke-linecap:butt;stroke-linejoin:miter;stroke-opacity:1"/>
<path class="bond-7 atom-8 atom-7" d="M 621.884,90.2287 L 621.483,91.1686" style="fill:none;fill-rule:evenodd;stroke:#000000;stroke-width:1.0px;stroke-linecap:butt;stroke-linejoin:miter;stroke-opacity:1"/>
<path class="bond-7 atom-8 atom-7" d="M 617.384,87.7563 L 616.583,89.6361" style="fill:none;fill-rule:evenodd;stroke:#000000;stroke-width:1.0px;stroke-linecap:butt;stroke-linejoin:miter;stroke-opacity:1"/>
<path class="bond-7 atom-8 atom-7" d="M 612.885,85.2839 L 611.684,88.1037" style="fill:none;fill-rule:evenodd;stroke:#000000;stroke-width:1.0px;stroke-linecap:butt;stroke-linejoin:miter;stroke-opacity:1"/>
<path class="bond-7 atom-8 atom-7" d="M 608.386,82.8115 L 606.784,86.5712" style="fill:none;fill-rule:evenodd;stroke:#000000;stroke-width:1.0px;stroke-linecap:butt;stroke-linejoin:miter;stroke-opacity:1"/>
<path class="bond-7 atom-8 atom-7" d="M 603.886,80.339 L 601.884,85.0387" style="fill:none;fill-rule:evenodd;stroke:#000000;stroke-width:1.0px;stroke-linecap:butt;stroke-linejoin:miter;stroke-opacity:1"/>
<path class="bond-8 atom-8 atom-9" d="M 626.383,92.7011 L 646.803,77.3572" style="fill:none;fill-rule:evenodd;stroke:#000000;stroke-width:2.0px;stroke-linecap:butt;stroke-linejoin:miter;stroke-opacity:1"/>
<path class="bond-10 atom-8 atom-11" d="M 626.383,92.7011 L 627.662,103.231" style="fill:none;fill-rule:evenodd;stroke:#000000;stroke-width:2.0px;stroke-linecap:butt;stroke-linejoin:miter;stroke-opacity:1"/>
<path class="bond-10 atom-8 atom-11" d="M 627.662,103.231 L 628.94,113.761" style="fill:none;fill-rule:evenodd;stroke:#FF0000;stroke-width:2.0px;stroke-linecap:butt;stroke-linejoin:miter;stroke-opacity:1"/>
<path class="bond-9 atom-9 atom-10" d="M 646.803,77.3572 L 656.573,81.5199" style="fill:none;fill-rule:evenodd;stroke:#000000;stroke-width:2.0px;stroke-linecap:butt;stroke-linejoin:miter;stroke-opacity:1"/>
<path class="bond-9 atom-9 atom-10" d="M 656.573,81.5199 L 666.342,85.6826" style="fill:none;fill-rule:evenodd;stroke:#FF0000;stroke-width:2.0px;stroke-linecap:butt;stroke-linejoin:miter;stroke-opacity:1"/>
<path class="bond-11 atom-11 atom-12" d="M 633.421,119.744 L 641.77,123.302" style="fill:none;fill-rule:evenodd;stroke:#FF0000;stroke-width:2.0px;stroke-linecap:butt;stroke-linejoin:miter;stroke-opacity:1"/>
<path class="bond-11 atom-11 atom-12" d="M 641.77,123.302 L 650.12,126.859" style="fill:none;fill-rule:evenodd;stroke:#FF7F00;stroke-width:2.0px;stroke-linecap:butt;stroke-linejoin:miter;stroke-opacity:1"/>
<path class="bond-12 atom-12 atom-13" d="M 653.483,137.677 L 654.751,137.523" style="fill:none;fill-rule:evenodd;stroke:#FF7F00;stroke-width:1.0px;stroke-linecap:butt;stroke-linejoin:miter;stroke-opacity:1"/>
<path class="bond-12 atom-12 atom-13" d="M 653.489,143.029 L 656.025,142.721" style="fill:none;fill-rule:evenodd;stroke:#FF7F00;stroke-width:1.0px;stroke-linecap:butt;stroke-linejoin:miter;stroke-opacity:1"/>
<path class="bond-12 atom-12 atom-13" d="M 653.496,148.381 L 657.299,147.92" style="fill:none;fill-rule:evenodd;stroke:#000000;stroke-width:1.0px;stroke-linecap:butt;stroke-linejoin:miter;stroke-opacity:1"/>
<path class="bond-12 atom-12 atom-13" d="M 653.502,153.734 L 658.573,153.118" style="fill:none;fill-rule:evenodd;stroke:#000000;stroke-width:1.0px;stroke-linecap:butt;stroke-linejoin:miter;stroke-opacity:1"/>
<path class="bond-13 atom-12 atom-14" d="M 655.907,125.855 L 664.643,119.29" style="fill:none;fill-rule:evenodd;stroke:#FF7F00;stroke-width:2.0px;stroke-linecap:butt;stroke-linejoin:miter;stroke-opacity:1"/>
<path class="bond-13 atom-12 atom-14" d="M 664.643,119.29 L 673.38,112.726" style="fill:none;fill-rule:evenodd;stroke:#000000;stroke-width:2.0px;stroke-linecap:butt;stroke-linejoin:miter;stroke-opacity:1"/>
<path class="bond-14 atom-14 atom-15" d="M 673.38,112.726 L 696.878,122.738" style="fill:none;fill-rule:evenodd;stroke:#000000;stroke-width:2.0px;stroke-linecap:butt;stroke-linejoin:miter;stroke-opacity:1"/>
<path class="bond-15 atom-15 atom-16" d="M 698.412,124.78 L 718.832,109.436" style="fill:none;fill-rule:evenodd;stroke:#000000;stroke-width:2.0px;stroke-linecap:butt;stroke-linejoin:miter;stroke-opacity:1"/>
<path class="bond-15 atom-15 atom-16" d="M 695.343,120.696 L 715.763,105.352" style="fill:none;fill-rule:evenodd;stroke:#000000;stroke-width:2.0px;stroke-linecap:butt;stroke-linejoin:miter;stroke-opacity:1"/>
<path class="atom-0" d="M 610.099 133.217 Q 610.794 133.411, 611.141 133.841 Q 611.499 134.259, 611.499 134.883 Q 611.499 135.884, 610.855 136.456 Q 610.222 137.018, 609.016 137.018 L 606.584 137.018 L 606.584 129.784 L 608.72 129.784 Q 609.956 129.784, 610.579 130.285 Q 611.202 130.786, 611.202 131.705 Q 611.202 132.798, 610.099 133.217 M 607.555 130.602 L 607.555 132.87 L 608.72 132.87 Q 609.435 132.87, 609.803 132.584 Q 610.181 132.288, 610.181 131.705 Q 610.181 130.602, 608.72 130.602 L 607.555 130.602 M 609.016 136.201 Q 609.721 136.201, 610.099 135.863 Q 610.477 135.526, 610.477 134.883 Q 610.477 134.29, 610.058 133.994 Q 609.649 133.687, 608.863 133.687 L 607.555 133.687 L 607.555 136.201 L 609.016 136.201 " fill="#7F4C19"/>
<path class="atom-0" d="M 613.144 131.766 L 613.256 132.492 Q 613.808 131.675, 614.707 131.675 Q 614.993 131.675, 615.381 131.777 L 615.228 132.635 Q 614.788 132.533, 614.543 132.533 Q 614.114 132.533, 613.828 132.706 Q 613.552 132.87, 613.327 133.268 L 613.327 137.018 L 612.367 137.018 L 612.367 131.766 L 613.144 131.766 " fill="#7F4C19"/>
<path class="atom-10" d="M 666.981 87.3899 Q 666.981 85.6531, 667.839 84.6824 Q 668.697 83.7118, 670.301 83.7118 Q 671.905 83.7118, 672.764 84.6824 Q 673.622 85.6531, 673.622 87.3899 Q 673.622 89.1472, 672.753 90.1485 Q 671.885 91.1395, 670.301 91.1395 Q 668.708 91.1395, 667.839 90.1485 Q 666.981 89.1575, 666.981 87.3899 M 670.301 90.3222 Q 671.405 90.3222, 671.997 89.5866 Q 672.6 88.8407, 672.6 87.3899 Q 672.6 85.9698, 671.997 85.2546 Q 671.405 84.5292, 670.301 84.5292 Q 669.198 84.5292, 668.595 85.2444 Q 668.003 85.9596, 668.003 87.3899 Q 668.003 88.851, 668.595 89.5866 Q 669.198 90.3222, 670.301 90.3222 " fill="#FF0000"/>
<path class="atom-10" d="M 674.49 83.7936 L 675.471 83.7936 L 675.471 86.8689 L 679.17 86.8689 L 679.17 83.7936 L 680.151 83.7936 L 680.151 91.0272 L 679.17 91.0272 L 679.17 87.6862 L 675.471 87.6862 L 675.471 91.0272 L 674.49 91.0272 L 674.49 83.7936 " fill="#FF0000"/>
<path class="atom-11" d="M 626.141 118.078 Q 626.141 116.341, 626.999 115.37 Q 627.857 114.4, 629.461 114.4 Q 631.066 114.4, 631.924 115.37 Q 632.782 116.341, 632.782 118.078 Q 632.782 119.835, 631.914 120.836 Q 631.045 121.827, 629.461 121.827 Q 627.868 121.827, 626.999 120.836 Q 626.141 119.845, 626.141 118.078 M 629.461 121.01 Q 630.565 121.01, 631.157 120.274 Q 631.76 119.529, 631.76 118.078 Q 631.76 116.658, 631.157 115.942 Q 630.565 115.217, 629.461 115.217 Q 628.358 115.217, 627.755 115.932 Q 627.163 116.647, 627.163 118.078 Q 627.163 119.539, 627.755 120.274 Q 628.358 121.01, 629.461 121.01 " fill="#FF0000"/>
<path class="atom-12" d="M 652.786 124.453 Q 654.022 124.453, 654.645 125.015 Q 655.269 125.566, 655.269 126.578 Q 655.269 127.579, 654.625 128.151 Q 653.992 128.713, 652.786 128.713 L 651.631 128.713 L 651.631 131.686 L 650.651 131.686 L 650.651 124.453 L 652.786 124.453 M 652.786 127.896 Q 653.491 127.896, 653.869 127.559 Q 654.247 127.222, 654.247 126.578 Q 654.247 125.934, 653.869 125.607 Q 653.501 125.27, 652.786 125.27 L 651.631 125.27 L 651.631 127.896 L 652.786 127.896 " fill="#FF7F00"/>
<path class="bond-0 atom-0 atom-1" d="M 34.302,334.434 L 34.9166,342.971" style="fill:none;fill-rule:evenodd;stroke:#FF7F00;stroke-width:2.0px;stroke-linecap:butt;stroke-linejoin:miter;stroke-opacity:1"/>
<path class="bond-0 atom-0 atom-1" d="M 34.9166,342.971 L 35.5313,351.507" style="fill:none;fill-rule:evenodd;stroke:#0000FF;stroke-width:2.0px;stroke-linecap:butt;stroke-linejoin:miter;stroke-opacity:1"/>
<path class="bond-1 atom-1 atom-2" d="M 31.0156,355.832 L 24.062,360.543" style="fill:none;fill-rule:evenodd;stroke:#0000FF;stroke-width:2.0px;stroke-linecap:butt;stroke-linejoin:miter;stroke-opacity:1"/>
<path class="bond-1 atom-1 atom-2" d="M 24.062,360.543 L 17.1084,365.255" style="fill:none;fill-rule:evenodd;stroke:#FF0000;stroke-width:2.0px;stroke-linecap:butt;stroke-linejoin:miter;stroke-opacity:1"/>
<path class="bond-1 atom-1 atom-2" d="M 33.8809,360.061 L 26.9274,364.773" style="fill:none;fill-rule:evenodd;stroke:#0000FF;stroke-width:2.0px;stroke-linecap:butt;stroke-linejoin:miter;stroke-opacity:1"/>
<path class="bond-1 atom-1 atom-2" d="M 26.9274,364.773 L 19.9738,369.484" style="fill:none;fill-rule:evenodd;stroke:#FF0000;stroke-width:2.0px;stroke-linecap:butt;stroke-linejoin:miter;stroke-opacity:1"/>
<path class="bond-2 atom-1 atom-3" d="M 39.2119,357.296 L 55.5226,365.21" style="fill:none;fill-rule:evenodd;stroke:#0000FF;stroke-width:2.0px;stroke-linecap:butt;stroke-linejoin:miter;stroke-opacity:1"/>
<path class="bond-3 atom-3 atom-4" d="M 62.1923,364.514 L 71.0743,358.496" style="fill:none;fill-rule:evenodd;stroke:#0000FF;stroke-width:2.0px;stroke-linecap:butt;stroke-linejoin:miter;stroke-opacity:1"/>
<path class="bond-3 atom-3 atom-4" d="M 71.0743,358.496 L 79.9564,352.478" style="fill:none;fill-rule:evenodd;stroke:#000000;stroke-width:2.0px;stroke-linecap:butt;stroke-linejoin:miter;stroke-opacity:1"/>
<path class="bond-4 atom-4 atom-5" d="M 79.9564,352.478 L 102.937,363.627" style="fill:none;fill-rule:evenodd;stroke:#000000;stroke-width:2.0px;stroke-linecap:butt;stroke-linejoin:miter;stroke-opacity:1"/>
<path class="bond-5 atom-5 atom-6" d="M 102.937,363.627 L 114.086,340.647" style="fill:none;fill-rule:evenodd;stroke:#000000;stroke-width:2.0px;stroke-linecap:butt;stroke-linejoin:miter;stroke-opacity:1"/>
<path class="bond-6 atom-5 atom-7" d="M 102.937,363.627 L 91.7874,386.608" style="fill:none;fill-rule:evenodd;stroke:#000000;stroke-width:2.0px;stroke-linecap:butt;stroke-linejoin:miter;stroke-opacity:1"/>
<path class="bond-7 atom-5 atom-8" d="M 102.937,363.627 L 112.736,368.382" style="fill:none;fill-rule:evenodd;stroke:#000000;stroke-width:2.0px;stroke-linecap:butt;stroke-linejoin:miter;stroke-opacity:1"/>
<path class="bond-7 atom-5 atom-8" d="M 112.736,368.382 L 122.535,373.136" style="fill:none;fill-rule:evenodd;stroke:#0000FF;stroke-width:2.0px;stroke-linecap:butt;stroke-linejoin:miter;stroke-opacity:1"/>
<path class="bond-8 atom-8 atom-9" d="M 126.224,379.032 L 126.988,389.643" style="fill:none;fill-rule:evenodd;stroke:#0000FF;stroke-width:2.0px;stroke-linecap:butt;stroke-linejoin:miter;stroke-opacity:1"/>
<path class="bond-8 atom-8 atom-9" d="M 126.988,389.643 L 127.752,400.253" style="fill:none;fill-rule:evenodd;stroke:#000000;stroke-width:2.0px;stroke-linecap:butt;stroke-linejoin:miter;stroke-opacity:1"/>
<path class="bond-9 atom-8 atom-10" d="M 129.299,372.486 L 138.181,366.468" style="fill:none;fill-rule:evenodd;stroke:#0000FF;stroke-width:2.0px;stroke-linecap:butt;stroke-linejoin:miter;stroke-opacity:1"/>
<path class="bond-9 atom-8 atom-10" d="M 138.181,366.468 L 147.063,360.45" style="fill:none;fill-rule:evenodd;stroke:#000000;stroke-width:2.0px;stroke-linecap:butt;stroke-linejoin:miter;stroke-opacity:1"/>
<path class="bond-10 atom-10 atom-11" d="M 147.063,360.45 L 156.862,365.204" style="fill:none;fill-rule:evenodd;stroke:#000000;stroke-width:2.0px;stroke-linecap:butt;stroke-linejoin:miter;stroke-opacity:1"/>
<path class="bond-10 atom-10 atom-11" d="M 156.862,365.204 L 166.662,369.959" style="fill:none;fill-rule:evenodd;stroke:#0000FF;stroke-width:2.0px;stroke-linecap:butt;stroke-linejoin:miter;stroke-opacity:1"/>
<path class="bond-10 atom-10 atom-11" d="M 147.773,366.472 L 154.633,369.8" style="fill:none;fill-rule:evenodd;stroke:#000000;stroke-width:2.0px;stroke-linecap:butt;stroke-linejoin:miter;stroke-opacity:1"/>
<path class="bond-10 atom-10 atom-11" d="M 154.633,369.8 L 161.492,373.128" style="fill:none;fill-rule:evenodd;stroke:#0000FF;stroke-width:2.0px;stroke-linecap:butt;stroke-linejoin:miter;stroke-opacity:1"/>
<path class="bond-11 atom-11 atom-12" d="M 173.425,369.308 L 182.307,363.29" style="fill:none;fill-rule:evenodd;stroke:#0000FF;stroke-width:2.0px;stroke-linecap:butt;stroke-linejoin:miter;stroke-opacity:1"/>
<path class="bond-11 atom-11 atom-12" d="M 182.307,363.29 L 191.19,357.273" style="fill:none;fill-rule:evenodd;stroke:#000000;stroke-width:2.0px;stroke-linecap:butt;stroke-linejoin:miter;stroke-opacity:1"/>
<path class="bond-12 atom-12 atom-13" d="M 193.737,357.089 L 192.979,346.555" style="fill:none;fill-rule:evenodd;stroke:#000000;stroke-width:2.0px;stroke-linecap:butt;stroke-linejoin:miter;stroke-opacity:1"/>
<path class="bond-12 atom-12 atom-13" d="M 192.979,346.555 L 192.22,336.021" style="fill:none;fill-rule:evenodd;stroke:#FF0000;stroke-width:2.0px;stroke-linecap:butt;stroke-linejoin:miter;stroke-opacity:1"/>
<path class="bond-12 atom-12 atom-13" d="M 188.642,357.456 L 187.883,346.922" style="fill:none;fill-rule:evenodd;stroke:#000000;stroke-width:2.0px;stroke-linecap:butt;stroke-linejoin:miter;stroke-opacity:1"/>
<path class="bond-12 atom-12 atom-13" d="M 187.883,346.922 L 187.125,336.388" style="fill:none;fill-rule:evenodd;stroke:#FF0000;stroke-width:2.0px;stroke-linecap:butt;stroke-linejoin:miter;stroke-opacity:1"/>
<path class="bond-13 atom-12 atom-14" d="M 191.19,357.273 L 214.17,368.422" style="fill:none;fill-rule:evenodd;stroke:#000000;stroke-width:2.0px;stroke-linecap:butt;stroke-linejoin:miter;stroke-opacity:1"/>
<path class="bond-14 atom-14 atom-15" d="M 215.603,370.537 L 224.196,364.714" style="fill:none;fill-rule:evenodd;stroke:#000000;stroke-width:2.0px;stroke-linecap:butt;stroke-linejoin:miter;stroke-opacity:1"/>
<path class="bond-14 atom-14 atom-15" d="M 224.196,364.714 L 232.789,358.892" style="fill:none;fill-rule:evenodd;stroke:#FF0000;stroke-width:2.0px;stroke-linecap:butt;stroke-linejoin:miter;stroke-opacity:1"/>
<path class="bond-14 atom-14 atom-15" d="M 212.737,366.307 L 221.331,360.485" style="fill:none;fill-rule:evenodd;stroke:#000000;stroke-width:2.0px;stroke-linecap:butt;stroke-linejoin:miter;stroke-opacity:1"/>
<path class="bond-14 atom-14 atom-15" d="M 221.331,360.485 L 229.924,354.663" style="fill:none;fill-rule:evenodd;stroke:#FF0000;stroke-width:2.0px;stroke-linecap:butt;stroke-linejoin:miter;stroke-opacity:1"/>
<path class="atom-0" d="M 33.8219 326.562 Q 35.0581 326.562, 35.6813 327.124 Q 36.3046 327.676, 36.3046 328.687 Q 36.3046 329.689, 35.6609 330.261 Q 35.0275 330.823, 33.8219 330.823 L 32.6674 330.823 L 32.6674 333.796 L 31.6865 333.796 L 31.6865 326.562 L 33.8219 326.562 M 33.8219 330.005 Q 34.5268 330.005, 34.9049 329.668 Q 35.2829 329.331, 35.2829 328.687 Q 35.2829 328.044, 34.9049 327.717 Q 34.5371 327.38, 33.8219 327.38 L 32.6674 327.38 L 32.6674 330.005 L 33.8219 330.005 " fill="#FF7F00"/>
<path class="atom-0" d="M 37.173 326.562 L 38.1538 326.562 L 38.1538 329.638 L 41.8524 329.638 L 41.8524 326.562 L 42.8332 326.562 L 42.8332 333.796 L 41.8524 333.796 L 41.8524 330.455 L 38.1538 330.455 L 38.1538 333.796 L 37.173 333.796 L 37.173 326.562 " fill="#FF7F00"/>
<path class="atom-0" d="M 43.1838 333.542 Q 43.3592 333.09, 43.7772 332.841 Q 44.1953 332.585, 44.7752 332.585 Q 45.4968 332.585, 45.9013 332.976 Q 46.3059 333.367, 46.3059 334.061 Q 46.3059 334.769, 45.78 335.43 Q 45.2607 336.091, 44.1818 336.873 L 46.3869 336.873 L 46.3869 337.413 L 43.1704 337.413 L 43.1704 336.961 Q 44.0605 336.327, 44.5864 335.855 Q 45.1191 335.383, 45.3754 334.958 Q 45.6316 334.533, 45.6316 334.095 Q 45.6316 333.636, 45.4023 333.38 Q 45.1731 333.124, 44.7752 333.124 Q 44.3909 333.124, 44.1346 333.279 Q 43.8784 333.434, 43.6963 333.778 L 43.1838 333.542 " fill="#FF7F00"/>
<path class="atom-1" d="M 34.2311 352.039 L 36.6014 355.87 Q 36.8364 356.248, 37.2145 356.933 Q 37.5925 357.617, 37.6129 357.658 L 37.6129 352.039 L 38.5733 352.039 L 38.5733 359.272 L 37.5823 359.272 L 35.0382 355.083 Q 34.742 354.593, 34.4252 354.031 Q 34.1187 353.469, 34.0268 353.295 L 34.0268 359.272 L 33.0868 359.272 L 33.0868 352.039 L 34.2311 352.039 " fill="#0000FF"/>
<path class="atom-1" d="M 39.1802 353.343 L 40.4546 353.343 L 40.4546 352.001 L 41.0211 352.001 L 41.0211 353.343 L 42.3293 353.343 L 42.3293 353.828 L 41.0211 353.828 L 41.0211 355.177 L 40.4546 355.177 L 40.4546 353.828 L 39.1802 353.828 L 39.1802 353.343 " fill="#0000FF"/>
<path class="atom-2" d="M 11.3636 370.003 Q 11.3636 368.266, 12.2219 367.295 Q 13.0801 366.325, 14.6841 366.325 Q 16.2882 366.325, 17.1464 367.295 Q 18.0046 368.266, 18.0046 370.003 Q 18.0046 371.76, 17.1362 372.761 Q 16.2678 373.752, 14.6841 373.752 Q 13.0903 373.752, 12.2219 372.761 Q 11.3636 371.77, 11.3636 370.003 M 14.6841 372.935 Q 15.7876 372.935, 16.3801 372.199 Q 16.9829 371.454, 16.9829 370.003 Q 16.9829 368.583, 16.3801 367.867 Q 15.7876 367.142, 14.6841 367.142 Q 13.5807 367.142, 12.9779 367.857 Q 12.3853 368.572, 12.3853 370.003 Q 12.3853 371.464, 12.9779 372.199 Q 13.5807 372.935, 14.6841 372.935 " fill="#FF0000"/>
<path class="atom-3" d="M 57.2115 363.188 L 59.5819 367.019 Q 59.8169 367.397, 60.1949 368.082 Q 60.5729 368.767, 60.5933 368.807 L 60.5933 363.188 L 61.5537 363.188 L 61.5537 370.422 L 60.5627 370.422 L 58.0187 366.233 Q 57.7224 365.742, 57.4057 365.18 Q 57.0991 364.618, 57.0072 364.445 L 57.0072 370.422 L 56.0672 370.422 L 56.0672 363.188 L 57.2115 363.188 " fill="#0000FF"/>
<path class="atom-3" d="M 55.9804 371.145 L 56.9612 371.145 L 56.9612 374.22 L 60.6597 374.22 L 60.6597 371.145 L 61.6406 371.145 L 61.6406 378.379 L 60.6597 378.379 L 60.6597 375.038 L 56.9612 375.038 L 56.9612 378.379 L 55.9804 378.379 L 55.9804 371.145 " fill="#0000FF"/>
<path class="atom-8" d="M 124.318 371.16 L 126.689 374.991 Q 126.924 375.369, 127.302 376.054 Q 127.68 376.739, 127.7 376.779 L 127.7 371.16 L 128.66 371.16 L 128.66 378.394 L 127.669 378.394 L 125.125 374.205 Q 124.829 373.714, 124.512 373.152 Q 124.206 372.59, 124.114 372.417 L 124.114 378.394 L 123.174 378.394 L 123.174 371.16 L 124.318 371.16 " fill="#0000FF"/>
<path class="atom-11" d="M 168.445 367.983 L 170.815 371.814 Q 171.05 372.192, 171.428 372.877 Q 171.806 373.561, 171.826 373.602 L 171.826 367.983 L 172.787 367.983 L 172.787 375.216 L 171.796 375.216 L 169.252 371.027 Q 168.955 370.537, 168.639 369.975 Q 168.332 369.413, 168.24 369.239 L 168.24 375.216 L 167.3 375.216 L 167.3 367.983 L 168.445 367.983 " fill="#0000FF"/>
<path class="atom-13" d="M 186.035 331.817 Q 186.035 330.08, 186.893 329.109 Q 187.751 328.139, 189.355 328.139 Q 190.959 328.139, 191.817 329.109 Q 192.676 330.08, 192.676 331.817 Q 192.676 333.574, 191.807 334.575 Q 190.939 335.566, 189.355 335.566 Q 187.761 335.566, 186.893 334.575 Q 186.035 333.584, 186.035 331.817 M 189.355 334.749 Q 190.458 334.749, 191.051 334.013 Q 191.654 333.267, 191.654 331.817 Q 191.654 330.396, 191.051 329.681 Q 190.458 328.956, 189.355 328.956 Q 188.252 328.956, 187.649 329.671 Q 187.056 330.386, 187.056 331.817 Q 187.056 333.278, 187.649 334.013 Q 188.252 334.749, 189.355 334.749 " fill="#FF0000"/>
<path class="atom-15" d="M 231.995 354.116 Q 231.995 352.379, 232.854 351.408 Q 233.712 350.437, 235.316 350.437 Q 236.92 350.437, 237.778 351.408 Q 238.636 352.379, 238.636 354.116 Q 238.636 355.873, 237.768 356.874 Q 236.899 357.865, 235.316 357.865 Q 233.722 357.865, 232.854 356.874 Q 231.995 355.883, 231.995 354.116 M 235.316 357.048 Q 236.419 357.048, 237.012 356.312 Q 237.615 355.566, 237.615 354.116 Q 237.615 352.695, 237.012 351.98 Q 236.419 351.255, 235.316 351.255 Q 234.212 351.255, 233.61 351.97 Q 233.017 352.685, 233.017 354.116 Q 233.017 355.577, 233.61 356.312 Q 234.212 357.048, 235.316 357.048 " fill="#FF0000"/>
<path class="bond-0 atom-1 atom-0" d="M 429.033,393.666 L 435.532,402.205 L 437.366,400.427 Z" style="fill:#000000;fill-rule:evenodd;fill-opacity:1;stroke:#000000;stroke-width:2.0px;stroke-linecap:butt;stroke-linejoin:miter;stroke-opacity:1;"/>
<path class="bond-0 atom-1 atom-0" d="M 435.532,402.205 L 445.698,407.187 L 442.031,410.743 Z" style="fill:#FF7F00;fill-rule:evenodd;fill-opacity:1;stroke:#FF7F00;stroke-width:2.0px;stroke-linecap:butt;stroke-linejoin:miter;stroke-opacity:1;"/>
<path class="bond-0 atom-1 atom-0" d="M 435.532,402.205 L 437.366,400.427 L 445.698,407.187 Z" style="fill:#FF7F00;fill-rule:evenodd;fill-opacity:1;stroke:#FF7F00;stroke-width:2.0px;stroke-linecap:butt;stroke-linejoin:miter;stroke-opacity:1;"/>
<path class="bond-1 atom-1 atom-2" d="M 429.033,393.666 L 418.126,396.409" style="fill:none;fill-rule:evenodd;stroke:#000000;stroke-width:2.0px;stroke-linecap:butt;stroke-linejoin:miter;stroke-opacity:1"/>
<path class="bond-1 atom-1 atom-2" d="M 418.126,396.409 L 407.219,399.151" style="fill:none;fill-rule:evenodd;stroke:#CCCC00;stroke-width:2.0px;stroke-linecap:butt;stroke-linejoin:miter;stroke-opacity:1"/>
<path class="bond-13 atom-1 atom-14" d="M 429.033,393.666 L 431.897,383.603" style="fill:none;fill-rule:evenodd;stroke:#000000;stroke-width:2.0px;stroke-linecap:butt;stroke-linejoin:miter;stroke-opacity:1"/>
<path class="bond-13 atom-1 atom-14" d="M 431.897,383.603 L 434.761,373.539" style="fill:none;fill-rule:evenodd;stroke:#CCCC00;stroke-width:2.0px;stroke-linecap:butt;stroke-linejoin:miter;stroke-opacity:1"/>
<path class="bond-2 atom-2 atom-3" d="M 401.304,396.844 L 393.893,389.2" style="fill:none;fill-rule:evenodd;stroke:#CCCC00;stroke-width:2.0px;stroke-linecap:butt;stroke-linejoin:miter;stroke-opacity:1"/>
<path class="bond-2 atom-2 atom-3" d="M 393.893,389.2 L 386.482,381.556" style="fill:none;fill-rule:evenodd;stroke:#000000;stroke-width:2.0px;stroke-linecap:butt;stroke-linejoin:miter;stroke-opacity:1"/>
<path class="bond-3 atom-3 atom-4" d="M 386.482,381.556 L 375.787,384.245" style="fill:none;fill-rule:evenodd;stroke:#000000;stroke-width:2.0px;stroke-linecap:butt;stroke-linejoin:miter;stroke-opacity:1"/>
<path class="bond-3 atom-3 atom-4" d="M 375.787,384.245 L 365.092,386.934" style="fill:none;fill-rule:evenodd;stroke:#0000FF;stroke-width:2.0px;stroke-linecap:butt;stroke-linejoin:miter;stroke-opacity:1"/>
<path class="bond-3 atom-3 atom-4" d="M 384.519,387.317 L 377.033,389.199" style="fill:none;fill-rule:evenodd;stroke:#000000;stroke-width:2.0px;stroke-linecap:butt;stroke-linejoin:miter;stroke-opacity:1"/>
<path class="bond-3 atom-3 atom-4" d="M 377.033,389.199 L 369.546,391.082" style="fill:none;fill-rule:evenodd;stroke:#0000FF;stroke-width:2.0px;stroke-linecap:butt;stroke-linejoin:miter;stroke-opacity:1"/>
<path class="bond-4 atom-4 atom-5" d="M 358.329,384.296 L 351.13,376.871" style="fill:none;fill-rule:evenodd;stroke:#0000FF;stroke-width:2.0px;stroke-linecap:butt;stroke-linejoin:miter;stroke-opacity:1"/>
<path class="bond-4 atom-4 atom-5" d="M 351.13,376.871 L 343.931,369.446" style="fill:none;fill-rule:evenodd;stroke:#000000;stroke-width:2.0px;stroke-linecap:butt;stroke-linejoin:miter;stroke-opacity:1"/>
<path class="bond-5 atom-5 atom-6" d="M 343.931,369.446 L 333.024,372.188" style="fill:none;fill-rule:evenodd;stroke:#000000;stroke-width:2.0px;stroke-linecap:butt;stroke-linejoin:miter;stroke-opacity:1"/>
<path class="bond-5 atom-5 atom-6" d="M 333.024,372.188 L 322.118,374.93" style="fill:none;fill-rule:evenodd;stroke:#CCCC00;stroke-width:2.0px;stroke-linecap:butt;stroke-linejoin:miter;stroke-opacity:1"/>
<path class="bond-6 atom-6 atom-7" d="M 316.504,380.113 L 311.276,388.854" style="fill:none;fill-rule:evenodd;stroke:#CCCC00;stroke-width:2.0px;stroke-linecap:butt;stroke-linejoin:miter;stroke-opacity:1"/>
<path class="bond-6 atom-6 atom-7" d="M 311.276,388.854 L 306.048,397.594" style="fill:none;fill-rule:evenodd;stroke:#000000;stroke-width:2.0px;stroke-linecap:butt;stroke-linejoin:miter;stroke-opacity:1"/>
<path class="bond-21 atom-6 atom-10" d="M 316.202,373.905 L 306.721,368.234" style="fill:none;fill-rule:evenodd;stroke:#CCCC00;stroke-width:2.0px;stroke-linecap:butt;stroke-linejoin:miter;stroke-opacity:1"/>
<path class="bond-21 atom-6 atom-10" d="M 306.721,368.234 L 297.24,362.562" style="fill:none;fill-rule:evenodd;stroke:#000000;stroke-width:2.0px;stroke-linecap:butt;stroke-linejoin:miter;stroke-opacity:1"/>
<path class="bond-21 atom-6 atom-10" d="M 310.735,376.587 L 304.098,372.618" style="fill:none;fill-rule:evenodd;stroke:#CCCC00;stroke-width:2.0px;stroke-linecap:butt;stroke-linejoin:miter;stroke-opacity:1"/>
<path class="bond-21 atom-6 atom-10" d="M 304.098,372.618 L 297.462,368.648" style="fill:none;fill-rule:evenodd;stroke:#000000;stroke-width:2.0px;stroke-linecap:butt;stroke-linejoin:miter;stroke-opacity:1"/>
<path class="bond-7 atom-7 atom-8" d="M 306.048,397.594 L 283.732,410.021" style="fill:none;fill-rule:evenodd;stroke:#000000;stroke-width:2.0px;stroke-linecap:butt;stroke-linejoin:miter;stroke-opacity:1"/>
<path class="bond-8 atom-7 atom-9" d="M 306.048,397.594 L 284.128,384.482" style="fill:none;fill-rule:evenodd;stroke:#000000;stroke-width:2.0px;stroke-linecap:butt;stroke-linejoin:miter;stroke-opacity:1"/>
<path class="bond-8 atom-7 atom-9" d="M 305.382,391.243 L 290.038,382.065" style="fill:none;fill-rule:evenodd;stroke:#000000;stroke-width:2.0px;stroke-linecap:butt;stroke-linejoin:miter;stroke-opacity:1"/>
<path class="bond-22 atom-9 atom-8" d="M 284.128,384.482 L 283.732,410.021" style="fill:none;fill-rule:evenodd;stroke:#000000;stroke-width:2.0px;stroke-linecap:butt;stroke-linejoin:miter;stroke-opacity:1"/>
<path class="bond-9 atom-9 atom-10" d="M 284.128,384.482 L 297.24,362.562" style="fill:none;fill-rule:evenodd;stroke:#000000;stroke-width:2.0px;stroke-linecap:butt;stroke-linejoin:miter;stroke-opacity:1"/>
<path class="bond-10 atom-10 atom-11" d="M 297.24,362.562 L 291.011,337.791" style="fill:none;fill-rule:evenodd;stroke:#000000;stroke-width:2.0px;stroke-linecap:butt;stroke-linejoin:miter;stroke-opacity:1"/>
<path class="bond-11 atom-11 atom-12" d="M 291.011,337.791 L 309.35,320.011" style="fill:none;fill-rule:evenodd;stroke:#000000;stroke-width:2.0px;stroke-linecap:butt;stroke-linejoin:miter;stroke-opacity:1"/>
<path class="bond-12 atom-12 atom-13" d="M 311.827,319.389 L 305.599,294.617" style="fill:none;fill-rule:evenodd;stroke:#000000;stroke-width:2.0px;stroke-linecap:butt;stroke-linejoin:miter;stroke-opacity:1"/>
<path class="bond-12 atom-12 atom-13" d="M 306.873,320.634 L 300.645,295.863" style="fill:none;fill-rule:evenodd;stroke:#000000;stroke-width:2.0px;stroke-linecap:butt;stroke-linejoin:miter;stroke-opacity:1"/>
<path class="bond-14 atom-14 atom-15" d="M 438.283,372.398 L 447.147,374.921" style="fill:none;fill-rule:evenodd;stroke:#CCCC00;stroke-width:2.0px;stroke-linecap:butt;stroke-linejoin:miter;stroke-opacity:1"/>
<path class="bond-14 atom-14 atom-15" d="M 447.147,374.921 L 456.01,377.443" style="fill:none;fill-rule:evenodd;stroke:#FF0000;stroke-width:2.0px;stroke-linecap:butt;stroke-linejoin:miter;stroke-opacity:1"/>
<path class="bond-14 atom-14 atom-15" d="M 439.682,367.485 L 448.545,370.007" style="fill:none;fill-rule:evenodd;stroke:#CCCC00;stroke-width:2.0px;stroke-linecap:butt;stroke-linejoin:miter;stroke-opacity:1"/>
<path class="bond-14 atom-14 atom-15" d="M 448.545,370.007 L 457.408,372.53" style="fill:none;fill-rule:evenodd;stroke:#FF0000;stroke-width:2.0px;stroke-linecap:butt;stroke-linejoin:miter;stroke-opacity:1"/>
<path class="bond-15 atom-14 atom-16" d="M 433.766,365.801 L 424.903,363.279" style="fill:none;fill-rule:evenodd;stroke:#CCCC00;stroke-width:2.0px;stroke-linecap:butt;stroke-linejoin:miter;stroke-opacity:1"/>
<path class="bond-15 atom-14 atom-16" d="M 424.903,363.279 L 416.039,360.756" style="fill:none;fill-rule:evenodd;stroke:#FF0000;stroke-width:2.0px;stroke-linecap:butt;stroke-linejoin:miter;stroke-opacity:1"/>
<path class="bond-15 atom-14 atom-16" d="M 432.368,370.715 L 423.504,368.192" style="fill:none;fill-rule:evenodd;stroke:#CCCC00;stroke-width:2.0px;stroke-linecap:butt;stroke-linejoin:miter;stroke-opacity:1"/>
<path class="bond-15 atom-14 atom-16" d="M 423.504,368.192 L 414.641,365.669" style="fill:none;fill-rule:evenodd;stroke:#FF0000;stroke-width:2.0px;stroke-linecap:butt;stroke-linejoin:miter;stroke-opacity:1"/>
<path class="bond-16 atom-14 atom-17" d="M 437.233,364.855 L 439.535,356.766" style="fill:none;fill-rule:evenodd;stroke:#CCCC00;stroke-width:2.0px;stroke-linecap:butt;stroke-linejoin:miter;stroke-opacity:1"/>
<path class="bond-16 atom-14 atom-17" d="M 439.535,356.766 L 441.837,348.678" style="fill:none;fill-rule:evenodd;stroke:#0000FF;stroke-width:2.0px;stroke-linecap:butt;stroke-linejoin:miter;stroke-opacity:1"/>
<path class="bond-17 atom-17 atom-18" d="M 439.635,341.045 L 432.436,333.62" style="fill:none;fill-rule:evenodd;stroke:#0000FF;stroke-width:2.0px;stroke-linecap:butt;stroke-linejoin:miter;stroke-opacity:1"/>
<path class="bond-17 atom-17 atom-18" d="M 432.436,333.62 L 425.237,326.194" style="fill:none;fill-rule:evenodd;stroke:#000000;stroke-width:2.0px;stroke-linecap:butt;stroke-linejoin:miter;stroke-opacity:1"/>
<path class="bond-18 atom-18 atom-19" d="M 425.237,326.194 L 434.685,302.327 L 429.772,300.929 Z" style="fill:#000000;fill-rule:evenodd;fill-opacity:1;stroke:#000000;stroke-width:2.0px;stroke-linecap:butt;stroke-linejoin:miter;stroke-opacity:1;"/>
<path class="bond-19 atom-18 atom-20" d="M 425.237,326.194 L 400.466,332.423" style="fill:none;fill-rule:evenodd;stroke:#000000;stroke-width:2.0px;stroke-linecap:butt;stroke-linejoin:miter;stroke-opacity:1"/>
<path class="bond-20 atom-20 atom-21" d="M 400.466,332.423 L 392.97,324.692" style="fill:none;fill-rule:evenodd;stroke:#000000;stroke-width:2.0px;stroke-linecap:butt;stroke-linejoin:miter;stroke-opacity:1"/>
<path class="bond-20 atom-20 atom-21" d="M 392.97,324.692 L 385.475,316.961" style="fill:none;fill-rule:evenodd;stroke:#33CCCC;stroke-width:2.0px;stroke-linecap:butt;stroke-linejoin:miter;stroke-opacity:1"/>
<path class="atom-0" d="M 446.639 408.388 Q 447.875 408.388, 448.498 408.95 Q 449.121 409.502, 449.121 410.513 Q 449.121 411.515, 448.478 412.087 Q 447.844 412.649, 446.639 412.649 L 445.484 412.649 L 445.484 415.622 L 444.503 415.622 L 444.503 408.388 L 446.639 408.388 M 446.639 411.831 Q 447.343 411.831, 447.721 411.494 Q 448.1 411.157, 448.1 410.513 Q 448.1 409.87, 447.721 409.543 Q 447.354 409.205, 446.639 409.205 L 445.484 409.205 L 445.484 411.831 L 446.639 411.831 " fill="#FF7F00"/>
<path class="atom-2" d="M 402.218 402.377 Q 402.3 402.408, 402.637 402.551 Q 402.974 402.694, 403.342 402.786 Q 403.72 402.868, 404.088 402.868 Q 404.772 402.868, 405.171 402.541 Q 405.569 402.204, 405.569 401.621 Q 405.569 401.223, 405.365 400.978 Q 405.171 400.732, 404.864 400.6 Q 404.558 400.467, 404.047 400.314 Q 403.403 400.119, 403.015 399.936 Q 402.637 399.752, 402.361 399.363 Q 402.095 398.975, 402.095 398.321 Q 402.095 397.412, 402.708 396.85 Q 403.332 396.288, 404.558 396.288 Q 405.395 396.288, 406.346 396.687 L 406.111 397.473 Q 405.242 397.116, 404.588 397.116 Q 403.883 397.116, 403.495 397.412 Q 403.107 397.698, 403.117 398.199 Q 403.117 398.587, 403.311 398.822 Q 403.516 399.057, 403.802 399.19 Q 404.098 399.323, 404.588 399.476 Q 405.242 399.68, 405.63 399.884 Q 406.019 400.089, 406.295 400.508 Q 406.581 400.916, 406.581 401.621 Q 406.581 402.623, 405.906 403.164 Q 405.242 403.695, 404.129 403.695 Q 403.485 403.695, 402.994 403.552 Q 402.514 403.42, 401.942 403.185 L 402.218 402.377 " fill="#CCCC00"/>
<path class="atom-4" d="M 360.112 384.168 L 362.482 387.999 Q 362.717 388.377, 363.095 389.062 Q 363.473 389.746, 363.493 389.787 L 363.493 384.168 L 364.454 384.168 L 364.454 391.401 L 363.463 391.401 L 360.919 387.212 Q 360.622 386.722, 360.306 386.16 Q 359.999 385.598, 359.907 385.424 L 359.907 391.401 L 358.967 391.401 L 358.967 384.168 L 360.112 384.168 " fill="#0000FF"/>
<path class="atom-6" d="M 317.116 378.157 Q 317.198 378.188, 317.535 378.331 Q 317.872 378.474, 318.24 378.566 Q 318.618 378.647, 318.986 378.647 Q 319.671 378.647, 320.069 378.32 Q 320.468 377.983, 320.468 377.401 Q 320.468 377.002, 320.263 376.757 Q 320.069 376.512, 319.763 376.379 Q 319.456 376.246, 318.945 376.093 Q 318.302 375.899, 317.913 375.715 Q 317.535 375.531, 317.259 375.143 Q 316.994 374.755, 316.994 374.101 Q 316.994 373.191, 317.607 372.63 Q 318.23 372.068, 319.456 372.068 Q 320.294 372.068, 321.244 372.466 L 321.009 373.253 Q 320.141 372.895, 319.487 372.895 Q 318.782 372.895, 318.393 373.191 Q 318.005 373.478, 318.015 373.978 Q 318.015 374.366, 318.21 374.601 Q 318.414 374.836, 318.7 374.969 Q 318.996 375.102, 319.487 375.255 Q 320.141 375.46, 320.529 375.664 Q 320.917 375.868, 321.193 376.287 Q 321.479 376.696, 321.479 377.401 Q 321.479 378.402, 320.805 378.944 Q 320.141 379.475, 319.027 379.475 Q 318.383 379.475, 317.893 379.332 Q 317.413 379.199, 316.84 378.964 L 317.116 378.157 " fill="#CCCC00"/>
<path class="atom-14" d="M 433.981 371.582 Q 434.063 371.613, 434.4 371.756 Q 434.737 371.899, 435.105 371.991 Q 435.483 372.073, 435.851 372.073 Q 436.535 372.073, 436.934 371.746 Q 437.332 371.409, 437.332 370.826 Q 437.332 370.428, 437.128 370.183 Q 436.934 369.937, 436.627 369.805 Q 436.321 369.672, 435.81 369.519 Q 435.166 369.324, 434.778 369.141 Q 434.4 368.957, 434.124 368.568 Q 433.859 368.18, 433.859 367.526 Q 433.859 366.617, 434.472 366.055 Q 435.095 365.493, 436.321 365.493 Q 437.159 365.493, 438.109 365.892 L 437.874 366.678 Q 437.005 366.321, 436.352 366.321 Q 435.647 366.321, 435.258 366.617 Q 434.87 366.903, 434.88 367.404 Q 434.88 367.792, 435.074 368.027 Q 435.279 368.262, 435.565 368.395 Q 435.861 368.528, 436.352 368.681 Q 437.005 368.885, 437.394 369.089 Q 437.782 369.294, 438.058 369.713 Q 438.344 370.121, 438.344 370.826 Q 438.344 371.828, 437.669 372.369 Q 437.005 372.9, 435.892 372.9 Q 435.248 372.9, 434.758 372.757 Q 434.277 372.625, 433.705 372.39 L 433.981 371.582 " fill="#CCCC00"/>
<path class="atom-15" d="M 457.271 376.112 Q 457.271 374.375, 458.129 373.405 Q 458.987 372.434, 460.591 372.434 Q 462.195 372.434, 463.054 373.405 Q 463.912 374.375, 463.912 376.112 Q 463.912 377.869, 463.043 378.871 Q 462.175 379.862, 460.591 379.862 Q 458.997 379.862, 458.129 378.871 Q 457.271 377.88, 457.271 376.112 M 460.591 379.044 Q 461.695 379.044, 462.287 378.309 Q 462.89 377.563, 462.89 376.112 Q 462.89 374.692, 462.287 373.977 Q 461.695 373.251, 460.591 373.251 Q 459.488 373.251, 458.885 373.966 Q 458.292 374.682, 458.292 376.112 Q 458.292 377.573, 458.885 378.309 Q 459.488 379.044, 460.591 379.044 " fill="#FF0000"/>
<path class="atom-16" d="M 408.137 362.128 Q 408.137 360.391, 408.996 359.421 Q 409.854 358.45, 411.458 358.45 Q 413.062 358.45, 413.92 359.421 Q 414.778 360.391, 414.778 362.128 Q 414.778 363.886, 413.91 364.887 Q 413.041 365.878, 411.458 365.878 Q 409.864 365.878, 408.996 364.887 Q 408.137 363.896, 408.137 362.128 M 411.458 365.061 Q 412.561 365.061, 413.154 364.325 Q 413.757 363.579, 413.757 362.128 Q 413.757 360.708, 413.154 359.993 Q 412.561 359.268, 411.458 359.268 Q 410.354 359.268, 409.752 359.983 Q 409.159 360.698, 409.159 362.128 Q 409.159 363.589, 409.752 364.325 Q 410.354 365.061, 411.458 365.061 " fill="#FF0000"/>
<path class="atom-17" d="M 441.417 340.916 L 443.788 344.748 Q 444.023 345.126, 444.401 345.81 Q 444.779 346.495, 444.799 346.535 L 444.799 340.916 L 445.76 340.916 L 445.76 348.15 L 444.769 348.15 L 442.225 343.961 Q 441.928 343.47, 441.612 342.908 Q 441.305 342.347, 441.213 342.173 L 441.213 348.15 L 440.273 348.15 L 440.273 340.916 L 441.417 340.916 " fill="#0000FF"/>
<path class="atom-17" d="M 446.628 340.916 L 447.609 340.916 L 447.609 343.991 L 451.307 343.991 L 451.307 340.916 L 452.288 340.916 L 452.288 348.15 L 451.307 348.15 L 451.307 344.809 L 447.609 344.809 L 447.609 348.15 L 446.628 348.15 L 446.628 340.916 " fill="#0000FF"/>
<path class="atom-21" d="M 380.535 310.467 L 384.837 310.467 L 384.837 311.295 L 381.506 311.295 L 381.506 313.492 L 384.469 313.492 L 384.469 314.329 L 381.506 314.329 L 381.506 317.701 L 380.535 317.701 L 380.535 310.467 " fill="#33CCCC"/>
<path d="M 451.165,410.983 L 451.163,410.939 L 451.157,410.896 L 451.148,410.853 L 451.135,410.811 L 451.118,410.77 L 451.098,410.731 L 451.075,410.694 L 451.048,410.659 L 451.019,410.626 L 450.987,410.596 L 450.952,410.569 L 450.915,410.545 L 450.877,410.524 L 450.836,410.506 L 450.795,410.492 L 450.752,410.482 L 450.709,410.475 L 450.665,410.473 L 450.621,410.473 L 450.577,410.478 L 450.534,410.487 L 450.492,410.499 L 450.451,410.514 L 450.411,410.534 L 450.373,410.556 L 450.338,410.582 L 450.304,410.611 L 450.274,410.642 L 450.246,410.676 L 450.221,410.712 L 450.199,410.75 L 450.181,410.79 L 450.166,410.832 L 450.155,410.874 L 450.147,410.917 L 450.143,410.961 L 450.143,411.005 L 450.147,411.049 L 450.155,411.092 L 450.166,411.135 L 450.181,411.176 L 450.199,411.216 L 450.221,411.254 L 450.246,411.291 L 450.274,411.325 L 450.304,411.356 L 450.338,411.385 L 450.373,411.41 L 450.411,411.433 L 450.451,411.452 L 450.492,411.468 L 450.534,411.48 L 450.577,411.488 L 450.621,411.493 L 450.665,411.494 L 450.709,411.491 L 450.752,411.485 L 450.795,411.474 L 450.836,411.46 L 450.877,411.443 L 450.915,411.422 L 450.952,411.398 L 450.987,411.371 L 451.019,411.341 L 451.048,411.308 L 451.075,411.273 L 451.098,411.235 L 451.118,411.196 L 451.135,411.156 L 451.148,411.114 L 451.157,411.071 L 451.163,411.027 L 451.165,410.983 L 450.654,410.983 Z" style="fill:#000000;fill-rule:evenodd;fill-opacity:1;stroke:#000000;stroke-width:0.0px;stroke-linecap:butt;stroke-linejoin:miter;stroke-opacity:1;"/>
<path d="M 451.165,413.027 L 451.163,412.983 L 451.157,412.939 L 451.148,412.896 L 451.135,412.854 L 451.118,412.813 L 451.098,412.774 L 451.075,412.737 L 451.048,412.702 L 451.019,412.669 L 450.987,412.639 L 450.952,412.612 L 450.915,412.588 L 450.877,412.567 L 450.836,412.55 L 450.795,412.536 L 450.752,412.525 L 450.709,412.519 L 450.665,412.516 L 450.621,412.517 L 450.577,412.522 L 450.534,412.53 L 450.492,412.542 L 450.451,412.558 L 450.411,412.577 L 450.373,412.6 L 450.338,412.625 L 450.304,412.654 L 450.274,412.685 L 450.246,412.719 L 450.221,412.755 L 450.199,412.794 L 450.181,412.834 L 450.166,412.875 L 450.155,412.918 L 450.147,412.961 L 450.143,413.005 L 450.143,413.049 L 450.147,413.092 L 450.155,413.136 L 450.166,413.178 L 450.181,413.22 L 450.199,413.26 L 450.221,413.298 L 450.246,413.334 L 450.274,413.368 L 450.304,413.399 L 450.338,413.428 L 450.373,413.454 L 450.411,413.476 L 450.451,413.495 L 450.492,413.511 L 450.534,413.523 L 450.577,413.532 L 450.621,413.536 L 450.665,413.537 L 450.709,413.535 L 450.752,413.528 L 450.795,413.518 L 450.836,413.504 L 450.877,413.486 L 450.915,413.465 L 450.952,413.441 L 450.987,413.414 L 451.019,413.384 L 451.048,413.351 L 451.075,413.316 L 451.098,413.279 L 451.118,413.24 L 451.135,413.199 L 451.148,413.157 L 451.157,413.114 L 451.163,413.071 L 451.165,413.027 L 450.654,413.027 Z" style="fill:#000000;fill-rule:evenodd;fill-opacity:1;stroke:#000000;stroke-width:0.0px;stroke-linecap:butt;stroke-linejoin:miter;stroke-opacity:1;"/>
<path class="bond-0 atom-0 atom-1" d="M 630.619,361.54 L 621.269,361.54" style="fill:none;fill-rule:evenodd;stroke:#CCCC00;stroke-width:2.0px;stroke-linecap:butt;stroke-linejoin:miter;stroke-opacity:1"/>
<path class="bond-0 atom-0 atom-1" d="M 621.269,361.54 L 611.92,361.54" style="fill:none;fill-rule:evenodd;stroke:#FF0000;stroke-width:2.0px;stroke-linecap:butt;stroke-linejoin:miter;stroke-opacity:1"/>
<path class="atom-0" d="M 631.534 364.033 Q 631.615 364.064, 631.952 364.207 Q 632.29 364.35, 632.657 364.442 Q 633.035 364.524, 633.403 364.524 Q 634.088 364.524, 634.486 364.197 Q 634.885 363.86, 634.885 363.277 Q 634.885 362.879, 634.68 362.634 Q 634.486 362.388, 634.18 362.256 Q 633.873 362.123, 633.362 361.97 Q 632.719 361.775, 632.331 361.592 Q 631.952 361.408, 631.677 361.019 Q 631.411 360.631, 631.411 359.977 Q 631.411 359.068, 632.024 358.506 Q 632.647 357.944, 633.873 357.944 Q 634.711 357.944, 635.661 358.343 L 635.426 359.129 Q 634.558 358.772, 633.904 358.772 Q 633.199 358.772, 632.811 359.068 Q 632.422 359.354, 632.433 359.855 Q 632.433 360.243, 632.627 360.478 Q 632.831 360.713, 633.117 360.846 Q 633.414 360.979, 633.904 361.132 Q 634.558 361.336, 634.946 361.54 Q 635.334 361.745, 635.61 362.164 Q 635.896 362.572, 635.896 363.277 Q 635.896 364.279, 635.222 364.82 Q 634.558 365.351, 633.444 365.351 Q 632.801 365.351, 632.31 365.208 Q 631.83 365.076, 631.258 364.841 L 631.534 364.033 " fill="#CCCC00"/>
<path class="atom-0" d="M 636.765 357.924 L 637.745 357.924 L 637.745 360.999 L 641.444 360.999 L 641.444 357.924 L 642.425 357.924 L 642.425 365.157 L 641.444 365.157 L 641.444 361.816 L 637.745 361.816 L 637.745 365.157 L 636.765 365.157 L 636.765 357.924 " fill="#CCCC00"/>
<path class="atom-1" d="M 604.714 361.561 Q 604.714 359.824, 605.572 358.853 Q 606.431 357.883, 608.035 357.883 Q 609.639 357.883, 610.497 358.853 Q 611.355 359.824, 611.355 361.561 Q 611.355 363.318, 610.487 364.319 Q 609.618 365.311, 608.035 365.311 Q 606.441 365.311, 605.572 364.319 Q 604.714 363.328, 604.714 361.561 M 608.035 364.493 Q 609.138 364.493, 609.731 363.758 Q 610.333 363.012, 610.333 361.561 Q 610.333 360.141, 609.731 359.426 Q 609.138 358.7, 608.035 358.7 Q 606.931 358.7, 606.328 359.415 Q 605.736 360.131, 605.736 361.561 Q 605.736 363.022, 606.328 363.758 Q 606.931 364.493, 608.035 364.493 " fill="#FF0000"/>
<path class="atom-1" d="M 611.692 359.063 L 614.167 359.063 L 614.167 359.603 L 611.692 359.603 L 611.692 359.063 " fill="#FF0000"/>
<path class="bond-0 atom-0 atom-1" d="M 81.192,703.432 L 77.8397,693.454" style="fill:none;fill-rule:evenodd;stroke:#0000FF;stroke-width:2.0px;stroke-linecap:butt;stroke-linejoin:miter;stroke-opacity:1"/>
<path class="bond-0 atom-0 atom-1" d="M 77.8397,693.454 L 74.4875,683.475" style="fill:none;fill-rule:evenodd;stroke:#000000;stroke-width:2.0px;stroke-linecap:butt;stroke-linejoin:miter;stroke-opacity:1"/>
<path class="bond-1 atom-1 atom-2" d="M 74.4875,683.475 L 91.3891,664.325" style="fill:none;fill-rule:evenodd;stroke:#000000;stroke-width:2.0px;stroke-linecap:butt;stroke-linejoin:miter;stroke-opacity:1"/>
<path class="bond-2 atom-2 atom-3" d="M 91.3891,664.325 L 83.255,640.112" style="fill:none;fill-rule:evenodd;stroke:#000000;stroke-width:2.0px;stroke-linecap:butt;stroke-linejoin:miter;stroke-opacity:1"/>
<path class="bond-2 atom-2 atom-3" d="M 85.3265,662.319 L 79.6326,645.371" style="fill:none;fill-rule:evenodd;stroke:#000000;stroke-width:2.0px;stroke-linecap:butt;stroke-linejoin:miter;stroke-opacity:1"/>
<path class="bond-3 atom-3 atom-4" d="M 83.255,640.112 L 98.0623,619.3" style="fill:none;fill-rule:evenodd;stroke:#000000;stroke-width:2.0px;stroke-linecap:butt;stroke-linejoin:miter;stroke-opacity:1"/>
<path class="bond-25 atom-23 atom-3" d="M 58.8856,632.461 L 83.255,640.112" style="fill:none;fill-rule:evenodd;stroke:#000000;stroke-width:2.0px;stroke-linecap:butt;stroke-linejoin:miter;stroke-opacity:1"/>
<path class="bond-4 atom-4 atom-5" d="M 98.0623,619.3 L 82.8442,598.786" style="fill:none;fill-rule:evenodd;stroke:#000000;stroke-width:2.0px;stroke-linecap:butt;stroke-linejoin:miter;stroke-opacity:1"/>
<path class="bond-4 atom-4 atom-5" d="M 91.6768,619.266 L 81.0242,604.906" style="fill:none;fill-rule:evenodd;stroke:#000000;stroke-width:2.0px;stroke-linecap:butt;stroke-linejoin:miter;stroke-opacity:1"/>
<path class="bond-5 atom-5 atom-6" d="M 82.8442,598.786 L 90.4954,574.416" style="fill:none;fill-rule:evenodd;stroke:#000000;stroke-width:2.0px;stroke-linecap:butt;stroke-linejoin:miter;stroke-opacity:1"/>
<path class="bond-21 atom-5 atom-22" d="M 82.8442,598.786 L 72.4289,602.285" style="fill:none;fill-rule:evenodd;stroke:#000000;stroke-width:2.0px;stroke-linecap:butt;stroke-linejoin:miter;stroke-opacity:1"/>
<path class="bond-21 atom-5 atom-22" d="M 72.4289,602.285 L 62.0135,605.784" style="fill:none;fill-rule:evenodd;stroke:#0000FF;stroke-width:2.0px;stroke-linecap:butt;stroke-linejoin:miter;stroke-opacity:1"/>
<path class="bond-6 atom-6 atom-7" d="M 87.4158,570.309 L 86.6634,571" style="fill:none;fill-rule:evenodd;stroke:#000000;stroke-width:1.0px;stroke-linecap:butt;stroke-linejoin:miter;stroke-opacity:1"/>
<path class="bond-6 atom-6 atom-7" d="M 84.3363,566.201 L 82.8314,567.583" style="fill:none;fill-rule:evenodd;stroke:#000000;stroke-width:1.0px;stroke-linecap:butt;stroke-linejoin:miter;stroke-opacity:1"/>
<path class="bond-6 atom-6 atom-7" d="M 81.2567,562.093 L 78.9994,564.166" style="fill:none;fill-rule:evenodd;stroke:#000000;stroke-width:1.0px;stroke-linecap:butt;stroke-linejoin:miter;stroke-opacity:1"/>
<path class="bond-6 atom-6 atom-7" d="M 78.1771,557.985 L 75.1674,560.75" style="fill:none;fill-rule:evenodd;stroke:#000000;stroke-width:1.0px;stroke-linecap:butt;stroke-linejoin:miter;stroke-opacity:1"/>
<path class="bond-6 atom-6 atom-7" d="M 75.0975,553.878 L 71.3354,557.333" style="fill:none;fill-rule:evenodd;stroke:#000000;stroke-width:1.0px;stroke-linecap:butt;stroke-linejoin:miter;stroke-opacity:1"/>
<path class="bond-9 atom-6 atom-10" d="M 90.4954,574.416 L 101.482,571.967" style="fill:none;fill-rule:evenodd;stroke:#000000;stroke-width:2.0px;stroke-linecap:butt;stroke-linejoin:miter;stroke-opacity:1"/>
<path class="bond-9 atom-6 atom-10" d="M 101.482,571.967 L 112.468,569.517" style="fill:none;fill-rule:evenodd;stroke:#CCCC00;stroke-width:2.0px;stroke-linecap:butt;stroke-linejoin:miter;stroke-opacity:1"/>
<path class="bond-7 atom-7 atom-8" d="M 73.2164,555.605 L 48.2863,561.164" style="fill:none;fill-rule:evenodd;stroke:#000000;stroke-width:2.0px;stroke-linecap:butt;stroke-linejoin:miter;stroke-opacity:1"/>
<path class="bond-8 atom-8 atom-9" d="M 48.2863,561.164 L 41.6264,553.914" style="fill:none;fill-rule:evenodd;stroke:#000000;stroke-width:2.0px;stroke-linecap:butt;stroke-linejoin:miter;stroke-opacity:1"/>
<path class="bond-8 atom-8 atom-9" d="M 41.6264,553.914 L 34.9664,546.663" style="fill:none;fill-rule:evenodd;stroke:#FF0000;stroke-width:2.0px;stroke-linecap:butt;stroke-linejoin:miter;stroke-opacity:1"/>
<path class="bond-10 atom-10 atom-11" d="M 118.383,572.078 L 125.544,579.873" style="fill:none;fill-rule:evenodd;stroke:#CCCC00;stroke-width:2.0px;stroke-linecap:butt;stroke-linejoin:miter;stroke-opacity:1"/>
<path class="bond-10 atom-10 atom-11" d="M 125.544,579.873 L 132.705,587.668" style="fill:none;fill-rule:evenodd;stroke:#000000;stroke-width:2.0px;stroke-linecap:butt;stroke-linejoin:miter;stroke-opacity:1"/>
<path class="bond-11 atom-11 atom-12" d="M 132.705,587.668 L 157.635,582.11" style="fill:none;fill-rule:evenodd;stroke:#000000;stroke-width:2.0px;stroke-linecap:butt;stroke-linejoin:miter;stroke-opacity:1"/>
<path class="bond-12 atom-12 atom-13" d="M 160.072,582.875 L 163.205,572.895" style="fill:none;fill-rule:evenodd;stroke:#000000;stroke-width:2.0px;stroke-linecap:butt;stroke-linejoin:miter;stroke-opacity:1"/>
<path class="bond-12 atom-12 atom-13" d="M 163.205,572.895 L 166.339,562.914" style="fill:none;fill-rule:evenodd;stroke:#FF0000;stroke-width:2.0px;stroke-linecap:butt;stroke-linejoin:miter;stroke-opacity:1"/>
<path class="bond-12 atom-12 atom-13" d="M 155.198,581.345 L 158.331,571.364" style="fill:none;fill-rule:evenodd;stroke:#000000;stroke-width:2.0px;stroke-linecap:butt;stroke-linejoin:miter;stroke-opacity:1"/>
<path class="bond-12 atom-12 atom-13" d="M 158.331,571.364 L 161.465,561.384" style="fill:none;fill-rule:evenodd;stroke:#FF0000;stroke-width:2.0px;stroke-linecap:butt;stroke-linejoin:miter;stroke-opacity:1"/>
<path class="bond-13 atom-12 atom-14" d="M 157.635,582.11 L 164.583,589.674" style="fill:none;fill-rule:evenodd;stroke:#000000;stroke-width:2.0px;stroke-linecap:butt;stroke-linejoin:miter;stroke-opacity:1"/>
<path class="bond-13 atom-12 atom-14" d="M 164.583,589.674 L 171.532,597.239" style="fill:none;fill-rule:evenodd;stroke:#0000FF;stroke-width:2.0px;stroke-linecap:butt;stroke-linejoin:miter;stroke-opacity:1"/>
<path class="bond-14 atom-14 atom-15" d="M 173.578,605.176 L 170.42,615.233" style="fill:none;fill-rule:evenodd;stroke:#0000FF;stroke-width:2.0px;stroke-linecap:butt;stroke-linejoin:miter;stroke-opacity:1"/>
<path class="bond-14 atom-14 atom-15" d="M 170.42,615.233 L 167.262,625.29" style="fill:none;fill-rule:evenodd;stroke:#000000;stroke-width:2.0px;stroke-linecap:butt;stroke-linejoin:miter;stroke-opacity:1"/>
<path class="bond-24 atom-20 atom-14" d="M 199.844,595.362 L 189.07,597.764" style="fill:none;fill-rule:evenodd;stroke:#000000;stroke-width:2.0px;stroke-linecap:butt;stroke-linejoin:miter;stroke-opacity:1"/>
<path class="bond-24 atom-20 atom-14" d="M 189.07,597.764 L 178.295,600.167" style="fill:none;fill-rule:evenodd;stroke:#0000FF;stroke-width:2.0px;stroke-linecap:butt;stroke-linejoin:miter;stroke-opacity:1"/>
<path class="bond-15 atom-15 atom-16" d="M 167.262,625.29 L 184.541,644.101" style="fill:none;fill-rule:evenodd;stroke:#000000;stroke-width:2.0px;stroke-linecap:butt;stroke-linejoin:miter;stroke-opacity:1"/>
<path class="bond-16 atom-16 atom-17" d="M 182.524,648.822 L 183.499,649.128" style="fill:none;fill-rule:evenodd;stroke:#000000;stroke-width:1.0px;stroke-linecap:butt;stroke-linejoin:miter;stroke-opacity:1"/>
<path class="bond-16 atom-16 atom-17" d="M 180.506,653.543 L 182.456,654.155" style="fill:none;fill-rule:evenodd;stroke:#000000;stroke-width:1.0px;stroke-linecap:butt;stroke-linejoin:miter;stroke-opacity:1"/>
<path class="bond-16 atom-16 atom-17" d="M 178.489,658.264 L 181.413,659.182" style="fill:none;fill-rule:evenodd;stroke:#000000;stroke-width:1.0px;stroke-linecap:butt;stroke-linejoin:miter;stroke-opacity:1"/>
<path class="bond-16 atom-16 atom-17" d="M 176.471,662.984 L 180.37,664.209" style="fill:none;fill-rule:evenodd;stroke:#000000;stroke-width:1.0px;stroke-linecap:butt;stroke-linejoin:miter;stroke-opacity:1"/>
<path class="bond-16 atom-16 atom-17" d="M 174.453,667.705 L 179.327,669.236" style="fill:none;fill-rule:evenodd;stroke:#000000;stroke-width:1.0px;stroke-linecap:butt;stroke-linejoin:miter;stroke-opacity:1"/>
<path class="bond-17 atom-16 atom-18" d="M 184.541,644.101 L 195.027,641.763" style="fill:none;fill-rule:evenodd;stroke:#000000;stroke-width:2.0px;stroke-linecap:butt;stroke-linejoin:miter;stroke-opacity:1"/>
<path class="bond-17 atom-16 atom-18" d="M 195.027,641.763 L 205.513,639.425" style="fill:none;fill-rule:evenodd;stroke:#FF0000;stroke-width:2.0px;stroke-linecap:butt;stroke-linejoin:miter;stroke-opacity:1"/>
<path class="bond-18 atom-18 atom-19" d="M 210.82,634.246 L 213.972,624.21" style="fill:none;fill-rule:evenodd;stroke:#FF0000;stroke-width:2.0px;stroke-linecap:butt;stroke-linejoin:miter;stroke-opacity:1"/>
<path class="bond-18 atom-18 atom-19" d="M 213.972,624.21 L 217.123,614.173" style="fill:none;fill-rule:evenodd;stroke:#000000;stroke-width:2.0px;stroke-linecap:butt;stroke-linejoin:miter;stroke-opacity:1"/>
<path class="bond-19 atom-19 atom-20" d="M 217.123,614.173 L 199.844,595.362" style="fill:none;fill-rule:evenodd;stroke:#000000;stroke-width:2.0px;stroke-linecap:butt;stroke-linejoin:miter;stroke-opacity:1"/>
<path class="bond-20 atom-20 atom-21" d="M 199.844,595.362 L 203.001,585.305" style="fill:none;fill-rule:evenodd;stroke:#000000;stroke-width:2.0px;stroke-linecap:butt;stroke-linejoin:miter;stroke-opacity:1"/>
<path class="bond-20 atom-20 atom-21" d="M 203.001,585.305 L 206.159,575.248" style="fill:none;fill-rule:evenodd;stroke:#0000FF;stroke-width:2.0px;stroke-linecap:butt;stroke-linejoin:miter;stroke-opacity:1"/>
<path class="bond-22 atom-22 atom-23" d="M 58.674,611.175 L 58.7798,621.818" style="fill:none;fill-rule:evenodd;stroke:#0000FF;stroke-width:2.0px;stroke-linecap:butt;stroke-linejoin:miter;stroke-opacity:1"/>
<path class="bond-22 atom-22 atom-23" d="M 58.7798,621.818 L 58.8856,632.461" style="fill:none;fill-rule:evenodd;stroke:#000000;stroke-width:2.0px;stroke-linecap:butt;stroke-linejoin:miter;stroke-opacity:1"/>
<path class="bond-23 atom-23 atom-24" d="M 57.3638,630.409 L 49.0863,636.55" style="fill:none;fill-rule:evenodd;stroke:#000000;stroke-width:2.0px;stroke-linecap:butt;stroke-linejoin:miter;stroke-opacity:1"/>
<path class="bond-23 atom-23 atom-24" d="M 49.0863,636.55 L 40.8089,642.69" style="fill:none;fill-rule:evenodd;stroke:#FF0000;stroke-width:2.0px;stroke-linecap:butt;stroke-linejoin:miter;stroke-opacity:1"/>
<path class="bond-23 atom-23 atom-24" d="M 60.4074,634.512 L 52.13,640.653" style="fill:none;fill-rule:evenodd;stroke:#000000;stroke-width:2.0px;stroke-linecap:butt;stroke-linejoin:miter;stroke-opacity:1"/>
<path class="bond-23 atom-23 atom-24" d="M 52.13,640.653 L 43.8525,646.793" style="fill:none;fill-rule:evenodd;stroke:#FF0000;stroke-width:2.0px;stroke-linecap:butt;stroke-linejoin:miter;stroke-opacity:1"/>
<path class="atom-0" d="M 81.0226 704.071 L 83.3929 707.902 Q 83.6279 708.28, 84.0059 708.965 Q 84.384 709.649, 84.4044 709.69 L 84.4044 704.071 L 85.3648 704.071 L 85.3648 711.304 L 84.3737 711.304 L 81.8297 707.116 Q 81.5334 706.625, 81.2167 706.063 Q 80.9102 705.501, 80.8182 705.328 L 80.8182 711.304 L 79.8783 711.304 L 79.8783 704.071 L 81.0226 704.071 " fill="#0000FF"/>
<path class="atom-0" d="M 86.2332 704.071 L 87.214 704.071 L 87.214 707.146 L 90.9126 707.146 L 90.9126 704.071 L 91.8934 704.071 L 91.8934 711.304 L 90.9126 711.304 L 90.9126 707.964 L 87.214 707.964 L 87.214 711.304 L 86.2332 711.304 L 86.2332 704.071 " fill="#0000FF"/>
<path class="atom-0" d="M 92.2306 705.267 L 94.7053 705.267 L 94.7053 705.806 L 92.2306 705.806 L 92.2306 705.267 " fill="#0000FF"/>
<path class="atom-9" d="M 21.5158 538.777 L 22.4966 538.777 L 22.4966 541.853 L 26.1952 541.853 L 26.1952 538.777 L 27.176 538.777 L 27.176 546.011 L 26.1952 546.011 L 26.1952 542.67 L 22.4966 542.67 L 22.4966 546.011 L 21.5158 546.011 L 21.5158 538.777 " fill="#FF0000"/>
<path class="atom-9" d="M 27.6868 542.374 Q 27.6868 540.637, 28.5451 539.666 Q 29.4033 538.696, 31.0073 538.696 Q 32.6114 538.696, 33.4696 539.666 Q 34.3278 540.637, 34.3278 542.374 Q 34.3278 544.131, 33.4594 545.132 Q 32.591 546.123, 31.0073 546.123 Q 29.4135 546.123, 28.5451 545.132 Q 27.6868 544.141, 27.6868 542.374 M 31.0073 545.306 Q 32.1108 545.306, 32.7033 544.57 Q 33.3061 543.824, 33.3061 542.374 Q 33.3061 540.953, 32.7033 540.238 Q 32.1108 539.513, 31.0073 539.513 Q 29.9039 539.513, 29.3011 540.228 Q 28.7085 540.943, 28.7085 542.374 Q 28.7085 543.835, 29.3011 544.57 Q 29.9039 545.306, 31.0073 545.306 " fill="#FF0000"/>
<path class="atom-10" d="M 113.382 571.34 Q 113.464 571.371, 113.801 571.514 Q 114.138 571.657, 114.506 571.749 Q 114.884 571.831, 115.252 571.831 Q 115.936 571.831, 116.335 571.504 Q 116.733 571.167, 116.733 570.584 Q 116.733 570.186, 116.529 569.941 Q 116.335 569.695, 116.028 569.563 Q 115.722 569.43, 115.211 569.277 Q 114.567 569.082, 114.179 568.899 Q 113.801 568.715, 113.525 568.326 Q 113.26 567.938, 113.26 567.284 Q 113.26 566.375, 113.873 565.813 Q 114.496 565.251, 115.722 565.251 Q 116.56 565.251, 117.51 565.65 L 117.275 566.436 Q 116.406 566.079, 115.753 566.079 Q 115.048 566.079, 114.659 566.375 Q 114.271 566.661, 114.281 567.162 Q 114.281 567.55, 114.475 567.785 Q 114.68 568.02, 114.966 568.153 Q 115.262 568.285, 115.753 568.439 Q 116.406 568.643, 116.795 568.847 Q 117.183 569.052, 117.459 569.471 Q 117.745 569.879, 117.745 570.584 Q 117.745 571.586, 117.07 572.127 Q 116.406 572.658, 115.293 572.658 Q 114.649 572.658, 114.159 572.515 Q 113.678 572.382, 113.106 572.147 L 113.382 571.34 " fill="#CCCC00"/>
<path class="atom-13" d="M 161.965 557.761 Q 161.965 556.024, 162.824 555.053 Q 163.682 554.083, 165.286 554.083 Q 166.89 554.083, 167.748 555.053 Q 168.606 556.024, 168.606 557.761 Q 168.606 559.518, 167.738 560.519 Q 166.869 561.51, 165.286 561.51 Q 163.692 561.51, 162.824 560.519 Q 161.965 559.528, 161.965 557.761 M 165.286 560.693 Q 166.389 560.693, 166.982 559.957 Q 167.585 559.212, 167.585 557.761 Q 167.585 556.341, 166.982 555.626 Q 166.389 554.9, 165.286 554.9 Q 164.182 554.9, 163.58 555.615 Q 162.987 556.33, 162.987 557.761 Q 162.987 559.222, 163.58 559.957 Q 164.182 560.693, 165.286 560.693 " fill="#FF0000"/>
<path class="atom-14" d="M 173.315 597.304 L 175.685 601.135 Q 175.92 601.513, 176.298 602.198 Q 176.676 602.882, 176.696 602.923 L 176.696 597.304 L 177.657 597.304 L 177.657 604.537 L 176.666 604.537 L 174.122 600.349 Q 173.826 599.858, 173.509 599.296 Q 173.202 598.734, 173.11 598.561 L 173.11 604.537 L 172.17 604.537 L 172.17 597.304 L 173.315 597.304 " fill="#0000FF"/>
<path class="atom-18" d="M 206.151 638.563 Q 206.151 636.826, 207.009 635.855 Q 207.868 634.885, 209.472 634.885 Q 211.076 634.885, 211.934 635.855 Q 212.792 636.826, 212.792 638.563 Q 212.792 640.32, 211.924 641.321 Q 211.055 642.312, 209.472 642.312 Q 207.878 642.312, 207.009 641.321 Q 206.151 640.33, 206.151 638.563 M 209.472 641.495 Q 210.575 641.495, 211.168 640.759 Q 211.77 640.014, 211.77 638.563 Q 211.77 637.143, 211.168 636.427 Q 210.575 635.702, 209.472 635.702 Q 208.368 635.702, 207.765 636.417 Q 207.173 637.132, 207.173 638.563 Q 207.173 640.024, 207.765 640.759 Q 208.368 641.495, 209.472 641.495 " fill="#FF0000"/>
<path class="atom-21" d="M 205.896 567.376 L 208.266 571.207 Q 208.501 571.585, 208.879 572.27 Q 209.257 572.954, 209.278 572.995 L 209.278 567.376 L 210.238 567.376 L 210.238 574.609 L 209.247 574.609 L 206.703 570.42 Q 206.407 569.93, 206.09 569.368 Q 205.784 568.806, 205.692 568.633 L 205.692 574.609 L 204.752 574.609 L 204.752 567.376 L 205.896 567.376 " fill="#0000FF"/>
<path class="atom-21" d="M 211.107 567.376 L 212.087 567.376 L 212.087 570.451 L 215.786 570.451 L 215.786 567.376 L 216.767 567.376 L 216.767 574.609 L 215.786 574.609 L 215.786 571.268 L 212.087 571.268 L 212.087 574.609 L 211.107 574.609 L 211.107 567.376 " fill="#0000FF"/>
<path class="atom-21" d="M 217.117 574.356 Q 217.293 573.904, 217.711 573.654 Q 218.129 573.398, 218.709 573.398 Q 219.43 573.398, 219.835 573.789 Q 220.24 574.18, 220.24 574.875 Q 220.24 575.583, 219.714 576.244 Q 219.194 576.905, 218.115 577.687 L 220.32 577.687 L 220.32 578.226 L 217.104 578.226 L 217.104 577.774 Q 217.994 577.141, 218.52 576.669 Q 219.053 576.197, 219.309 575.772 Q 219.565 575.347, 219.565 574.909 Q 219.565 574.45, 219.336 574.194 Q 219.107 573.938, 218.709 573.938 Q 218.324 573.938, 218.068 574.093 Q 217.812 574.248, 217.63 574.592 L 217.117 574.356 " fill="#0000FF"/>
<path class="atom-22" d="M 49.3803 603.303 L 50.3611 603.303 L 50.3611 606.378 L 54.0596 606.378 L 54.0596 603.303 L 55.0405 603.303 L 55.0405 610.537 L 54.0596 610.537 L 54.0596 607.196 L 50.3611 607.196 L 50.3611 610.537 L 49.3803 610.537 L 49.3803 603.303 " fill="#0000FF"/>
<path class="atom-22" d="M 57.0328 603.303 L 59.4031 607.134 Q 59.6381 607.512, 60.0161 608.197 Q 60.3941 608.881, 60.4146 608.922 L 60.4146 603.303 L 61.375 603.303 L 61.375 610.537 L 60.3839 610.537 L 57.8399 606.348 Q 57.5436 605.857, 57.2269 605.295 Q 56.9204 604.733, 56.8284 604.56 L 56.8284 610.537 L 55.8885 610.537 L 55.8885 603.303 L 57.0328 603.303 " fill="#0000FF"/>
<path class="atom-24" d="M 35.0512 647.699 Q 35.0512 645.962, 35.9094 644.992 Q 36.7676 644.021, 38.3717 644.021 Q 39.9757 644.021, 40.8339 644.992 Q 41.6922 645.962, 41.6922 647.699 Q 41.6922 649.457, 40.8237 650.458 Q 39.9553 651.449, 38.3717 651.449 Q 36.7778 651.449, 35.9094 650.458 Q 35.0512 649.467, 35.0512 647.699 M 38.3717 650.632 Q 39.4751 650.632, 40.0677 649.896 Q 40.6705 649.15, 40.6705 647.699 Q 40.6705 646.279, 40.0677 645.564 Q 39.4751 644.839, 38.3717 644.839 Q 37.2682 644.839, 36.6654 645.554 Q 36.0728 646.269, 36.0728 647.699 Q 36.0728 649.16, 36.6654 649.896 Q 37.2682 650.632, 38.3717 650.632 " fill="#FF0000"/>
<path class="bond-0 atom-0 atom-1" d="M 290.099,643.193 L 291.086,632.605" style="fill:none;fill-rule:evenodd;stroke:#0000FF;stroke-width:2.0px;stroke-linecap:butt;stroke-linejoin:miter;stroke-opacity:1"/>
<path class="bond-0 atom-0 atom-1" d="M 291.086,632.605 L 292.073,622.017" style="fill:none;fill-rule:evenodd;stroke:#000000;stroke-width:2.0px;stroke-linecap:butt;stroke-linejoin:miter;stroke-opacity:1"/>
<path class="bond-1 atom-1 atom-2" d="M 288.2,618.646 L 287.609,619.48" style="fill:none;fill-rule:evenodd;stroke:#000000;stroke-width:1.0px;stroke-linecap:butt;stroke-linejoin:miter;stroke-opacity:1"/>
<path class="bond-1 atom-1 atom-2" d="M 284.328,615.276 L 283.146,616.943" style="fill:none;fill-rule:evenodd;stroke:#000000;stroke-width:1.0px;stroke-linecap:butt;stroke-linejoin:miter;stroke-opacity:1"/>
<path class="bond-1 atom-1 atom-2" d="M 280.455,611.905 L 278.683,614.406" style="fill:none;fill-rule:evenodd;stroke:#000000;stroke-width:1.0px;stroke-linecap:butt;stroke-linejoin:miter;stroke-opacity:1"/>
<path class="bond-1 atom-1 atom-2" d="M 276.583,608.534 L 274.22,611.869" style="fill:none;fill-rule:evenodd;stroke:#000000;stroke-width:1.0px;stroke-linecap:butt;stroke-linejoin:miter;stroke-opacity:1"/>
<path class="bond-1 atom-1 atom-2" d="M 272.71,605.164 L 269.756,609.332" style="fill:none;fill-rule:evenodd;stroke:#000000;stroke-width:1.0px;stroke-linecap:butt;stroke-linejoin:miter;stroke-opacity:1"/>
<path class="bond-2 atom-1 atom-3" d="M 292.073,622.017 L 301.987,617.462" style="fill:none;fill-rule:evenodd;stroke:#000000;stroke-width:2.0px;stroke-linecap:butt;stroke-linejoin:miter;stroke-opacity:1"/>
<path class="bond-2 atom-1 atom-3" d="M 301.987,617.462 L 311.901,612.907" style="fill:none;fill-rule:evenodd;stroke:#0000FF;stroke-width:2.0px;stroke-linecap:butt;stroke-linejoin:miter;stroke-opacity:1"/>
<path class="bond-3 atom-3 atom-4" d="M 318.665,613.75 L 327.394,619.936" style="fill:none;fill-rule:evenodd;stroke:#0000FF;stroke-width:2.0px;stroke-linecap:butt;stroke-linejoin:miter;stroke-opacity:1"/>
<path class="bond-3 atom-3 atom-4" d="M 327.394,619.936 L 336.122,626.122" style="fill:none;fill-rule:evenodd;stroke:#000000;stroke-width:2.0px;stroke-linecap:butt;stroke-linejoin:miter;stroke-opacity:1"/>
<path class="bond-15 atom-3 atom-16" d="M 315.679,607.098 L 316.666,596.51" style="fill:none;fill-rule:evenodd;stroke:#0000FF;stroke-width:2.0px;stroke-linecap:butt;stroke-linejoin:miter;stroke-opacity:1"/>
<path class="bond-15 atom-3 atom-16" d="M 316.666,596.51 L 317.653,585.921" style="fill:none;fill-rule:evenodd;stroke:#000000;stroke-width:2.0px;stroke-linecap:butt;stroke-linejoin:miter;stroke-opacity:1"/>
<path class="bond-4 atom-4 atom-5" d="M 336.122,626.122 L 359.332,615.459" style="fill:none;fill-rule:evenodd;stroke:#000000;stroke-width:2.0px;stroke-linecap:butt;stroke-linejoin:miter;stroke-opacity:1"/>
<path class="bond-5 atom-5 atom-6" d="M 361.876,615.696 L 362.855,605.184" style="fill:none;fill-rule:evenodd;stroke:#000000;stroke-width:2.0px;stroke-linecap:butt;stroke-linejoin:miter;stroke-opacity:1"/>
<path class="bond-5 atom-5 atom-6" d="M 362.855,605.184 L 363.835,594.673" style="fill:none;fill-rule:evenodd;stroke:#FF0000;stroke-width:2.0px;stroke-linecap:butt;stroke-linejoin:miter;stroke-opacity:1"/>
<path class="bond-5 atom-5 atom-6" d="M 356.789,615.222 L 357.769,604.71" style="fill:none;fill-rule:evenodd;stroke:#000000;stroke-width:2.0px;stroke-linecap:butt;stroke-linejoin:miter;stroke-opacity:1"/>
<path class="bond-5 atom-5 atom-6" d="M 357.769,604.71 L 358.749,594.199" style="fill:none;fill-rule:evenodd;stroke:#FF0000;stroke-width:2.0px;stroke-linecap:butt;stroke-linejoin:miter;stroke-opacity:1"/>
<path class="bond-6 atom-5 atom-7" d="M 359.332,615.459 L 368.061,621.645" style="fill:none;fill-rule:evenodd;stroke:#000000;stroke-width:2.0px;stroke-linecap:butt;stroke-linejoin:miter;stroke-opacity:1"/>
<path class="bond-6 atom-5 atom-7" d="M 368.061,621.645 L 376.79,627.831" style="fill:none;fill-rule:evenodd;stroke:#0000FF;stroke-width:2.0px;stroke-linecap:butt;stroke-linejoin:miter;stroke-opacity:1"/>
<path class="bond-7 atom-7 atom-8" d="M 383.554,628.674 L 393.468,624.12" style="fill:none;fill-rule:evenodd;stroke:#0000FF;stroke-width:2.0px;stroke-linecap:butt;stroke-linejoin:miter;stroke-opacity:1"/>
<path class="bond-7 atom-7 atom-8" d="M 393.468,624.12 L 403.382,619.565" style="fill:none;fill-rule:evenodd;stroke:#000000;stroke-width:2.0px;stroke-linecap:butt;stroke-linejoin:miter;stroke-opacity:1"/>
<path class="bond-8 atom-8 atom-9" d="M 403.382,619.565 L 405.753,594.133" style="fill:none;fill-rule:evenodd;stroke:#000000;stroke-width:2.0px;stroke-linecap:butt;stroke-linejoin:miter;stroke-opacity:1"/>
<path class="bond-8 atom-8 atom-9" d="M 408.824,616.224 L 410.483,598.422" style="fill:none;fill-rule:evenodd;stroke:#000000;stroke-width:2.0px;stroke-linecap:butt;stroke-linejoin:miter;stroke-opacity:1"/>
<path class="bond-17 atom-14 atom-8" d="M 424.222,634.334 L 403.382,619.565" style="fill:none;fill-rule:evenodd;stroke:#000000;stroke-width:2.0px;stroke-linecap:butt;stroke-linejoin:miter;stroke-opacity:1"/>
<path class="bond-9 atom-9 atom-10" d="M 405.753,594.133 L 428.963,583.47" style="fill:none;fill-rule:evenodd;stroke:#000000;stroke-width:2.0px;stroke-linecap:butt;stroke-linejoin:miter;stroke-opacity:1"/>
<path class="bond-10 atom-10 atom-11" d="M 428.963,583.47 L 449.802,598.238" style="fill:none;fill-rule:evenodd;stroke:#000000;stroke-width:2.0px;stroke-linecap:butt;stroke-linejoin:miter;stroke-opacity:1"/>
<path class="bond-10 atom-10 atom-11" d="M 429.135,589.853 L 443.723,600.191" style="fill:none;fill-rule:evenodd;stroke:#000000;stroke-width:2.0px;stroke-linecap:butt;stroke-linejoin:miter;stroke-opacity:1"/>
<path class="bond-11 atom-11 atom-12" d="M 449.802,598.238 L 460.013,593.548" style="fill:none;fill-rule:evenodd;stroke:#000000;stroke-width:2.0px;stroke-linecap:butt;stroke-linejoin:miter;stroke-opacity:1"/>
<path class="bond-11 atom-11 atom-12" d="M 460.013,593.548 L 470.223,588.857" style="fill:none;fill-rule:evenodd;stroke:#33CCCC;stroke-width:2.0px;stroke-linecap:butt;stroke-linejoin:miter;stroke-opacity:1"/>
<path class="bond-12 atom-11 atom-13" d="M 449.802,598.238 L 447.432,623.671" style="fill:none;fill-rule:evenodd;stroke:#000000;stroke-width:2.0px;stroke-linecap:butt;stroke-linejoin:miter;stroke-opacity:1"/>
<path class="bond-13 atom-13 atom-14" d="M 447.432,623.671 L 424.222,634.334" style="fill:none;fill-rule:evenodd;stroke:#000000;stroke-width:2.0px;stroke-linecap:butt;stroke-linejoin:miter;stroke-opacity:1"/>
<path class="bond-13 atom-13 atom-14" d="M 441.818,620.628 L 425.571,628.092" style="fill:none;fill-rule:evenodd;stroke:#000000;stroke-width:2.0px;stroke-linecap:butt;stroke-linejoin:miter;stroke-opacity:1"/>
<path class="bond-14 atom-14 atom-15" d="M 424.222,634.334 L 423.235,644.922" style="fill:none;fill-rule:evenodd;stroke:#000000;stroke-width:2.0px;stroke-linecap:butt;stroke-linejoin:miter;stroke-opacity:1"/>
<path class="bond-14 atom-14 atom-15" d="M 423.235,644.922 L 422.248,655.51" style="fill:none;fill-rule:evenodd;stroke:#33CCCC;stroke-width:2.0px;stroke-linecap:butt;stroke-linejoin:miter;stroke-opacity:1"/>
<path class="bond-16 atom-16 atom-17" d="M 319.13,583.837 L 310.69,577.856" style="fill:none;fill-rule:evenodd;stroke:#000000;stroke-width:2.0px;stroke-linecap:butt;stroke-linejoin:miter;stroke-opacity:1"/>
<path class="bond-16 atom-16 atom-17" d="M 310.69,577.856 L 302.25,571.874" style="fill:none;fill-rule:evenodd;stroke:#FF0000;stroke-width:2.0px;stroke-linecap:butt;stroke-linejoin:miter;stroke-opacity:1"/>
<path class="bond-16 atom-16 atom-17" d="M 316.176,588.005 L 307.736,582.024" style="fill:none;fill-rule:evenodd;stroke:#000000;stroke-width:2.0px;stroke-linecap:butt;stroke-linejoin:miter;stroke-opacity:1"/>
<path class="bond-16 atom-16 atom-17" d="M 307.736,582.024 L 299.296,576.042" style="fill:none;fill-rule:evenodd;stroke:#FF0000;stroke-width:2.0px;stroke-linecap:butt;stroke-linejoin:miter;stroke-opacity:1"/>
<path class="atom-0" d="M 288.103 643.832 L 290.474 647.663 Q 290.709 648.041, 291.087 648.726 Q 291.465 649.41, 291.485 649.451 L 291.485 643.832 L 292.446 643.832 L 292.446 651.066 L 291.455 651.066 L 288.911 646.877 Q 288.614 646.386, 288.298 645.824 Q 287.991 645.262, 287.899 645.089 L 287.899 651.066 L 286.959 651.066 L 286.959 643.832 L 288.103 643.832 " fill="#0000FF"/>
<path class="atom-0" d="M 293.314 643.832 L 294.295 643.832 L 294.295 646.907 L 297.993 646.907 L 297.993 643.832 L 298.974 643.832 L 298.974 651.066 L 297.993 651.066 L 297.993 647.725 L 294.295 647.725 L 294.295 651.066 L 293.314 651.066 L 293.314 643.832 " fill="#0000FF"/>
<path class="atom-0" d="M 299.311 645.028 L 301.786 645.028 L 301.786 645.567 L 299.311 645.567 L 299.311 645.028 " fill="#0000FF"/>
<path class="atom-3" d="M 313.684 607.737 L 316.054 611.568 Q 316.289 611.946, 316.667 612.631 Q 317.045 613.315, 317.066 613.356 L 317.066 607.737 L 318.026 607.737 L 318.026 614.97 L 317.035 614.97 L 314.491 610.781 Q 314.195 610.291, 313.878 609.729 Q 313.571 609.167, 313.48 608.993 L 313.48 614.97 L 312.54 614.97 L 312.54 607.737 L 313.684 607.737 " fill="#0000FF"/>
<path class="atom-6" d="M 358.382 590.048 Q 358.382 588.311, 359.241 587.34 Q 360.099 586.369, 361.703 586.369 Q 363.307 586.369, 364.165 587.34 Q 365.023 588.311, 365.023 590.048 Q 365.023 591.805, 364.155 592.806 Q 363.287 593.797, 361.703 593.797 Q 360.109 593.797, 359.241 592.806 Q 358.382 591.815, 358.382 590.048 M 361.703 592.98 Q 362.806 592.98, 363.399 592.244 Q 364.002 591.498, 364.002 590.048 Q 364.002 588.627, 363.399 587.912 Q 362.806 587.187, 361.703 587.187 Q 360.599 587.187, 359.997 587.902 Q 359.404 588.617, 359.404 590.048 Q 359.404 591.509, 359.997 592.244 Q 360.599 592.98, 361.703 592.98 " fill="#FF0000"/>
<path class="atom-7" d="M 378.573 626.611 L 380.944 630.443 Q 381.178 630.821, 381.557 631.505 Q 381.935 632.19, 381.955 632.231 L 381.955 626.611 L 382.915 626.611 L 382.915 633.845 L 381.924 633.845 L 379.38 629.656 Q 379.084 629.165, 378.767 628.604 Q 378.461 628.042, 378.369 627.868 L 378.369 633.845 L 377.429 633.845 L 377.429 626.611 L 378.573 626.611 " fill="#0000FF"/>
<path class="atom-7" d="M 377.342 634.568 L 378.323 634.568 L 378.323 637.644 L 382.021 637.644 L 382.021 634.568 L 383.002 634.568 L 383.002 641.802 L 382.021 641.802 L 382.021 638.461 L 378.323 638.461 L 378.323 641.802 L 377.342 641.802 L 377.342 634.568 " fill="#0000FF"/>
<path class="atom-12" d="M 470.862 583.958 L 475.163 583.958 L 475.163 584.786 L 471.832 584.786 L 471.832 586.983 L 474.795 586.983 L 474.795 587.82 L 471.832 587.82 L 471.832 591.192 L 470.862 591.192 L 470.862 583.958 " fill="#33CCCC"/>
<path class="atom-15" d="M 419.701 656.149 L 424.002 656.149 L 424.002 656.977 L 420.671 656.977 L 420.671 659.173 L 423.634 659.173 L 423.634 660.011 L 420.671 660.011 L 420.671 663.383 L 419.701 663.383 L 419.701 656.149 " fill="#33CCCC"/>
<path class="atom-17" d="M 293.493 571.173 Q 293.493 569.436, 294.351 568.465 Q 295.21 567.495, 296.814 567.495 Q 298.418 567.495, 299.276 568.465 Q 300.134 569.436, 300.134 571.173 Q 300.134 572.93, 299.266 573.932 Q 298.397 574.923, 296.814 574.923 Q 295.22 574.923, 294.351 573.932 Q 293.493 572.94, 293.493 571.173 M 296.814 574.105 Q 297.917 574.105, 298.51 573.37 Q 299.112 572.624, 299.112 571.173 Q 299.112 569.753, 298.51 569.038 Q 297.917 568.312, 296.814 568.312 Q 295.71 568.312, 295.107 569.027 Q 294.515 569.743, 294.515 571.173 Q 294.515 572.634, 295.107 573.37 Q 295.71 574.105, 296.814 574.105 " fill="#FF0000"/>
<path class="bond-0 atom-0 atom-1" d="M 608.035,611.54 L 618.826,611.54" style="fill:none;fill-rule:evenodd;stroke:#000000;stroke-width:2.0px;stroke-linecap:butt;stroke-linejoin:miter;stroke-opacity:1"/>
<path class="bond-0 atom-0 atom-1" d="M 618.826,611.54 L 629.618,611.54" style="fill:none;fill-rule:evenodd;stroke:#FF0000;stroke-width:2.0px;stroke-linecap:butt;stroke-linejoin:miter;stroke-opacity:1"/>
<path class="atom-1" d="M 630.256 611.561 Q 630.256 609.824, 631.115 608.853 Q 631.973 607.883, 633.577 607.883 Q 635.181 607.883, 636.039 608.853 Q 636.897 609.824, 636.897 611.561 Q 636.897 613.318, 636.029 614.319 Q 635.161 615.311, 633.577 615.311 Q 631.983 615.311, 631.115 614.319 Q 630.256 613.328, 630.256 611.561 M 633.577 614.493 Q 634.68 614.493, 635.273 613.758 Q 635.876 613.012, 635.876 611.561 Q 635.876 610.141, 635.273 609.426 Q 634.68 608.7, 633.577 608.7 Q 632.474 608.7, 631.871 609.415 Q 631.278 610.131, 631.278 611.561 Q 631.278 613.022, 631.871 613.758 Q 632.474 614.493, 633.577 614.493 " fill="#FF0000"/>
<path class="atom-1" d="M 637.235 609.063 L 639.709 609.063 L 639.709 609.603 L 637.235 609.603 L 637.235 609.063 " fill="#FF0000"/>
<path d="M 605.48,611.54 L 605.479,611.497 L 605.473,611.453 L 605.463,611.41 L 605.45,611.368 L 605.434,611.327 L 605.414,611.288 L 605.39,611.251 L 605.364,611.216 L 605.335,611.183 L 605.303,611.153 L 605.268,611.126 L 605.231,611.102 L 605.193,611.081 L 605.152,611.063 L 605.111,611.049 L 605.068,611.039 L 605.024,611.033 L 604.981,611.03 L 604.937,611.031 L 604.893,611.035 L 604.85,611.044 L 604.808,611.056 L 604.767,611.072 L 604.727,611.091 L 604.689,611.113 L 604.654,611.139 L 604.62,611.168 L 604.589,611.199 L 604.562,611.233 L 604.537,611.269 L 604.515,611.308 L 604.497,611.348 L 604.482,611.389 L 604.471,611.431 L 604.463,611.475 L 604.459,611.518 L 604.459,611.562 L 604.463,611.606 L 604.471,611.65 L 604.482,611.692 L 604.497,611.733 L 604.515,611.773 L 604.537,611.812 L 604.562,611.848 L 604.589,611.882 L 604.62,611.913 L 604.654,611.942 L 604.689,611.967 L 604.727,611.99 L 604.767,612.009 L 604.808,612.025 L 604.85,612.037 L 604.893,612.046 L 604.937,612.05 L 604.981,612.051 L 605.024,612.048 L 605.068,612.042 L 605.111,612.031 L 605.152,612.018 L 605.193,612 L 605.231,611.979 L 605.268,611.955 L 605.303,611.928 L 605.335,611.898 L 605.364,611.865 L 605.39,611.83 L 605.414,611.793 L 605.434,611.754 L 605.45,611.713 L 605.463,611.671 L 605.473,611.628 L 605.479,611.584 L 605.48,611.54 L 604.97,611.54 Z" style="fill:#000000;fill-rule:evenodd;fill-opacity:1;stroke:#000000;stroke-width:0.0px;stroke-linecap:butt;stroke-linejoin:miter;stroke-opacity:1;"/>
<path d="M 605.48,613.584 L 605.479,613.54 L 605.473,613.496 L 605.463,613.453 L 605.45,613.411 L 605.434,613.371 L 605.414,613.332 L 605.39,613.294 L 605.364,613.259 L 605.335,613.227 L 605.303,613.196 L 605.268,613.169 L 605.231,613.145 L 605.193,613.124 L 605.152,613.107 L 605.111,613.093 L 605.068,613.083 L 605.024,613.076 L 604.981,613.073 L 604.937,613.074 L 604.893,613.079 L 604.85,613.087 L 604.808,613.099 L 604.767,613.115 L 604.727,613.134 L 604.689,613.157 L 604.654,613.183 L 604.62,613.211 L 604.589,613.243 L 604.562,613.277 L 604.537,613.313 L 604.515,613.351 L 604.497,613.391 L 604.482,613.432 L 604.471,613.475 L 604.463,613.518 L 604.459,613.562 L 604.459,613.606 L 604.463,613.65 L 604.471,613.693 L 604.482,613.735 L 604.497,613.777 L 604.515,613.817 L 604.537,613.855 L 604.562,613.891 L 604.589,613.925 L 604.62,613.957 L 604.654,613.985 L 604.689,614.011 L 604.727,614.033 L 604.767,614.053 L 604.808,614.068 L 604.85,614.08 L 604.893,614.089 L 604.937,614.094 L 604.981,614.095 L 605.024,614.092 L 605.068,614.085 L 605.111,614.075 L 605.152,614.061 L 605.193,614.043 L 605.231,614.023 L 605.268,613.998 L 605.303,613.971 L 605.335,613.941 L 605.364,613.908 L 605.39,613.873 L 605.414,613.836 L 605.434,613.797 L 605.45,613.756 L 605.463,613.714 L 605.473,613.671 L 605.479,613.628 L 605.48,613.584 L 604.97,613.584 Z" style="fill:#000000;fill-rule:evenodd;fill-opacity:1;stroke:#000000;stroke-width:0.0px;stroke-linecap:butt;stroke-linejoin:miter;stroke-opacity:1;"/>
<path d="M 605.48,609.497 L 605.479,609.453 L 605.473,609.41 L 605.463,609.367 L 605.45,609.325 L 605.434,609.284 L 605.414,609.245 L 605.39,609.208 L 605.364,609.172 L 605.335,609.14 L 605.303,609.11 L 605.268,609.083 L 605.231,609.058 L 605.193,609.038 L 605.152,609.02 L 605.111,609.006 L 605.068,608.996 L 605.024,608.989 L 604.981,608.986 L 604.937,608.987 L 604.893,608.992 L 604.85,609 L 604.808,609.013 L 604.767,609.028 L 604.727,609.048 L 604.689,609.07 L 604.654,609.096 L 604.62,609.124 L 604.589,609.156 L 604.562,609.19 L 604.537,609.226 L 604.515,609.264 L 604.497,609.304 L 604.482,609.346 L 604.471,609.388 L 604.463,609.431 L 604.459,609.475 L 604.459,609.519 L 604.463,609.563 L 604.471,609.606 L 604.482,609.649 L 604.497,609.69 L 604.515,609.73 L 604.537,609.768 L 604.562,609.804 L 604.589,609.838 L 604.62,609.87 L 604.654,609.898 L 604.689,609.924 L 604.727,609.947 L 604.767,609.966 L 604.808,609.982 L 604.85,609.994 L 604.893,610.002 L 604.937,610.007 L 604.981,610.008 L 605.024,610.005 L 605.068,609.998 L 605.111,609.988 L 605.152,609.974 L 605.193,609.957 L 605.231,609.936 L 605.268,609.912 L 605.303,609.884 L 605.335,609.854 L 605.364,609.822 L 605.39,609.787 L 605.414,609.749 L 605.434,609.71 L 605.45,609.67 L 605.463,609.628 L 605.473,609.585 L 605.479,609.541 L 605.48,609.497 L 604.97,609.497 Z" style="fill:#000000;fill-rule:evenodd;fill-opacity:1;stroke:#000000;stroke-width:0.0px;stroke-linecap:butt;stroke-linejoin:miter;stroke-opacity:1;"/>
<path d="M 605.48,611.54 L 605.479,611.497 L 605.473,611.453 L 605.463,611.41 L 605.45,611.368 L 605.434,611.327 L 605.414,611.288 L 605.39,611.251 L 605.364,611.216 L 605.335,611.183 L 605.303,611.153 L 605.268,611.126 L 605.231,611.102 L 605.193,611.081 L 605.152,611.063 L 605.111,611.049 L 605.068,611.039 L 605.024,611.033 L 604.981,611.03 L 604.937,611.031 L 604.893,611.035 L 604.85,611.044 L 604.808,611.056 L 604.767,611.072 L 604.727,611.091 L 604.689,611.113 L 604.654,611.139 L 604.62,611.168 L 604.589,611.199 L 604.562,611.233 L 604.537,611.269 L 604.515,611.308 L 604.497,611.348 L 604.482,611.389 L 604.471,611.431 L 604.463,611.475 L 604.459,611.518 L 604.459,611.562 L 604.463,611.606 L 604.471,611.65 L 604.482,611.692 L 604.497,611.733 L 604.515,611.773 L 604.537,611.812 L 604.562,611.848 L 604.589,611.882 L 604.62,611.913 L 604.654,611.942 L 604.689,611.967 L 604.727,611.99 L 604.767,612.009 L 604.808,612.025 L 604.85,612.037 L 604.893,612.046 L 604.937,612.05 L 604.981,612.051 L 605.024,612.048 L 605.068,612.042 L 605.111,612.031 L 605.152,612.018 L 605.193,612 L 605.231,611.979 L 605.268,611.955 L 605.303,611.928 L 605.335,611.898 L 605.364,611.865 L 605.39,611.83 L 605.414,611.793 L 605.434,611.754 L 605.45,611.713 L 605.463,611.671 L 605.473,611.628 L 605.479,611.584 L 605.48,611.54 L 604.97,611.54 Z" style="fill:#000000;fill-rule:evenodd;fill-opacity:1;stroke:#000000;stroke-width:0.0px;stroke-linecap:butt;stroke-linejoin:miter;stroke-opacity:1;"/>
</svg>