<svg xmlns="http://www.w3.org/2000/svg" xmlns:rdkit="http://www.rdkit.org/xml" xmlns:xlink="http://www.w3.org/1999/xlink" version="1.1" baseProfile="full" xml:space="preserve" width="750px" height="750px" viewBox="0 0 750 750">
<!-- END OF HEADER -->
<rect style="opacity:1.0;fill:#FFFFFF;stroke:none" width="750" height="750" x="0" y="0"> </rect>
<rect style="opacity:1.0;fill:#FFFFFF;stroke:none" width="750" height="750" x="0" y="0"> </rect>
<rect style="opacity:1.0;fill:#FFFFFF;stroke:none" width="750" height="750" x="0" y="0"> </rect>
<rect style="opacity:1.0;fill:#FFFFFF;stroke:none" width="750" height="750" x="0" y="0"> </rect>
<rect style="opacity:1.0;fill:#FFFFFF;stroke:none" width="750" height="750" x="0" y="0"> </rect>
<rect style="opacity:1.0;fill:#FFFFFF;stroke:none" width="750" height="750" x="0" y="0"> </rect>
<rect style="opacity:1.0;fill:#FFFFFF;stroke:none" width="750" height="750" x="0" y="0"> </rect>
<rect style="opacity:1.0;fill:#FFFFFF;stroke:none" width="750" height="750" x="0" y="0"> </rect>
<rect style="opacity:1.0;fill:#FFFFFF;stroke:none" width="750" height="750" x="0" y="0"> </rect>
<rect style="opacity:1.0;fill:#FFFFFF;stroke:none" width="750" height="750" x="0" y="0"> </rect>
<path class="bond-0 atom-0 atom-1" d="M 134.029,114.356 L 139.76,111.047" style="fill:none;fill-rule:evenodd;stroke:#000000;stroke-width:2.0px;stroke-linecap:butt;stroke-linejoin:miter;stroke-opacity:1"/>
<path class="bond-0 atom-0 atom-1" d="M 139.76,111.047 L 145.492,107.738" style="fill:none;fill-rule:evenodd;stroke:#0000FF;stroke-width:2.0px;stroke-linecap:butt;stroke-linejoin:miter;stroke-opacity:1"/>
<path class="bond-0 atom-0 atom-1" d="M 132.466,111.65 L 138.198,108.341" style="fill:none;fill-rule:evenodd;stroke:#000000;stroke-width:2.0px;stroke-linecap:butt;stroke-linejoin:miter;stroke-opacity:1"/>
<path class="bond-0 atom-0 atom-1" d="M 138.198,108.341 L 143.929,105.032" style="fill:none;fill-rule:evenodd;stroke:#0000FF;stroke-width:2.0px;stroke-linecap:butt;stroke-linejoin:miter;stroke-opacity:1"/>
<path class="bond-1 atom-1 atom-2" d="M 148.848,106.385 L 153.756,109.219" style="fill:none;fill-rule:evenodd;stroke:#0000FF;stroke-width:2.0px;stroke-linecap:butt;stroke-linejoin:miter;stroke-opacity:1"/>
<path class="bond-1 atom-1 atom-2" d="M 153.756,109.219 L 158.664,112.052" style="fill:none;fill-rule:evenodd;stroke:#33CCCC;stroke-width:2.0px;stroke-linecap:butt;stroke-linejoin:miter;stroke-opacity:1"/>
<path class="atom-1" d="M 145.801 102.978 L 147.251 105.322 Q 147.395 105.553, 147.626 105.972 Q 147.857 106.391, 147.87 106.416 L 147.87 102.978 L 148.457 102.978 L 148.457 107.403 L 147.851 107.403 L 146.295 104.841 Q 146.113 104.541, 145.92 104.197 Q 145.732 103.853, 145.676 103.747 L 145.676 107.403 L 145.101 107.403 L 145.101 102.978 L 145.801 102.978 " fill="#0000FF"/>
<path class="atom-2" d="M 158.995 110.791 L 161.626 110.791 L 161.626 111.297 L 159.589 111.297 L 159.589 112.641 L 161.401 112.641 L 161.401 113.153 L 159.589 113.153 L 159.589 115.216 L 158.995 115.216 L 158.995 110.791 " fill="#33CCCC"/>
<path class="bond-0 atom-0 atom-1" d="M 451.067,114.461 L 454.762,129.642" style="fill:none;fill-rule:evenodd;stroke:#000000;stroke-width:2.0px;stroke-linecap:butt;stroke-linejoin:miter;stroke-opacity:1"/>
<path class="bond-0 atom-0 atom-1" d="M 448.585,117.477 L 451.172,128.104" style="fill:none;fill-rule:evenodd;stroke:#000000;stroke-width:2.0px;stroke-linecap:butt;stroke-linejoin:miter;stroke-opacity:1"/>
<path class="bond-29 atom-8 atom-0" d="M 436.072,110.07 L 451.067,114.461" style="fill:none;fill-rule:evenodd;stroke:#000000;stroke-width:2.0px;stroke-linecap:butt;stroke-linejoin:miter;stroke-opacity:1"/>
<path class="bond-1 atom-1 atom-2" d="M 454.762,129.642 L 443.462,140.433" style="fill:none;fill-rule:evenodd;stroke:#000000;stroke-width:2.0px;stroke-linecap:butt;stroke-linejoin:miter;stroke-opacity:1"/>
<path class="bond-2 atom-2 atom-3" d="M 443.462,140.433 L 436.999,138.541" style="fill:none;fill-rule:evenodd;stroke:#000000;stroke-width:2.0px;stroke-linecap:butt;stroke-linejoin:miter;stroke-opacity:1"/>
<path class="bond-2 atom-2 atom-3" d="M 436.999,138.541 L 430.536,136.648" style="fill:none;fill-rule:evenodd;stroke:#0000FF;stroke-width:2.0px;stroke-linecap:butt;stroke-linejoin:miter;stroke-opacity:1"/>
<path class="bond-3 atom-3 atom-4" d="M 426.398,137.319 L 420.784,140.784" style="fill:none;fill-rule:evenodd;stroke:#0000FF;stroke-width:2.0px;stroke-linecap:butt;stroke-linejoin:miter;stroke-opacity:1"/>
<path class="bond-3 atom-3 atom-4" d="M 420.784,140.784 L 415.171,144.249" style="fill:none;fill-rule:evenodd;stroke:#000000;stroke-width:2.0px;stroke-linecap:butt;stroke-linejoin:miter;stroke-opacity:1"/>
<path class="bond-28 atom-7 atom-3" d="M 424.772,120.861 L 426.303,127.15" style="fill:none;fill-rule:evenodd;stroke:#000000;stroke-width:2.0px;stroke-linecap:butt;stroke-linejoin:miter;stroke-opacity:1"/>
<path class="bond-28 atom-7 atom-3" d="M 426.303,127.15 L 427.833,133.44" style="fill:none;fill-rule:evenodd;stroke:#0000FF;stroke-width:2.0px;stroke-linecap:butt;stroke-linejoin:miter;stroke-opacity:1"/>
<path class="bond-4 atom-4 atom-5" d="M 415.171,144.249 L 410.425,140.221" style="fill:none;fill-rule:evenodd;stroke:#000000;stroke-width:2.0px;stroke-linecap:butt;stroke-linejoin:miter;stroke-opacity:1"/>
<path class="bond-4 atom-4 atom-5" d="M 410.425,140.221 L 405.679,136.194" style="fill:none;fill-rule:evenodd;stroke:#FF0000;stroke-width:2.0px;stroke-linecap:butt;stroke-linejoin:miter;stroke-opacity:1"/>
<path class="bond-5 atom-5 atom-6" d="M 404.336,131.511 L 406.764,125.598" style="fill:none;fill-rule:evenodd;stroke:#FF0000;stroke-width:2.0px;stroke-linecap:butt;stroke-linejoin:miter;stroke-opacity:1"/>
<path class="bond-5 atom-5 atom-6" d="M 406.764,125.598 L 409.191,119.684" style="fill:none;fill-rule:evenodd;stroke:#000000;stroke-width:2.0px;stroke-linecap:butt;stroke-linejoin:miter;stroke-opacity:1"/>
<path class="bond-6 atom-6 atom-7" d="M 409.191,119.684 L 424.772,120.861" style="fill:none;fill-rule:evenodd;stroke:#000000;stroke-width:2.0px;stroke-linecap:butt;stroke-linejoin:miter;stroke-opacity:1"/>
<path class="bond-7 atom-7 atom-8" d="M 424.772,120.861 L 436.072,110.07" style="fill:none;fill-rule:evenodd;stroke:#000000;stroke-width:2.0px;stroke-linecap:butt;stroke-linejoin:miter;stroke-opacity:1"/>
<path class="bond-11 atom-7 atom-12" d="M 424.772,120.861 L 419.51,106.149" style="fill:none;fill-rule:evenodd;stroke:#000000;stroke-width:2.0px;stroke-linecap:butt;stroke-linejoin:miter;stroke-opacity:1"/>
<path class="bond-8 atom-8 atom-9" d="M 436.072,110.07 L 432.376,94.8886" style="fill:none;fill-rule:evenodd;stroke:#000000;stroke-width:2.0px;stroke-linecap:butt;stroke-linejoin:miter;stroke-opacity:1"/>
<path class="bond-9 atom-9 atom-10" d="M 432.376,94.8886 L 436.815,90.6495" style="fill:none;fill-rule:evenodd;stroke:#000000;stroke-width:2.0px;stroke-linecap:butt;stroke-linejoin:miter;stroke-opacity:1"/>
<path class="bond-9 atom-9 atom-10" d="M 436.815,90.6495 L 441.254,86.4103" style="fill:none;fill-rule:evenodd;stroke:#FF0000;stroke-width:2.0px;stroke-linecap:butt;stroke-linejoin:miter;stroke-opacity:1"/>
<path class="bond-10 atom-10 atom-11" d="M 443.036,81.4694 L 441.508,75.1927" style="fill:none;fill-rule:evenodd;stroke:#FF0000;stroke-width:2.0px;stroke-linecap:butt;stroke-linejoin:miter;stroke-opacity:1"/>
<path class="bond-10 atom-10 atom-11" d="M 441.508,75.1927 L 439.981,68.916" style="fill:none;fill-rule:evenodd;stroke:#000000;stroke-width:2.0px;stroke-linecap:butt;stroke-linejoin:miter;stroke-opacity:1"/>
<path class="bond-12 atom-12 atom-13" d="M 419.51,106.149 L 404.137,103.35" style="fill:none;fill-rule:evenodd;stroke:#000000;stroke-width:2.0px;stroke-linecap:butt;stroke-linejoin:miter;stroke-opacity:1"/>
<path class="bond-13 atom-13 atom-14" d="M 404.137,103.35 L 398.875,88.6381" style="fill:none;fill-rule:evenodd;stroke:#000000;stroke-width:2.0px;stroke-linecap:butt;stroke-linejoin:miter;stroke-opacity:1"/>
<path class="bond-14 atom-14 atom-15" d="M 400.067,89.6491 L 404.087,84.9114" style="fill:none;fill-rule:evenodd;stroke:#000000;stroke-width:2.0px;stroke-linecap:butt;stroke-linejoin:miter;stroke-opacity:1"/>
<path class="bond-14 atom-14 atom-15" d="M 404.087,84.9114 L 408.108,80.1737" style="fill:none;fill-rule:evenodd;stroke:#0000FF;stroke-width:2.0px;stroke-linecap:butt;stroke-linejoin:miter;stroke-opacity:1"/>
<path class="bond-14 atom-14 atom-15" d="M 397.684,87.6271 L 401.705,82.8894" style="fill:none;fill-rule:evenodd;stroke:#000000;stroke-width:2.0px;stroke-linecap:butt;stroke-linejoin:miter;stroke-opacity:1"/>
<path class="bond-14 atom-14 atom-15" d="M 401.705,82.8894 L 405.725,78.1517" style="fill:none;fill-rule:evenodd;stroke:#0000FF;stroke-width:2.0px;stroke-linecap:butt;stroke-linejoin:miter;stroke-opacity:1"/>
<path class="bond-15 atom-14 atom-16" d="M 398.875,88.6381 L 383.503,85.8392" style="fill:none;fill-rule:evenodd;stroke:#000000;stroke-width:2.0px;stroke-linecap:butt;stroke-linejoin:miter;stroke-opacity:1"/>
<path class="bond-16 atom-16 atom-17" d="M 383.503,85.8392 L 374.613,72.9903" style="fill:none;fill-rule:evenodd;stroke:#000000;stroke-width:2.0px;stroke-linecap:butt;stroke-linejoin:miter;stroke-opacity:1"/>
<path class="bond-30 atom-21 atom-16" d="M 370.654,94.7297 L 383.503,85.8392" style="fill:none;fill-rule:evenodd;stroke:#000000;stroke-width:2.0px;stroke-linecap:butt;stroke-linejoin:miter;stroke-opacity:1"/>
<path class="bond-17 atom-17 atom-18" d="M 374.613,72.9903 L 361.764,81.8809" style="fill:none;fill-rule:evenodd;stroke:#000000;stroke-width:2.0px;stroke-linecap:butt;stroke-linejoin:miter;stroke-opacity:1"/>
<path class="bond-17 atom-17 atom-18" d="M 374.464,76.8937 L 365.469,83.1171" style="fill:none;fill-rule:evenodd;stroke:#000000;stroke-width:2.0px;stroke-linecap:butt;stroke-linejoin:miter;stroke-opacity:1"/>
<path class="bond-18 atom-18 atom-19" d="M 361.764,81.8809 L 346.392,79.0819" style="fill:none;fill-rule:evenodd;stroke:#000000;stroke-width:2.0px;stroke-linecap:butt;stroke-linejoin:miter;stroke-opacity:1"/>
<path class="bond-20 atom-18 atom-21" d="M 361.764,81.8809 L 370.654,94.7297" style="fill:none;fill-rule:evenodd;stroke:#000000;stroke-width:2.0px;stroke-linecap:butt;stroke-linejoin:miter;stroke-opacity:1"/>
<path class="bond-19 atom-19 atom-20" d="M 347.863,78.5557 L 342.601,63.8436" style="fill:none;fill-rule:evenodd;stroke:#000000;stroke-width:2.0px;stroke-linecap:butt;stroke-linejoin:miter;stroke-opacity:1"/>
<path class="bond-19 atom-19 atom-20" d="M 344.921,79.6081 L 339.659,64.8961" style="fill:none;fill-rule:evenodd;stroke:#000000;stroke-width:2.0px;stroke-linecap:butt;stroke-linejoin:miter;stroke-opacity:1"/>
<path class="bond-21 atom-21 atom-22" d="M 370.654,94.7297 L 367.856,110.102" style="fill:none;fill-rule:evenodd;stroke:#000000;stroke-width:2.0px;stroke-linecap:butt;stroke-linejoin:miter;stroke-opacity:1"/>
<path class="bond-22 atom-22 atom-23" d="M 367.856,110.102 L 372.778,114.279" style="fill:none;fill-rule:evenodd;stroke:#000000;stroke-width:2.0px;stroke-linecap:butt;stroke-linejoin:miter;stroke-opacity:1"/>
<path class="bond-22 atom-22 atom-23" d="M 372.778,114.279 L 377.7,118.456" style="fill:none;fill-rule:evenodd;stroke:#0000FF;stroke-width:2.0px;stroke-linecap:butt;stroke-linejoin:miter;stroke-opacity:1"/>
<path class="bond-23 atom-22 atom-24" d="M 367.856,110.102 L 353.143,115.364" style="fill:none;fill-rule:evenodd;stroke:#000000;stroke-width:2.0px;stroke-linecap:butt;stroke-linejoin:miter;stroke-opacity:1"/>
<path class="bond-24 atom-24 atom-25" d="M 351.606,115.084 L 349.286,127.828" style="fill:none;fill-rule:evenodd;stroke:#000000;stroke-width:2.0px;stroke-linecap:butt;stroke-linejoin:miter;stroke-opacity:1"/>
<path class="bond-24 atom-24 atom-25" d="M 354.681,115.644 L 352.36,128.388" style="fill:none;fill-rule:evenodd;stroke:#000000;stroke-width:2.0px;stroke-linecap:butt;stroke-linejoin:miter;stroke-opacity:1"/>
<path class="bond-25 atom-25 atom-26" d="M 348.318,133.14 L 346.008,145.828" style="fill:none;fill-rule:evenodd;stroke:#000000;stroke-width:2.0px;stroke-linecap:butt;stroke-linejoin:miter;stroke-opacity:1"/>
<path class="bond-25 atom-25 atom-26" d="M 351.393,133.7 L 349.083,146.388" style="fill:none;fill-rule:evenodd;stroke:#000000;stroke-width:2.0px;stroke-linecap:butt;stroke-linejoin:miter;stroke-opacity:1"/>
<path class="bond-26 atom-26 atom-27" d="M 347.546,146.108 L 352.597,150.395" style="fill:none;fill-rule:evenodd;stroke:#000000;stroke-width:2.0px;stroke-linecap:butt;stroke-linejoin:miter;stroke-opacity:1"/>
<path class="bond-26 atom-26 atom-27" d="M 352.597,150.395 L 357.649,154.683" style="fill:none;fill-rule:evenodd;stroke:#CCCC00;stroke-width:2.0px;stroke-linecap:butt;stroke-linejoin:miter;stroke-opacity:1"/>
<path class="bond-27 atom-27 atom-28" d="M 357.426,158.66 L 356.507,163.706" style="fill:none;fill-rule:evenodd;stroke:#CCCC00;stroke-width:2.0px;stroke-linecap:butt;stroke-linejoin:miter;stroke-opacity:1"/>
<path class="bond-27 atom-27 atom-28" d="M 356.507,163.706 L 355.588,168.751" style="fill:none;fill-rule:evenodd;stroke:#FF0000;stroke-width:2.0px;stroke-linecap:butt;stroke-linejoin:miter;stroke-opacity:1"/>
<path class="bond-27 atom-27 atom-28" d="M 360.5,159.22 L 359.582,164.265" style="fill:none;fill-rule:evenodd;stroke:#CCCC00;stroke-width:2.0px;stroke-linecap:butt;stroke-linejoin:miter;stroke-opacity:1"/>
<path class="bond-27 atom-27 atom-28" d="M 359.582,164.265 L 358.663,169.311" style="fill:none;fill-rule:evenodd;stroke:#FF0000;stroke-width:2.0px;stroke-linecap:butt;stroke-linejoin:miter;stroke-opacity:1"/>
<path class="atom-3" d="M 427.489 133.83 L 428.939 136.174 Q 429.083 136.405, 429.314 136.824 Q 429.545 137.243, 429.558 137.268 L 429.558 133.83 L 430.145 133.83 L 430.145 138.255 L 429.539 138.255 L 427.983 135.693 Q 427.801 135.393, 427.608 135.049 Q 427.42 134.705, 427.364 134.599 L 427.364 138.255 L 426.789 138.255 L 426.789 133.83 L 427.489 133.83 " fill="#0000FF"/>
<path class="atom-5" d="M 401.226 134.151 Q 401.226 133.089, 401.751 132.495 Q 402.276 131.901, 403.257 131.901 Q 404.239 131.901, 404.764 132.495 Q 405.289 133.089, 405.289 134.151 Q 405.289 135.226, 404.757 135.839 Q 404.226 136.445, 403.257 136.445 Q 402.282 136.445, 401.751 135.839 Q 401.226 135.232, 401.226 134.151 M 403.257 135.945 Q 403.932 135.945, 404.295 135.495 Q 404.664 135.039, 404.664 134.151 Q 404.664 133.282, 404.295 132.845 Q 403.932 132.401, 403.257 132.401 Q 402.582 132.401, 402.214 132.839 Q 401.851 133.276, 401.851 134.151 Q 401.851 135.045, 402.214 135.495 Q 402.582 135.945, 403.257 135.945 " fill="#FF0000"/>
<path class="atom-10" d="M 441.645 84.11 Q 441.645 83.0475, 442.17 82.4538 Q 442.695 81.8601, 443.676 81.8601 Q 444.657 81.8601, 445.182 82.4538 Q 445.707 83.0475, 445.707 84.11 Q 445.707 85.185, 445.176 85.7975 Q 444.645 86.4038, 443.676 86.4038 Q 442.701 86.4038, 442.17 85.7975 Q 441.645 85.1913, 441.645 84.11 M 443.676 85.9038 Q 444.351 85.9038, 444.713 85.4538 Q 445.082 84.9975, 445.082 84.11 Q 445.082 83.2413, 444.713 82.8038 Q 444.351 82.3601, 443.676 82.3601 Q 443.001 82.3601, 442.632 82.7976 Q 442.27 83.235, 442.27 84.11 Q 442.27 85.0038, 442.632 85.4538 Q 443.001 85.9038, 443.676 85.9038 " fill="#FF0000"/>
<path class="atom-15" d="M 408.007 74.5125 L 409.457 76.8562 Q 409.601 77.0875, 409.832 77.5062 Q 410.064 77.925, 410.076 77.95 L 410.076 74.5125 L 410.663 74.5125 L 410.663 78.9375 L 410.057 78.9375 L 408.501 76.375 Q 408.32 76.075, 408.126 75.7313 Q 407.939 75.3875, 407.882 75.2813 L 407.882 78.9375 L 407.307 78.9375 L 407.307 74.5125 L 408.007 74.5125 " fill="#0000FF"/>
<path class="atom-15" d="M 411.195 74.5125 L 411.795 74.5125 L 411.795 76.3937 L 414.057 76.3937 L 414.057 74.5125 L 414.657 74.5125 L 414.657 78.9375 L 414.057 78.9375 L 414.057 76.8937 L 411.795 76.8937 L 411.795 78.9375 L 411.195 78.9375 L 411.195 74.5125 " fill="#0000FF"/>
<path class="atom-23" d="M 378.791 117.999 L 380.241 120.343 Q 380.384 120.574, 380.616 120.993 Q 380.847 121.412, 380.859 121.437 L 380.859 117.999 L 381.447 117.999 L 381.447 122.424 L 380.841 122.424 L 379.284 119.862 Q 379.103 119.562, 378.909 119.218 Q 378.722 118.874, 378.666 118.768 L 378.666 122.424 L 378.091 122.424 L 378.091 117.999 L 378.791 117.999 " fill="#0000FF"/>
<path class="atom-23" d="M 381.978 117.999 L 382.578 117.999 L 382.578 119.881 L 384.84 119.881 L 384.84 117.999 L 385.44 117.999 L 385.44 122.424 L 384.84 122.424 L 384.84 120.381 L 382.578 120.381 L 382.578 122.424 L 381.978 122.424 L 381.978 117.999 " fill="#0000FF"/>
<path class="atom-23" d="M 385.655 122.269 Q 385.762 121.993, 386.018 121.84 Q 386.274 121.683, 386.628 121.683 Q 387.07 121.683, 387.317 121.923 Q 387.565 122.162, 387.565 122.587 Q 387.565 123.02, 387.243 123.424 Q 386.925 123.828, 386.265 124.307 L 387.614 124.307 L 387.614 124.637 L 385.647 124.637 L 385.647 124.36 Q 386.191 123.973, 386.513 123.684 Q 386.839 123.395, 386.996 123.135 Q 387.152 122.875, 387.152 122.607 Q 387.152 122.327, 387.012 122.17 Q 386.872 122.013, 386.628 122.013 Q 386.393 122.013, 386.237 122.108 Q 386.08 122.203, 385.968 122.413 L 385.655 122.269 " fill="#0000FF"/>
<path class="atom-25" d="M 348.638 130.755 Q 348.638 129.655, 349.151 129.08 Q 349.669 128.499, 350.651 128.499 Q 351.563 128.499, 352.051 129.142 L 351.638 129.48 Q 351.282 129.011, 350.651 129.011 Q 349.982 129.011, 349.626 129.461 Q 349.276 129.905, 349.276 130.755 Q 349.276 131.63, 349.638 132.08 Q 350.007 132.53, 350.719 132.53 Q 351.207 132.53, 351.776 132.236 L 351.951 132.705 Q 351.719 132.855, 351.369 132.942 Q 351.019 133.03, 350.632 133.03 Q 349.669 133.03, 349.151 132.442 Q 348.638 131.855, 348.638 130.755 " fill="#000000"/>
<path class="atom-27" d="M 358.209 157.743 Q 358.259 157.762, 358.465 157.849 Q 358.671 157.937, 358.896 157.993 Q 359.127 158.043, 359.352 158.043 Q 359.771 158.043, 360.015 157.843 Q 360.259 157.637, 360.259 157.281 Q 360.259 157.037, 360.134 156.887 Q 360.015 156.737, 359.827 156.656 Q 359.64 156.574, 359.327 156.481 Q 358.934 156.362, 358.696 156.249 Q 358.465 156.137, 358.296 155.899 Q 358.134 155.662, 358.134 155.262 Q 358.134 154.706, 358.509 154.362 Q 358.89 154.018, 359.64 154.018 Q 360.152 154.018, 360.734 154.262 L 360.59 154.743 Q 360.059 154.524, 359.659 154.524 Q 359.227 154.524, 358.99 154.706 Q 358.752 154.881, 358.759 155.187 Q 358.759 155.424, 358.877 155.568 Q 359.002 155.712, 359.177 155.793 Q 359.359 155.874, 359.659 155.968 Q 360.059 156.093, 360.296 156.218 Q 360.534 156.343, 360.702 156.599 Q 360.877 156.849, 360.877 157.281 Q 360.877 157.893, 360.465 158.224 Q 360.059 158.549, 359.377 158.549 Q 358.984 158.549, 358.684 158.462 Q 358.39 158.381, 358.04 158.237 L 358.209 157.743 " fill="#CCCC00"/>
<path class="atom-27" d="M 361.409 154.006 L 362.009 154.006 L 362.009 155.887 L 364.271 155.887 L 364.271 154.006 L 364.871 154.006 L 364.871 158.431 L 364.271 158.431 L 364.271 156.387 L 362.009 156.387 L 362.009 158.431 L 361.409 158.431 L 361.409 154.006 " fill="#CCCC00"/>
<path class="atom-28" d="M 354.628 171.603 Q 354.628 170.54, 355.153 169.946 Q 355.678 169.353, 356.66 169.353 Q 357.641 169.353, 358.166 169.946 Q 358.691 170.54, 358.691 171.603 Q 358.691 172.678, 358.16 173.29 Q 357.628 173.896, 356.66 173.896 Q 355.685 173.896, 355.153 173.29 Q 354.628 172.684, 354.628 171.603 M 356.66 173.396 Q 357.335 173.396, 357.697 172.946 Q 358.066 172.49, 358.066 171.603 Q 358.066 170.734, 357.697 170.296 Q 357.335 169.853, 356.66 169.853 Q 355.985 169.853, 355.616 170.29 Q 355.253 170.728, 355.253 171.603 Q 355.253 172.496, 355.616 172.946 Q 355.985 173.396, 356.66 173.396 " fill="#FF0000"/>
<path class="bond-0 atom-0 atom-1" d="M 667.547,120.969 L 669.287,127.129" style="fill:none;fill-rule:evenodd;stroke:#CCCC00;stroke-width:2.0px;stroke-linecap:butt;stroke-linejoin:miter;stroke-opacity:1"/>
<path class="bond-0 atom-0 atom-1" d="M 669.287,127.129 L 671.027,133.29" style="fill:none;fill-rule:evenodd;stroke:#000000;stroke-width:2.0px;stroke-linecap:butt;stroke-linejoin:miter;stroke-opacity:1"/>
<path class="bond-1 atom-0 atom-2" d="M 664.97,115.742 L 662.218,111.922" style="fill:none;fill-rule:evenodd;stroke:#CCCC00;stroke-width:2.0px;stroke-linecap:butt;stroke-linejoin:miter;stroke-opacity:1"/>
<path class="bond-1 atom-0 atom-2" d="M 662.218,111.922 L 659.465,108.103" style="fill:none;fill-rule:evenodd;stroke:#0000FF;stroke-width:2.0px;stroke-linecap:butt;stroke-linejoin:miter;stroke-opacity:1"/>
<path class="bond-6 atom-0 atom-7" d="M 664.97,119.127 L 658.84,122.087" style="fill:none;fill-rule:evenodd;stroke:#CCCC00;stroke-width:2.0px;stroke-linecap:butt;stroke-linejoin:miter;stroke-opacity:1"/>
<path class="bond-6 atom-0 atom-7" d="M 658.84,122.087 L 652.709,125.048" style="fill:none;fill-rule:evenodd;stroke:#000000;stroke-width:2.0px;stroke-linecap:butt;stroke-linejoin:miter;stroke-opacity:1"/>
<path class="bond-13 atom-6 atom-0" d="M 682.325,116.681 L 675.457,117.376" style="fill:none;fill-rule:evenodd;stroke:#000000;stroke-width:2.0px;stroke-linecap:butt;stroke-linejoin:miter;stroke-opacity:1"/>
<path class="bond-13 atom-6 atom-0" d="M 675.457,117.376 L 668.589,118.07" style="fill:none;fill-rule:evenodd;stroke:#CCCC00;stroke-width:2.0px;stroke-linecap:butt;stroke-linejoin:miter;stroke-opacity:1"/>
<path class="bond-2 atom-2 atom-3" d="M 658.816,102.974 L 662.917,93.8596" style="fill:none;fill-rule:evenodd;stroke:#0000FF;stroke-width:2.0px;stroke-linecap:butt;stroke-linejoin:miter;stroke-opacity:1"/>
<path class="bond-3 atom-3 atom-4" d="M 666.125,91.1186 L 672.863,90.4371" style="fill:none;fill-rule:evenodd;stroke:#0000FF;stroke-width:2.0px;stroke-linecap:butt;stroke-linejoin:miter;stroke-opacity:1"/>
<path class="bond-3 atom-3 atom-4" d="M 672.863,90.4371 L 679.602,89.7556" style="fill:none;fill-rule:evenodd;stroke:#000000;stroke-width:2.0px;stroke-linecap:butt;stroke-linejoin:miter;stroke-opacity:1"/>
<path class="bond-3 atom-3 atom-4" d="M 668.461,94.0233 L 673.178,93.5462" style="fill:none;fill-rule:evenodd;stroke:#0000FF;stroke-width:2.0px;stroke-linecap:butt;stroke-linejoin:miter;stroke-opacity:1"/>
<path class="bond-3 atom-3 atom-4" d="M 673.178,93.5462 L 677.895,93.0691" style="fill:none;fill-rule:evenodd;stroke:#000000;stroke-width:2.0px;stroke-linecap:butt;stroke-linejoin:miter;stroke-opacity:1"/>
<path class="bond-4 atom-4 atom-5" d="M 679.602,89.7556 L 688.736,102.432" style="fill:none;fill-rule:evenodd;stroke:#000000;stroke-width:2.0px;stroke-linecap:butt;stroke-linejoin:miter;stroke-opacity:1"/>
<path class="bond-5 atom-5 atom-6" d="M 688.736,102.432 L 682.325,116.681" style="fill:none;fill-rule:evenodd;stroke:#000000;stroke-width:2.0px;stroke-linecap:butt;stroke-linejoin:miter;stroke-opacity:1"/>
<path class="bond-5 atom-5 atom-6" d="M 684.925,103.287 L 680.437,113.262" style="fill:none;fill-rule:evenodd;stroke:#000000;stroke-width:2.0px;stroke-linecap:butt;stroke-linejoin:miter;stroke-opacity:1"/>
<path class="bond-7 atom-7 atom-8" d="M 652.709,125.048 L 647.461,121.478" style="fill:none;fill-rule:evenodd;stroke:#000000;stroke-width:2.0px;stroke-linecap:butt;stroke-linejoin:miter;stroke-opacity:1"/>
<path class="bond-7 atom-7 atom-8" d="M 647.461,121.478 L 642.212,117.907" style="fill:none;fill-rule:evenodd;stroke:#FF0000;stroke-width:2.0px;stroke-linecap:butt;stroke-linejoin:miter;stroke-opacity:1"/>
<path class="bond-8 atom-8 atom-9" d="M 637.368,117.429 L 631.544,120.242" style="fill:none;fill-rule:evenodd;stroke:#FF0000;stroke-width:2.0px;stroke-linecap:butt;stroke-linejoin:miter;stroke-opacity:1"/>
<path class="bond-8 atom-8 atom-9" d="M 631.544,120.242 L 625.72,123.054" style="fill:none;fill-rule:evenodd;stroke:#000000;stroke-width:2.0px;stroke-linecap:butt;stroke-linejoin:miter;stroke-opacity:1"/>
<path class="bond-9 atom-9 atom-10" d="M 625.72,123.054 L 612.801,114.266" style="fill:none;fill-rule:evenodd;stroke:#000000;stroke-width:2.0px;stroke-linecap:butt;stroke-linejoin:miter;stroke-opacity:1"/>
<path class="bond-10 atom-10 atom-11" d="M 612.801,114.266 L 598.73,121.06" style="fill:none;fill-rule:evenodd;stroke:#000000;stroke-width:2.0px;stroke-linecap:butt;stroke-linejoin:miter;stroke-opacity:1"/>
<path class="bond-11 atom-10 atom-12" d="M 612.801,114.266 L 613.952,98.6838" style="fill:none;fill-rule:evenodd;stroke:#000000;stroke-width:2.0px;stroke-linecap:butt;stroke-linejoin:miter;stroke-opacity:1"/>
<path class="bond-12 atom-12 atom-13" d="M 613.952,98.6838 L 607.831,94.5204" style="fill:none;fill-rule:evenodd;stroke:#000000;stroke-width:2.0px;stroke-linecap:butt;stroke-linejoin:miter;stroke-opacity:1"/>
<path class="bond-12 atom-12 atom-13" d="M 607.831,94.5204 L 601.711,90.357" style="fill:none;fill-rule:evenodd;stroke:#00CC00;stroke-width:2.0px;stroke-linecap:butt;stroke-linejoin:miter;stroke-opacity:1"/>
<path class="atom-0" d="M 665.53 119.772 Q 665.58 119.791, 665.786 119.878 Q 665.992 119.966, 666.217 120.022 Q 666.448 120.072, 666.673 120.072 Q 667.092 120.072, 667.336 119.872 Q 667.58 119.666, 667.58 119.31 Q 667.58 119.066, 667.455 118.916 Q 667.336 118.766, 667.148 118.685 Q 666.961 118.603, 666.648 118.51 Q 666.255 118.391, 666.017 118.278 Q 665.786 118.166, 665.617 117.928 Q 665.455 117.691, 665.455 117.291 Q 665.455 116.735, 665.83 116.391 Q 666.211 116.047, 666.961 116.047 Q 667.473 116.047, 668.055 116.291 L 667.911 116.772 Q 667.38 116.553, 666.98 116.553 Q 666.548 116.553, 666.311 116.735 Q 666.073 116.91, 666.08 117.216 Q 666.08 117.453, 666.198 117.597 Q 666.323 117.741, 666.498 117.822 Q 666.68 117.903, 666.98 117.997 Q 667.38 118.122, 667.617 118.247 Q 667.855 118.372, 668.023 118.628 Q 668.198 118.878, 668.198 119.31 Q 668.198 119.922, 667.786 120.253 Q 667.38 120.578, 666.698 120.578 Q 666.305 120.578, 666.005 120.491 Q 665.711 120.41, 665.361 120.266 L 665.53 119.772 " fill="#CCCC00"/>
<path class="atom-2" d="M 651.986 103.364 L 652.586 103.364 L 652.586 105.246 L 654.848 105.246 L 654.848 103.364 L 655.448 103.364 L 655.448 107.789 L 654.848 107.789 L 654.848 105.746 L 652.586 105.746 L 652.586 107.789 L 651.986 107.789 L 651.986 103.364 " fill="#0000FF"/>
<path class="atom-2" d="M 656.667 103.364 L 658.117 105.708 Q 658.261 105.939, 658.492 106.358 Q 658.723 106.777, 658.736 106.802 L 658.736 103.364 L 659.323 103.364 L 659.323 107.789 L 658.717 107.789 L 657.161 105.227 Q 656.98 104.927, 656.786 104.583 Q 656.598 104.239, 656.542 104.133 L 656.542 107.789 L 655.967 107.789 L 655.967 103.364 L 656.667 103.364 " fill="#0000FF"/>
<path class="atom-3" d="M 663.078 89.1154 L 664.528 91.4591 Q 664.672 91.6903, 664.903 92.1091 Q 665.134 92.5278, 665.147 92.5528 L 665.147 89.1154 L 665.734 89.1154 L 665.734 93.5403 L 665.128 93.5403 L 663.572 90.9779 Q 663.391 90.6779, 663.197 90.3341 Q 663.009 89.9904, 662.953 89.8841 L 662.953 93.5403 L 662.378 93.5403 L 662.378 89.1154 L 663.078 89.1154 " fill="#0000FF"/>
<path class="atom-8" d="M 637.759 116.272 Q 637.759 115.21, 638.284 114.616 Q 638.809 114.022, 639.79 114.022 Q 640.771 114.022, 641.296 114.616 Q 641.821 115.21, 641.821 116.272 Q 641.821 117.347, 641.29 117.96 Q 640.759 118.566, 639.79 118.566 Q 638.815 118.566, 638.284 117.96 Q 637.759 117.354, 637.759 116.272 M 639.79 118.066 Q 640.465 118.066, 640.828 117.616 Q 641.196 117.16, 641.196 116.272 Q 641.196 115.404, 640.828 114.966 Q 640.465 114.522, 639.79 114.522 Q 639.115 114.522, 638.746 114.96 Q 638.384 115.397, 638.384 116.272 Q 638.384 117.166, 638.746 117.616 Q 639.115 118.066, 639.79 118.066 " fill="#FF0000"/>
<path class="atom-13" d="M 596.795 90.0489 Q 596.795 88.9489, 597.308 88.3739 Q 597.826 87.7926, 598.808 87.7926 Q 599.72 87.7926, 600.208 88.4364 L 599.795 88.7739 Q 599.439 88.3051, 598.808 88.3051 Q 598.139 88.3051, 597.783 88.7551 Q 597.433 89.1989, 597.433 90.0489 Q 597.433 90.9239, 597.795 91.3739 Q 598.164 91.8238, 598.876 91.8238 Q 599.364 91.8238, 599.933 91.5301 L 600.108 91.9988 Q 599.876 92.1488, 599.526 92.2363 Q 599.176 92.3238, 598.789 92.3238 Q 597.826 92.3238, 597.308 91.7364 Q 596.795 91.1489, 596.795 90.0489 " fill="#00CC00"/>
<path class="atom-13" d="M 600.745 87.5239 L 601.32 87.5239 L 601.32 92.2676 L 600.745 92.2676 L 600.745 87.5239 " fill="#00CC00"/>
<path class="bond-0 atom-0 atom-1" d="M 55.2564,348.869 L 67.7896,358.199" style="fill:none;fill-rule:evenodd;stroke:#000000;stroke-width:2.0px;stroke-linecap:butt;stroke-linejoin:miter;stroke-opacity:1"/>
<path class="bond-1 atom-1 atom-2" d="M 67.7896,358.199 L 73.9287,355.551" style="fill:none;fill-rule:evenodd;stroke:#000000;stroke-width:2.0px;stroke-linecap:butt;stroke-linejoin:miter;stroke-opacity:1"/>
<path class="bond-1 atom-1 atom-2" d="M 73.9287,355.551 L 80.0677,352.903" style="fill:none;fill-rule:evenodd;stroke:#0000FF;stroke-width:2.0px;stroke-linecap:butt;stroke-linejoin:miter;stroke-opacity:1"/>
<path class="bond-1 atom-1 atom-2" d="M 68.3935,354.535 L 72.6909,352.682" style="fill:none;fill-rule:evenodd;stroke:#000000;stroke-width:2.0px;stroke-linecap:butt;stroke-linejoin:miter;stroke-opacity:1"/>
<path class="bond-1 atom-1 atom-2" d="M 72.6909,352.682 L 76.9882,350.828" style="fill:none;fill-rule:evenodd;stroke:#0000FF;stroke-width:2.0px;stroke-linecap:butt;stroke-linejoin:miter;stroke-opacity:1"/>
<path class="bond-2 atom-2 atom-3" d="M 84.2052,353.55 L 89.4374,357.445" style="fill:none;fill-rule:evenodd;stroke:#0000FF;stroke-width:2.0px;stroke-linecap:butt;stroke-linejoin:miter;stroke-opacity:1"/>
<path class="bond-2 atom-2 atom-3" d="M 89.4374,357.445 L 94.6697,361.34" style="fill:none;fill-rule:evenodd;stroke:#000000;stroke-width:2.0px;stroke-linecap:butt;stroke-linejoin:miter;stroke-opacity:1"/>
<path class="bond-3 atom-3 atom-4" d="M 94.6697,361.34 L 109.016,355.151" style="fill:none;fill-rule:evenodd;stroke:#000000;stroke-width:2.0px;stroke-linecap:butt;stroke-linejoin:miter;stroke-opacity:1"/>
<path class="bond-4 atom-4 atom-5" d="M 109.016,355.151 L 121.55,364.482" style="fill:none;fill-rule:evenodd;stroke:#000000;stroke-width:2.0px;stroke-linecap:butt;stroke-linejoin:miter;stroke-opacity:1"/>
<path class="bond-4 atom-4 atom-5" d="M 109.03,359.058 L 117.804,365.589" style="fill:none;fill-rule:evenodd;stroke:#000000;stroke-width:2.0px;stroke-linecap:butt;stroke-linejoin:miter;stroke-opacity:1"/>
<path class="bond-5 atom-5 atom-6" d="M 121.55,364.482 L 135.897,358.293" style="fill:none;fill-rule:evenodd;stroke:#000000;stroke-width:2.0px;stroke-linecap:butt;stroke-linejoin:miter;stroke-opacity:1"/>
<path class="bond-6 atom-6 atom-7" d="M 135.897,358.293 L 141.129,362.188" style="fill:none;fill-rule:evenodd;stroke:#000000;stroke-width:2.0px;stroke-linecap:butt;stroke-linejoin:miter;stroke-opacity:1"/>
<path class="bond-6 atom-6 atom-7" d="M 141.129,362.188 L 146.361,366.083" style="fill:none;fill-rule:evenodd;stroke:#0000FF;stroke-width:2.0px;stroke-linecap:butt;stroke-linejoin:miter;stroke-opacity:1"/>
<path class="bond-7 atom-7 atom-8" d="M 150.499,366.73 L 156.638,364.082" style="fill:none;fill-rule:evenodd;stroke:#0000FF;stroke-width:2.0px;stroke-linecap:butt;stroke-linejoin:miter;stroke-opacity:1"/>
<path class="bond-7 atom-7 atom-8" d="M 156.638,364.082 L 162.777,361.434" style="fill:none;fill-rule:evenodd;stroke:#000000;stroke-width:2.0px;stroke-linecap:butt;stroke-linejoin:miter;stroke-opacity:1"/>
<path class="bond-7 atom-7 atom-8" d="M 151.102,363.067 L 155.4,361.213" style="fill:none;fill-rule:evenodd;stroke:#0000FF;stroke-width:2.0px;stroke-linecap:butt;stroke-linejoin:miter;stroke-opacity:1"/>
<path class="bond-7 atom-7 atom-8" d="M 155.4,361.213 L 159.697,359.359" style="fill:none;fill-rule:evenodd;stroke:#000000;stroke-width:2.0px;stroke-linecap:butt;stroke-linejoin:miter;stroke-opacity:1"/>
<path class="bond-8 atom-8 atom-9" d="M 162.777,361.434 L 175.31,370.764" style="fill:none;fill-rule:evenodd;stroke:#000000;stroke-width:2.0px;stroke-linecap:butt;stroke-linejoin:miter;stroke-opacity:1"/>
<path class="bond-9 atom-9 atom-10" d="M 175.31,370.764 L 174.555,377.222" style="fill:none;fill-rule:evenodd;stroke:#000000;stroke-width:2.0px;stroke-linecap:butt;stroke-linejoin:miter;stroke-opacity:1"/>
<path class="bond-9 atom-9 atom-10" d="M 174.555,377.222 L 173.8,383.68" style="fill:none;fill-rule:evenodd;stroke:#0000FF;stroke-width:2.0px;stroke-linecap:butt;stroke-linejoin:miter;stroke-opacity:1"/>
<path class="bond-11 atom-9 atom-12" d="M 175.31,370.764 L 189.657,364.575" style="fill:none;fill-rule:evenodd;stroke:#000000;stroke-width:2.0px;stroke-linecap:butt;stroke-linejoin:miter;stroke-opacity:1"/>
<path class="bond-10 atom-10 atom-11" d="M 171.428,387.176 L 165.289,389.824" style="fill:none;fill-rule:evenodd;stroke:#0000FF;stroke-width:2.0px;stroke-linecap:butt;stroke-linejoin:miter;stroke-opacity:1"/>
<path class="bond-10 atom-10 atom-11" d="M 165.289,389.824 L 159.149,392.472" style="fill:none;fill-rule:evenodd;stroke:#000000;stroke-width:2.0px;stroke-linecap:butt;stroke-linejoin:miter;stroke-opacity:1"/>
<path class="bond-12 atom-12 atom-13" d="M 189.657,364.575 L 205.176,366.389" style="fill:none;fill-rule:evenodd;stroke:#000000;stroke-width:2.0px;stroke-linecap:butt;stroke-linejoin:miter;stroke-opacity:1"/>
<path class="bond-13 atom-12 atom-14" d="M 189.657,364.575 L 198.987,352.042" style="fill:none;fill-rule:evenodd;stroke:#000000;stroke-width:2.0px;stroke-linecap:butt;stroke-linejoin:miter;stroke-opacity:1"/>
<path class="bond-13 atom-12 atom-14" d="M 193.563,364.561 L 200.094,355.788" style="fill:none;fill-rule:evenodd;stroke:#000000;stroke-width:2.0px;stroke-linecap:butt;stroke-linejoin:miter;stroke-opacity:1"/>
<path class="bond-16 atom-14 atom-13" d="M 198.987,352.042 L 205.176,366.389" style="fill:none;fill-rule:evenodd;stroke:#000000;stroke-width:2.0px;stroke-linecap:butt;stroke-linejoin:miter;stroke-opacity:1"/>
<path class="bond-14 atom-14 atom-15" d="M 198.987,352.042 L 200.8,336.523" style="fill:none;fill-rule:evenodd;stroke:#000000;stroke-width:2.0px;stroke-linecap:butt;stroke-linejoin:miter;stroke-opacity:1"/>
<path class="bond-15 atom-15 atom-16" d="M 201.419,337.957 L 207.382,335.385" style="fill:none;fill-rule:evenodd;stroke:#000000;stroke-width:2.0px;stroke-linecap:butt;stroke-linejoin:miter;stroke-opacity:1"/>
<path class="bond-15 atom-15 atom-16" d="M 207.382,335.385 L 213.344,332.813" style="fill:none;fill-rule:evenodd;stroke:#FF0000;stroke-width:2.0px;stroke-linecap:butt;stroke-linejoin:miter;stroke-opacity:1"/>
<path class="bond-15 atom-15 atom-16" d="M 200.182,335.088 L 206.144,332.516" style="fill:none;fill-rule:evenodd;stroke:#000000;stroke-width:2.0px;stroke-linecap:butt;stroke-linejoin:miter;stroke-opacity:1"/>
<path class="bond-15 atom-15 atom-16" d="M 206.144,332.516 L 212.107,329.944" style="fill:none;fill-rule:evenodd;stroke:#FF0000;stroke-width:2.0px;stroke-linecap:butt;stroke-linejoin:miter;stroke-opacity:1"/>
<path class="atom-2" d="M 81.1583 349.798 L 82.6083 352.141 Q 82.752 352.373, 82.9833 352.791 Q 83.2145 353.21, 83.227 353.235 L 83.227 349.798 L 83.8145 349.798 L 83.8145 354.223 L 83.2083 354.223 L 81.6521 351.66 Q 81.4708 351.36, 81.2771 351.016 Q 81.0896 350.673, 81.0333 350.566 L 81.0333 354.223 L 80.4583 354.223 L 80.4583 349.798 L 81.1583 349.798 " fill="#0000FF"/>
<path class="atom-7" d="M 147.452 365.41 L 148.902 367.754 Q 149.045 367.985, 149.277 368.404 Q 149.508 368.823, 149.52 368.848 L 149.52 365.41 L 150.108 365.41 L 150.108 369.835 L 149.502 369.835 L 147.945 367.273 Q 147.764 366.973, 147.57 366.629 Q 147.383 366.285, 147.327 366.179 L 147.327 369.835 L 146.752 369.835 L 146.752 365.41 L 147.452 365.41 " fill="#0000FF"/>
<path class="atom-10" d="M 172.518 384.071 L 173.968 386.414 Q 174.112 386.646, 174.343 387.064 Q 174.574 387.483, 174.587 387.508 L 174.587 384.071 L 175.174 384.071 L 175.174 388.496 L 174.568 388.496 L 173.012 385.933 Q 172.831 385.633, 172.637 385.289 Q 172.449 384.946, 172.393 384.839 L 172.393 388.496 L 171.818 388.496 L 171.818 384.071 L 172.518 384.071 " fill="#0000FF"/>
<path class="atom-10" d="M 175.706 384.071 L 176.306 384.071 L 176.306 385.952 L 178.568 385.952 L 178.568 384.071 L 179.168 384.071 L 179.168 388.496 L 178.568 388.496 L 178.568 386.452 L 176.306 386.452 L 176.306 388.496 L 175.706 388.496 L 175.706 384.071 " fill="#0000FF"/>
<path class="atom-16" d="M 213.116 330.346 Q 213.116 329.284, 213.641 328.69 Q 214.166 328.096, 215.147 328.096 Q 216.129 328.096, 216.654 328.69 Q 217.179 329.284, 217.179 330.346 Q 217.179 331.421, 216.647 332.034 Q 216.116 332.64, 215.147 332.64 Q 214.172 332.64, 213.641 332.034 Q 213.116 331.427, 213.116 330.346 M 215.147 332.14 Q 215.822 332.14, 216.185 331.69 Q 216.554 331.234, 216.554 330.346 Q 216.554 329.477, 216.185 329.04 Q 215.822 328.596, 215.147 328.596 Q 214.472 328.596, 214.104 329.034 Q 213.741 329.471, 213.741 330.346 Q 213.741 331.24, 214.104 331.69 Q 214.472 332.14, 215.147 332.14 " fill="#FF0000"/>
<path class="bond-0 atom-0 atom-1" d="M 376.77,363.258 L 391.147,357.141" style="fill:none;fill-rule:evenodd;stroke:#000000;stroke-width:2.0px;stroke-linecap:butt;stroke-linejoin:miter;stroke-opacity:1"/>
<path class="bond-0 atom-0 atom-1" d="M 375.547,360.383 L 389.924,354.265" style="fill:none;fill-rule:evenodd;stroke:#000000;stroke-width:2.0px;stroke-linecap:butt;stroke-linejoin:miter;stroke-opacity:1"/>
<path class="bond-1 atom-1 atom-2" d="M 390.536,355.703 L 403.023,365.095" style="fill:none;fill-rule:evenodd;stroke:#000000;stroke-width:2.0px;stroke-linecap:butt;stroke-linejoin:miter;stroke-opacity:1"/>
<path class="bond-2 atom-2 atom-3" d="M 403.023,365.095 L 417.4,358.977" style="fill:none;fill-rule:evenodd;stroke:#000000;stroke-width:2.0px;stroke-linecap:butt;stroke-linejoin:miter;stroke-opacity:1"/>
<path class="bond-0 atom-0 atom-1" d="M 586.101,377.435 L 576.588,389.83" style="fill:none;fill-rule:evenodd;stroke:#000000;stroke-width:2.0px;stroke-linecap:butt;stroke-linejoin:miter;stroke-opacity:1"/>
<path class="bond-0 atom-0 atom-1" d="M 587.153,381.196 L 580.494,389.873" style="fill:none;fill-rule:evenodd;stroke:#000000;stroke-width:2.0px;stroke-linecap:butt;stroke-linejoin:miter;stroke-opacity:1"/>
<path class="bond-36 atom-3 atom-0" d="M 596.687,385.559 L 591.394,381.497" style="fill:none;fill-rule:evenodd;stroke:#CCCC00;stroke-width:2.0px;stroke-linecap:butt;stroke-linejoin:miter;stroke-opacity:1"/>
<path class="bond-36 atom-3 atom-0" d="M 591.394,381.497 L 586.101,377.435" style="fill:none;fill-rule:evenodd;stroke:#000000;stroke-width:2.0px;stroke-linecap:butt;stroke-linejoin:miter;stroke-opacity:1"/>
<path class="bond-38 atom-13 atom-0" d="M 580.816,362.731 L 586.101,377.435" style="fill:none;fill-rule:evenodd;stroke:#000000;stroke-width:2.0px;stroke-linecap:butt;stroke-linejoin:miter;stroke-opacity:1"/>
<path class="bond-1 atom-1 atom-2" d="M 576.588,389.83 L 588.983,399.343" style="fill:none;fill-rule:evenodd;stroke:#000000;stroke-width:2.0px;stroke-linecap:butt;stroke-linejoin:miter;stroke-opacity:1"/>
<path class="bond-2 atom-2 atom-3" d="M 588.983,399.343 L 592.835,394.324" style="fill:none;fill-rule:evenodd;stroke:#000000;stroke-width:2.0px;stroke-linecap:butt;stroke-linejoin:miter;stroke-opacity:1"/>
<path class="bond-2 atom-2 atom-3" d="M 592.835,394.324 L 596.687,389.305" style="fill:none;fill-rule:evenodd;stroke:#CCCC00;stroke-width:2.0px;stroke-linecap:butt;stroke-linejoin:miter;stroke-opacity:1"/>
<path class="bond-3 atom-3 atom-4" d="M 604.299,387.432 L 608.221,387.76" style="fill:none;fill-rule:evenodd;stroke:#CCCC00;stroke-width:2.0px;stroke-linecap:butt;stroke-linejoin:miter;stroke-opacity:1"/>
<path class="bond-3 atom-3 atom-4" d="M 608.221,387.76 L 612.143,388.088" style="fill:none;fill-rule:evenodd;stroke:#0000FF;stroke-width:2.0px;stroke-linecap:butt;stroke-linejoin:miter;stroke-opacity:1"/>
<path class="bond-4 atom-4 atom-5" d="M 616.135,389.543 L 621.723,393.042" style="fill:none;fill-rule:evenodd;stroke:#0000FF;stroke-width:2.0px;stroke-linecap:butt;stroke-linejoin:miter;stroke-opacity:1"/>
<path class="bond-4 atom-4 atom-5" d="M 621.723,393.042 L 627.31,396.54" style="fill:none;fill-rule:evenodd;stroke:#000000;stroke-width:2.0px;stroke-linecap:butt;stroke-linejoin:miter;stroke-opacity:1"/>
<path class="bond-5 atom-4 atom-6" d="M 616.135,387.151 L 622.002,384.038" style="fill:none;fill-rule:evenodd;stroke:#0000FF;stroke-width:2.0px;stroke-linecap:butt;stroke-linejoin:miter;stroke-opacity:1"/>
<path class="bond-5 atom-4 atom-6" d="M 622.002,384.038 L 627.869,380.925" style="fill:none;fill-rule:evenodd;stroke:#000000;stroke-width:2.0px;stroke-linecap:butt;stroke-linejoin:miter;stroke-opacity:1"/>
<path class="bond-37 atom-6 atom-5" d="M 627.869,380.925 L 627.31,396.54" style="fill:none;fill-rule:evenodd;stroke:#000000;stroke-width:2.0px;stroke-linecap:butt;stroke-linejoin:miter;stroke-opacity:1"/>
<path class="bond-6 atom-6 atom-7" d="M 627.869,380.925 L 630.963,375.415" style="fill:none;fill-rule:evenodd;stroke:#000000;stroke-width:2.0px;stroke-linecap:butt;stroke-linejoin:miter;stroke-opacity:1"/>
<path class="bond-6 atom-6 atom-7" d="M 630.963,375.415 L 634.058,369.905" style="fill:none;fill-rule:evenodd;stroke:#0000FF;stroke-width:2.0px;stroke-linecap:butt;stroke-linejoin:miter;stroke-opacity:1"/>
<path class="bond-7 atom-7 atom-8" d="M 635.366,364.699 L 635.057,359.517" style="fill:none;fill-rule:evenodd;stroke:#0000FF;stroke-width:2.0px;stroke-linecap:butt;stroke-linejoin:miter;stroke-opacity:1"/>
<path class="bond-7 atom-7 atom-8" d="M 635.057,359.517 L 634.749,354.336" style="fill:none;fill-rule:evenodd;stroke:#FF0000;stroke-width:2.0px;stroke-linecap:butt;stroke-linejoin:miter;stroke-opacity:1"/>
<path class="bond-8 atom-8 atom-9" d="M 632.674,349.076 L 629.026,344.081" style="fill:none;fill-rule:evenodd;stroke:#FF0000;stroke-width:2.0px;stroke-linecap:butt;stroke-linejoin:miter;stroke-opacity:1"/>
<path class="bond-8 atom-8 atom-9" d="M 629.026,344.081 L 625.379,339.085" style="fill:none;fill-rule:evenodd;stroke:#000000;stroke-width:2.0px;stroke-linecap:butt;stroke-linejoin:miter;stroke-opacity:1"/>
<path class="bond-9 atom-9 atom-10" d="M 625.379,339.085 L 610.806,333.45" style="fill:none;fill-rule:evenodd;stroke:#000000;stroke-width:2.0px;stroke-linecap:butt;stroke-linejoin:miter;stroke-opacity:1"/>
<path class="bond-17 atom-9 atom-18" d="M 625.379,339.085 L 634.892,326.69" style="fill:none;fill-rule:evenodd;stroke:#000000;stroke-width:2.0px;stroke-linecap:butt;stroke-linejoin:miter;stroke-opacity:1"/>
<path class="bond-10 atom-10 atom-11" d="M 610.806,333.45 L 595.499,336.588" style="fill:none;fill-rule:evenodd;stroke:#000000;stroke-width:2.0px;stroke-linecap:butt;stroke-linejoin:miter;stroke-opacity:1"/>
<path class="bond-10 atom-10 atom-11" d="M 609.138,336.982 L 598.423,339.179" style="fill:none;fill-rule:evenodd;stroke:#000000;stroke-width:2.0px;stroke-linecap:butt;stroke-linejoin:miter;stroke-opacity:1"/>
<path class="bond-11 atom-11 atom-12" d="M 595.499,336.588 L 584.32,347.504" style="fill:none;fill-rule:evenodd;stroke:#000000;stroke-width:2.0px;stroke-linecap:butt;stroke-linejoin:miter;stroke-opacity:1"/>
<path class="bond-11 atom-11 atom-12" d="M 596.006,340.462 L 588.18,348.102" style="fill:none;fill-rule:evenodd;stroke:#000000;stroke-width:2.0px;stroke-linecap:butt;stroke-linejoin:miter;stroke-opacity:1"/>
<path class="bond-12 atom-12 atom-13" d="M 584.32,347.504 L 580.816,362.731" style="fill:none;fill-rule:evenodd;stroke:#000000;stroke-width:2.0px;stroke-linecap:butt;stroke-linejoin:miter;stroke-opacity:1"/>
<path class="bond-13 atom-13 atom-14" d="M 580.816,362.731 L 565.219,363.659" style="fill:none;fill-rule:evenodd;stroke:#000000;stroke-width:2.0px;stroke-linecap:butt;stroke-linejoin:miter;stroke-opacity:1"/>
<path class="bond-13 atom-13 atom-14" d="M 578.291,359.75 L 567.373,360.4" style="fill:none;fill-rule:evenodd;stroke:#000000;stroke-width:2.0px;stroke-linecap:butt;stroke-linejoin:miter;stroke-opacity:1"/>
<path class="bond-14 atom-14 atom-15" d="M 565.219,363.659 L 561.776,358.438" style="fill:none;fill-rule:evenodd;stroke:#000000;stroke-width:2.0px;stroke-linecap:butt;stroke-linejoin:miter;stroke-opacity:1"/>
<path class="bond-14 atom-14 atom-15" d="M 561.776,358.438 L 558.333,353.218" style="fill:none;fill-rule:evenodd;stroke:#0000FF;stroke-width:2.0px;stroke-linecap:butt;stroke-linejoin:miter;stroke-opacity:1"/>
<path class="bond-15 atom-15 atom-16" d="M 554.547,350.738 L 547.783,351.141" style="fill:none;fill-rule:evenodd;stroke:#0000FF;stroke-width:2.0px;stroke-linecap:butt;stroke-linejoin:miter;stroke-opacity:1"/>
<path class="bond-15 atom-15 atom-16" d="M 547.783,351.141 L 541.019,351.543" style="fill:none;fill-rule:evenodd;stroke:#000000;stroke-width:2.0px;stroke-linecap:butt;stroke-linejoin:miter;stroke-opacity:1"/>
<path class="bond-15 atom-15 atom-16" d="M 552.704,353.978 L 547.969,354.26" style="fill:none;fill-rule:evenodd;stroke:#0000FF;stroke-width:2.0px;stroke-linecap:butt;stroke-linejoin:miter;stroke-opacity:1"/>
<path class="bond-15 atom-15 atom-16" d="M 547.969,354.26 L 543.234,354.542" style="fill:none;fill-rule:evenodd;stroke:#000000;stroke-width:2.0px;stroke-linecap:butt;stroke-linejoin:miter;stroke-opacity:1"/>
<path class="bond-16 atom-16 atom-17" d="M 541.019,351.543 L 532.417,338.5" style="fill:none;fill-rule:evenodd;stroke:#000000;stroke-width:2.0px;stroke-linecap:butt;stroke-linejoin:miter;stroke-opacity:1"/>
<path class="bond-18 atom-18 atom-19" d="M 634.892,326.69 L 650.383,328.73" style="fill:none;fill-rule:evenodd;stroke:#000000;stroke-width:2.0px;stroke-linecap:butt;stroke-linejoin:miter;stroke-opacity:1"/>
<path class="bond-18 atom-18 atom-19" d="M 636.807,330.094 L 647.651,331.522" style="fill:none;fill-rule:evenodd;stroke:#000000;stroke-width:2.0px;stroke-linecap:butt;stroke-linejoin:miter;stroke-opacity:1"/>
<path class="bond-19 atom-19 atom-20" d="M 650.383,328.73 L 659.895,316.335" style="fill:none;fill-rule:evenodd;stroke:#000000;stroke-width:2.0px;stroke-linecap:butt;stroke-linejoin:miter;stroke-opacity:1"/>
<path class="bond-20 atom-20 atom-21" d="M 659.895,316.335 L 675.386,318.375" style="fill:none;fill-rule:evenodd;stroke:#000000;stroke-width:2.0px;stroke-linecap:butt;stroke-linejoin:miter;stroke-opacity:1"/>
<path class="bond-21 atom-21 atom-22" d="M 675.386,318.375 L 684.899,305.98" style="fill:none;fill-rule:evenodd;stroke:#000000;stroke-width:2.0px;stroke-linecap:butt;stroke-linejoin:miter;stroke-opacity:1"/>
<path class="bond-22 atom-22 atom-23" d="M 684.695,307.529 L 698.089,309.293" style="fill:none;fill-rule:evenodd;stroke:#000000;stroke-width:2.0px;stroke-linecap:butt;stroke-linejoin:miter;stroke-opacity:1"/>
<path class="bond-22 atom-22 atom-23" d="M 685.103,304.431 L 698.497,306.195" style="fill:none;fill-rule:evenodd;stroke:#000000;stroke-width:2.0px;stroke-linecap:butt;stroke-linejoin:miter;stroke-opacity:1"/>
<path class="bond-23 atom-23 atom-24" d="M 702.283,309.846 L 715.677,311.61" style="fill:none;fill-rule:evenodd;stroke:#000000;stroke-width:2.0px;stroke-linecap:butt;stroke-linejoin:miter;stroke-opacity:1"/>
<path class="bond-23 atom-23 atom-24" d="M 702.691,306.748 L 716.085,308.512" style="fill:none;fill-rule:evenodd;stroke:#000000;stroke-width:2.0px;stroke-linecap:butt;stroke-linejoin:miter;stroke-opacity:1"/>
<path class="bond-24 atom-24 atom-25" d="M 715.881,310.061 L 721.859,324.497" style="fill:none;fill-rule:evenodd;stroke:#000000;stroke-width:2.0px;stroke-linecap:butt;stroke-linejoin:miter;stroke-opacity:1"/>
<path class="bond-25 atom-25 atom-26" d="M 721.859,324.497 L 737.35,326.537" style="fill:none;fill-rule:evenodd;stroke:#000000;stroke-width:2.0px;stroke-linecap:butt;stroke-linejoin:miter;stroke-opacity:1"/>
<path class="bond-26 atom-25 atom-27" d="M 721.859,324.497 L 712.347,336.892" style="fill:none;fill-rule:evenodd;stroke:#000000;stroke-width:2.0px;stroke-linecap:butt;stroke-linejoin:miter;stroke-opacity:1"/>
<path class="bond-26 atom-25 atom-27" d="M 717.953,324.454 L 711.295,333.13" style="fill:none;fill-rule:evenodd;stroke:#000000;stroke-width:2.0px;stroke-linecap:butt;stroke-linejoin:miter;stroke-opacity:1"/>
<path class="bond-27 atom-27 atom-28" d="M 712.347,336.892 L 718.325,351.328" style="fill:none;fill-rule:evenodd;stroke:#000000;stroke-width:2.0px;stroke-linecap:butt;stroke-linejoin:miter;stroke-opacity:1"/>
<path class="bond-28 atom-28 atom-29" d="M 718.325,351.328 L 714.568,356.224" style="fill:none;fill-rule:evenodd;stroke:#000000;stroke-width:2.0px;stroke-linecap:butt;stroke-linejoin:miter;stroke-opacity:1"/>
<path class="bond-28 atom-28 atom-29" d="M 714.568,356.224 L 710.81,361.12" style="fill:none;fill-rule:evenodd;stroke:#0000FF;stroke-width:2.0px;stroke-linecap:butt;stroke-linejoin:miter;stroke-opacity:1"/>
<path class="bond-29 atom-29 atom-30" d="M 709.891,366.326 L 712.341,372.243" style="fill:none;fill-rule:evenodd;stroke:#0000FF;stroke-width:2.0px;stroke-linecap:butt;stroke-linejoin:miter;stroke-opacity:1"/>
<path class="bond-29 atom-29 atom-30" d="M 712.341,372.243 L 714.791,378.159" style="fill:none;fill-rule:evenodd;stroke:#000000;stroke-width:2.0px;stroke-linecap:butt;stroke-linejoin:miter;stroke-opacity:1"/>
<path class="bond-30 atom-30 atom-31" d="M 714.791,378.159 L 705.278,390.555" style="fill:none;fill-rule:evenodd;stroke:#000000;stroke-width:2.0px;stroke-linecap:butt;stroke-linejoin:miter;stroke-opacity:1"/>
<path class="bond-30 atom-30 atom-31" d="M 710.885,378.116 L 704.226,386.793" style="fill:none;fill-rule:evenodd;stroke:#000000;stroke-width:2.0px;stroke-linecap:butt;stroke-linejoin:miter;stroke-opacity:1"/>
<path class="bond-31 atom-31 atom-32" d="M 705.278,390.555 L 698.567,389.671" style="fill:none;fill-rule:evenodd;stroke:#000000;stroke-width:2.0px;stroke-linecap:butt;stroke-linejoin:miter;stroke-opacity:1"/>
<path class="bond-31 atom-31 atom-32" d="M 698.567,389.671 L 691.856,388.787" style="fill:none;fill-rule:evenodd;stroke:#0000FF;stroke-width:2.0px;stroke-linecap:butt;stroke-linejoin:miter;stroke-opacity:1"/>
<path class="bond-32 atom-31 atom-33" d="M 705.278,390.555 L 711.257,404.99" style="fill:none;fill-rule:evenodd;stroke:#000000;stroke-width:2.0px;stroke-linecap:butt;stroke-linejoin:miter;stroke-opacity:1"/>
<path class="bond-33 atom-33 atom-34" d="M 711.257,404.99 L 701.744,417.386" style="fill:none;fill-rule:evenodd;stroke:#000000;stroke-width:2.0px;stroke-linecap:butt;stroke-linejoin:miter;stroke-opacity:1"/>
<path class="bond-34 atom-34 atom-35" d="M 701.744,417.386 L 704.189,423.29" style="fill:none;fill-rule:evenodd;stroke:#000000;stroke-width:2.0px;stroke-linecap:butt;stroke-linejoin:miter;stroke-opacity:1"/>
<path class="bond-34 atom-34 atom-35" d="M 704.189,423.29 L 706.634,429.194" style="fill:none;fill-rule:evenodd;stroke:#FF0000;stroke-width:2.0px;stroke-linecap:butt;stroke-linejoin:miter;stroke-opacity:1"/>
<path class="bond-35 atom-35 atom-36" d="M 705.653,434.519 L 701.931,439.368" style="fill:none;fill-rule:evenodd;stroke:#FF0000;stroke-width:2.0px;stroke-linecap:butt;stroke-linejoin:miter;stroke-opacity:1"/>
<path class="bond-35 atom-35 atom-36" d="M 701.931,439.368 L 698.21,444.217" style="fill:none;fill-rule:evenodd;stroke:#000000;stroke-width:2.0px;stroke-linecap:butt;stroke-linejoin:miter;stroke-opacity:1"/>
<path class="atom-3" d="M 597.246 388.472 Q 597.296 388.491, 597.502 388.578 Q 597.708 388.666, 597.933 388.722 Q 598.165 388.772, 598.39 388.772 Q 598.808 388.772, 599.052 388.572 Q 599.296 388.366, 599.296 388.01 Q 599.296 387.766, 599.171 387.616 Q 599.052 387.466, 598.865 387.385 Q 598.677 387.303, 598.365 387.21 Q 597.971 387.091, 597.733 386.978 Q 597.502 386.866, 597.333 386.628 Q 597.171 386.391, 597.171 385.991 Q 597.171 385.435, 597.546 385.091 Q 597.927 384.747, 598.677 384.747 Q 599.19 384.747, 599.771 384.991 L 599.627 385.472 Q 599.096 385.253, 598.696 385.253 Q 598.265 385.253, 598.027 385.435 Q 597.79 385.61, 597.796 385.916 Q 597.796 386.153, 597.915 386.297 Q 598.04 386.441, 598.215 386.522 Q 598.396 386.603, 598.696 386.697 Q 599.096 386.822, 599.333 386.947 Q 599.571 387.072, 599.74 387.328 Q 599.915 387.578, 599.915 388.01 Q 599.915 388.622, 599.502 388.953 Q 599.096 389.278, 598.415 389.278 Q 598.021 389.278, 597.721 389.191 Q 597.427 389.11, 597.077 388.966 L 597.246 388.472 " fill="#CCCC00"/>
<path class="atom-3" d="M 600.446 384.735 L 601.046 384.735 L 601.046 386.616 L 603.308 386.616 L 603.308 384.735 L 603.908 384.735 L 603.908 389.16 L 603.308 389.16 L 603.308 387.116 L 601.046 387.116 L 601.046 389.16 L 600.446 389.16 L 600.446 384.735 " fill="#CCCC00"/>
<path class="atom-4" d="M 613.088 386.036 L 614.538 388.38 Q 614.682 388.611, 614.913 389.03 Q 615.145 389.448, 615.157 389.473 L 615.157 386.036 L 615.745 386.036 L 615.745 390.461 L 615.138 390.461 L 613.582 387.898 Q 613.401 387.598, 613.207 387.255 Q 613.02 386.911, 612.963 386.805 L 612.963 390.461 L 612.388 390.461 L 612.388 386.036 L 613.088 386.036 " fill="#0000FF"/>
<path class="atom-7" d="M 634.542 365.089 L 635.992 367.433 Q 636.136 367.664, 636.367 368.083 Q 636.599 368.502, 636.611 368.527 L 636.611 365.089 L 637.199 365.089 L 637.199 369.514 L 636.592 369.514 L 635.036 366.952 Q 634.855 366.652, 634.661 366.308 Q 634.474 365.964, 634.417 365.858 L 634.417 369.514 L 633.842 369.514 L 633.842 365.089 L 634.542 365.089 " fill="#0000FF"/>
<path class="atom-7" d="M 637.73 365.089 L 638.33 365.089 L 638.33 366.971 L 640.592 366.971 L 640.592 365.089 L 641.192 365.089 L 641.192 369.514 L 640.592 369.514 L 640.592 367.471 L 638.33 367.471 L 638.33 369.514 L 637.73 369.514 L 637.73 365.089 " fill="#0000FF"/>
<path class="atom-8" d="M 632.561 351.717 Q 632.561 350.655, 633.086 350.061 Q 633.611 349.467, 634.592 349.467 Q 635.574 349.467, 636.099 350.061 Q 636.624 350.655, 636.624 351.717 Q 636.624 352.792, 636.092 353.405 Q 635.561 354.011, 634.592 354.011 Q 633.617 354.011, 633.086 353.405 Q 632.561 352.798, 632.561 351.717 M 634.592 353.511 Q 635.267 353.511, 635.63 353.061 Q 635.999 352.605, 635.999 351.717 Q 635.999 350.848, 635.63 350.411 Q 635.267 349.967, 634.592 349.967 Q 633.917 349.967, 633.549 350.405 Q 633.186 350.842, 633.186 351.717 Q 633.186 352.611, 633.549 353.061 Q 633.917 353.511, 634.592 353.511 " fill="#FF0000"/>
<path class="atom-15" d="M 555.638 348.403 L 557.088 350.746 Q 557.232 350.978, 557.463 351.396 Q 557.694 351.815, 557.707 351.84 L 557.707 348.403 L 558.294 348.403 L 558.294 352.828 L 557.688 352.828 L 556.132 350.265 Q 555.951 349.965, 555.757 349.621 Q 555.569 349.278, 555.513 349.171 L 555.513 352.828 L 554.938 352.828 L 554.938 348.403 L 555.638 348.403 " fill="#0000FF"/>
<path class="atom-15" d="M 558.826 348.403 L 559.426 348.403 L 559.426 350.284 L 561.688 350.284 L 561.688 348.403 L 562.288 348.403 L 562.288 352.828 L 561.688 352.828 L 561.688 350.784 L 559.426 350.784 L 559.426 352.828 L 558.826 352.828 L 558.826 348.403 " fill="#0000FF"/>
<path class="atom-15" d="M 562.659 349.2 L 563.439 349.2 L 563.439 348.379 L 563.785 348.379 L 563.785 349.2 L 564.586 349.2 L 564.586 349.497 L 563.785 349.497 L 563.785 350.322 L 563.439 350.322 L 563.439 349.497 L 562.659 349.497 L 562.659 349.2 " fill="#0000FF"/>
<path class="atom-23" d="M 698.684 308.039 Q 698.684 306.939, 699.196 306.364 Q 699.715 305.783, 700.696 305.783 Q 701.609 305.783, 702.096 306.427 L 701.684 306.764 Q 701.327 306.295, 700.696 306.295 Q 700.027 306.295, 699.671 306.745 Q 699.321 307.189, 699.321 308.039 Q 699.321 308.914, 699.684 309.364 Q 700.052 309.814, 700.765 309.814 Q 701.252 309.814, 701.821 309.52 L 701.996 309.989 Q 701.765 310.139, 701.415 310.227 Q 701.065 310.314, 700.677 310.314 Q 699.715 310.314, 699.196 309.727 Q 698.684 309.139, 698.684 308.039 " fill="#000000"/>
<path class="atom-29" d="M 703.153 361.511 L 703.753 361.511 L 703.753 363.392 L 706.016 363.392 L 706.016 361.511 L 706.616 361.511 L 706.616 365.936 L 706.016 365.936 L 706.016 363.892 L 703.753 363.892 L 703.753 365.936 L 703.153 365.936 L 703.153 361.511 " fill="#0000FF"/>
<path class="atom-29" d="M 707.834 361.511 L 709.284 363.855 Q 709.428 364.086, 709.659 364.505 Q 709.891 364.923, 709.903 364.948 L 709.903 361.511 L 710.491 361.511 L 710.491 365.936 L 709.884 365.936 L 708.328 363.373 Q 708.147 363.073, 707.953 362.73 Q 707.766 362.386, 707.709 362.28 L 707.709 365.936 L 707.134 365.936 L 707.134 361.511 L 707.834 361.511 " fill="#0000FF"/>
<path class="atom-32" d="M 681.954 386.302 L 682.554 386.302 L 682.554 388.183 L 684.817 388.183 L 684.817 386.302 L 685.417 386.302 L 685.417 390.727 L 684.817 390.727 L 684.817 388.683 L 682.554 388.683 L 682.554 390.727 L 681.954 390.727 L 681.954 386.302 " fill="#0000FF"/>
<path class="atom-32" d="M 685.631 390.571 Q 685.738 390.295, 685.994 390.142 Q 686.25 389.986, 686.605 389.986 Q 687.046 389.986, 687.293 390.225 Q 687.541 390.464, 687.541 390.889 Q 687.541 391.322, 687.219 391.726 Q 686.902 392.131, 686.242 392.609 L 687.59 392.609 L 687.59 392.939 L 685.623 392.939 L 685.623 392.663 Q 686.167 392.275, 686.489 391.986 Q 686.815 391.697, 686.972 391.438 Q 687.128 391.178, 687.128 390.91 Q 687.128 390.629, 686.988 390.472 Q 686.848 390.316, 686.605 390.316 Q 686.369 390.316, 686.213 390.41 Q 686.056 390.505, 685.945 390.716 L 685.631 390.571 " fill="#0000FF"/>
<path class="atom-32" d="M 688.809 386.302 L 690.259 388.645 Q 690.403 388.877, 690.634 389.295 Q 690.865 389.714, 690.878 389.739 L 690.878 386.302 L 691.465 386.302 L 691.465 390.727 L 690.859 390.727 L 689.303 388.164 Q 689.122 387.864, 688.928 387.52 Q 688.74 387.177, 688.684 387.07 L 688.684 390.727 L 688.109 390.727 L 688.109 386.302 L 688.809 386.302 " fill="#0000FF"/>
<path class="atom-35" d="M 705.691 431.834 Q 705.691 430.772, 706.216 430.178 Q 706.741 429.584, 707.722 429.584 Q 708.704 429.584, 709.229 430.178 Q 709.754 430.772, 709.754 431.834 Q 709.754 432.909, 709.222 433.522 Q 708.691 434.128, 707.722 434.128 Q 706.747 434.128, 706.216 433.522 Q 705.691 432.915, 705.691 431.834 M 707.722 433.628 Q 708.397 433.628, 708.76 433.178 Q 709.129 432.722, 709.129 431.834 Q 709.129 430.965, 708.76 430.528 Q 708.397 430.084, 707.722 430.084 Q 707.047 430.084, 706.679 430.522 Q 706.316 430.959, 706.316 431.834 Q 706.316 432.728, 706.679 433.178 Q 707.047 433.628, 707.722 433.628 " fill="#FF0000"/>
<path d="M 611.118,332.044 L 611.117,332.017 L 611.114,331.99 L 611.108,331.964 L 611.1,331.938 L 611.09,331.913 L 611.078,331.889 L 611.063,331.867 L 611.047,331.845 L 611.029,331.825 L 611.01,331.807 L 610.988,331.79 L 610.966,331.775 L 610.942,331.763 L 610.918,331.752 L 610.892,331.743 L 610.866,331.737 L 610.839,331.733 L 610.813,331.731 L 610.786,331.732 L 610.759,331.735 L 610.733,331.74 L 610.707,331.747 L 610.682,331.757 L 610.657,331.769 L 610.634,331.783 L 610.612,331.798 L 610.592,331.816 L 610.573,331.835 L 610.556,331.856 L 610.541,331.878 L 610.528,331.901 L 610.516,331.926 L 610.507,331.951 L 610.501,331.977 L 610.496,332.003 L 610.494,332.03 L 610.494,332.057 L 610.496,332.084 L 610.501,332.11 L 610.507,332.136 L 610.516,332.162 L 610.528,332.186 L 610.541,332.21 L 610.556,332.232 L 610.573,332.252 L 610.592,332.272 L 610.612,332.289 L 610.634,332.305 L 610.657,332.319 L 610.682,332.33 L 610.707,332.34 L 610.733,332.348 L 610.759,332.353 L 610.786,332.356 L 610.813,332.356 L 610.839,332.354 L 610.866,332.35 L 610.892,332.344 L 610.918,332.336 L 610.942,332.325 L 610.966,332.312 L 610.988,332.297 L 611.01,332.281 L 611.029,332.262 L 611.047,332.242 L 611.063,332.221 L 611.078,332.198 L 611.09,332.174 L 611.1,332.149 L 611.108,332.124 L 611.114,332.097 L 611.117,332.071 L 611.118,332.044 L 610.806,332.044 Z" style="fill:#000000;fill-rule:evenodd;fill-opacity:1;stroke:#000000;stroke-width:0.0px;stroke-linecap:butt;stroke-linejoin:miter;stroke-opacity:1;"/>
<path d="M 700.182,417.386 L 700.18,417.359 L 700.177,417.332 L 700.171,417.306 L 700.163,417.28 L 700.153,417.255 L 700.141,417.232 L 700.127,417.209 L 700.11,417.187 L 700.092,417.167 L 700.073,417.149 L 700.052,417.132 L 700.029,417.117 L 700.006,417.105 L 699.981,417.094 L 699.955,417.085 L 699.929,417.079 L 699.903,417.075 L 699.876,417.073 L 699.849,417.074 L 699.822,417.077 L 699.796,417.082 L 699.77,417.089 L 699.745,417.099 L 699.721,417.111 L 699.698,417.125 L 699.676,417.14 L 699.655,417.158 L 699.637,417.177 L 699.619,417.198 L 699.604,417.22 L 699.591,417.243 L 699.58,417.268 L 699.571,417.293 L 699.564,417.319 L 699.559,417.346 L 699.557,417.372 L 699.557,417.399 L 699.559,417.426 L 699.564,417.453 L 699.571,417.479 L 699.58,417.504 L 699.591,417.528 L 699.604,417.552 L 699.619,417.574 L 699.637,417.595 L 699.655,417.614 L 699.676,417.631 L 699.698,417.647 L 699.721,417.661 L 699.745,417.673 L 699.77,417.682 L 699.796,417.69 L 699.822,417.695 L 699.849,417.698 L 699.876,417.698 L 699.903,417.696 L 699.929,417.692 L 699.955,417.686 L 699.981,417.678 L 700.006,417.667 L 700.029,417.654 L 700.052,417.639 L 700.073,417.623 L 700.092,417.604 L 700.11,417.584 L 700.127,417.563 L 700.141,417.54 L 700.153,417.516 L 700.163,417.491 L 700.171,417.466 L 700.177,417.439 L 700.18,417.413 L 700.182,417.386 L 699.869,417.386 Z" style="fill:#000000;fill-rule:evenodd;fill-opacity:1;stroke:#000000;stroke-width:0.0px;stroke-linecap:butt;stroke-linejoin:miter;stroke-opacity:1;"/>
<path class="bond-0 atom-0 atom-1" d="M 196.405,629.123 L 210.436,622.248" style="fill:none;fill-rule:evenodd;stroke:#000000;stroke-width:2.0px;stroke-linecap:butt;stroke-linejoin:miter;stroke-opacity:1"/>
<path class="bond-0 atom-0 atom-1" d="M 197.135,625.286 L 206.957,620.473" style="fill:none;fill-rule:evenodd;stroke:#000000;stroke-width:2.0px;stroke-linecap:butt;stroke-linejoin:miter;stroke-opacity:1"/>
<path class="bond-26 atom-13 atom-0" d="M 180.885,627.321 L 196.405,629.123" style="fill:none;fill-rule:evenodd;stroke:#000000;stroke-width:2.0px;stroke-linecap:butt;stroke-linejoin:miter;stroke-opacity:1"/>
<path class="bond-1 atom-1 atom-2" d="M 210.436,622.248 L 220.986,633.774" style="fill:none;fill-rule:evenodd;stroke:#000000;stroke-width:2.0px;stroke-linecap:butt;stroke-linejoin:miter;stroke-opacity:1"/>
<path class="bond-2 atom-1 atom-3" d="M 210.436,622.248 L 213.664,616.912" style="fill:none;fill-rule:evenodd;stroke:#000000;stroke-width:2.0px;stroke-linecap:butt;stroke-linejoin:miter;stroke-opacity:1"/>
<path class="bond-2 atom-1 atom-3" d="M 213.664,616.912 L 216.892,611.576" style="fill:none;fill-rule:evenodd;stroke:#FF0000;stroke-width:2.0px;stroke-linecap:butt;stroke-linejoin:miter;stroke-opacity:1"/>
<path class="bond-3 atom-3 atom-4" d="M 218.452,606.251 L 218.275,599.755" style="fill:none;fill-rule:evenodd;stroke:#FF0000;stroke-width:2.0px;stroke-linecap:butt;stroke-linejoin:miter;stroke-opacity:1"/>
<path class="bond-3 atom-3 atom-4" d="M 218.275,599.755 L 218.098,593.26" style="fill:none;fill-rule:evenodd;stroke:#000000;stroke-width:2.0px;stroke-linecap:butt;stroke-linejoin:miter;stroke-opacity:1"/>
<path class="bond-4 atom-4 atom-5" d="M 218.579,594.747 L 224.978,592.677" style="fill:none;fill-rule:evenodd;stroke:#000000;stroke-width:2.0px;stroke-linecap:butt;stroke-linejoin:miter;stroke-opacity:1"/>
<path class="bond-4 atom-4 atom-5" d="M 224.978,592.677 L 231.377,590.607" style="fill:none;fill-rule:evenodd;stroke:#0000FF;stroke-width:2.0px;stroke-linecap:butt;stroke-linejoin:miter;stroke-opacity:1"/>
<path class="bond-4 atom-4 atom-5" d="M 217.617,591.773 L 224.016,589.704" style="fill:none;fill-rule:evenodd;stroke:#000000;stroke-width:2.0px;stroke-linecap:butt;stroke-linejoin:miter;stroke-opacity:1"/>
<path class="bond-4 atom-4 atom-5" d="M 224.016,589.704 L 230.415,587.634" style="fill:none;fill-rule:evenodd;stroke:#0000FF;stroke-width:2.0px;stroke-linecap:butt;stroke-linejoin:miter;stroke-opacity:1"/>
<path class="bond-5 atom-4 atom-6" d="M 218.098,593.26 L 209.296,580.35" style="fill:none;fill-rule:evenodd;stroke:#000000;stroke-width:2.0px;stroke-linecap:butt;stroke-linejoin:miter;stroke-opacity:1"/>
<path class="bond-6 atom-6 atom-7" d="M 209.296,580.35 L 203.315,577.813" style="fill:none;fill-rule:evenodd;stroke:#000000;stroke-width:2.0px;stroke-linecap:butt;stroke-linejoin:miter;stroke-opacity:1"/>
<path class="bond-6 atom-6 atom-7" d="M 203.315,577.813 L 197.334,575.276" style="fill:none;fill-rule:evenodd;stroke:#FF0000;stroke-width:2.0px;stroke-linecap:butt;stroke-linejoin:miter;stroke-opacity:1"/>
<path class="bond-7 atom-7 atom-8" d="M 192.49,574.664 L 186.001,575.778" style="fill:none;fill-rule:evenodd;stroke:#FF0000;stroke-width:2.0px;stroke-linecap:butt;stroke-linejoin:miter;stroke-opacity:1"/>
<path class="bond-7 atom-7 atom-8" d="M 186.001,575.778 L 179.512,576.892" style="fill:none;fill-rule:evenodd;stroke:#000000;stroke-width:2.0px;stroke-linecap:butt;stroke-linejoin:miter;stroke-opacity:1"/>
<path class="bond-8 atom-8 atom-9" d="M 179.512,576.892 L 167.987,587.442" style="fill:none;fill-rule:evenodd;stroke:#000000;stroke-width:2.0px;stroke-linecap:butt;stroke-linejoin:miter;stroke-opacity:1"/>
<path class="bond-8 atom-8 atom-9" d="M 179.893,580.78 L 171.825,588.164" style="fill:none;fill-rule:evenodd;stroke:#000000;stroke-width:2.0px;stroke-linecap:butt;stroke-linejoin:miter;stroke-opacity:1"/>
<path class="bond-9 atom-9 atom-10" d="M 167.987,587.442 L 154.617,579.355" style="fill:none;fill-rule:evenodd;stroke:#000000;stroke-width:2.0px;stroke-linecap:butt;stroke-linejoin:miter;stroke-opacity:1"/>
<path class="bond-10 atom-9 atom-11" d="M 167.987,587.442 L 166.334,593.696" style="fill:none;fill-rule:evenodd;stroke:#000000;stroke-width:2.0px;stroke-linecap:butt;stroke-linejoin:miter;stroke-opacity:1"/>
<path class="bond-10 atom-9 atom-11" d="M 166.334,593.696 L 164.68,599.951" style="fill:none;fill-rule:evenodd;stroke:#CCCC00;stroke-width:2.0px;stroke-linecap:butt;stroke-linejoin:miter;stroke-opacity:1"/>
<path class="bond-11 atom-11 atom-12" d="M 164.872,605.263 L 166.837,611.339" style="fill:none;fill-rule:evenodd;stroke:#CCCC00;stroke-width:2.0px;stroke-linecap:butt;stroke-linejoin:miter;stroke-opacity:1"/>
<path class="bond-11 atom-11 atom-12" d="M 166.837,611.339 L 168.802,617.414" style="fill:none;fill-rule:evenodd;stroke:#000000;stroke-width:2.0px;stroke-linecap:butt;stroke-linejoin:miter;stroke-opacity:1"/>
<path class="bond-12 atom-12 atom-13" d="M 168.802,617.414 L 180.885,627.321" style="fill:none;fill-rule:evenodd;stroke:#000000;stroke-width:2.0px;stroke-linecap:butt;stroke-linejoin:miter;stroke-opacity:1"/>
<path class="bond-12 atom-12 atom-13" d="M 172.596,616.484 L 181.054,623.419" style="fill:none;fill-rule:evenodd;stroke:#000000;stroke-width:2.0px;stroke-linecap:butt;stroke-linejoin:miter;stroke-opacity:1"/>
<path class="bond-13 atom-13 atom-14" d="M 180.885,627.321 L 174.783,641.706" style="fill:none;fill-rule:evenodd;stroke:#000000;stroke-width:2.0px;stroke-linecap:butt;stroke-linejoin:miter;stroke-opacity:1"/>
<path class="bond-14 atom-14 atom-15" d="M 174.592,640.155 L 161.181,641.805" style="fill:none;fill-rule:evenodd;stroke:#000000;stroke-width:2.0px;stroke-linecap:butt;stroke-linejoin:miter;stroke-opacity:1"/>
<path class="bond-14 atom-14 atom-15" d="M 174.974,643.256 L 161.563,644.906" style="fill:none;fill-rule:evenodd;stroke:#000000;stroke-width:2.0px;stroke-linecap:butt;stroke-linejoin:miter;stroke-opacity:1"/>
<path class="bond-15 atom-15 atom-16" d="M 156.988,642.321 L 143.577,643.971" style="fill:none;fill-rule:evenodd;stroke:#000000;stroke-width:2.0px;stroke-linecap:butt;stroke-linejoin:miter;stroke-opacity:1"/>
<path class="bond-15 atom-15 atom-16" d="M 157.369,645.422 L 143.958,647.072" style="fill:none;fill-rule:evenodd;stroke:#000000;stroke-width:2.0px;stroke-linecap:butt;stroke-linejoin:miter;stroke-opacity:1"/>
<path class="bond-16 atom-16 atom-17" d="M 143.767,645.521 L 134.361,633.045" style="fill:none;fill-rule:evenodd;stroke:#000000;stroke-width:2.0px;stroke-linecap:butt;stroke-linejoin:miter;stroke-opacity:1"/>
<path class="bond-17 atom-17 atom-18" d="M 134.361,633.045 L 118.853,634.953" style="fill:none;fill-rule:evenodd;stroke:#000000;stroke-width:2.0px;stroke-linecap:butt;stroke-linejoin:miter;stroke-opacity:1"/>
<path class="bond-18 atom-18 atom-19" d="M 118.853,634.953 L 115.167,630.063" style="fill:none;fill-rule:evenodd;stroke:#000000;stroke-width:2.0px;stroke-linecap:butt;stroke-linejoin:miter;stroke-opacity:1"/>
<path class="bond-18 atom-18 atom-19" d="M 115.167,630.063 L 111.48,625.174" style="fill:none;fill-rule:evenodd;stroke:#FF0000;stroke-width:2.0px;stroke-linecap:butt;stroke-linejoin:miter;stroke-opacity:1"/>
<path class="bond-19 atom-19 atom-20" d="M 107.025,622.775 L 100.482,623.58" style="fill:none;fill-rule:evenodd;stroke:#FF0000;stroke-width:2.0px;stroke-linecap:butt;stroke-linejoin:miter;stroke-opacity:1"/>
<path class="bond-19 atom-19 atom-20" d="M 100.482,623.58 L 93.9392,624.385" style="fill:none;fill-rule:evenodd;stroke:#000000;stroke-width:2.0px;stroke-linecap:butt;stroke-linejoin:miter;stroke-opacity:1"/>
<path class="bond-20 atom-20 atom-21" d="M 93.9392,624.385 L 84.5329,611.908" style="fill:none;fill-rule:evenodd;stroke:#000000;stroke-width:2.0px;stroke-linecap:butt;stroke-linejoin:miter;stroke-opacity:1"/>
<path class="bond-21 atom-21 atom-22" d="M 84.5329,611.908 L 69.025,613.816" style="fill:none;fill-rule:evenodd;stroke:#000000;stroke-width:2.0px;stroke-linecap:butt;stroke-linejoin:miter;stroke-opacity:1"/>
<path class="bond-22 atom-22 atom-23" d="M 69.025,613.816 L 65.3032,608.88" style="fill:none;fill-rule:evenodd;stroke:#000000;stroke-width:2.0px;stroke-linecap:butt;stroke-linejoin:miter;stroke-opacity:1"/>
<path class="bond-22 atom-22 atom-23" d="M 65.3032,608.88 L 61.5814,603.943" style="fill:none;fill-rule:evenodd;stroke:#0000FF;stroke-width:2.0px;stroke-linecap:butt;stroke-linejoin:miter;stroke-opacity:1"/>
<path class="bond-23 atom-23 atom-24" d="M 57.5501,601.594 L 50.8305,602.421" style="fill:none;fill-rule:evenodd;stroke:#0000FF;stroke-width:2.0px;stroke-linecap:butt;stroke-linejoin:miter;stroke-opacity:1"/>
<path class="bond-23 atom-23 atom-24" d="M 50.8305,602.421 L 44.1109,603.248" style="fill:none;fill-rule:evenodd;stroke:#000000;stroke-width:2.0px;stroke-linecap:butt;stroke-linejoin:miter;stroke-opacity:1"/>
<path class="bond-23 atom-23 atom-24" d="M 55.9158,604.944 L 51.2121,605.523" style="fill:none;fill-rule:evenodd;stroke:#0000FF;stroke-width:2.0px;stroke-linecap:butt;stroke-linejoin:miter;stroke-opacity:1"/>
<path class="bond-23 atom-23 atom-24" d="M 51.2121,605.523 L 46.5084,606.101" style="fill:none;fill-rule:evenodd;stroke:#000000;stroke-width:2.0px;stroke-linecap:butt;stroke-linejoin:miter;stroke-opacity:1"/>
<path class="bond-24 atom-24 atom-25" d="M 44.1109,603.248 L 34.7047,590.771" style="fill:none;fill-rule:evenodd;stroke:#000000;stroke-width:2.0px;stroke-linecap:butt;stroke-linejoin:miter;stroke-opacity:1"/>
<path class="bond-25 atom-25 atom-26" d="M 34.7047,590.771 L 27.9851,591.598" style="fill:none;fill-rule:evenodd;stroke:#000000;stroke-width:2.0px;stroke-linecap:butt;stroke-linejoin:miter;stroke-opacity:1"/>
<path class="bond-25 atom-25 atom-26" d="M 27.9851,591.598 L 21.2655,592.425" style="fill:none;fill-rule:evenodd;stroke:#0000FF;stroke-width:2.0px;stroke-linecap:butt;stroke-linejoin:miter;stroke-opacity:1"/>
<path class="atom-3" d="M 216.492 608.892 Q 216.492 607.829, 217.017 607.235 Q 217.542 606.642, 218.523 606.642 Q 219.504 606.642, 220.029 607.235 Q 220.554 607.829, 220.554 608.892 Q 220.554 609.966, 220.023 610.579 Q 219.492 611.185, 218.523 611.185 Q 217.548 611.185, 217.017 610.579 Q 216.492 609.973, 216.492 608.892 M 218.523 610.685 Q 219.198 610.685, 219.561 610.235 Q 219.929 609.779, 219.929 608.892 Q 219.929 608.023, 219.561 607.585 Q 219.198 607.142, 218.523 607.142 Q 217.848 607.142, 217.479 607.579 Q 217.117 608.017, 217.117 608.892 Q 217.117 609.785, 217.479 610.235 Q 217.848 610.685, 218.523 610.685 " fill="#FF0000"/>
<path class="atom-5" d="M 231.986 586.239 L 233.436 588.583 Q 233.58 588.814, 233.811 589.233 Q 234.043 589.652, 234.055 589.677 L 234.055 586.239 L 234.643 586.239 L 234.643 590.664 L 234.036 590.664 L 232.48 588.102 Q 232.299 587.802, 232.105 587.458 Q 231.918 587.114, 231.861 587.008 L 231.861 590.664 L 231.286 590.664 L 231.286 586.239 L 231.986 586.239 " fill="#0000FF"/>
<path class="atom-5" d="M 235.174 586.239 L 235.774 586.239 L 235.774 588.12 L 238.036 588.12 L 238.036 586.239 L 238.636 586.239 L 238.636 590.664 L 238.036 590.664 L 238.036 588.62 L 235.774 588.62 L 235.774 590.664 L 235.174 590.664 L 235.174 586.239 " fill="#0000FF"/>
<path class="atom-7" d="M 192.881 574.261 Q 192.881 573.199, 193.406 572.605 Q 193.931 572.011, 194.912 572.011 Q 195.893 572.011, 196.418 572.605 Q 196.943 573.199, 196.943 574.261 Q 196.943 575.336, 196.412 575.949 Q 195.881 576.555, 194.912 576.555 Q 193.937 576.555, 193.406 575.949 Q 192.881 575.342, 192.881 574.261 M 194.912 576.055 Q 195.587 576.055, 195.949 575.605 Q 196.318 575.149, 196.318 574.261 Q 196.318 573.392, 195.949 572.955 Q 195.587 572.511, 194.912 572.511 Q 194.237 572.511, 193.868 572.949 Q 193.506 573.386, 193.506 574.261 Q 193.506 575.155, 193.868 575.605 Q 194.237 576.055, 194.912 576.055 " fill="#FF0000"/>
<path class="atom-11" d="M 162.744 604.067 Q 162.794 604.085, 163 604.173 Q 163.207 604.26, 163.432 604.317 Q 163.663 604.367, 163.888 604.367 Q 164.307 604.367, 164.55 604.167 Q 164.794 603.96, 164.794 603.604 Q 164.794 603.36, 164.669 603.21 Q 164.55 603.06, 164.363 602.979 Q 164.175 602.898, 163.863 602.804 Q 163.469 602.685, 163.232 602.573 Q 163 602.46, 162.832 602.223 Q 162.669 601.985, 162.669 601.585 Q 162.669 601.029, 163.044 600.685 Q 163.425 600.342, 164.175 600.342 Q 164.688 600.342, 165.269 600.585 L 165.125 601.067 Q 164.594 600.848, 164.194 600.848 Q 163.763 600.848, 163.525 601.029 Q 163.288 601.204, 163.294 601.51 Q 163.294 601.748, 163.413 601.892 Q 163.538 602.035, 163.713 602.117 Q 163.894 602.198, 164.194 602.292 Q 164.594 602.417, 164.832 602.542 Q 165.069 602.667, 165.238 602.923 Q 165.413 603.173, 165.413 603.604 Q 165.413 604.217, 165 604.548 Q 164.594 604.873, 163.913 604.873 Q 163.519 604.873, 163.219 604.785 Q 162.925 604.704, 162.575 604.56 L 162.744 604.067 " fill="#CCCC00"/>
<path class="atom-15" d="M 157.569 643.632 Q 157.569 642.532, 158.082 641.957 Q 158.6 641.376, 159.582 641.376 Q 160.494 641.376, 160.982 642.02 L 160.569 642.357 Q 160.213 641.889, 159.582 641.889 Q 158.913 641.889, 158.557 642.339 Q 158.207 642.782, 158.207 643.632 Q 158.207 644.507, 158.569 644.957 Q 158.938 645.407, 159.65 645.407 Q 160.138 645.407, 160.707 645.113 L 160.882 645.582 Q 160.65 645.732, 160.3 645.82 Q 159.95 645.907, 159.563 645.907 Q 158.6 645.907, 158.082 645.32 Q 157.569 644.732, 157.569 643.632 " fill="#000000"/>
<path class="atom-19" d="M 107.416 622.489 Q 107.416 621.427, 107.941 620.833 Q 108.466 620.239, 109.447 620.239 Q 110.428 620.239, 110.953 620.833 Q 111.478 621.427, 111.478 622.489 Q 111.478 623.564, 110.947 624.177 Q 110.416 624.783, 109.447 624.783 Q 108.472 624.783, 107.941 624.177 Q 107.416 623.57, 107.416 622.489 M 109.447 624.283 Q 110.122 624.283, 110.485 623.833 Q 110.853 623.377, 110.853 622.489 Q 110.853 621.62, 110.485 621.183 Q 110.122 620.739, 109.447 620.739 Q 108.772 620.739, 108.403 621.177 Q 108.041 621.614, 108.041 622.489 Q 108.041 623.383, 108.403 623.833 Q 108.772 624.283, 109.447 624.283 " fill="#FF0000"/>
<path class="atom-23" d="M 58.6407 599.127 L 60.0907 601.471 Q 60.2344 601.702, 60.4657 602.121 Q 60.6969 602.54, 60.7094 602.565 L 60.7094 599.127 L 61.2969 599.127 L 61.2969 603.552 L 60.6907 603.552 L 59.1345 600.99 Q 58.9532 600.69, 58.7595 600.346 Q 58.572 600.002, 58.5157 599.896 L 58.5157 603.552 L 57.9407 603.552 L 57.9407 599.127 L 58.6407 599.127 " fill="#0000FF"/>
<path class="atom-26" d="M 11.3636 590.467 L 11.9636 590.467 L 11.9636 592.348 L 14.2261 592.348 L 14.2261 590.467 L 14.8261 590.467 L 14.8261 594.892 L 14.2261 594.892 L 14.2261 592.848 L 11.9636 592.848 L 11.9636 594.892 L 11.3636 594.892 L 11.3636 590.467 " fill="#0000FF"/>
<path class="atom-26" d="M 15.0406 594.736 Q 15.1478 594.46, 15.4036 594.307 Q 15.6593 594.151, 16.0141 594.151 Q 16.4555 594.151, 16.703 594.39 Q 16.9504 594.629, 16.9504 595.054 Q 16.9504 595.487, 16.6287 595.891 Q 16.3111 596.296, 15.6511 596.774 L 16.9999 596.774 L 16.9999 597.104 L 15.0323 597.104 L 15.0323 596.828 Q 15.5768 596.44, 15.8986 596.151 Q 16.2245 595.863, 16.3812 595.603 Q 16.538 595.343, 16.538 595.075 Q 16.538 594.794, 16.3977 594.637 Q 16.2575 594.481, 16.0141 594.481 Q 15.779 594.481, 15.6222 594.576 Q 15.4655 594.67, 15.3541 594.881 L 15.0406 594.736 " fill="#0000FF"/>
<path class="atom-26" d="M 18.2187 590.467 L 19.6687 592.811 Q 19.8124 593.042, 20.0437 593.461 Q 20.2749 593.879, 20.2874 593.904 L 20.2874 590.467 L 20.8749 590.467 L 20.8749 594.892 L 20.2687 594.892 L 18.7124 592.329 Q 18.5312 592.029, 18.3374 591.686 Q 18.1499 591.342, 18.0937 591.236 L 18.0937 594.892 L 17.5187 594.892 L 17.5187 590.467 L 18.2187 590.467 " fill="#0000FF"/>
<path d="M 136.549,633.045 L 136.548,633.018 L 136.544,632.992 L 136.538,632.965 L 136.53,632.94 L 136.52,632.915 L 136.508,632.891 L 136.494,632.868 L 136.477,632.847 L 136.459,632.827 L 136.44,632.808 L 136.419,632.791 L 136.396,632.777 L 136.373,632.764 L 136.348,632.753 L 136.322,632.745 L 136.296,632.738 L 136.27,632.734 L 136.243,632.733 L 136.216,632.733 L 136.189,632.736 L 136.163,632.741 L 136.137,632.749 L 136.112,632.758 L 136.088,632.77 L 136.065,632.784 L 136.043,632.8 L 136.022,632.817 L 136.004,632.836 L 135.987,632.857 L 135.971,632.879 L 135.958,632.903 L 135.947,632.927 L 135.938,632.952 L 135.931,632.978 L 135.926,633.005 L 135.924,633.032 L 135.924,633.059 L 135.926,633.085 L 135.931,633.112 L 135.938,633.138 L 135.947,633.163 L 135.958,633.188 L 135.971,633.211 L 135.987,633.233 L 136.004,633.254 L 136.022,633.273 L 136.043,633.291 L 136.065,633.306 L 136.088,633.32 L 136.112,633.332 L 136.137,633.341 L 136.163,633.349 L 136.189,633.354 L 136.216,633.357 L 136.243,633.358 L 136.27,633.356 L 136.296,633.352 L 136.322,633.345 L 136.348,633.337 L 136.373,633.326 L 136.396,633.313 L 136.419,633.299 L 136.44,633.282 L 136.459,633.264 L 136.477,633.244 L 136.494,633.222 L 136.508,633.199 L 136.52,633.175 L 136.53,633.151 L 136.538,633.125 L 136.544,633.099 L 136.548,633.072 L 136.549,633.045 L 136.236,633.045 Z" style="fill:#000000;fill-rule:evenodd;fill-opacity:1;stroke:#000000;stroke-width:0.0px;stroke-linecap:butt;stroke-linejoin:miter;stroke-opacity:1;"/>
<path class="bond-0 atom-0 atom-1" d="M 384.893,614.139 L 390.044,628.891" style="fill:none;fill-rule:evenodd;stroke:#000000;stroke-width:2.0px;stroke-linecap:butt;stroke-linejoin:miter;stroke-opacity:1"/>
<path class="bond-1 atom-0 atom-2" d="M 384.893,614.139 L 379.742,599.388" style="fill:none;fill-rule:evenodd;stroke:#000000;stroke-width:2.0px;stroke-linecap:butt;stroke-linejoin:miter;stroke-opacity:1"/>
<path class="bond-9 atom-0 atom-10" d="M 384.893,614.139 L 370.142,619.291" style="fill:none;fill-rule:evenodd;stroke:#000000;stroke-width:2.0px;stroke-linecap:butt;stroke-linejoin:miter;stroke-opacity:1"/>
<path class="bond-13 atom-4 atom-0" d="M 397.576,609.711 L 391.234,611.925" style="fill:none;fill-rule:evenodd;stroke:#0000FF;stroke-width:2.0px;stroke-linecap:butt;stroke-linejoin:miter;stroke-opacity:1"/>
<path class="bond-13 atom-4 atom-0" d="M 391.234,611.925 L 384.893,614.139" style="fill:none;fill-rule:evenodd;stroke:#000000;stroke-width:2.0px;stroke-linecap:butt;stroke-linejoin:miter;stroke-opacity:1"/>
<path class="bond-2 atom-2 atom-3" d="M 379.742,599.388 L 394.493,594.237" style="fill:none;fill-rule:evenodd;stroke:#000000;stroke-width:2.0px;stroke-linecap:butt;stroke-linejoin:miter;stroke-opacity:1"/>
<path class="bond-3 atom-3 atom-4" d="M 394.493,594.237 L 396.614,600.311" style="fill:none;fill-rule:evenodd;stroke:#000000;stroke-width:2.0px;stroke-linecap:butt;stroke-linejoin:miter;stroke-opacity:1"/>
<path class="bond-3 atom-3 atom-4" d="M 396.614,600.311 L 398.735,606.385" style="fill:none;fill-rule:evenodd;stroke:#0000FF;stroke-width:2.0px;stroke-linecap:butt;stroke-linejoin:miter;stroke-opacity:1"/>
<path class="bond-4 atom-4 atom-5" d="M 401.713,609.986 L 407.715,612.881" style="fill:none;fill-rule:evenodd;stroke:#0000FF;stroke-width:2.0px;stroke-linecap:butt;stroke-linejoin:miter;stroke-opacity:1"/>
<path class="bond-4 atom-4 atom-5" d="M 407.715,612.881 L 413.717,615.777" style="fill:none;fill-rule:evenodd;stroke:#000000;stroke-width:2.0px;stroke-linecap:butt;stroke-linejoin:miter;stroke-opacity:1"/>
<path class="bond-5 atom-5 atom-6" d="M 413.717,615.777 L 426.633,606.983" style="fill:none;fill-rule:evenodd;stroke:#000000;stroke-width:2.0px;stroke-linecap:butt;stroke-linejoin:miter;stroke-opacity:1"/>
<path class="bond-6 atom-6 atom-7" d="M 426.633,606.983 L 440.706,613.771" style="fill:none;fill-rule:evenodd;stroke:#000000;stroke-width:2.0px;stroke-linecap:butt;stroke-linejoin:miter;stroke-opacity:1"/>
<path class="bond-7 atom-7 atom-8" d="M 440.706,613.771 L 453.622,604.978" style="fill:none;fill-rule:evenodd;stroke:#000000;stroke-width:2.0px;stroke-linecap:butt;stroke-linejoin:miter;stroke-opacity:1"/>
<path class="bond-8 atom-8 atom-9" d="M 453.622,604.978 L 459.624,607.873" style="fill:none;fill-rule:evenodd;stroke:#000000;stroke-width:2.0px;stroke-linecap:butt;stroke-linejoin:miter;stroke-opacity:1"/>
<path class="bond-8 atom-8 atom-9" d="M 459.624,607.873 L 465.626,610.768" style="fill:none;fill-rule:evenodd;stroke:#0000FF;stroke-width:2.0px;stroke-linecap:butt;stroke-linejoin:miter;stroke-opacity:1"/>
<path class="bond-10 atom-10 atom-11" d="M 370.142,619.291 L 365.258,615.082" style="fill:none;fill-rule:evenodd;stroke:#000000;stroke-width:2.0px;stroke-linecap:butt;stroke-linejoin:miter;stroke-opacity:1"/>
<path class="bond-10 atom-10 atom-11" d="M 365.258,615.082 L 360.374,610.874" style="fill:none;fill-rule:evenodd;stroke:#0000FF;stroke-width:2.0px;stroke-linecap:butt;stroke-linejoin:miter;stroke-opacity:1"/>
<path class="bond-10 atom-10 atom-11" d="M 370.716,615.661 L 367.298,612.715" style="fill:none;fill-rule:evenodd;stroke:#000000;stroke-width:2.0px;stroke-linecap:butt;stroke-linejoin:miter;stroke-opacity:1"/>
<path class="bond-10 atom-10 atom-11" d="M 367.298,612.715 L 363.879,609.769" style="fill:none;fill-rule:evenodd;stroke:#0000FF;stroke-width:2.0px;stroke-linecap:butt;stroke-linejoin:miter;stroke-opacity:1"/>
<path class="bond-11 atom-11 atom-12" d="M 356.236,609.813 L 345.568,613.539" style="fill:none;fill-rule:evenodd;stroke:#0000FF;stroke-width:2.0px;stroke-linecap:butt;stroke-linejoin:miter;stroke-opacity:1"/>
<path class="bond-12 atom-12 atom-13" d="M 341.485,612.46 L 337.42,608.957" style="fill:none;fill-rule:evenodd;stroke:#0000FF;stroke-width:2.0px;stroke-linecap:butt;stroke-linejoin:miter;stroke-opacity:1"/>
<path class="bond-12 atom-12 atom-13" d="M 337.42,608.957 L 333.355,605.454" style="fill:none;fill-rule:evenodd;stroke:#33CCCC;stroke-width:2.0px;stroke-linecap:butt;stroke-linejoin:miter;stroke-opacity:1"/>
<path class="atom-4" d="M 398.666 606.776 L 400.116 609.119 Q 400.26 609.351, 400.491 609.769 Q 400.722 610.188, 400.735 610.213 L 400.735 606.776 L 401.322 606.776 L 401.322 611.201 L 400.716 611.201 L 399.16 608.638 Q 398.979 608.338, 398.785 607.994 Q 398.597 607.651, 398.541 607.544 L 398.541 611.201 L 397.966 611.201 L 397.966 606.776 L 398.666 606.776 " fill="#0000FF"/>
<path class="atom-9" d="M 466.717 609.554 L 468.167 611.897 Q 468.31 612.129, 468.542 612.547 Q 468.773 612.966, 468.785 612.991 L 468.785 609.554 L 469.373 609.554 L 469.373 613.979 L 468.767 613.979 L 467.21 611.416 Q 467.029 611.116, 466.835 610.772 Q 466.648 610.429, 466.592 610.322 L 466.592 613.979 L 466.017 613.979 L 466.017 609.554 L 466.717 609.554 " fill="#0000FF"/>
<path class="atom-9" d="M 469.904 609.554 L 470.504 609.554 L 470.504 611.435 L 472.766 611.435 L 472.766 609.554 L 473.366 609.554 L 473.366 613.979 L 472.766 613.979 L 472.766 611.935 L 470.504 611.935 L 470.504 613.979 L 469.904 613.979 L 469.904 609.554 " fill="#0000FF"/>
<path class="atom-9" d="M 473.581 613.823 Q 473.688 613.547, 473.944 613.394 Q 474.2 613.238, 474.554 613.238 Q 474.996 613.238, 475.243 613.477 Q 475.491 613.716, 475.491 614.141 Q 475.491 614.574, 475.169 614.978 Q 474.851 615.383, 474.191 615.861 L 475.54 615.861 L 475.54 616.191 L 473.573 616.191 L 473.573 615.915 Q 474.117 615.527, 474.439 615.238 Q 474.765 614.949, 474.922 614.69 Q 475.078 614.43, 475.078 614.162 Q 475.078 613.881, 474.938 613.724 Q 474.798 613.568, 474.554 613.568 Q 474.319 613.568, 474.163 613.662 Q 474.006 613.757, 473.894 613.968 L 473.581 613.823 " fill="#0000FF"/>
<path class="atom-11" d="M 357.327 606.879 L 358.777 609.222 Q 358.921 609.454, 359.152 609.872 Q 359.383 610.291, 359.396 610.316 L 359.396 606.879 L 359.983 606.879 L 359.983 611.304 L 359.377 611.304 L 357.821 608.741 Q 357.639 608.441, 357.446 608.097 Q 357.258 607.754, 357.202 607.647 L 357.202 611.304 L 356.627 611.304 L 356.627 606.879 L 357.327 606.879 " fill="#0000FF"/>
<path class="atom-12" d="M 342.576 612.03 L 344.026 614.373 Q 344.169 614.605, 344.401 615.023 Q 344.632 615.442, 344.644 615.467 L 344.644 612.03 L 345.232 612.03 L 345.232 616.455 L 344.626 616.455 L 343.069 613.892 Q 342.888 613.592, 342.694 613.249 Q 342.507 612.905, 342.451 612.799 L 342.451 616.455 L 341.876 616.455 L 341.876 612.03 L 342.576 612.03 " fill="#0000FF"/>
<path class="atom-12" d="M 341.823 616.897 L 342.423 616.897 L 342.423 618.778 L 344.685 618.778 L 344.685 616.897 L 345.285 616.897 L 345.285 621.322 L 344.685 621.322 L 344.685 619.278 L 342.423 619.278 L 342.423 621.322 L 341.823 621.322 L 341.823 616.897 " fill="#0000FF"/>
<path class="atom-13" d="M 330.401 601.83 L 333.033 601.83 L 333.033 602.337 L 330.995 602.337 L 330.995 603.68 L 332.808 603.68 L 332.808 604.193 L 330.995 604.193 L 330.995 606.255 L 330.401 606.255 L 330.401 601.83 " fill="#33CCCC"/>
<path d="M 414.03,617.183 L 414.029,617.156 L 414.025,617.129 L 414.02,617.103 L 414.012,617.077 L 414.001,617.052 L 413.989,617.028 L 413.975,617.006 L 413.959,616.984 L 413.941,616.964 L 413.921,616.946 L 413.9,616.929 L 413.878,616.914 L 413.854,616.902 L 413.829,616.891 L 413.804,616.882 L 413.778,616.876 L 413.751,616.872 L 413.724,616.87 L 413.697,616.871 L 413.671,616.874 L 413.644,616.879 L 413.618,616.886 L 413.593,616.896 L 413.569,616.908 L 413.546,616.922 L 413.524,616.937 L 413.504,616.955 L 413.485,616.974 L 413.468,616.995 L 413.453,617.017 L 413.439,617.04 L 413.428,617.065 L 413.419,617.09 L 413.412,617.116 L 413.408,617.143 L 413.405,617.169 L 413.405,617.196 L 413.408,617.223 L 413.412,617.25 L 413.419,617.276 L 413.428,617.301 L 413.439,617.325 L 413.453,617.349 L 413.468,617.371 L 413.485,617.392 L 413.504,617.411 L 413.524,617.428 L 413.546,617.444 L 413.569,617.458 L 413.593,617.47 L 413.618,617.479 L 413.644,617.487 L 413.671,617.492 L 413.697,617.495 L 413.724,617.495 L 413.751,617.493 L 413.778,617.489 L 413.804,617.483 L 413.829,617.475 L 413.854,617.464 L 413.878,617.451 L 413.9,617.436 L 413.921,617.42 L 413.941,617.401 L 413.959,617.381 L 413.975,617.36 L 413.989,617.337 L 414.001,617.313 L 414.012,617.288 L 414.02,617.263 L 414.025,617.236 L 414.029,617.21 L 414.03,617.183 L 413.717,617.183 Z" style="fill:#000000;fill-rule:evenodd;fill-opacity:1;stroke:#000000;stroke-width:0.0px;stroke-linecap:butt;stroke-linejoin:miter;stroke-opacity:1;"/>
<path class="bond-0 atom-0 atom-1" d="M 622.157,636.999 L 627.45,633.477" style="fill:none;fill-rule:evenodd;stroke:#000000;stroke-width:2.0px;stroke-linecap:butt;stroke-linejoin:miter;stroke-opacity:1"/>
<path class="bond-0 atom-0 atom-1" d="M 627.45,633.477 L 632.744,629.955" style="fill:none;fill-rule:evenodd;stroke:#FF0000;stroke-width:2.0px;stroke-linecap:butt;stroke-linejoin:miter;stroke-opacity:1"/>
<path class="bond-16 atom-2 atom-0" d="M 621.166,621.406 L 622.157,636.999" style="fill:none;fill-rule:evenodd;stroke:#000000;stroke-width:2.0px;stroke-linecap:butt;stroke-linejoin:miter;stroke-opacity:1"/>
<path class="bond-1 atom-1 atom-2" d="M 632.744,627.144 L 626.955,624.275" style="fill:none;fill-rule:evenodd;stroke:#FF0000;stroke-width:2.0px;stroke-linecap:butt;stroke-linejoin:miter;stroke-opacity:1"/>
<path class="bond-1 atom-1 atom-2" d="M 626.955,624.275 L 621.166,621.406" style="fill:none;fill-rule:evenodd;stroke:#000000;stroke-width:2.0px;stroke-linecap:butt;stroke-linejoin:miter;stroke-opacity:1"/>
<path class="bond-2 atom-2 atom-3" d="M 621.166,621.406 L 605.637,619.674" style="fill:none;fill-rule:evenodd;stroke:#000000;stroke-width:2.0px;stroke-linecap:butt;stroke-linejoin:miter;stroke-opacity:1"/>
<path class="bond-4 atom-2 atom-5" d="M 621.166,621.406 L 625.568,606.414" style="fill:none;fill-rule:evenodd;stroke:#000000;stroke-width:2.0px;stroke-linecap:butt;stroke-linejoin:miter;stroke-opacity:1"/>
<path class="bond-3 atom-3 atom-4" d="M 607.069,619.047 L 600.804,604.734" style="fill:none;fill-rule:evenodd;stroke:#000000;stroke-width:2.0px;stroke-linecap:butt;stroke-linejoin:miter;stroke-opacity:1"/>
<path class="bond-3 atom-3 atom-4" d="M 604.206,620.3 L 597.941,605.986" style="fill:none;fill-rule:evenodd;stroke:#000000;stroke-width:2.0px;stroke-linecap:butt;stroke-linejoin:miter;stroke-opacity:1"/>
<path class="bond-5 atom-5 atom-6" d="M 625.568,606.414 L 621.03,601.654" style="fill:none;fill-rule:evenodd;stroke:#000000;stroke-width:2.0px;stroke-linecap:butt;stroke-linejoin:miter;stroke-opacity:1"/>
<path class="bond-5 atom-5 atom-6" d="M 621.03,601.654 L 616.491,596.895" style="fill:none;fill-rule:evenodd;stroke:#33CCCC;stroke-width:2.0px;stroke-linecap:butt;stroke-linejoin:miter;stroke-opacity:1"/>
<path class="bond-6 atom-5 atom-7" d="M 625.568,606.414 L 640.752,602.73" style="fill:none;fill-rule:evenodd;stroke:#000000;stroke-width:2.0px;stroke-linecap:butt;stroke-linejoin:miter;stroke-opacity:1"/>
<path class="bond-7 atom-7 atom-8" d="M 640.752,602.73 L 642.571,596.535" style="fill:none;fill-rule:evenodd;stroke:#000000;stroke-width:2.0px;stroke-linecap:butt;stroke-linejoin:miter;stroke-opacity:1"/>
<path class="bond-7 atom-7 atom-8" d="M 642.571,596.535 L 644.39,590.341" style="fill:none;fill-rule:evenodd;stroke:#0000FF;stroke-width:2.0px;stroke-linecap:butt;stroke-linejoin:miter;stroke-opacity:1"/>
<path class="bond-7 atom-7 atom-8" d="M 638.299,599.991 L 639.572,595.655" style="fill:none;fill-rule:evenodd;stroke:#000000;stroke-width:2.0px;stroke-linecap:butt;stroke-linejoin:miter;stroke-opacity:1"/>
<path class="bond-7 atom-7 atom-8" d="M 639.572,595.655 L 640.846,591.319" style="fill:none;fill-rule:evenodd;stroke:#0000FF;stroke-width:2.0px;stroke-linecap:butt;stroke-linejoin:miter;stroke-opacity:1"/>
<path class="bond-8 atom-8 atom-9" d="M 649.52,586.679 L 654.929,585.366" style="fill:none;fill-rule:evenodd;stroke:#0000FF;stroke-width:2.0px;stroke-linecap:butt;stroke-linejoin:miter;stroke-opacity:1"/>
<path class="bond-8 atom-8 atom-9" d="M 654.929,585.366 L 660.338,584.054" style="fill:none;fill-rule:evenodd;stroke:#000000;stroke-width:2.0px;stroke-linecap:butt;stroke-linejoin:miter;stroke-opacity:1"/>
<path class="bond-9 atom-9 atom-10" d="M 660.338,584.054 L 664.74,569.062" style="fill:none;fill-rule:evenodd;stroke:#000000;stroke-width:2.0px;stroke-linecap:butt;stroke-linejoin:miter;stroke-opacity:1"/>
<path class="bond-10 atom-9 atom-11" d="M 660.338,584.054 L 671.121,595.362" style="fill:none;fill-rule:evenodd;stroke:#000000;stroke-width:2.0px;stroke-linecap:butt;stroke-linejoin:miter;stroke-opacity:1"/>
<path class="bond-11 atom-11 atom-12" d="M 671.121,595.362 L 686.113,599.764" style="fill:none;fill-rule:evenodd;stroke:#000000;stroke-width:2.0px;stroke-linecap:butt;stroke-linejoin:miter;stroke-opacity:1"/>
<path class="bond-11 atom-11 atom-12" d="M 672.489,599.021 L 682.983,602.102" style="fill:none;fill-rule:evenodd;stroke:#000000;stroke-width:2.0px;stroke-linecap:butt;stroke-linejoin:miter;stroke-opacity:1"/>
<path class="bond-12 atom-11 atom-13" d="M 671.121,595.362 L 674.805,610.546" style="fill:none;fill-rule:evenodd;stroke:#000000;stroke-width:2.0px;stroke-linecap:butt;stroke-linejoin:miter;stroke-opacity:1"/>
<path class="bond-17 atom-13 atom-12" d="M 674.805,610.546 L 686.113,599.764" style="fill:none;fill-rule:evenodd;stroke:#000000;stroke-width:2.0px;stroke-linecap:butt;stroke-linejoin:miter;stroke-opacity:1"/>
<path class="bond-13 atom-13 atom-14" d="M 674.805,610.546 L 670.403,625.538" style="fill:none;fill-rule:evenodd;stroke:#000000;stroke-width:2.0px;stroke-linecap:butt;stroke-linejoin:miter;stroke-opacity:1"/>
<path class="bond-14 atom-14 atom-15" d="M 670.403,625.538 L 674.889,630.244" style="fill:none;fill-rule:evenodd;stroke:#000000;stroke-width:2.0px;stroke-linecap:butt;stroke-linejoin:miter;stroke-opacity:1"/>
<path class="bond-14 atom-14 atom-15" d="M 674.889,630.244 L 679.376,634.949" style="fill:none;fill-rule:evenodd;stroke:#CCCC00;stroke-width:2.0px;stroke-linecap:butt;stroke-linejoin:miter;stroke-opacity:1"/>
<path class="bond-15 atom-15 atom-16" d="M 678.887,639.128 L 677.457,643.997" style="fill:none;fill-rule:evenodd;stroke:#CCCC00;stroke-width:2.0px;stroke-linecap:butt;stroke-linejoin:miter;stroke-opacity:1"/>
<path class="bond-15 atom-15 atom-16" d="M 677.457,643.997 L 676.028,648.866" style="fill:none;fill-rule:evenodd;stroke:#0000FF;stroke-width:2.0px;stroke-linecap:butt;stroke-linejoin:miter;stroke-opacity:1"/>
<path class="bond-15 atom-15 atom-16" d="M 681.885,640.009 L 680.456,644.878" style="fill:none;fill-rule:evenodd;stroke:#CCCC00;stroke-width:2.0px;stroke-linecap:butt;stroke-linejoin:miter;stroke-opacity:1"/>
<path class="bond-15 atom-15 atom-16" d="M 680.456,644.878 L 679.026,649.746" style="fill:none;fill-rule:evenodd;stroke:#0000FF;stroke-width:2.0px;stroke-linecap:butt;stroke-linejoin:miter;stroke-opacity:1"/>
<path class="atom-1" d="M 633.134 628.356 Q 633.134 627.294, 633.659 626.7 Q 634.184 626.106, 635.166 626.106 Q 636.147 626.106, 636.672 626.7 Q 637.197 627.294, 637.197 628.356 Q 637.197 629.431, 636.666 630.044 Q 636.134 630.65, 635.166 630.65 Q 634.191 630.65, 633.659 630.044 Q 633.134 629.438, 633.134 628.356 M 635.166 630.15 Q 635.841 630.15, 636.203 629.7 Q 636.572 629.244, 636.572 628.356 Q 636.572 627.488, 636.203 627.05 Q 635.841 626.606, 635.166 626.606 Q 634.491 626.606, 634.122 627.044 Q 633.759 627.481, 633.759 628.356 Q 633.759 629.25, 634.122 629.7 Q 634.491 630.15, 635.166 630.15 " fill="#FF0000"/>
<path class="atom-6" d="M 613.47 592.893 L 616.101 592.893 L 616.101 593.399 L 614.063 593.399 L 614.063 594.743 L 615.876 594.743 L 615.876 595.256 L 614.063 595.256 L 614.063 597.318 L 613.47 597.318 L 613.47 592.893 " fill="#33CCCC"/>
<path class="atom-8" d="M 639.495 585.525 L 640.095 585.525 L 640.095 587.407 L 642.357 587.407 L 642.357 585.525 L 642.957 585.525 L 642.957 589.95 L 642.357 589.95 L 642.357 587.907 L 640.095 587.907 L 640.095 589.95 L 639.495 589.95 L 639.495 585.525 " fill="#0000FF"/>
<path class="atom-8" d="M 644.176 585.525 L 645.626 587.869 Q 645.769 588.1, 646.001 588.519 Q 646.232 588.938, 646.244 588.963 L 646.244 585.525 L 646.832 585.525 L 646.832 589.95 L 646.226 589.95 L 644.669 587.388 Q 644.488 587.088, 644.294 586.744 Q 644.107 586.4, 644.051 586.294 L 644.051 589.95 L 643.476 589.95 L 643.476 585.525 L 644.176 585.525 " fill="#0000FF"/>
<path class="atom-8" d="M 647.203 586.323 L 647.983 586.323 L 647.983 585.502 L 648.329 585.502 L 648.329 586.323 L 649.13 586.323 L 649.13 586.62 L 648.329 586.62 L 648.329 587.445 L 647.983 587.445 L 647.983 586.62 L 647.203 586.62 L 647.203 586.323 " fill="#0000FF"/>
<path class="atom-15" d="M 679.935 638.371 Q 679.985 638.39, 680.191 638.478 Q 680.398 638.565, 680.623 638.621 Q 680.854 638.671, 681.079 638.671 Q 681.498 638.671, 681.741 638.471 Q 681.985 638.265, 681.985 637.909 Q 681.985 637.665, 681.86 637.515 Q 681.741 637.365, 681.554 637.284 Q 681.366 637.203, 681.054 637.109 Q 680.66 636.99, 680.423 636.878 Q 680.191 636.765, 680.023 636.528 Q 679.86 636.29, 679.86 635.89 Q 679.86 635.334, 680.235 634.99 Q 680.616 634.647, 681.366 634.647 Q 681.879 634.647, 682.46 634.89 L 682.316 635.372 Q 681.785 635.153, 681.385 635.153 Q 680.954 635.153, 680.716 635.334 Q 680.479 635.509, 680.485 635.815 Q 680.485 636.053, 680.604 636.197 Q 680.729 636.34, 680.904 636.422 Q 681.085 636.503, 681.385 636.597 Q 681.785 636.722, 682.023 636.847 Q 682.26 636.972, 682.429 637.228 Q 682.604 637.478, 682.604 637.909 Q 682.604 638.521, 682.191 638.853 Q 681.785 639.178, 681.104 639.178 Q 680.71 639.178, 680.41 639.09 Q 680.116 639.009, 679.766 638.865 L 679.935 638.371 " fill="#CCCC00"/>
<path class="atom-15" d="M 683.135 634.634 L 683.735 634.634 L 683.735 636.515 L 685.998 636.515 L 685.998 634.634 L 686.598 634.634 L 686.598 639.059 L 685.998 639.059 L 685.998 637.015 L 683.735 637.015 L 683.735 639.059 L 683.135 639.059 L 683.135 634.634 " fill="#CCCC00"/>
<path class="atom-16" d="M 675.805 649.626 L 677.255 651.97 Q 677.399 652.201, 677.63 652.62 Q 677.861 653.038, 677.874 653.063 L 677.874 649.626 L 678.461 649.626 L 678.461 654.051 L 677.855 654.051 L 676.299 651.488 Q 676.118 651.188, 675.924 650.845 Q 675.736 650.501, 675.68 650.395 L 675.68 654.051 L 675.105 654.051 L 675.105 649.626 L 675.805 649.626 " fill="#0000FF"/>
<path class="atom-16" d="M 678.993 649.626 L 679.593 649.626 L 679.593 651.507 L 681.855 651.507 L 681.855 649.626 L 682.455 649.626 L 682.455 654.051 L 681.855 654.051 L 681.855 652.007 L 679.593 652.007 L 679.593 654.051 L 678.993 654.051 L 678.993 649.626 " fill="#0000FF"/>
</svg>